<?xml version="1.0" encoding="utf-8"?>
<!-- Generator: Adobe Illustrator 18.0.0, SVG Export Plug-In . SVG Version: 6.00 Build 0)  -->
<!DOCTYPE svg PUBLIC "-//W3C//DTD SVG 1.1//EN" "http://www.w3.org/Graphics/SVG/1.1/DTD/svg11.dtd">
<svg version="1.1" id="Layer_1" xmlns="http://www.w3.org/2000/svg" xmlns:xlink="http://www.w3.org/1999/xlink" x="0px" y="0px"
	 width="128px" height="128px" viewBox="0 0 128 128" enable-background="new 0 0 128 128" xml:space="preserve">
<path d="M114,52.7c0-5.4,0.5-11.2,0-16.7c-0.5-5.5-2.1-10.6-6.2-14.8L94.2,7.9C90.3,3.9,85,2,79.5,2H25.9C22.5,2,19,4.3,19,7.7v96.1
	c4-3.2,16.6-10.6,18-11.5l0.5-0.3c2.8-5,5.9-10.8,9.1-17.2c4.8-9.6,8.5-19.1,11.2-28.1c-1.9-6.4-3.1-12.6-3.4-18.5l0-0.8
	c-0.3-4.2-0.7-11.3,2.9-14c1.1-0.8,2.4-1.3,3.7-1.3c0.7,0,1.4,0.1,2,0.4c2.4,0.8,3.9,3.3,4.3,7.3c0.4,2.2,0.2,4.4,0,6.2
	c-0.4,4.5-1.5,13.1-3.3,20.6c0,0.2,0.2,0.6,0.3,0.9c0.1,0.2,0.1,0.3,0.2,0.5C69,61.1,77.1,70.9,89,77.8c4.5-0.5,8.8-0.8,12.5-0.8
	c3.3,0,7.7,0.1,11.7,1.1c0.2,0.1,0.7,0.1,0.7,0.2C114,69.8,114,61.2,114,52.7z"/>
<path d="M51.7,84.8c7.4-3.3,15.2-5.5,22.8-6.6c1.1-0.1,1.5-1.5,0.7-2.3c-5.5-5-9.5-11-12.2-16.4c-0.5-1-2-0.9-2.4,0.2
	c-2,5.9-4.7,12.1-8.2,18.8c-0.8,1.5-1.6,3-2.4,4.5C49.4,84.1,50.6,85.3,51.7,84.8z"/>
<path d="M40.1,100.1c-0.3,0.5-0.5,0.8-0.7,1.1c-1.7,2.7-3.3,5-4.9,7.1c-1.8,2.4-3.6,4.7-5.7,6.8c-0.8,0.8-1.7,1.6-2.6,2.3
	c-1.1,0.9-2.5,1.4-3.3,2.5c-0.6,0.7-0.8,1.7-0.8,2.6c0.1,1.9,1.6,3.5,3.6,3.5c0,0,0,0,0,0c0,0,0.1,0,0.1,0h78
	c5.3,0,10.1-4.3,10.1-9.6V91.6c0,0-0.9,0.1-1.3,0.1c-5.9,0-14.6-2.4-22.8-6.3c-0.4-0.2-0.9-0.3-1.3-0.3c-1.7-0.2-3.5-0.2-5.2-0.2
	c-2.5,0-5,0.2-7.5,0.5c-1.9,0.3-3.8,0.6-5.7,1C59.9,88.4,49.6,92.9,41.2,99C40.7,99.3,40.4,99.7,40.1,100.1z"/>
</svg>
