<?xml version="1.0" encoding="utf-8"?>
<!-- Generator: Adobe Illustrator 18.0.0, SVG Export Plug-In . SVG Version: 6.00 Build 0)  -->
<!DOCTYPE svg PUBLIC "-//W3C//DTD SVG 1.1//EN" "http://www.w3.org/Graphics/SVG/1.1/DTD/svg11.dtd">
<svg version="1.1" id="Capa_1" xmlns="http://www.w3.org/2000/svg" xmlns:xlink="http://www.w3.org/1999/xlink" x="0px" y="0px"
	 width="128px" height="128px" viewBox="0 0 128 128" enable-background="new 0 0 128 128" xml:space="preserve">
<path d="M58,124.5h12c3.3,0,6-2.7,6-6V76h42.5c3.3,0,6-2.7,6-6V58c0-3.3-2.7-6-6-6H76V9.5c0-3.3-2.7-6-6-6H58c-3.3,0-6,2.7-6,6V52
	H9.5c-3.3,0-6,2.7-6,6v12c0,3.3,2.7,6,6,6H52v42.5C52,121.8,54.7,124.5,58,124.5z"/>
</svg>
