<?xml version="1.0" encoding="utf-8"?>
<!-- Generator: Adobe Illustrator 18.0.0, SVG Export Plug-In . SVG Version: 6.00 Build 0)  -->
<!DOCTYPE svg PUBLIC "-//W3C//DTD SVG 1.1//EN" "http://www.w3.org/Graphics/SVG/1.1/DTD/svg11.dtd">
<svg version="1.1" id="Capa_1" xmlns="http://www.w3.org/2000/svg" xmlns:xlink="http://www.w3.org/1999/xlink" x="0px" y="0px"
	 width="1000px" height="1000px" viewBox="0 0 1000 1000" enable-background="new 0 0 1000 1000" xml:space="preserve">
<path d="M500.1,988.8c62.4,0,113.6-48.3,118.2-109.6H381.9C386.5,940.5,437.6,988.8,500.1,988.8z"/>
<path d="M877.6,768.9c-75.8-83-81-209.3-81.3-234.3V272.7c0-145.3-117.8-263-263-263h-66.6c-145.3,0-263,117.8-263,263v267.5
	c-1.1,34.5-10,150.7-81.2,228.7c-17.6,19.3-4,50.2,22.1,50.2h248.5H607h248.5C881.7,819.2,895.2,788.2,877.6,768.9z"/>
</svg>
