<?xml version="1.0" encoding="utf-8"?>
<!-- Generator: Adobe Illustrator 18.0.0, SVG Export Plug-In . SVG Version: 6.00 Build 0)  -->
<!DOCTYPE svg PUBLIC "-//W3C//DTD SVG 1.1//EN" "http://www.w3.org/Graphics/SVG/1.1/DTD/svg11.dtd">
<svg version="1.1" id="Layer_1" xmlns="http://www.w3.org/2000/svg" xmlns:xlink="http://www.w3.org/1999/xlink" x="0px" y="0px"
	 width="128px" height="128px" viewBox="0 0 128 128" enable-background="new 0 0 128 128" xml:space="preserve">
<path d="M3.2,42.9c0,12.3,10.1,22.2,22.3,22.2c1.1,0,2.4-0.1,3.4-0.3v45.4c0,3.3,2.4,5.7,5.8,5.7h58.5c3.3,0,5.8-2.4,5.8-5.7V93.3
	l15.9,15.1c3.8,3.6,10.1,0.9,10.1-4.3V57.9c0-5.3-6.3-8-10.1-4.3L99,68.7V51.8c0-3.3-2.5-5.8-5.8-5.8H79.4c3.7-4,6-9.4,6-15.3
	c0-12.3-10-22.3-22.2-22.3c-11.1,0-20.3,8.2-22,18.9l0,0c-4-4.1-9.6-6.6-15.8-6.6C13.2,20.7,3.2,30.6,3.2,42.9z M63.2,22.4
	c4.5,0,8.2,3.7,8.2,8.2s-3.7,8.2-8.2,8.2S55,35.2,55,30.6S58.7,22.4,63.2,22.4z M50,74c0-3.9,3.2-7,7-7H70c3.9,0,7,3.2,7,7V87
	c0,3.9-3.2,7-7,7H57c-3.9,0-7-3.2-7-7V74z M33.7,42.8c0,1.1-0.2,2.2-0.6,3.2c0,0,0,0,0,0c-0.8,2-2,3.4-4,4.3v0
	c-1,0.5-2.3,0.8-3.5,0.8c-4.5,0-8.2-3.7-8.2-8.2s3.7-8.2,8.2-8.2C30,34.7,33.7,38.3,33.7,42.8z"/>
</svg>
