<?xml version="1.0" encoding="utf-8"?>
<!-- Generator: Adobe Illustrator 18.0.0, SVG Export Plug-In . SVG Version: 6.00 Build 0)  -->
<!DOCTYPE svg PUBLIC "-//W3C//DTD SVG 1.1//EN" "http://www.w3.org/Graphics/SVG/1.1/DTD/svg11.dtd">
<svg version="1.1" id="Capa_1" xmlns="http://www.w3.org/2000/svg" xmlns:xlink="http://www.w3.org/1999/xlink" x="0px" y="0px"
	 width="1000px" height="1000px" viewBox="0 0 1000 1000" enable-background="new 0 0 1000 1000" xml:space="preserve">
<path d="M892.3,783.1l46.1,14.3c24.9,7.7,48.9-14.4,43.1-39.9l-48.7-215.1c-5.8-25.4-36.9-35.1-56.1-17.4L714.8,674.8
	c-19.2,17.7-12,49.5,13,57.3l42.2,13.1c-25.2,28.9-54.9,53.7-88.1,73.3c-37.6,22.2-78.9,37.3-121.9,44.5V503.8h103.9
	c33.1,0,60-26.9,60-60s-26.9-60-60-60H560v-49.5c64.8-24.4,111-86.9,111-160.1c0-94.3-76.7-171-171-171s-171,76.7-171,171
	c0,73.2,46.2,135.8,111,160.1v49.5H336.1c-33.1,0-60,26.9-60,60s26.9,60,60,60H440V863c-42.9-7.3-84.3-22.3-121.9-44.5
	C285,798.8,255.2,774,230,745.1l42.2-13.1c24.9-7.7,32.1-39.5,13-57.3L123.3,525c-19.2-17.7-50.3-8-56.1,17.4L18.5,757.6
	c-5.8,25.4,18.2,47.6,43.1,39.9l46.1-14.3c39.2,56.2,90.2,103.6,149.3,138.6c73.3,43.4,157.4,66.3,243,66.3s169.6-22.9,243-66.3
	C802.1,886.7,853.1,839.3,892.3,783.1z M551,174.1c0,7.8-1.8,15.2-4.9,21.9c-8.2,17.2-25.8,29.1-46.1,29.1s-37.9-11.9-46.1-29.1
	c-3.2-6.6-4.9-14-4.9-21.9c0-28.1,22.9-51,51-51S551,146,551,174.1z"/>
</svg>
