<?xml version="1.0" encoding="utf-8"?>
<!-- Generator: Adobe Illustrator 18.0.0, SVG Export Plug-In . SVG Version: 6.00 Build 0)  -->
<!DOCTYPE svg PUBLIC "-//W3C//DTD SVG 1.1//EN" "http://www.w3.org/Graphics/SVG/1.1/DTD/svg11.dtd">
<svg version="1.1" id="Capa_1" xmlns="http://www.w3.org/2000/svg" xmlns:xlink="http://www.w3.org/1999/xlink" x="0px" y="0px"
	 width="1000px" height="1000px" viewBox="0 0 1000 1000" enable-background="new 0 0 1000 1000" xml:space="preserve">
<path d="M937.4,882.2V369.1c-3.6,0.3-7.2,0.5-10.8,0.5H73.4c-3.6,0-7.3-0.2-10.8-0.5v513.1c0,33.1,26.9,60,60,60h754.8
	C910.5,942.2,937.4,915.4,937.4,882.2z M700.4,566.8c0,16.6-13.4,30-30,30H329.6c-16.6,0-30-13.4-30-30v-79.6c0-16.6,13.4-30,30-30
	h340.7c16.6,0,30,13.4,30,30V566.8z"/>
<path d="M986.6,249.6v-51.7c0-33.1-26.9-60-60-60H73.4c-33.1,0-60,26.9-60,60v51.7c0,29.4,21.2,53.9,49.2,59c3.5,0.6,7.1,1,10.8,1
	h853.1c3.7,0,7.3-0.4,10.8-1C965.4,303.5,986.6,279,986.6,249.6z"/>
</svg>
