<?xml version="1.0" encoding="utf-8"?>
<!-- Generator: Adobe Illustrator 18.0.0, SVG Export Plug-In . SVG Version: 6.00 Build 0)  -->
<!DOCTYPE svg PUBLIC "-//W3C//DTD SVG 1.1//EN" "http://www.w3.org/Graphics/SVG/1.1/DTD/svg11.dtd">
<svg version="1.1" id="Capa_1" xmlns="http://www.w3.org/2000/svg" xmlns:xlink="http://www.w3.org/1999/xlink" x="0px" y="0px"
	 width="128px" height="128px" viewBox="0 0 128 128" enable-background="new 0 0 128 128" xml:space="preserve">
<path d="M20.2,108.7c5.6,5.4,12.3,9.8,20.1,12.8c7.8,3,16.5,4.6,25.9,4.6c10.5,0,20.2-1.6,28.9-4.9c7.9-2.9,1.1-17.6-4.7-15.2
	c-6.4,2.7-14.2,4.1-23.1,4.1c-7,0-13.4-1.1-19-3.2c-5.6-2.1-10.5-5.1-14.5-9c-4-3.9-7.2-8.7-9.4-14.2c-2.3-5.6-3.4-12-3.4-19
	c0-6.6,1.1-12.9,3.3-18.5c2.2-5.6,5.2-10.6,9.2-14.6c3.9-4.1,8.7-7.4,14.2-9.7c5.5-2.3,11.7-3.5,18.5-3.5c6.3,0,12.1,0.9,17.3,2.5
	c5.1,1.6,9.5,4.1,13.2,7.4c3.7,3.3,6.6,7.3,8.7,12.1c2.1,4.8,3.1,10.4,3.1,16.8c0,3.7-0.4,7.2-1.2,10.5c-0.8,3.1-1.8,5.9-3.2,8.1
	c-1.3,2.1-2.8,3.8-4.6,5c-2.1,1.4-5.2,2.2-7.6,1.4c-3-1-2.4-5.2-2.2-7.7c0.3-3.4,1.2-6.6,1.9-9.9c1.1-5.4,2.3-10.7,3.4-16
	c0.6-2.9,1.3-5.9,1.9-8.8c0.8-3.7-2-7.3-5.9-7.3h-4.4c-2.7,0-5.1,1.8-5.8,4.4c-0.3,1.2-0.6,2.2-0.6,2.2c-2.2-6.8-10.3-8.7-16.7-8.6
	c-8.4,0.1-16.1,4.4-21.7,10.5c-0.5,0.6-1.1,1.2-1.6,1.8c-2.9,3.5-5.1,7.6-6.6,11.9c-1.6,4.6-2.4,9.3-2.4,14.1c0,4.1,0.6,8,1.7,11.5
	c1.2,3.6,2.9,6.7,5.1,9.3c2.2,2.6,5,4.7,8.3,6.2c3.3,1.5,7,2.3,11,2.3c3,0,5.8-0.5,8.3-1.4c2.4-0.9,4.6-2,6.5-3.3
	c1.5-1,2.9-2.2,4-3.3c0.7,1.3,1.5,2.4,2.6,3.5c2.8,3,7.1,4.5,12.8,4.5c4.5,0,8.9-0.9,13-2.7c4.1-1.8,7.8-4.6,10.9-8.2
	c3-3.6,5.5-8,7.3-13.2c1.8-5.2,2.7-11.2,2.7-17.8c0-9-1.7-17-5-23.7c-3.3-6.7-7.8-12.4-13.4-16.9c-5.5-4.5-11.9-7.8-19-10.1
	C81,3.1,73.7,2,66.2,2c-8.7,0-17,1.6-24.7,4.7C33.8,9.9,27,14.3,21.3,19.8c-5.8,5.5-10.4,12.2-13.7,19.7c-3.3,7.5-5,15.9-5,24.7
	c0,8.9,1.5,17.3,4.6,24.8C10.2,96.6,14.6,103.2,20.2,108.7z M74.3,66.7c-0.7,2.7-1.7,5.3-3.1,7.7c-1.4,2.3-3.1,4.2-5.3,5.7
	c-2,1.4-4.4,2.1-7.4,2.1c-1.9,0-3.4-0.4-4.5-1.1c-1.2-0.8-2.2-1.8-2.9-3.1c-0.8-1.4-1.3-2.9-1.6-4.4C49.2,72,49,70.5,49,69.2
	c0-2.8,0.4-5.6,1.2-8.5c0.8-2.8,1.9-5.4,3.4-7.6c1.5-2.2,3.2-4,5.3-5.4c1.9-1.3,4-1.9,6.5-1.9c2,0,3.6,0.3,4.8,1
	c1.2,0.7,2.2,1.6,2.9,2.7c0.8,1.2,1.3,2.6,1.7,4.1c0.4,1.7,0.6,3.5,0.6,5.2C75.3,61.3,75,63.9,74.3,66.7z"/>
</svg>
