<?xml version="1.0" encoding="utf-8"?>
<!-- Generator: Adobe Illustrator 18.0.0, SVG Export Plug-In . SVG Version: 6.00 Build 0)  -->
<!DOCTYPE svg PUBLIC "-//W3C//DTD SVG 1.1//EN" "http://www.w3.org/Graphics/SVG/1.1/DTD/svg11.dtd">
<svg version="1.1" id="Layer_1" xmlns="http://www.w3.org/2000/svg" xmlns:xlink="http://www.w3.org/1999/xlink" x="0px" y="0px"
	 width="128px" height="128px" viewBox="0 0 128 128" enable-background="new 0 0 128 128" xml:space="preserve">
<circle cx="24.6" cy="23.6" r="22.5"/>
<path d="M113,46c0,0-55.4,0-55.4,0c-6.5,0-11.4,4.9-11.4,11.4l0,55.3c0,6.5,5,11.7,11.4,11.7c6.3,0,11.3-5.7,11.3-11.8l0-27
	c0,0,37.1,37.2,37.2,37.2c2.3,2.3,5.4,3.5,8.6,3.4c7.7-0.2,13.6-8.2,11.5-15.6c-0.5-1.9-1.6-3.6-2.9-5L86,68.6c0,0,27,0,27,0
	c6.1,0,11.8-5,11.8-11.3C124.7,50.9,119.5,46,113,46z"/>
</svg>
