<?xml version="1.0" encoding="utf-8"?>
<!-- Generator: Adobe Illustrator 18.0.0, SVG Export Plug-In . SVG Version: 6.00 Build 0)  -->
<!DOCTYPE svg PUBLIC "-//W3C//DTD SVG 1.1//EN" "http://www.w3.org/Graphics/SVG/1.1/DTD/svg11.dtd">
<svg version="1.1" id="Capa_1" xmlns="http://www.w3.org/2000/svg" xmlns:xlink="http://www.w3.org/1999/xlink" x="0px" y="0px"
	 width="1000px" height="1000px" viewBox="0 0 1000 1000" enable-background="new 0 0 1000 1000" xml:space="preserve">
<path d="M698.6,795.4c17.6,17.6,40.6,26.4,63.6,26.4s46.1-8.8,63.6-26.4c35.1-35.1,35.1-92.1,0-127.3L655.4,497.5L821,331.9
	c35.1-35.1,35.1-92.1,0-127.3c-35.1-35.1-92.1-35.1-127.3,0L464.4,433.9c-35.1,35.1-35.1,92.1,0,127.3L698.6,795.4z"/>
<path d="M237.7,978.1c49.7,0,90-40.3,90-90V111.9c0-49.7-40.3-90-90-90s-90,40.3-90,90v776.2C147.7,937.8,188,978.1,237.7,978.1z"/>
</svg>
