<?xml version="1.0" encoding="utf-8"?>
<!-- Generator: Adobe Illustrator 18.0.0, SVG Export Plug-In . SVG Version: 6.00 Build 0)  -->
<!DOCTYPE svg PUBLIC "-//W3C//DTD SVG 1.1//EN" "http://www.w3.org/Graphics/SVG/1.1/DTD/svg11.dtd">
<svg version="1.1" id="Capa_1" xmlns="http://www.w3.org/2000/svg" xmlns:xlink="http://www.w3.org/1999/xlink" x="0px" y="0px"
	 width="1000px" height="1000px" viewBox="0 0 1000 1000" enable-background="new 0 0 1000 1000" xml:space="preserve">
<path d="M941,765.3H67.2c-27.6,0-50,22.4-50,50s22.4,50,50,50H941c27.6,0,50-22.4,50-50S968.6,765.3,941,765.3z"/>
<path d="M925,122.6H726.7c-31.8,0-57.5,25.7-57.5,57.5s25.7,57.5,57.5,57.5H799L648.7,364.4c-2.3,2-5.3,3.1-8.4,3.1H400.5
	c-26.9,0-53,9.6-73.4,27.2L34.6,645.3c-21,18-23.4,49.5-5.4,70.5c9.9,11.5,23.9,17.5,38,17.5c11.5,0,23.1-4,32.5-12l292.4-250.7
	c2.3-2,5.3-3.1,8.4-3.1h239.8c26.9,0,53-9.6,73.4-27.2l153.7-129.6v68.8c0,31.8,25.7,57.5,57.5,57.5s57.5-25.7,57.5-57.5V180.1
	C982.5,148.4,956.8,122.6,925,122.6z"/>
</svg>
