<?xml version="1.0" encoding="utf-8"?>
<!-- Generator: Adobe Illustrator 18.0.0, SVG Export Plug-In . SVG Version: 6.00 Build 0)  -->
<!DOCTYPE svg PUBLIC "-//W3C//DTD SVG 1.1//EN" "http://www.w3.org/Graphics/SVG/1.1/DTD/svg11.dtd">
<svg version="1.1" id="Capa_1" xmlns="http://www.w3.org/2000/svg" xmlns:xlink="http://www.w3.org/1999/xlink" x="0px" y="0px"
	 width="1000px" height="1000px" viewBox="0 0 1000 1000" enable-background="new 0 0 1000 1000" xml:space="preserve">
<path d="M632.2,1.5H281.4c-76.7,0-139.1,63.6-139.1,141.7v708.7c0,78.1,62.4,141.7,139.1,141.7h208.3c76.7,0,139.1-63.6,139.1-141.7
	V348.2c0-62.2-49.8-112.8-111.1-112.8H394.4c-61.2,0-111.1,50.6-111.1,112.8v247.5c0,30.4,24.6,55,55,55s55-24.6,55-55V348.2
	c0-1.8,1-2.6,1.3-2.8h122.9c0.3,0.2,1.3,1.1,1.3,2.8v503.7c0,17.2-13.3,31.7-29.1,31.7H281.4c-15.8,0-29.1-14.5-29.1-31.7V143.2
	c0-17.2,13.3-31.7,29.1-31.7h350.8c15.8,0,29.1,14.5,29.1,31.7v648c0,30.4,24.6,55,55,55s55-24.6,55-55v-648
	C771.3,65.1,708.9,1.5,632.2,1.5z"/>
</svg>
