<?xml version="1.0" encoding="utf-8"?>
<!-- Generator: Adobe Illustrator 18.0.0, SVG Export Plug-In . SVG Version: 6.00 Build 0)  -->
<!DOCTYPE svg PUBLIC "-//W3C//DTD SVG 1.1//EN" "http://www.w3.org/Graphics/SVG/1.1/DTD/svg11.dtd">
<svg version="1.1" id="Capa_1" xmlns="http://www.w3.org/2000/svg" xmlns:xlink="http://www.w3.org/1999/xlink" x="0px" y="0px"
	 width="128px" height="128px" viewBox="0 0 128 128" enable-background="new 0 0 128 128" xml:space="preserve">
<path d="M9,90.7h7.2c2.1,0,4,1.3,4.7,3.3l8.2,23c0.9,2.4,3.1,4,5.7,4h5.9c4.1,0,7-4.1,5.7-8l-5.6-15.6c-1.2-3.3,1.3-6.7,4.7-6.7
	h26.2c1.1,0,2.1,0.3,3,0.8l41.4,24.2c4,2.3,9-0.5,9-5.2V12.9c0-4.6-5-7.5-9-5.2L74.7,32c-0.9,0.5-2,0.8-3,0.8H9c-3.3,0-6,2.7-6,6
	v45.9C3,88,5.7,90.7,9,90.7z"/>
</svg>
