<?xml version="1.0" encoding="utf-8"?>
<!-- Generator: Adobe Illustrator 18.0.0, SVG Export Plug-In . SVG Version: 6.00 Build 0)  -->
<!DOCTYPE svg PUBLIC "-//W3C//DTD SVG 1.1//EN" "http://www.w3.org/Graphics/SVG/1.1/DTD/svg11.dtd">
<svg version="1.1" id="Capa_1" xmlns="http://www.w3.org/2000/svg" xmlns:xlink="http://www.w3.org/1999/xlink" x="0px" y="0px"
	 width="1000px" height="1000px" viewBox="0 0 1000 1000" enable-background="new 0 0 1000 1000" xml:space="preserve">
<path d="M976.4,125.1c-8.2-8.7-19.9-14.2-32.8-14.2h-22c-24.9,0-45,20.1-45,45v3v682.2v2.9c0,24.9,20.1,45,45,45h22
	c12.9,0,24.6-5.5,32.8-14.2c1.7-1.9,3.3-3.8,4.7-6c4.7-7.1,7.5-15.6,7.5-24.8V155.9c0-9.2-2.8-17.7-7.5-24.8
	C979.7,129,978.1,127,976.4,125.1z"/>
<path d="M83.1,372.5h-22c-24.9,0-45,20.1-45,45v165.1c0,24.9,20.1,45,45,45h22c22.9,0,41.8-17.2,44.6-39.3l85,28.7
	c-0.7,6.4-1,13-1,19.6c0,102.4,83.3,185.8,185.8,185.8c67.2,0,126.1-35.8,158.7-89.4l260.3,87.9V179.2l-688.8,233
	C125.1,389.8,106.1,372.5,83.1,372.5z M397.5,742.3c-55.9,0-101.8-43.6-105.5-98.6l185,62.5C457.6,728.3,429.1,742.3,397.5,742.3z"
	/>
</svg>
