<?xml version="1.0" encoding="utf-8"?>
<!-- Generator: Adobe Illustrator 18.0.0, SVG Export Plug-In . SVG Version: 6.00 Build 0)  -->
<!DOCTYPE svg PUBLIC "-//W3C//DTD SVG 1.1//EN" "http://www.w3.org/Graphics/SVG/1.1/DTD/svg11.dtd">
<svg version="1.1" id="Capa_1" xmlns="http://www.w3.org/2000/svg" xmlns:xlink="http://www.w3.org/1999/xlink" x="0px" y="0px"
	 width="1000px" height="1000px" viewBox="0 0 1000 1000" enable-background="new 0 0 1000 1000" xml:space="preserve">
<path d="M887.8,407.5H632.6l75.6-75.6c35.1-35.1,35.1-92.1,0-127.3c-35.1-35.1-92.1-35.1-127.3,0c0,0-229.3,229.3-229.3,229.3
	c-21.6,22.6-32.2,55.3-23.6,85.9c2.3,8.3,5.8,17.5,10.5,24.8c3.9,6,8.4,11.2,13.1,16.6l234.2,234.2c17.6,17.6,40.6,26.4,63.6,26.4
	s46.1-8.8,63.6-26.4c35.1-35.1,35.1-92.1,0-127.3l-80.6-80.6h255.1c49.7,0,90-40.3,90-90S937.5,407.5,887.8,407.5z"/>
<path d="M125,21.9c-49.7,0-90,40.3-90,90v776.2c0,49.7,40.3,90,90,90s90-40.3,90-90V111.9C215,62.2,174.7,21.9,125,21.9z"/>
</svg>
