<?xml version="1.0" encoding="utf-8"?>
<!-- Generator: Adobe Illustrator 18.0.0, SVG Export Plug-In . SVG Version: 6.00 Build 0)  -->
<!DOCTYPE svg PUBLIC "-//W3C//DTD SVG 1.1//EN" "http://www.w3.org/Graphics/SVG/1.1/DTD/svg11.dtd">
<svg version="1.1" id="Capa_1" xmlns="http://www.w3.org/2000/svg" xmlns:xlink="http://www.w3.org/1999/xlink" x="0px" y="0px"
	 width="1000px" height="1000px" viewBox="0 0 1000 1000" enable-background="new 0 0 1000 1000" xml:space="preserve">
<path d="M717,72.6C658.6,28.9,581.5,4.9,500,4.9c-81.5,0-158.6,24-217,67.7c-29.5,22.1-52.9,48-69.4,77.2c-2.5,4.4-4.8,8.9-7,13.4
	H135c-33.1,0-60,26.9-60,60v101.6h127.3h91.6h412.3h91.6H925V223.1c0-33.1-26.9-60-60-60h-71.7c-2.1-4.5-4.5-9-7-13.4
	C769.9,120.6,746.5,94.6,717,72.6z M302,163.1c8.3-9.4,17.9-18.2,29-26.5c44.7-33.4,104.7-51.8,169.1-51.8
	c64.3,0,124.4,18.4,169.1,51.8c11,8.2,20.7,17.1,29,26.5H302z"/>
<path d="M925,384.7H760.5H629.9H370.1H239.5H75l-26.9,539c-1.7,34.3,25.6,63,59.9,63h783.9c34.3,0,61.6-28.7,59.9-63L925,384.7z"/>
</svg>
