<?xml version="1.0" encoding="utf-8"?>
<!-- Generator: Adobe Illustrator 18.0.0, SVG Export Plug-In . SVG Version: 6.00 Build 0)  -->
<!DOCTYPE svg PUBLIC "-//W3C//DTD SVG 1.1//EN" "http://www.w3.org/Graphics/SVG/1.1/DTD/svg11.dtd">
<svg version="1.1" id="Layer_1" xmlns="http://www.w3.org/2000/svg" xmlns:xlink="http://www.w3.org/1999/xlink" x="0px" y="0px"
	 width="128px" height="128px" viewBox="0 0 128 128" enable-background="new 0 0 128 128" xml:space="preserve">
<path d="M57.5,86H21.7c-0.8,0-1.7,0.5-1.7,1.4v36.8c0,0.8,0.9,1.8,1.7,1.8h35.8c0.8,0,1.5-1,1.5-1.8V87.4C59,86.5,58.4,86,57.5,86z"
	/>
<path d="M70.5,86h35.8c0.8,0,1.7,0.5,1.7,1.4v36.8c0,0.8-0.9,1.8-1.7,1.8H70.5c-0.8,0-1.5-1-1.5-1.8V87.4C69,86.5,69.6,86,70.5,86z"
	/>
<path d="M106.3,38h-4.6c-1.6,0-1.7-1.6-0.9-2.5c0.3-0.3,0.5-0.6,0.7-0.9c0.5-0.6,0.9-1.2,1.3-1.8c1-1.6,1.8-3.3,2.3-5
	c0.5-1.7,0.8-3.5,0.9-5.4c0.1-1.8-0.1-3.6-0.5-5.4c-0.4-1.8-1-3.5-1.9-5.1c-0.9-1.6-2-3.1-3.3-4.4c-3.7-3.7-8.9-5.9-14.3-5.9
	c-3.6,0-7.1,1-10.1,2.8c-6,3.6-8.7,9.9-10.6,15.8c-0.2,0.7-0.8,1-1.4,1c-0.6,0-1.2-0.3-1.4-1C60.7,14.3,58,8,52,4.5
	c-3.1-1.8-6.5-2.8-10.1-2.8c-5.4,0-10.5,2.1-14.3,5.9c-1.3,1.3-2.4,2.8-3.3,4.4c-0.9,1.6-1.5,3.3-1.9,5.1c-0.4,1.8-0.6,3.6-0.5,5.4
	c0.1,1.8,0.4,3.6,0.9,5.4c0.5,1.8,1.3,3.5,2.3,5c0.4,0.6,0.9,1.3,1.3,1.8c0.2,0.3,0.5,0.6,0.7,0.9c0.9,1,0.7,2.5-0.9,2.5h-4.6
	c-0.8,0-1.7,0.8-1.7,1.6v34.8c0,0.8,0.9,1.5,1.7,1.5h35.8c0.8,0,1.5-0.7,1.5-1.5V49.6v-0.8v-1.2v-8c0-0.8,0.7-1.6,1.5-1.6h0.6H64
	h2.9h0.6c0.8,0,1.5,0.8,1.5,1.6v8v1.2v0.8v24.8c0,0.8,0.6,1.5,1.5,1.5h35.8c0.8,0,1.7-0.7,1.7-1.5V39.6C108,38.8,107.1,38,106.3,38z
	 M53.5,33.1c-0.4,0.5-1,0.7-1.6,0.5c-0.8-0.2-1.7-0.4-2.5-0.7c-4.6-1.2-10.3-2.6-12.9-5.1c-0.1-0.1-0.2-0.2-0.2-0.2
	c-3.2-3.3-3.3-8.6-0.2-11.7c1.5-1.5,3.7-2.4,5.9-2.4c1.5,0,2.9,0.4,4.1,1.1C49.9,17,51.6,23.7,53,29c0.2,0.7,0.4,1.5,0.6,2.2
	C53.8,31.9,54,32.5,53.5,33.1z M91.8,27.7c-0.1,0.1-0.1,0.2-0.2,0.2c-2.6,2.5-8.3,4-12.9,5.1c-0.9,0.2-1.7,0.4-2.5,0.7
	c-0.6,0.2-1.2-0.1-1.6-0.5c-0.5-0.6-0.3-1.3-0.1-1.9c0.2-0.7,0.4-1.4,0.6-2.2c1.4-5.4,3.1-12.1,6.9-14.3c1.2-0.7,2.7-1.1,4.1-1.1
	c2.2,0,4.4,0.9,5.9,2.4C95,19.1,94.9,24.3,91.8,27.7z"/>
</svg>
