<?xml version="1.0" encoding="utf-8"?>
<!-- Generator: Adobe Illustrator 18.0.0, SVG Export Plug-In . SVG Version: 6.00 Build 0)  -->
<!DOCTYPE svg PUBLIC "-//W3C//DTD SVG 1.1//EN" "http://www.w3.org/Graphics/SVG/1.1/DTD/svg11.dtd">
<svg version="1.1" id="Capa_1" xmlns="http://www.w3.org/2000/svg" xmlns:xlink="http://www.w3.org/1999/xlink" x="0px" y="0px"
	 width="1000px" height="1000px" viewBox="0 0 1000 1000" enable-background="new 0 0 1000 1000" xml:space="preserve">
<path d="M537.3,50.7c0-22.1-17.9-40-40-40s-40,17.9-40,40v32.7h80V50.7z"/>
<path d="M975.9,200.3c0-33.1-26.9-60-60-60H77.7c-33.1,0-60,26.9-60,60v442.5c0,33.1,26.9,60,60,60h838.2c33.1,0,60-26.9,60-60
	V200.3z"/>
<path d="M891.8,802.7c0-21-16.1-38.2-36.7-39.9c-1.1-0.1-2.2-0.1-3.3-0.1H725.8H635h-97.7h-80h-98.7h-90.9H141.8
	c-1.1,0-2.2,0.1-3.3,0.1c-20.5,1.7-36.7,18.9-36.7,39.9c0,22.1,17.9,40,40,40h82.9l-50.1,93c-10.5,19.5-3.2,43.7,16.3,54.2
	c6,3.2,12.5,4.8,18.9,4.8c14.2,0,28-7.6,35.3-21l70.5-131h141.8v112c0,22.1,17.9,40,40,40s40-17.9,40-40v-112h140.8l70.5,131
	c7.2,13.4,21,21,35.3,21c6.4,0,12.9-1.5,18.9-4.8c19.5-10.5,26.7-34.7,16.3-54.2l-50.1-93h82.9C873.9,842.7,891.8,824.7,891.8,802.7
	z"/>
</svg>
