<?xml version="1.0" encoding="utf-8"?>
<!-- Generator: Adobe Illustrator 18.0.0, SVG Export Plug-In . SVG Version: 6.00 Build 0)  -->
<!DOCTYPE svg PUBLIC "-//W3C//DTD SVG 1.1//EN" "http://www.w3.org/Graphics/SVG/1.1/DTD/svg11.dtd">
<svg version="1.1" id="Capa_1" xmlns="http://www.w3.org/2000/svg" xmlns:xlink="http://www.w3.org/1999/xlink" x="0px" y="0px"
	 width="1000px" height="1000px" viewBox="0 0 1000 1000" enable-background="new 0 0 1000 1000" xml:space="preserve">
<path d="M761,22H239c-16.6,0-30,13.4-30,30v896c0,16.6,13.4,30,30,30h522c16.6,0,30-13.4,30-30V52C791,35.4,777.6,22,761,22z
	 M323,138.5h223.6c12.4,0,22.5,10.1,22.5,22.5s-10.1,22.5-22.5,22.5H323c-12.4,0-22.5-10.1-22.5-22.5S310.6,138.5,323,138.5z
	 M677,564.2H323c-12.4,0-22.5-10.1-22.5-22.5s10.1-22.5,22.5-22.5h354c12.4,0,22.5,10.1,22.5,22.5S689.4,564.2,677,564.2z
	 M300.5,414.8c0-12.4,10.1-22.5,22.5-22.5h255c12.4,0,22.5,10.1,22.5,22.5s-10.1,22.5-22.5,22.5H323
	C310.6,437.3,300.5,427.2,300.5,414.8z M677,310.4H323c-12.4,0-22.5-10.1-22.5-22.5s10.1-22.5,22.5-22.5h354
	c12.4,0,22.5,10.1,22.5,22.5S689.4,310.4,677,310.4z"/>
<path d="M965.3,22h-77.7c-16.6,0-30,13.4-30,30v896c0,16.6,13.4,30,30,30h77.7c16.6,0,30-13.4,30-30V52
	C995.3,35.4,981.9,22,965.3,22z"/>
<path d="M112.3,22H34.7c-16.6,0-30,13.4-30,30v896c0,16.6,13.4,30,30,30h77.7c16.6,0,30-13.4,30-30V52C142.3,35.4,128.9,22,112.3,22
	z"/>
</svg>
