<?xml version="1.0" encoding="utf-8"?>
<!-- Generator: Adobe Illustrator 18.0.0, SVG Export Plug-In . SVG Version: 6.00 Build 0)  -->
<!DOCTYPE svg PUBLIC "-//W3C//DTD SVG 1.1//EN" "http://www.w3.org/Graphics/SVG/1.1/DTD/svg11.dtd">
<svg version="1.1" id="Capa_1" xmlns="http://www.w3.org/2000/svg" xmlns:xlink="http://www.w3.org/1999/xlink" x="0px" y="0px"
	 width="1000px" height="1000px" viewBox="0 0 1000 1000" enable-background="new 0 0 1000 1000" xml:space="preserve">
<path d="M976.7,591V72c0-33.1-26.9-60-60-60h-840c-33.1,0-60,26.9-60,60v519c0,33.1,26.9,60,60,60h840
	C949.9,651,976.7,624.2,976.7,591z"/>
<path d="M67.7,818h716c28.2,0,51-22.8,51-51c0-28.2-22.8-51-51-51h-716c-28.2,0-51,22.8-51,51C16.7,795.1,39.5,818,67.7,818z"/>
<path d="M67.7,996h590.2c28.2,0,51-22.8,51-51c0-28.2-22.8-51-51-51H67.7c-28.2,0-51,22.8-51,51C16.7,973.2,39.5,996,67.7,996z"/>
</svg>
