<?xml version="1.0" encoding="utf-8"?>
<!-- Generator: Adobe Illustrator 18.0.0, SVG Export Plug-In . SVG Version: 6.00 Build 0)  -->
<!DOCTYPE svg PUBLIC "-//W3C//DTD SVG 1.1//EN" "http://www.w3.org/Graphics/SVG/1.1/DTD/svg11.dtd">
<svg version="1.1" id="Capa_1" xmlns="http://www.w3.org/2000/svg" xmlns:xlink="http://www.w3.org/1999/xlink" x="0px" y="0px"
	 width="128px" height="128px" viewBox="0 0 128 128" enable-background="new 0 0 128 128" xml:space="preserve">
<path d="M25.4,45.8c-0.1,0-0.1,0-0.2,0V119c0,3.3,2.7,6,6,6h65.5c3.3,0,6-2.7,6-6c0,0-0.1-73.2-0.2-73.2H25.4z M46.6,104.3
	c0,2.8-2.2,5-5,5s-5-2.2-5-5V65.7c0-2.8,2.2-5,5-5s5,2.2,5,5V104.3z M69,104.3c0,2.8-2.2,5-5,5s-5-2.2-5-5V65.7c0-2.8,2.2-5,5-5
	s5,2.2,5,5V104.3z M91.4,104.3c0,2.8-2.2,5-5,5s-5-2.2-5-5V65.7c0-2.8,2.2-5,5-5s5,2.2,5,5V104.3z"/>
<path d="M102.6,21.4h-5.4l-5.4,0c-1.7,0-3-1.3-3-3V7.5c0-3.4-2.8-6.2-6.2-6.2H45.4c-3.4,0-6.2,2.8-6.2,6.2v10.8c0,1.7-1.3,3-3,3
	l-5.4,0h-5.4c-3.4,0-6.2,2.8-6.2,6.2v2.1c0,3.4,2.7,6.1,6,6.2c0.1,0,0.1,0,0.2,0h77.1c0.1,0,0.1,0,0.2,0c3.3-0.1,6-2.8,6-6.2v-2.1
	C108.8,24.1,106,21.4,102.6,21.4z M78.5,21.3L78.5,21.3l-28.9,0v0v-6.6c0-1.7,1.4-3.1,3.1-3.1h22.7c1.7,0,3.1,1.4,3.1,3.1V21.3z"/>
</svg>
