<?xml version="1.0" encoding="utf-8"?>
<!-- Generator: Adobe Illustrator 18.0.0, SVG Export Plug-In . SVG Version: 6.00 Build 0)  -->
<!DOCTYPE svg PUBLIC "-//W3C//DTD SVG 1.1//EN" "http://www.w3.org/Graphics/SVG/1.1/DTD/svg11.dtd">
<svg version="1.1" id="Capa_1" xmlns="http://www.w3.org/2000/svg" xmlns:xlink="http://www.w3.org/1999/xlink" x="0px" y="0px"
	 width="1000px" height="1000px" viewBox="0 0 1000 1000" enable-background="new 0 0 1000 1000" xml:space="preserve">
<path d="M852.1,540.2V318.8c0-28.6-11.3-54.4-33.5-76.7L650.8,88.4l-0.1-0.1c-0.9-0.9-1.4-1.9-1.8-2.8l-0.4-37.1
	c0-16.5-13.5-30-30-30H223.8c-16.5,0-30,13.5-30,30v32.2l-1.7,1.5c-25.8,22.1-29.6,65.4-29.6,89.2c0,0,0,474.3,0,474.8
	c0,25.3,22.8,38.2,45.8,38.5c23.4,0.3,47.1-12.4,47.1-38.5v-47.5c0-12.8,8.6-22.1,20.4-22.1c11.8,0,20.4,9.3,20.4,22.1
	c0,0,0,86.1,0,86.6c0,51.9,103.2,52,103.2,0v-86.7c0-12.8,8.6-22.1,20.4-22.1c11.8,0,20.4,9.3,20.4,22.1c0,0,0,111.6,0,112.3
	c0,52.6,103.2,50.7,103.2,0V598.6c0-12.8,8.6-22.1,20.4-22.1s20.4,9.3,20.4,22.1v347.5c0,52.6,103.2,51.2,103.2,0V394.7
	c0-24.8,13.7-39.6,36.6-39.6c21.7,0,35.2,15.4,35.2,40.1c0,0,0,143.7,0,145C759.2,592.6,852.1,592.5,852.1,540.2z"/>
</svg>
