<?xml version="1.0" encoding="utf-8"?>
<!-- Generator: Adobe Illustrator 18.0.0, SVG Export Plug-In . SVG Version: 6.00 Build 0)  -->
<!DOCTYPE svg PUBLIC "-//W3C//DTD SVG 1.1//EN" "http://www.w3.org/Graphics/SVG/1.1/DTD/svg11.dtd">
<svg version="1.1" id="Capa_1" xmlns="http://www.w3.org/2000/svg" xmlns:xlink="http://www.w3.org/1999/xlink" x="0px" y="0px"
	 width="1000px" height="1000px" viewBox="0 0 1000 1000" enable-background="new 0 0 1000 1000" xml:space="preserve">
<path d="M948,209H52c-16.6,0-30,13.4-30,30v522c0,16.6,13.4,30,30,30h896c16.6,0,30-13.4,30-30V239C978,222.4,964.6,209,948,209z
	 M198,291.5h382c12.4,0,22.5,10.1,22.5,22.5s-10.1,22.5-22.5,22.5H198c-12.4,0-22.5-10.1-22.5-22.5S185.6,291.5,198,291.5z
	 M198,415.5h522c12.4,0,22.5,10.1,22.5,22.5s-10.1,22.5-22.5,22.5H198c-12.4,0-22.5-10.1-22.5-22.5S185.6,415.5,198,415.5z
	 M198,539.5h454c12.4,0,22.5,10.1,22.5,22.5s-10.1,22.5-22.5,22.5H198c-12.4,0-22.5-10.1-22.5-22.5S185.6,539.5,198,539.5z
	 M802,708.5H198c-12.4,0-22.5-10.1-22.5-22.5s10.1-22.5,22.5-22.5h604c12.4,0,22.5,10.1,22.5,22.5S814.4,708.5,802,708.5z"/>
<path d="M948,857.7H52c-16.6,0-30,13.4-30,30v77.7c0,16.6,13.4,30,30,30h896c16.6,0,30-13.4,30-30v-77.7
	C978,871.1,964.6,857.7,948,857.7z"/>
<path d="M948,4.7H52c-16.6,0-30,13.4-30,30v77.7c0,16.6,13.4,30,30,30h896c16.6,0,30-13.4,30-30V34.7C978,18.1,964.6,4.7,948,4.7z"
	/>
</svg>
