<?xml version="1.0" encoding="utf-8"?>
<!-- Generator: Adobe Illustrator 18.0.0, SVG Export Plug-In . SVG Version: 6.00 Build 0)  -->
<!DOCTYPE svg PUBLIC "-//W3C//DTD SVG 1.1//EN" "http://www.w3.org/Graphics/SVG/1.1/DTD/svg11.dtd">
<svg version="1.1" id="Layer_1" xmlns="http://www.w3.org/2000/svg" xmlns:xlink="http://www.w3.org/1999/xlink" x="0px" y="0px"
	 width="128px" height="128px" viewBox="0 0 128 128" enable-background="new 0 0 128 128" xml:space="preserve">
<path d="M39.9,122.7L58,92.7c2.7-4.4,9.1-4.4,11.8,0l18.2,29.9c3.6,6,12.9,3.4,12.9-3.6V8.9c0-3.8-3.3-6.9-7.1-6.9H34.1
	C30.3,2,27,5.1,27,8.9v110.2C27,126.1,36.3,128.6,39.9,122.7z M46.5,29h8.7c1.3,0,2.4-0.6,2.8-1.9l3-9c0.9-2.7,4.8-2.7,5.7,0l3,9
	c0.4,1.2,1.6,1.9,2.8,1.9h8.8c2.9,0,4.1,3.8,1.8,5.6l-7.6,6c-1,0.8-1.4,2.1-1,3.3l2.9,9.3c0.9,2.8-2.4,5.1-4.7,3.3L65.9,51
	c-1.1-0.8-2.6-0.8-3.7,0l-7.1,5.5c-2.3,1.8-5.6-0.5-4.7-3.3l2.9-9.4c0.4-1.2,0-2.5-1-3.3l-7.6-6C42.4,32.8,43.7,29,46.5,29z"/>
</svg>
