<?xml version="1.0" encoding="utf-8"?>
<!-- Generator: Adobe Illustrator 18.0.0, SVG Export Plug-In . SVG Version: 6.00 Build 0)  -->
<!DOCTYPE svg PUBLIC "-//W3C//DTD SVG 1.1//EN" "http://www.w3.org/Graphics/SVG/1.1/DTD/svg11.dtd">
<svg version="1.1" id="Capa_1" xmlns="http://www.w3.org/2000/svg" xmlns:xlink="http://www.w3.org/1999/xlink" x="0px" y="0px"
	 width="128px" height="128px" viewBox="0 0 128 128" enable-background="new 0 0 128 128" xml:space="preserve">
<path d="M39.2,126.1l6-6.3c1.2-1.2,3.2-1.2,4.3,0l6,6.3c1.9,2,5.2,0.6,5.2-2.1v-11.4h48.6c1.4,0,2.9-0.5,3.9-1.6
	c1.6-1.8,1.7-4.4,0.4-6.3c-1.2-1.7-2-4-2.3-6c-0.3-2-0.2-4,0.4-6c0.7-2.2,2.8-4.3,2.8-6.6c0,0,0-78.4,0-78.4c0-3.3-2.7-6-6-6h-89
	c-3.3,0-6,2.7-6,6V86v20.6c0,3.3,2.7,6,6,6H34V124C34,126.7,37.3,128,39.2,126.1z M33.4,14.8c0-1.7,1.3-3,3-3h65c1.7,0,3,1.3,3,3V78
	c0,1.7-1.3,3-3,3h-65c-1.7,0-3-1.3-3-3V14.8z M26.5,102.6c-1.7,0-3-1.3-3-3V94c0-1.7,1.3-3,3-3h75.2c-1.1,4.3-0.7,8.4,0.2,11.6H60.7
	v-6.3H34v6.3H26.5z"/>
<path d="M44.2,31.3h6.3c1.7,0,3-1.3,3-3V22c0-1.7-1.3-3-3-3h-6.3c-1.7,0-3,1.3-3,3v6.3C41.2,30,42.5,31.3,44.2,31.3z"/>
<path d="M44.2,53h6.3c1.7,0,3-1.3,3-3v-6.3c0-1.7-1.3-3-3-3h-6.3c-1.7,0-3,1.3-3,3V50C41.2,51.6,42.5,53,44.2,53z"/>
<path d="M44.2,74.6h6.3c1.7,0,3-1.3,3-3v-6.3c0-1.7-1.3-3-3-3h-6.3c-1.7,0-3,1.3-3,3v6.3C41.2,73.2,42.5,74.6,44.2,74.6z"/>
</svg>
