<?xml version="1.0" encoding="utf-8"?>
<!-- Generator: Adobe Illustrator 18.0.0, SVG Export Plug-In . SVG Version: 6.00 Build 0)  -->
<!DOCTYPE svg PUBLIC "-//W3C//DTD SVG 1.1//EN" "http://www.w3.org/Graphics/SVG/1.1/DTD/svg11.dtd">
<svg version="1.1" id="Capa_1" xmlns="http://www.w3.org/2000/svg" xmlns:xlink="http://www.w3.org/1999/xlink" x="0px" y="0px"
	 width="1000px" height="1000px" viewBox="0 0 1000 1000" enable-background="new 0 0 1000 1000" xml:space="preserve">
<path d="M989.8,101.5c0-34.5-29-61.8-63.5-59.9C721.1,53,610.5,119.2,553.4,174c-11.7,11.3-18.3,26.9-18.3,43.1v635.1
	c0,24.8,28.4,38.9,48.2,23.9c63.8-48.7,171.7-98.5,349.6-107.3c31.9-1.6,56.9-28,56.9-59.9V101.5z"/>
<path d="M64.3,768.8c177.9,8.8,285.8,58.5,349.6,107.3c19.7,15.1,48.2,1,48.2-23.9V217.1c0-16.3-6.6-31.9-18.3-43.1
	C386.7,119.2,276.1,53,71,41.6C36.5,39.6,7.5,66.9,7.5,101.5v607.5C7.5,740.8,32.5,767.3,64.3,768.8z"/>
</svg>
