<?xml version="1.0" encoding="utf-8"?>
<!-- Generator: Adobe Illustrator 18.0.0, SVG Export Plug-In . SVG Version: 6.00 Build 0)  -->
<!DOCTYPE svg PUBLIC "-//W3C//DTD SVG 1.1//EN" "http://www.w3.org/Graphics/SVG/1.1/DTD/svg11.dtd">
<svg version="1.1" id="Capa_1" xmlns="http://www.w3.org/2000/svg" xmlns:xlink="http://www.w3.org/1999/xlink" x="0px" y="0px"
	 width="1000px" height="1000px" viewBox="0 0 1000 1000" enable-background="new 0 0 1000 1000" xml:space="preserve">
<path d="M132.6,75.8H88c-33.1,0-60,26.9-60,60V920c0,33.1,26.9,60,60,60h824c33.1,0,60-26.9,60-60V135.8c0-33.1-26.9-60-60-60H587.2
	c0,0.3,0,0.5,0,0.8v420.3c0,25.6-10.2,49.2-28.8,66.5c-17,15.8-39.2,24.5-62.4,24.5c-12.4,0-24.4-2.5-35.7-7.3
	c-11.9-5.1-22.4-12.6-31.2-22.3l-69.2-75.6l-69.2,75.6c-8.9,9.7-19.4,17.2-31.2,22.3c-11.3,4.9-23.3,7.3-35.7,7.3
	c-23.2,0-45.4-8.7-62.4-24.5c-18.6-17.3-28.8-40.9-28.8-66.5V76.6C132.6,76.3,132.6,76,132.6,75.8z"/>
<path d="M246.5,517.7l90.6-99.1c6.1-6.7,14.5-10.1,22.9-10.1s16.7,3.4,22.9,10.1l90.6,99.1c6.4,7,14.6,10.1,22.6,10.1
	c15.9,0,31.3-12.3,31.3-31.1V76.6c0-0.3,0-0.5,0-0.8c-0.4-32.8-27.1-59.2-60-59.2H252.6c-32.9,0-59.6,26.4-60,59.2
	c0,0.3,0,0.5,0,0.8v420.3c0,18.8,15.3,31.1,31.3,31.1C231.9,527.9,240,524.8,246.5,517.7z"/>
</svg>
