<?xml version="1.0" encoding="utf-8"?>
<!-- Generator: Adobe Illustrator 18.0.0, SVG Export Plug-In . SVG Version: 6.00 Build 0)  -->
<!DOCTYPE svg PUBLIC "-//W3C//DTD SVG 1.1//EN" "http://www.w3.org/Graphics/SVG/1.1/DTD/svg11.dtd">
<svg version="1.1" id="Capa_1" xmlns="http://www.w3.org/2000/svg" xmlns:xlink="http://www.w3.org/1999/xlink" x="0px" y="0px"
	 width="1000px" height="1000px" viewBox="0 0 1000 1000" enable-background="new 0 0 1000 1000" xml:space="preserve">
<path d="M753.2,117.8c-82.4,0-155.6,40-200.1,101.5c-9.7,13.5-11,31.4-3.5,46.2l20.4,40.6c7,14,6.3,30.6-2,43.9l-42.6,68.6
	c-9.1,14.6-9,33,0.1,47.6l41.5,66.4c8.9,14.2,9.1,32.1,0.7,46.6l-43.7,74.6c-8.2,14-8.2,31.4,0,45.5l44.8,76.6
	c7.8,13.4,8.2,29.9,1,43.6l-51.8,99c14.4,7.3,31.8,6.3,45.4-3.1c42.4-29.5,133.2-92.9,133.2-92.9c76.7-54.9,149.9-114.9,207-190.7
	c49.1-65.2,85-142.4,91.6-223.8C1007,260,911.1,117.8,753.2,117.8z"/>
<path d="M304.3,822.4c0,0,91.4,63.5,134.1,93c1.7,1.1,3.4,2.2,5.1,3.1l51.8-99c7.2-13.7,6.8-30.2-1-43.6l-44.8-76.6
	c-8.2-14-8.2-31.4,0-45.5l43.7-74.6c8.5-14.4,8.2-32.4-0.7-46.6l-41.5-66.4c-9.1-14.6-9.1-33-0.1-47.6l42.6-68.6
	c8.3-13.3,9-29.9,2-43.9c-20.7-41.2-39.1-82.4-72.1-115.4c-28.8-28.8-64.6-50.3-103.5-62.2c-23.5-7.1-48-10.7-72.6-10.7
	C89.5,117.8-7,260,5,407.9c6.6,81.4,42.2,158.6,91.3,223.8C153.5,707.6,227.6,767.6,304.3,822.4z"/>
</svg>
