<?xml version="1.0" encoding="utf-8"?>
<!-- Generator: Adobe Illustrator 18.0.0, SVG Export Plug-In . SVG Version: 6.00 Build 0)  -->
<!DOCTYPE svg PUBLIC "-//W3C//DTD SVG 1.1//EN" "http://www.w3.org/Graphics/SVG/1.1/DTD/svg11.dtd">
<svg version="1.1" id="Capa_1" xmlns="http://www.w3.org/2000/svg" xmlns:xlink="http://www.w3.org/1999/xlink" x="0px" y="0px"
	 width="1000px" height="1000px" viewBox="0 0 1000 1000" enable-background="new 0 0 1000 1000" xml:space="preserve">
<path d="M223,260.2c-16.4,4-31.7,12.3-44,23.9c-12.7,11.9-22.1,27.1-27.1,44L18.3,780.6c-7.6,25.7-4.7,52.9,8.1,76.5
	c12.8,23.6,34.1,40.7,59.8,48.3l245.7,72.5c17.5,5.2,36.1,5.6,53.8,1.3c17.3-4.2,33.4-12.9,46.4-25.1c13.5-12.6,23.4-28.6,28.6-46.2
	l25.9-87.6l10.3-35c2.4-8,0.4-16.5-5.4-22.5c-5.7-6-14.3-8.5-22.2-6.6c-3.4,0.8-6.5,2.4-9.3,4.7c-9.1,7.5-19.2,12.7-29.9,15.4
	c-10.1,2.5-21,2.7-32.4,0.7c-4.3-0.8-8.6-0.6-12.8,0.4c-10.7,2.6-19.2,10.8-22.3,21.3l-15.8,53.4l-201.6-59.5l119.1-403.5
	l134.8,39.8c5.2,1.5,10.8,1.7,16.1,0.4c10.7-2.6,19.2-10.8,22.3-21.3l17.9-60.6c4.8-16.4-4.6-33.6-20.9-38.4l-160.3-47.3
	C257.6,256.5,239.9,256,223,260.2z"/>
<path d="M925.9,83.3L680.2,10.8c-17.5-5.2-36.1-5.6-53.8-1.3C609.1,13.8,593,22.5,580,34.6c-13.5,12.6-23.4,28.6-28.6,46.3
	l-25.9,87.6l-10.3,35c-2.4,8-0.4,16.5,5.4,22.5c5.7,6,14.3,8.5,22.2,6.6c3.4-0.8,6.5-2.4,9.3-4.7c9.1-7.5,19.2-12.7,29.9-15.4
	c10.1-2.5,21-2.7,32.4-0.7c4.3,0.8,8.6,0.6,12.8-0.4c10.7-2.6,19.2-10.8,22.3-21.3l15.8-53.4l201.6,59.5L747.8,599.8L612.9,560
	c-5.2-1.5-10.8-1.7-16.1-0.4c-10.7,2.6-19.2,10.8-22.3,21.3l-17.9,60.6c-4.8,16.4,4.6,33.6,20.9,38.4l160.3,47.3
	c16.7,4.9,34.4,5.4,51.3,1.2c16.4-4,31.7-12.3,44-23.9c12.7-11.9,22.1-27.1,27.1-44l133.6-452.6c7.6-25.7,4.7-52.9-8.1-76.5
	C972.9,108.1,951.7,90.9,925.9,83.3z"/>
<path d="M699.5,981.7c9.4,0,18.9-2.9,27-9c19.9-14.9,23.9-43.1,8.9-63l-117-155.5c-14.9-19.9-43.1-23.9-63-8.9
	c-19.9,14.9-23.9,43.1-8.9,63l117,155.5C672.3,975.5,685.8,981.7,699.5,981.7z"/>
<path d="M433.7,251.7c10.4,0,20.9-3.6,29.4-11c18.8-16.3,20.9-44.7,4.6-63.5L335.1,23.9c-16.3-18.8-44.7-20.9-63.5-4.6
	C252.8,35.6,250.8,64,267,82.8l132.6,153.4C408.6,246.5,421.1,251.7,433.7,251.7z"/>
</svg>
