<?xml version="1.0" encoding="utf-8"?>
<!-- Generator: Adobe Illustrator 18.0.0, SVG Export Plug-In . SVG Version: 6.00 Build 0)  -->
<!DOCTYPE svg PUBLIC "-//W3C//DTD SVG 1.1//EN" "http://www.w3.org/Graphics/SVG/1.1/DTD/svg11.dtd">
<svg version="1.1" id="Layer_1" xmlns="http://www.w3.org/2000/svg" xmlns:xlink="http://www.w3.org/1999/xlink" x="0px" y="0px"
	 width="128px" height="128px" viewBox="0 0 128 128" enable-background="new 0 0 128 128" xml:space="preserve">
<path d="M13,88h11.4c0.4,3,1.1,6.4,2,9.4l-13,13.3c-2.7,2.8-2.6,7.2,0.1,9.8c1.4,1.3,3.1,2,4.9,2c1.8,0,3.6-0.7,5-2.1l9.7-9.9
	c7.4,10.2,18.9,16.8,31.6,16.8c0,0,0.2,0,0.2,0c0,0,0,0,0,0c12.7,0,24.1-6.5,31.5-16.8l9.7,9.9c1.4,1.4,3.2,2.1,5,2.1
	c1.7,0,3.5-0.7,4.8-2c2.8-2.7,2.8-7.1,0.1-9.8l-13-13.3c1-3,1.7-6.4,2-9.4h11.4c3.8,0,7-3.2,7-7c0-3.8-3.1-7-7-7h-11.8
	c-0.5-3-1.3-6.2-2.4-9l13.7-14.1c2.7-2.8,2.6-7.2-0.1-9.8c-2.8-2.7-7.2-2.6-9.8,0.1L95.7,52l-0.3,0.3c-4,4.1-7.8,9.1-13,11.7
	c-3.3,1.6-6.4,2.9-10.4,3.6v27.2c0,3.8-3.2,7-7,7c-4,0-7-3.1-7-7V67.6c-4-0.7-7.3-2-10.6-3.6c-5.2-2.6-9.2-7.6-13.2-11.7L33.9,52
	L23.4,41.2c-2.7-2.8-7.1-2.8-9.8-0.1c-2.8,2.7-2.8,7.1-0.1,9.8L27.1,65c-1.1,2.9-1.9,6-2.4,9H13c-3.8,0-7,3.2-7,7
	C6,84.8,9.1,88,13,88z"/>
<path d="M88.6,12.5c2.1-2.7,2-6.6-0.5-9.1C86.8,2,85,1.3,83.2,1.2c-2,0-3.6,0.8-5,2.1c-7.3,6.5-19.3,6.5-26.5,0
	c-1.4-1.3-3.3-2.1-5.2-2.1c-1.8,0-3.6,0.8-4.9,2.1c-2.4,2.5-2.6,6.4-0.5,9.1c0.2,0.3,0.4,0.5,0.7,0.7c1.5,1.4,3,2.6,4.7,3.7
	c-3.1,3.9-4.9,8.9-4.9,14.3c0,4.3,1.2,8.2,3.2,11.7c4,6.9,11.7,11.5,20.2,11.5c0,0,0.2,0,0.2,0s0,0,0,0c8.5,0,16-4.6,20-11.5
	c2-3.4,3.2-7.4,3.2-11.7c0-5.4-1.8-10.3-4.9-14.3c1.6-1.1,3.2-2.3,4.7-3.7C88.2,13,88.4,12.7,88.6,12.5z"/>
</svg>
