<?xml version="1.0" encoding="utf-8"?>
<!-- Generator: Adobe Illustrator 18.0.0, SVG Export Plug-In . SVG Version: 6.00 Build 0)  -->
<!DOCTYPE svg PUBLIC "-//W3C//DTD SVG 1.1//EN" "http://www.w3.org/Graphics/SVG/1.1/DTD/svg11.dtd">
<svg version="1.1" id="Layer_1" xmlns="http://www.w3.org/2000/svg" xmlns:xlink="http://www.w3.org/1999/xlink" x="0px" y="0px"
	 width="128px" height="128px" viewBox="0 0 128 128" enable-background="new 0 0 128 128" xml:space="preserve">
<path d="M88,116.7c5.8-5.2,10.1-12.1,12.3-19.9c0.9-3.1,1.4-6.4,1.5-9.7c0.1-3.3-0.1-6.5-0.7-9.6c-1.9-10.6-7.4-20-14.1-28.3
	c-3.5-4.4-7.5-8.5-11.1-12.9c-3.5-4.5-6.5-9.5-8.6-14.8c-0.3-0.8-0.6-1.6-0.9-2.5c-2.1-6.2-1.2-15.6-1.2-15.6
	c0.2-1.6-2.1-2.1-2.5-0.6c-2.5,7.8-3.4,21.5,7.8,40.9c3.6,6.1,7.9,15.7,3.1,22.3c-3.4,4.7-11.7,6-16.2,2.1c-0.5-0.4-0.9-0.9-1.3-1.5
	C53,62,56.5,56.1,56.3,51c-0.2-5.6-2.1-11.1-4.7-16.1c-0.7-1.3-2.6-0.7-2.5,0.8c0.5,3.8,0.3,7.8-0.6,11.4c-2.2,9.2-9.8,13.4-15,20.6
	c-5.6,7.8-8.4,17.7-7,27.2c1.7,11.4,8.6,20.5,17.9,25.9c-0.1-0.2-0.1-0.5-0.2-0.7c-0.8-4.5,0.8-9.1,4.1-12.7c3-3.3,7.4-5.3,8.7-9.6
	c0.5-1.7,0.6-3.5,0.3-5.3c-0.1-0.7,1-1,1.4-0.4c1.5,2.3,2.6,4.9,2.8,7.5c0.1,2.4-2,5.1-0.1,7.3c0.2,0.3,0.5,0.5,0.8,0.7
	c2.6,1.8,7.4,1.2,9.4-1c2.8-3.1,0.3-7.6-1.8-10.4c-6.6-9.1-6-15.4-4.6-19.1c0.3-0.7,1.6-0.5,1.5,0.3c0,0,0,0,0,0
	c-0.4,2.5-0.3,4.8,0.7,7.3c0.2,0.4,0.3,0.8,0.5,1.2c1.2,2.5,2.9,4.8,5,6.9c2,2.1,4.4,4,6.4,6c3.8,3.9,7.1,8.3,8.2,13.2
	c0.3,1.4,0.5,2.9,0.4,4.5C88,116.5,88,116.6,88,116.7z"/>
</svg>
