<?xml version="1.0" encoding="utf-8"?>
<!-- Generator: Adobe Illustrator 18.0.0, SVG Export Plug-In . SVG Version: 6.00 Build 0)  -->
<!DOCTYPE svg PUBLIC "-//W3C//DTD SVG 1.1//EN" "http://www.w3.org/Graphics/SVG/1.1/DTD/svg11.dtd">
<svg version="1.1" id="Capa_1" xmlns="http://www.w3.org/2000/svg" xmlns:xlink="http://www.w3.org/1999/xlink" x="0px" y="0px"
	 width="1000px" height="1000px" viewBox="0 0 1000 1000" enable-background="new 0 0 1000 1000" xml:space="preserve">
<path d="M70.5,388.5v407.9h231.7V388.5c0-33.1-26.9-60-60-60H130.5C97.4,328.5,70.5,355.3,70.5,388.5z"/>
<path d="M445.4,180.2c-33.1,0-60,26.9-60,60v556.2h231.7V240.2c0-33.1-26.9-60-60-60H445.4z"/>
<path d="M760.3,24c-33.1,0-60,26.9-60,60v712.3H932V84c0-33.1-26.9-60-60-60H760.3z"/>
<path d="M932,866.3h-9.3H709.6H607.8H394.7H292.9H79.8h-9.3c-33.1,0-60,26.9-60,60c0,33.1,26.9,60,60,60H932c33.1,0,60-26.9,60-60
	C992,893.2,965.1,866.3,932,866.3z"/>
</svg>
