<?xml version="1.0" encoding="utf-8"?>
<!-- Generator: Adobe Illustrator 18.0.0, SVG Export Plug-In . SVG Version: 6.00 Build 0)  -->
<!DOCTYPE svg PUBLIC "-//W3C//DTD SVG 1.1//EN" "http://www.w3.org/Graphics/SVG/1.1/DTD/svg11.dtd">
<svg version="1.1" id="Layer_1" xmlns="http://www.w3.org/2000/svg" xmlns:xlink="http://www.w3.org/1999/xlink" x="0px" y="0px"
	 width="128px" height="128px" viewBox="0 0 128 128" enable-background="new 0 0 128 128" xml:space="preserve">
<path d="M3,21.5v84.9c0,10.2,8.3,18.5,18.5,18.5h84.9c10.2,0,18.5-8.3,18.5-18.5V21.5c0-8.7-6-15.9-14-18V29c0,3.6-2.9,6.5-6.5,6.5
	S98,32.6,98,29V3H30v26c0,3.6-2.9,6.5-6.5,6.5S17,32.6,17,29V3.6C9,5.6,3,12.9,3,21.5z M23,46h82c3.3,0,6,2.7,6,6v53
	c0,3.3-2.7,6-6,6H23c-3.3,0-6-2.7-6-6V52C17,48.7,19.7,46,23,46z"/>
<path d="M95,68h8c1.7,0,3-1.3,3-3v-8c0-1.7-1.3-3-3-3h-8c-1.7,0-3,1.3-3,3v8C92,66.7,93.3,68,95,68z"/>
<path d="M77,68h8c1.7,0,3-1.3,3-3v-8c0-1.7-1.3-3-3-3h-8c-1.7,0-3,1.3-3,3v8C74,66.7,75.3,68,77,68z"/>
<path d="M60,68h8c1.7,0,3-1.3,3-3v-8c0-1.7-1.3-3-3-3h-8c-1.7,0-3,1.3-3,3v8C57,66.7,58.3,68,60,68z"/>
<path d="M25,85h8c1.7,0,3-1.3,3-3v-8c0-1.7-1.3-3-3-3h-8c-1.7,0-3,1.3-3,3v8C22,83.7,23.3,85,25,85z"/>
<path d="M95,85h8c1.7,0,3-1.3,3-3v-8c0-1.7-1.3-3-3-3h-8c-1.7,0-3,1.3-3,3v8C92,83.7,93.3,85,95,85z"/>
<path d="M42,85h8c1.7,0,3-1.3,3-3v-8c0-1.7-1.3-3-3-3h-8c-1.7,0-3,1.3-3,3v8C39,83.7,40.3,85,42,85z"/>
<path d="M77,85h8c1.7,0,3-1.3,3-3v-8c0-1.7-1.3-3-3-3h-8c-1.7,0-3,1.3-3,3v8C74,83.7,75.3,85,77,85z"/>
<path d="M60,85h8c1.7,0,3-1.3,3-3v-8c0-1.7-1.3-3-3-3h-8c-1.7,0-3,1.3-3,3v8C57,83.7,58.3,85,60,85z"/>
<path d="M25,104h8c1.7,0,3-1.3,3-3v-8c0-1.7-1.3-3-3-3h-8c-1.7,0-3,1.3-3,3v8C22,102.7,23.3,104,25,104z"/>
<path d="M42,104h8c1.7,0,3-1.3,3-3v-8c0-1.7-1.3-3-3-3h-8c-1.7,0-3,1.3-3,3v8C39,102.7,40.3,104,42,104z"/>
<path d="M77,104h8c1.7,0,3-1.3,3-3v-8c0-1.7-1.3-3-3-3h-8c-1.7,0-3,1.3-3,3v8C74,102.7,75.3,104,77,104z"/>
<path d="M60,104h8c1.7,0,3-1.3,3-3v-8c0-1.7-1.3-3-3-3h-8c-1.7,0-3,1.3-3,3v8C57,102.7,58.3,104,60,104z"/>
</svg>
