<?xml version="1.0" encoding="utf-8"?>
<!-- Generator: Adobe Illustrator 18.0.0, SVG Export Plug-In . SVG Version: 6.00 Build 0)  -->
<!DOCTYPE svg PUBLIC "-//W3C//DTD SVG 1.1//EN" "http://www.w3.org/Graphics/SVG/1.1/DTD/svg11.dtd">
<svg version="1.1" id="Capa_1" xmlns="http://www.w3.org/2000/svg" xmlns:xlink="http://www.w3.org/1999/xlink" x="0px" y="0px"
	 width="1000px" height="1000px" viewBox="0 0 1000 1000" enable-background="new 0 0 1000 1000" xml:space="preserve">
<path d="M908.2,846.8v-57.6H761.9v57.6C762.3,948.7,908.2,949.9,908.2,846.8z"/>
<path d="M237.4,846.8v-57.6H91.7v57.6C91.5,949.9,237.4,948.7,237.4,846.8z"/>
<path d="M986,669.2v-202c-0.2-70.4-56.3-107.6-88.2-111.7l-79.7-205.7c-14.9-39.4-47.5-72.9-109.1-73.2H596.7h-192H290.3
	c-61.3,0.3-93.9,33.8-109.1,73.2l-79.7,205.7c-31.6,4.1-87.6,41.3-87.5,111.7v202c0,33.1,26.9,60,60,60h852
	C959.1,729.2,986,702.4,986,669.2z M177,581.1c-0.1,0-0.1,0-0.2,0c-0.1,0-0.1,0-0.2,0c-37.2,0-67.2-31-67.1-69.2
	c-0.2-38.3,29.7-69.3,66.7-69.3c0.2,0,0.4,0,0.6,0c0.2,0,0.4,0,0.6,0c36.9,0,66.8,31,66.7,69.3C244.2,550.1,214.1,581.1,177,581.1z
	 M500,353.6h-0.7H249.9c-22,0-36.9-22.4-28.3-42.7l42-99.3c6.3-15.7,18.5-39.5,45.1-39.9h381.7c26.2,0.4,32.8,15.1,45.1,39.9
	l42,99.3c8.6,20.3-6.3,42.7-28.3,42.7H500z M818.3,586.1c-0.1,0-0.1,0-0.2,0c-0.1,0-0.1,0-0.2,0c-37.4,0-67.5-31-67.7-69.2
	c0.2-38.3,30.1-69.3,67.4-69.3c0.2,0,0.4,0,0.6,0c0.2,0,0.4,0,0.6,0c36.6,0,66.5,31,66.7,69.3C885.2,555.1,855.1,586.1,818.3,586.1z
	"/>
</svg>
