<?xml version="1.0" encoding="utf-8"?>
<!-- Generator: Adobe Illustrator 18.0.0, SVG Export Plug-In . SVG Version: 6.00 Build 0)  -->
<!DOCTYPE svg PUBLIC "-//W3C//DTD SVG 1.1//EN" "http://www.w3.org/Graphics/SVG/1.1/DTD/svg11.dtd">
<svg version="1.1" id="Layer_1" xmlns="http://www.w3.org/2000/svg" xmlns:xlink="http://www.w3.org/1999/xlink" x="0px" y="0px"
	 width="128px" height="128px" viewBox="0 0 128 128" enable-background="new 0 0 128 128" xml:space="preserve">
<circle cx="69" cy="68.7" r="12"/>
<path d="M117,119V36c0-5.5-2.6-10.8-6.6-14.8L96.6,7.9C92.7,3.9,87.2,2,81.6,2H28c-3.8,0-7,3.1-7,7v110c0,3.8,3.2,7,7,7h29.6h22.7
	H110C113.8,126,117,122.8,117,119z M106,102.7c0,2.6-1.9,4.3-4.5,4.3H90.5C90.1,95.4,80.6,86.2,69,86.2S47.9,95.4,47.5,107h-11
	c-2.6,0-4.5-1.7-4.5-4.3V45.9c0-2.6,1.9-4.9,4.5-4.9h65.1c2.6,0,4.5,2.4,4.5,4.9V102.7z"/>
</svg>
