<?xml version="1.0" encoding="utf-8"?>
<!-- Generator: Adobe Illustrator 18.0.0, SVG Export Plug-In . SVG Version: 6.00 Build 0)  -->
<!DOCTYPE svg PUBLIC "-//W3C//DTD SVG 1.1//EN" "http://www.w3.org/Graphics/SVG/1.1/DTD/svg11.dtd">
<svg version="1.1" id="Capa_1" xmlns="http://www.w3.org/2000/svg" xmlns:xlink="http://www.w3.org/1999/xlink" x="0px" y="0px"
	 width="1000px" height="1000px" viewBox="0 0 1000 1000" enable-background="new 0 0 1000 1000" xml:space="preserve">
<path d="M988.1,857.4V413.3c0-33.1-26.9-60-60-60h-15.6v368.5c0,32.1-12.5,62.2-35.1,84.9s-52.8,35.1-84.9,35.1H282.6v15.6
	c0,33.1,26.9,60,60,60h585.6C961.3,917.4,988.1,890.6,988.1,857.4z"/>
<path d="M282.6,706.2h-30h-30h-75.6v15.6c0,33.1,26.9,60,60,60h15.6h30h30h509.9c33.1,0,60-26.9,60-60V353.3v-30v-30v-15.6
	c0-33.1-26.9-60-60-60h-15.6v75.6v30v30v232.9c0,32.1-12.5,62.2-35.1,84.9c-22.7,22.7-52.8,35.1-84.9,35.1H282.6z"/>
<path d="M11.3,586.2c0,33.1,26.9,60,60,60h15.6h30h30h75.6h30h30h374.3c33.1,0,60-26.9,60-60V353.3v-30v-30v-75.6v-30v-30V142
	c0-33.1-26.9-60-60-60H71.3c-33.1,0-60,26.9-60,60V586.2z"/>
</svg>
