<?xml version="1.0" encoding="utf-8"?>
<!-- Generator: Adobe Illustrator 18.0.0, SVG Export Plug-In . SVG Version: 6.00 Build 0)  -->
<!DOCTYPE svg PUBLIC "-//W3C//DTD SVG 1.1//EN" "http://www.w3.org/Graphics/SVG/1.1/DTD/svg11.dtd">
<svg version="1.1" id="Capa_1" xmlns="http://www.w3.org/2000/svg" xmlns:xlink="http://www.w3.org/1999/xlink" x="0px" y="0px"
	 width="128px" height="128px" viewBox="0 0 128 128" enable-background="new 0 0 128 128" xml:space="preserve">
<path d="M112.6,6.7c-1.8,0-3.5,0.3-5.2,1l-19.6,7.9c-7.5-2.7-15.5-4.1-23.8-4.1c-8.2,0-16.2,1.4-23.8,4.1L20.6,7.7
	c-1.7-0.7-3.4-1-5.2-1c-7.7,0-13.9,6.2-13.9,13.9L1.6,69c0,0.4,0,0.8,0,1.1c2.2,28.7,29.6,51.2,62.3,51.2
	c32.8,0,60.2-22.5,62.3-51.2c0-0.4,0-0.7,0-1.1l0.1-48.5C126.5,12.9,120.3,6.7,112.6,6.7z M110.4,68.9
	c-1.5,20.4-21.9,36.4-46.4,36.4c-24.4,0-44.8-16-46.4-36.4l-0.1-45.3l17.4,7.1c3.2,1.3,6.9,1.4,10.1,0.2c6-2.2,12.3-3.4,18.9-3.4
	c6.6,0,13,1.1,19,3.4c3.2,1.2,6.9,1.2,10.1-0.2l17.4-7.1L110.4,68.9z"/>
<circle cx="43.8" cy="70.1" r="10"/>
<circle cx="84.2" cy="70.1" r="10"/>
</svg>
