<?xml version="1.0" encoding="utf-8"?>
<!-- Generator: Adobe Illustrator 18.0.0, SVG Export Plug-In . SVG Version: 6.00 Build 0)  -->
<!DOCTYPE svg PUBLIC "-//W3C//DTD SVG 1.1//EN" "http://www.w3.org/Graphics/SVG/1.1/DTD/svg11.dtd">
<svg version="1.1" id="Capa_1" xmlns="http://www.w3.org/2000/svg" xmlns:xlink="http://www.w3.org/1999/xlink" x="0px" y="0px"
	 width="128px" height="128px" viewBox="0 0 128 128" enable-background="new 0 0 128 128" xml:space="preserve">
<path d="M33.2,115c9,4.6,19.1,7,29.2,7.2c0.5,0,1.1,0,1.6,0c10.2,0,20.3-2.2,29.5-6.6c8.4-4,16-10,21.6-17.5
	c6.4-8.6,9.7-18.9,9.7-29.6c0-6.8,0-13.5,0-20.3c0-7.4,0-14.7,0-22.1c0-2.6,0-5.2,0-7.7c0-4.7-4.7-7.8-9-6.1L93,21.8
	c-1.5,0.6-3.2,0.7-4.7,0.1C80.9,19,72.7,17.5,64,17.5c-8.7,0-16.9,1.6-24.3,4.4c-1.5,0.6-3.2,0.5-4.7-0.1l-22.8-9.2
	c-4.3-1.8-9,1.4-9,6.1c0,3.5,0,7.1,0,10.6c0,7.3,0,14.6,0,22c0,6.2,0,12.3,0,18.5c0,9.9,3.2,19.5,8.9,27.5
	C17.5,104.8,24.9,110.8,33.2,115z M86.2,68.7c5.5,0,10,4.5,10,10c0,5.5-4.5,10-10,10s-10-4.5-10-10C76.2,73.1,80.7,68.7,86.2,68.7z
	 M41.8,68.7c5.5,0,10,4.5,10,10c0,5.5-4.5,10-10,10s-10-4.5-10-10C31.8,73.1,36.3,68.7,41.8,68.7z"/>
</svg>
