<?xml version="1.0" encoding="utf-8"?>
<!-- Generator: Adobe Illustrator 18.0.0, SVG Export Plug-In . SVG Version: 6.00 Build 0)  -->
<!DOCTYPE svg PUBLIC "-//W3C//DTD SVG 1.1//EN" "http://www.w3.org/Graphics/SVG/1.1/DTD/svg11.dtd">
<svg version="1.1" id="Layer_1" xmlns="http://www.w3.org/2000/svg" xmlns:xlink="http://www.w3.org/1999/xlink" x="0px" y="0px"
	 width="128px" height="128px" viewBox="0 0 128 128" enable-background="new 0 0 128 128" xml:space="preserve">
<path d="M126,57.2c0-6.9-5.3-12.2-12.2-12.2H98v9.6c0,7-2.8,13.9-8,18.9C84.9,78.4,78.4,81,71.4,81H44v10c0,6.9,5.7,13,12.6,13H94
	l6.9,11.9c1.6,2.9,4.6,4.3,7.9,4.3c4.9,0,9.3-3.9,9.3-8.8v-8.3c4-1.4,8-6.3,8-12.1V57.2z"/>
<path d="M10,66.6V75c0,4.9,4.3,8.7,9.3,8.7c3.2,0,6.4-1.7,8-4.6L34,67h10h27.4C78.3,67,84,61.5,84,54.6V45V20.8
	C84,13.9,78.3,8,71.4,8H71H14.2C7.3,8,2,13.9,2,20.8v33.8C2,60.3,6,65.2,10,66.6z"/>
</svg>
