<?xml version="1.0" encoding="utf-8"?>
<!-- Generator: Adobe Illustrator 18.0.0, SVG Export Plug-In . SVG Version: 6.00 Build 0)  -->
<!DOCTYPE svg PUBLIC "-//W3C//DTD SVG 1.1//EN" "http://www.w3.org/Graphics/SVG/1.1/DTD/svg11.dtd">
<svg version="1.1" id="Capa_1" xmlns="http://www.w3.org/2000/svg" xmlns:xlink="http://www.w3.org/1999/xlink" x="0px" y="0px"
	 width="1000px" height="1000px" viewBox="0 0 1000 1000" enable-background="new 0 0 1000 1000" xml:space="preserve">
<path d="M57.5,854.8l160.2-97.7c9.7-5.9,20.8-9,32.1-9h68.8V563.2c0-16.4,3.2-32.3,9.6-47.4c6.1-14.5,14.9-27.5,26-38.6
	c11.1-11.1,24.1-19.9,38.6-26c15-6.4,31-9.6,47.4-9.6h447.6V74.4c0-34-27.6-61.6-61.6-61.6H72.3c-34,0-61.6,27.6-61.6,61.6v754.1
	C10.7,852.5,37,867.3,57.5,854.8z"/>
<path d="M440.2,501.6c-34,0-61.6,27.6-61.6,61.6v184.9v112c0,34,27.6,61.6,61.6,61.6h372.2c11.3,0,22.4,3.1,32.1,9l91,55.5
	c5.1,3.1,10.6,4.6,16,4.6c16.1,0,30.9-12.8,30.9-30.9V563.2c0-34-27.6-61.6-61.6-61.6h-33H440.2z"/>
</svg>
