<?xml version="1.0" encoding="utf-8"?>
<!-- Generator: Adobe Illustrator 18.0.0, SVG Export Plug-In . SVG Version: 6.00 Build 0)  -->
<!DOCTYPE svg PUBLIC "-//W3C//DTD SVG 1.1//EN" "http://www.w3.org/Graphics/SVG/1.1/DTD/svg11.dtd">
<svg version="1.1" id="Capa_1" xmlns="http://www.w3.org/2000/svg" xmlns:xlink="http://www.w3.org/1999/xlink" x="0px" y="0px"
	 width="1000px" height="1000px" viewBox="0 0 1000 1000" enable-background="new 0 0 1000 1000" xml:space="preserve">
<path d="M124.5,972.6h683.1c66.2,0,120-53.8,120-120V385.5l-120,120v347.1l-683.1,0v-683h547.3l96.3-96.3c9.1-9.1,19.1-17,29.8-23.7
	H124.5c-66.2,0-120,53.8-120,120v683.1C4.5,918.8,58.3,972.6,124.5,972.6z"/>
<path d="M962.7,116.9c-19.4-20.1-44.8-30.8-70.5-32.3c-2.1-0.1-4.1-0.2-6.2-0.2c-27.3,0-54.6,10.4-75.5,31.3l-334,334
	c-11.3-12.1-81.1-82.4-81.1-82.4c-20.8-20.8-48.2-31.3-75.5-31.3c-27.3,0-54.6,10.4-75.5,31.3c-41.7,41.7-41.7,109.3,0,151
	l81.8,81.8l75.5,75.5c20,20,47.2,31.3,75.5,31.3s55.5-11.2,75.5-31.3l406.2-406.2C1000.5,227.7,1003.7,159.2,962.7,116.9z"/>
</svg>
