<?xml version="1.0" encoding="utf-8"?>
<!-- Generator: Adobe Illustrator 18.0.0, SVG Export Plug-In . SVG Version: 6.00 Build 0)  -->
<!DOCTYPE svg PUBLIC "-//W3C//DTD SVG 1.1//EN" "http://www.w3.org/Graphics/SVG/1.1/DTD/svg11.dtd">
<svg version="1.1" id="Layer_1" xmlns="http://www.w3.org/2000/svg" xmlns:xlink="http://www.w3.org/1999/xlink" x="0px" y="0px"
	 width="128px" height="128px" viewBox="0 0 128 128" enable-background="new 0 0 128 128" xml:space="preserve">
<path d="M64.5,79.6c4.7,0,9.2,1.4,13.1,4c0,0,19.4-19.6,20.4-20.1V6.8C98,3.6,95.2,1,91.9,1H12.4C9.2,1,7,3.6,7,6.8v108.6
	c0,3.2,2.2,5.5,5.4,5.5h38.2l-2.4-2.2c-4.4-4.4-6.7-10-6.7-16.2c0-6.2,2.4-11.9,6.7-16.3C52.6,82,58.3,79.6,64.5,79.6z M37,16.8
	c0-3.2,2.6-5.8,5.8-5.8h39.4c3.2,0,5.8,2.6,5.8,5.8v2.4c0,3.2-2.6,5.8-5.8,5.8H42.8c-3.2,0-5.8-2.6-5.8-5.8V16.8z M37,38.8
	c0-3.2,2.6-5.8,5.8-5.8h39.4c3.2,0,5.8,2.6,5.8,5.8v2.4c0,3.2-2.6,5.8-5.8,5.8H42.8c-3.2,0-5.8-2.6-5.8-5.8V38.8z M23.1,68.3
	c-3.8,0-6.8-3-6.8-6.8s3-6.8,6.8-6.8c3.8,0,6.8,3,6.8,6.8S26.8,68.3,23.1,68.3z M23.1,46c-3.8,0-6.8-3-6.8-6.8c0-3.8,3-6.8,6.8-6.8
	c3.8,0,6.8,3,6.8,6.8C29.9,42.9,26.8,46,23.1,46z M23.1,24.6c-3.8,0-6.8-3-6.8-6.8s3-6.8,6.8-6.8c3.8,0,6.8,3,6.8,6.8
	S26.8,24.6,23.1,24.6z M37,62.2v-2.4c0-3.2,2.6-5.8,5.8-5.8h39.4c3.2,0,5.8,2.6,5.8,5.8v2.4c0,3.2-2.6,5.8-5.8,5.8H42.8
	C39.6,68,37,65.4,37,62.2z"/>
<path d="M71.2,123.1c1.9,1.9,4.4,2.9,7,2.9c2.6,0,5.1-1,7-2.9l37.6-37.6c3.8-3.8,4.1-10,0.4-13.9c-3.8-4.1-10.3-4.2-14.2-0.2
	L82.3,98.1c-2.3,2.3-5.9,2.3-8.2,0l-3.5-3.5c-3.9-3.9-10.1-3.9-14,0c-3.9,3.9-3.9,10.1,0,14L71.2,123.1z"/>
</svg>
