<?xml version="1.0" encoding="utf-8"?>
<!-- Generator: Adobe Illustrator 18.0.0, SVG Export Plug-In . SVG Version: 6.00 Build 0)  -->
<!DOCTYPE svg PUBLIC "-//W3C//DTD SVG 1.1//EN" "http://www.w3.org/Graphics/SVG/1.1/DTD/svg11.dtd">
<svg version="1.1" id="Capa_1" xmlns="http://www.w3.org/2000/svg" xmlns:xlink="http://www.w3.org/1999/xlink" x="0px" y="0px"
	 width="1000px" height="1000px" viewBox="0 0 1000 1000" enable-background="new 0 0 1000 1000" xml:space="preserve">
<path d="M498.6,11.1C228.9,10.8,10.2,229.4,10.2,499c0,269.5,218.4,487.9,487.9,487.9c0.1,0,0.2,0,0.3,0c8.5,0,11.5-11.3,4.2-15.6
	c-18.7-11.1-36.5-23.8-52.8-38.9c-23.8-21.9-42.9-49.3-55.4-79.5c-16.4-39.4-21.4-83.3-10.8-125.1c16.9-66.3,75.6-116.7,144.8-118.2
	c129.7-2.7,165.8,141.8,222.4,229.9c5.9,9.2,12.1,18.1,19,26.6c0.1,0.1,0.1,0.2,0.2,0.2c11.1,13.7,31.3,15.3,44.6,3.9
	C919.5,780.9,986,647.7,986,499C986,229.5,768,11.3,498.6,11.1z M180,654.7c-43.9,0-79.5-35.6-79.5-79.5s35.6-79.5,79.5-79.5
	s79.5,35.6,79.5,79.5S223.9,654.7,180,654.7z M270.5,362.5c-43.9,0-79.5-35.6-79.5-79.5s35.6-79.5,79.5-79.5S350,239,350,283
	S314.4,362.5,270.5,362.5z M572,273.6c-43.9,0-79.5-35.6-79.5-79.5s35.6-79.5,79.5-79.5c43.9,0,79.5,35.6,79.5,79.5
	S615.9,273.6,572,273.6z M872.5,403c0,43.9-35.6,79.5-79.5,79.5S713.5,447,713.5,403s35.6-79.5,79.5-79.5S872.5,359.1,872.5,403z"/>
</svg>
