<?xml version="1.0" encoding="utf-8"?>
<!-- Generator: Adobe Illustrator 18.0.0, SVG Export Plug-In . SVG Version: 6.00 Build 0)  -->
<!DOCTYPE svg PUBLIC "-//W3C//DTD SVG 1.1//EN" "http://www.w3.org/Graphics/SVG/1.1/DTD/svg11.dtd">
<svg version="1.1" id="Capa_1" xmlns="http://www.w3.org/2000/svg" xmlns:xlink="http://www.w3.org/1999/xlink" x="0px" y="0px"
	 width="128px" height="128px" viewBox="0 0 128 128" enable-background="new 0 0 128 128" xml:space="preserve">
<path d="M23.3,107.1c16.5,16.5,40.5,20.8,60.9,13c-3.7-2.6-6.1-6.9-6.1-11.7v-1.9c-15,5.4-32.4,2.1-44.4-9.9
	C23.1,85.9,19.4,71,22.4,57.3c1.2-5.5,3.6-10.8,7-15.6l0,9.8c0,3.3,2.7,6,6,6c3.3,0,6-2.7,6-6l0-21l0-5.4c0-3.3-2.7-6-6-6h-3.6
	L9.1,19c-3.3,0-6,2.7-6,6c0,3.3,2.7,6,6,6l9.8,0c-2.1,2.6-3.9,5.4-5.5,8.3C1.7,61,4.9,88.7,23.3,107.1z"/>
<path d="M92.5,114.5l2.8,0l23.6,0c3.3,0,6-2.7,6-6c0-3.3-2.7-6-6-6h-10.4c2.1-2.6,4-5.4,5.5-8.3c12-21.8,8.7-49.7-9.7-68.1
	C87.9,9.5,63.8,5.2,43.3,13c3.9,2.6,6.5,7,6.5,12v1.5c14.9-5.2,32.1-1.8,44,10.1c10.6,10.6,14.4,25.4,11.5,39.1
	c-1.2,5.4-3.4,10.7-6.8,15.4l0-9c0-3.3-2.7-6-6-6c-3.3,0-6,2.7-6,6l0,20.5v6C86.5,111.8,89.2,114.5,92.5,114.5z"/>
</svg>
