<?xml version="1.0" encoding="utf-8"?>
<!-- Generator: Adobe Illustrator 18.0.0, SVG Export Plug-In . SVG Version: 6.00 Build 0)  -->
<!DOCTYPE svg PUBLIC "-//W3C//DTD SVG 1.1//EN" "http://www.w3.org/Graphics/SVG/1.1/DTD/svg11.dtd">
<svg version="1.1" id="Capa_1" xmlns="http://www.w3.org/2000/svg" xmlns:xlink="http://www.w3.org/1999/xlink" x="0px" y="0px"
	 width="1000px" height="1000px" viewBox="0 0 1000 1000" enable-background="new 0 0 1000 1000" xml:space="preserve">
<path d="M500,967.1c239.5,0,436.8-180.2,463.9-412.4c-6.8,1.1-13.7,1.7-20.7,1.7H553.5c-14.8,0-29.2-2.9-42.8-8.7
	c-13.1-5.5-24.9-13.5-34.9-23.5c-10.1-10.1-18-21.8-23.5-34.9c-5.8-13.6-8.7-28-8.7-42.8V56.7c0-7,0.6-13.9,1.7-20.7
	C213.1,63.2,32.9,260.5,32.9,500C32.9,758,242,967.1,500,967.1z"/>
<path d="M553.5,476.5h389.7c8.4,0,16.2-2.3,22.9-6.3c14.6-8.7,23.8-25.3,21.8-43.6C964.9,208.5,791.5,35.1,573.4,12
	c-1.6-0.2-3.2-0.3-4.8-0.3c-16.3,0-30.8,8.8-38.7,22.1c-4,6.7-6.3,14.5-6.3,22.9v389.7C523.5,463,537,476.5,553.5,476.5z"/>
</svg>
