<?xml version="1.0" encoding="utf-8"?>
<!-- Generator: Adobe Illustrator 18.0.0, SVG Export Plug-In . SVG Version: 6.00 Build 0)  -->
<!DOCTYPE svg PUBLIC "-//W3C//DTD SVG 1.1//EN" "http://www.w3.org/Graphics/SVG/1.1/DTD/svg11.dtd">
<svg version="1.1" id="Capa_1" xmlns="http://www.w3.org/2000/svg" xmlns:xlink="http://www.w3.org/1999/xlink" x="0px" y="0px"
	 width="1000px" height="1000px" viewBox="0 0 1000 1000" enable-background="new 0 0 1000 1000" xml:space="preserve">
<path d="M988.2,929.7V387.6H11.8v542.1c0,33.1,26.9,60,60,60h856.3C961.3,989.7,988.2,962.9,988.2,929.7z M500,817.5H274.1
	c-27.6,0-50-22.4-50-50s22.4-50,50-50H500c27.6,0,50,22.4,50,50S527.6,817.5,500,817.5z M725.9,615.3H274.1c-27.6,0-50-22.4-50-50
	s22.4-50,50-50h451.7c27.6,0,50,22.4,50,50S753.5,615.3,725.9,615.3z"/>
<path d="M988.2,74c0-33.1-26.9-60-60-60H71.8c-33.1,0-60,26.9-60,60v241.7h976.3V74z M81.8,84H149l58.5,80.8L149,245.6H81.8V84z
	 M277.4,84h132l58.5,80.8l-58.5,80.8h-132l58.5-80.8L277.4,84z M537.8,84h132l58.5,80.8l-58.5,80.8h-132l58.5-80.8L537.8,84z
	 M918.2,245.6H798.3l58.5-80.8L798.3,84h119.9V245.6z"/>
</svg>
