<?xml version="1.0" encoding="utf-8"?>
<!-- Generator: Adobe Illustrator 18.0.0, SVG Export Plug-In . SVG Version: 6.00 Build 0)  -->
<!DOCTYPE svg PUBLIC "-//W3C//DTD SVG 1.1//EN" "http://www.w3.org/Graphics/SVG/1.1/DTD/svg11.dtd">
<svg version="1.1" id="Layer_1" xmlns="http://www.w3.org/2000/svg" xmlns:xlink="http://www.w3.org/1999/xlink" x="0px" y="0px"
	 width="128px" height="128px" viewBox="0 0 128 128" enable-background="new 0 0 128 128" xml:space="preserve">
<path d="M12.9,127h76.8c4.3,0,7.3-3.5,7.3-7.8v-0.5c-1,0.6-3.7,0.9-5.8,0.9c-5.3,0-10.1-2.1-13.8-5.8C55.3,91.7,55.3,91.7,55.1,91.6
	c-3.7-4-5.7-9.5-5.3-14.9c0.3-4.9,2.5-9.6,6.2-13.1c0.9-0.9,15.7-15.7,21.4-21.4c3.8-3.8,8.5-5.8,13.8-5.8c2.1,0,4.8,0.3,5.8,1v-9.2
	c0-4.3-3-8.2-7.3-8.2h-4.9c-0.5-1-1.1-1.8-1.9-2.7c-2.4-2.9-5.9-4.3-9.5-4.3h-4.5c-1-2-2.3-4.2-4-5.9c-1.8-1.8-3.8-3.2-6.1-4.2
	c-2.4-1-4.9-1.5-7.5-1.5c-2.6,0-5.1,0.5-7.5,1.5c-2.3,1-4.4,2.4-6.1,4.2c-1.7,1.7-3.1,3.9-4,5.9h-4.5c-3.4,0-6.9,1.2-9.4,3.8
	c-1,1-1.9,2.2-2.5,3.2h-4.3C8.6,20,5,23.9,5,28.2v91.1C5,123.5,8.6,127,12.9,127z M24,26.4c0-3,2.2-5.4,5.1-5.4h10.6
	c0,0,0-0.3,0-0.4C39.9,14.3,45,9.2,51.3,9.2c6.3,0,11.4,5.1,11.5,11.3c0,0.1,0,0.4,0,0.4h10.6c2.9,0,4.6,2.3,4.6,5.4v1.8
	c0,3-1.7,4.8-4.6,4.8H29.1c-2.9,0-5.1-1.8-5.1-4.8V26.4z"/>
<path d="M62.8,20.6c0,0.1,0,0.4,0,0.4S62.8,20.7,62.8,20.6c-0.1-6.3-5.2-11.4-11.5-11.4C57.5,9.2,62.6,14.4,62.8,20.6z"/>
<path d="M117.4,69H98h-5.9l6.4-7c2.3-2.4,2.7-4.3,2.7-6.6c0-4.7-4.3-9-9-9c-2.4,0-4.5,0.9-6.2,2.6c0,0-21.2,21.3-21.4,21.5
	c-4,3.8-3.9,11.7,0,15.5c0.2,0.2,21.4,21.5,21.4,21.5c1.7,1.7,3.8,2.6,6.2,2.6c4.7,0,9-4.3,9-9c0-2.4-0.5-4.4-2.7-6.7L92.1,87H98
	h19.4c4.9,0,8.9-4,8.9-9C126.2,73.1,122.3,69,117.4,69z M69.8,76.5C69.8,76.5,69.9,76.5,69.8,76.5C69.8,76.5,69.8,76.5,69.8,76.5z"
	/>
<path d="M69.9,76.5C69.9,76.5,69.8,76.5,69.9,76.5C69.8,76.5,69.8,76.5,69.9,76.5z"/>
</svg>
