<?xml version="1.0" encoding="utf-8"?>
<!-- Generator: Adobe Illustrator 18.0.0, SVG Export Plug-In . SVG Version: 6.00 Build 0)  -->
<!DOCTYPE svg PUBLIC "-//W3C//DTD SVG 1.1//EN" "http://www.w3.org/Graphics/SVG/1.1/DTD/svg11.dtd">
<svg version="1.1" id="Layer_1" xmlns="http://www.w3.org/2000/svg" xmlns:xlink="http://www.w3.org/1999/xlink" x="0px" y="0px"
	 width="128px" height="128px" viewBox="0 0 128 128" enable-background="new 0 0 128 128" xml:space="preserve">
<path d="M72.8,65c4.3,0,7.7,3.5,7.5,7.8c-0.2,4.1-3.7,7.2-7.8,7.2H53.1c-2.1,0-3.8-0.6-5.1-2c-1.4-1.4-2-3.1-2-5.1V44.2
	c0-4.1,2.9-7.6,7-7.8c4.3-0.2,7.7,3.2,7.7,7.5l0,14.8c0,3.6,2.9,6.3,6.5,6.3H72.8z M126,48.1c-2.2-1.9-5.7-1.7-7.5,0.6l-3.3,4.1
	C110.2,26,86.6,5.5,58.3,5.5C26.4,5.5,0.5,31.5,0.5,63.4s25.9,57.8,57.8,57.8c19.2,0,37.2-9.5,47.9-25.5c2-3,1.2-7-1.7-9
	c-3-2-7-1.2-9,1.7c-8.4,12.4-22.3,19.8-37.2,19.8c-24.7,0-44.8-20.1-44.8-44.8c0-24.7,20.1-44.8,44.8-44.8c21.9,0,40.1,15.8,44,36.5
	l-5-4c-2.3-1.8-5.7-1.3-7.4,1.1c-1.6,2.3-1.1,5.5,1.1,7.2l15.7,12.4c1.1,0.9,2.7,1.3,4,1.1c1.3-0.2,2.7-0.8,3.6-1.9l12.4-15.7
	C128.4,53.2,128.1,49.9,126,48.1z"/>
</svg>
