<?xml version="1.0" encoding="utf-8"?>
<!-- Generator: Adobe Illustrator 18.0.0, SVG Export Plug-In . SVG Version: 6.00 Build 0)  -->
<!DOCTYPE svg PUBLIC "-//W3C//DTD SVG 1.1//EN" "http://www.w3.org/Graphics/SVG/1.1/DTD/svg11.dtd">
<svg version="1.1" id="Layer_1" xmlns="http://www.w3.org/2000/svg" xmlns:xlink="http://www.w3.org/1999/xlink" x="0px" y="0px"
	 width="128px" height="128px" viewBox="0 0 128 128" enable-background="new 0 0 128 128" xml:space="preserve">
<path d="M63.9,72h19.5c4.1,0,7.6-3.1,7.8-7.2c0.2-4.3-3.3-7.8-7.5-7.8h-5.7c-3.6,0-6.5-2.8-6.5-6.3l0-14.8c0-4.3-3.2-7.7-7.6-7.5
	C59.8,28.5,57,32,57,36.1v28.7c0,2.1,0.5,3.8,1.9,5.2C60.3,71.3,61.8,72,63.9,72z"/>
<path d="M64,126c34.2,0,62-27.8,62-62c0-34.2-27.8-62-62-62S2,29.8,2,64C2,98.2,29.8,126,64,126z M64,22c23.2,0,42,18.8,42,42
	s-18.8,42-42,42S22,87.2,22,64S40.8,22,64,22z"/>
</svg>
