<?xml version="1.0" encoding="utf-8"?>
<!-- Generator: Adobe Illustrator 18.0.0, SVG Export Plug-In . SVG Version: 6.00 Build 0)  -->
<!DOCTYPE svg PUBLIC "-//W3C//DTD SVG 1.1//EN" "http://www.w3.org/Graphics/SVG/1.1/DTD/svg11.dtd">
<svg version="1.1" id="Capa_1" xmlns="http://www.w3.org/2000/svg" xmlns:xlink="http://www.w3.org/1999/xlink" x="0px" y="0px"
	 width="1000px" height="1000px" viewBox="0 0 1000 1000" enable-background="new 0 0 1000 1000" xml:space="preserve">
<path d="M276.8,849.1h555.3c4.1,0,8.2-0.4,12.2-1.3c83.4-19.6,146.4-94.6,146.4-183c0-76.1-46.7-142.3-113-169.6
	C875.7,305,721,150.9,530.4,150.9c-130,0-243.2,71.2-302.8,176.9C99.3,348.8,2.4,465.5,9.7,601.2
	C17.3,741.2,136.6,849.1,276.8,849.1z M369,491.7H641c27.6,0,50,22.4,50,50s-22.4,50-50,50H369c-27.6,0-50-22.4-50-50
	S341.4,491.7,369,491.7z"/>
</svg>
