<?xml version="1.0" encoding="utf-8"?>
<!-- Generator: Adobe Illustrator 18.0.0, SVG Export Plug-In . SVG Version: 6.00 Build 0)  -->
<!DOCTYPE svg PUBLIC "-//W3C//DTD SVG 1.1//EN" "http://www.w3.org/Graphics/SVG/1.1/DTD/svg11.dtd">
<svg version="1.1" id="Capa_1" xmlns="http://www.w3.org/2000/svg" xmlns:xlink="http://www.w3.org/1999/xlink" x="0px" y="0px"
	 width="128px" height="128px" viewBox="0 0 128 128" enable-background="new 0 0 128 128" xml:space="preserve">
<path d="M118.8,20H8.5c-3.3,0-6,2.7-6,6v80c0,3.3,2.7,6,6,6h110.3c3.3,0,6-2.7,6-6V26C124.8,22.7,122.1,20,118.8,20z M45.1,62.6
	L25.4,82.3c-1.7,1.7-4.2,2.3-6.3,1.4c-4.3-1.8-5-7-2.1-9.9l11.2-11.2c2.3-2.3,2.3-6.1,0-8.5L16.9,42.9C14,40,14.7,34.8,19,33
	c2.2-0.9,4.7-0.3,6.3,1.4l19.7,19.7c1.2,1.2,1.8,2.7,1.8,4.2S46.3,61.4,45.1,62.6z M89,84H53c-3.3,0-6-2.7-6-6s2.7-6,6-6h36
	c3.3,0,6,2.7,6,6S92.3,84,89,84z"/>
</svg>
