<?xml version="1.0" encoding="utf-8"?>
<!-- Generator: Adobe Illustrator 18.0.0, SVG Export Plug-In . SVG Version: 6.00 Build 0)  -->
<!DOCTYPE svg PUBLIC "-//W3C//DTD SVG 1.1//EN" "http://www.w3.org/Graphics/SVG/1.1/DTD/svg11.dtd">
<svg version="1.1" id="Layer_1" xmlns="http://www.w3.org/2000/svg" xmlns:xlink="http://www.w3.org/1999/xlink" x="0px" y="0px"
	 width="128px" height="128px" viewBox="0 0 128 128" enable-background="new 0 0 128 128" xml:space="preserve">
<path d="M112,119.6V36c0-5.5-2.6-10.8-6.6-14.8L91.6,7.9C87.7,3.9,82.2,2,76.6,2H23.1C19.7,2,16,4.3,16,7.7v111.9
	c0,3.4,3.7,6.4,7.1,6.4h81.8C108.3,126,112,123,112,119.6z M40.6,67.8l9.1,9.1c1.9,1.9,1.8,4.9-0.2,6.7c-1.8,1.7-4.7,1.5-6.5-0.2
	L28,68.3c-0.9-0.9-1.4-2.1-1.4-3.3s0.5-2.4,1.4-3.3l15.1-15.1c1.8-1.8,4.6-1.9,6.5-0.2c2,1.8,2,4.8,0.2,6.7l-9.1,9.1
	C39.1,63.8,39.1,66.3,40.6,67.8z M100,68.3L84.9,83.4c-1.8,1.8-4.6,1.9-6.5,0.2c-2-1.8-2-4.8-0.2-6.7l9.1-9.1c1.5-1.5,1.5-4,0-5.6
	l-9.1-9.1c-1.9-1.9-1.8-4.9,0.2-6.7c1.8-1.7,4.7-1.5,6.5,0.2L100,61.8c0.9,0.9,1.4,2.1,1.4,3.3S100.9,67.4,100,68.3z"/>
</svg>
