<?xml version="1.0" encoding="utf-8"?>
<!-- Generator: Adobe Illustrator 18.0.0, SVG Export Plug-In . SVG Version: 6.00 Build 0)  -->
<!DOCTYPE svg PUBLIC "-//W3C//DTD SVG 1.1//EN" "http://www.w3.org/Graphics/SVG/1.1/DTD/svg11.dtd">
<svg version="1.1" id="Layer_1" xmlns="http://www.w3.org/2000/svg" xmlns:xlink="http://www.w3.org/1999/xlink" x="0px" y="0px"
	 width="128px" height="128px" viewBox="0 0 128 128" enable-background="new 0 0 128 128" xml:space="preserve">
<path d="M3,105.8C3,116,10.9,124,21.2,124h27.6l24.8-24.7c-1.3-2.8-2-5.8-2-9.1c0-12.2,10-22,22.2-22c6.8,0,13.2,3.2,17.2,8.1
	c3,3.8,5,8.7,5,14c0,8.7-5.3,16.5-13.2,19.9c-5.2,2.3-13.4,3.3-18.3-0.3l-13.8,14h35.4c10.2,0,18.9-8,18.9-18.2V20.9
	C125,10.7,116.3,2,106.1,2H41c0,0,0,12.9,0,12.9c0,0.1,3,1.1,3.3,1.3c1.3,0.6,2.5,1.4,3.6,2.2c4,2.7,6.8,7,11.6,8.4
	c1.5,0.4,7.3,0.5,8.9,0c2.9-0.8,5.2-2.8,7.3-4.8c4.8-4.5,10.4-8.2,17.3-8.2c6.8,0,14,3.6,18,9.1c5.5,7.4,5.6,19.4,0,26.8
	c-4,5.4-10.6,8.8-17.9,8.8c-4.4,0-8.9-1.3-12.6-3.9c-4.3-2.9-7-7.3-12.2-8.9c-1.5-0.4-7.4-0.4-8.9,0c-5.2,1.5-8.1,5.9-12.4,8.9
	c-3.7,2.5-7.8,3.9-12.3,3.9C27.4,58.4,21,54.7,17,49c-4.2-5.9-5.4-13.7-2.9-20.5c2.2-6.1,6.9-11,12.9-13.2V2h-5.8
	C10.9,2,3,10.7,3,20.9V105.8z"/>
<circle cx="94.2" cy="90" r="10"/>
<circle cx="35.1" cy="35.9" r="9.6"/>
<circle cx="92.9" cy="35.9" r="9.6"/>
</svg>
