<?xml version="1.0" encoding="utf-8"?>
<!-- Generator: Adobe Illustrator 18.0.0, SVG Export Plug-In . SVG Version: 6.00 Build 0)  -->
<!DOCTYPE svg PUBLIC "-//W3C//DTD SVG 1.1//EN" "http://www.w3.org/Graphics/SVG/1.1/DTD/svg11.dtd">
<svg version="1.1" id="Layer_1" xmlns="http://www.w3.org/2000/svg" xmlns:xlink="http://www.w3.org/1999/xlink" x="0px" y="0px"
	 width="128px" height="128px" viewBox="0 0 128 128" enable-background="new 0 0 128 128" xml:space="preserve">
<path d="M49.5,24.8c0-12.7-10.3-23-23-23s-23,10.3-23,23c0,10.4,7,19.3,16.5,22.1v33.9c-9.5,2.8-16.5,11.6-16.5,22.1
	c0,12.7,10.3,23,23,23s23-10.3,23-23c0-10.4-7-19.3-16.5-22.1V46.8C42.5,44,49.5,35.2,49.5,24.8z M35.5,102.8c0,5-4,9-9,9s-9-4-9-9
	c0-5,4-9,9-9S35.5,97.8,35.5,102.8z M26.5,33.8c-5,0-9-4-9-9c0-5,4-9,9-9s9,4,9,9C35.5,29.7,31.5,33.8,26.5,33.8z"/>
<path d="M123.7,102.6c0-10.1-6.7-18.7-15.7-21.9V21.4c0-2.2-1.1-3.4-4-3.4H92.6H84h-5.2l5.3-4.5c1.3-1.3,2.1-2.7,2.1-4.6
	c0-1.9-0.7-3.5-2.1-4.9c-1.3-1.3-3.1-2-5-2c-1.9,0-3.7,0.8-5,2.1C56.6,21.6,56.6,21.7,56.6,21.7c-1.3,1.4-2,3.4-1.9,5.3
	c0.1,1.8,0.9,3.4,2.3,4.8c0.1,0.1,17.1,17.1,17.1,17.1c1.3,1.3,3.1,2.1,5,2.1c1.9,0,3.7-0.7,5-2.1c1.3-1.3,2.1-3.1,2.1-5
	c0-1.9-0.7-4-2.1-5.4L78.9,33H84h4.8c1.9,0,3.2,1.6,3.2,3.5V81c-8,3.4-14.5,11.8-14.5,21.5c0,12.8,10.2,23.2,23,23.2
	C113.3,125.8,123.7,115.4,123.7,102.6z M100.8,111.6c-5,0-9.1-4.1-9.1-9.1s4.1-9.1,9.1-9.1c5,0,9.1,4.1,9.1,9.1
	S105.8,111.6,100.8,111.6z"/>
</svg>
