<?xml version="1.0" encoding="utf-8"?>
<!-- Generator: Adobe Illustrator 18.0.0, SVG Export Plug-In . SVG Version: 6.00 Build 0)  -->
<!DOCTYPE svg PUBLIC "-//W3C//DTD SVG 1.1//EN" "http://www.w3.org/Graphics/SVG/1.1/DTD/svg11.dtd">
<svg version="1.1" id="Capa_1" xmlns="http://www.w3.org/2000/svg" xmlns:xlink="http://www.w3.org/1999/xlink" x="0px" y="0px"
	 width="128px" height="128px" viewBox="0 0 128 128" enable-background="new 0 0 128 128" xml:space="preserve">
<path d="M27,4H15c-3.3,0-6,2.7-6,6v9.3h24V10C33,6.7,30.3,4,27,4z"/>
<path d="M9,118c0,3.3,2.7,6,6,6h12c3.3,0,6-2.7,6-6V47.3H9V118z"/>
<path d="M8.3,39.3H9h24h0.7c3.3,0,6-2.7,6-6s-2.7-6-6-6H33H9H8.3c-3.3,0-6,2.7-6,6S5,39.3,8.3,39.3z"/>
<path d="M76.7,10c0-3.3-2.7-6-6-6h-12c-3.3,0-6,2.7-6,6v66.9h24V10z"/>
<path d="M52.7,118c0,3.3,2.7,6,6,6h12c3.3,0,6-2.7,6-6v-13.1h-24V118z"/>
<path d="M77.3,96.9c3.3,0,6-2.7,6-6c0-3.3-2.7-6-6-6h-0.7h-24H52c-3.3,0-6,2.7-6,6c0,3.3,2.7,6,6,6h0.7h24H77.3z"/>
<path d="M114.3,4h-12c-3.3,0-6,2.7-6,6v29.3h24V10C120.3,6.7,117.6,4,114.3,4z"/>
<path d="M114.3,124c3.3,0,6-2.7,6-6V67.3h-24V118c0,3.3,2.7,6,6,6H114.3z"/>
<path d="M121,47.3h-0.7h-24h-0.7c-3.3,0-6,2.7-6,6s2.7,6,6,6h0.7h24h0.7c3.3,0,6-2.7,6-6S124.3,47.3,121,47.3z"/>
</svg>
