<?xml version="1.0" encoding="utf-8"?>
<!-- Generator: Adobe Illustrator 18.0.0, SVG Export Plug-In . SVG Version: 6.00 Build 0)  -->
<!DOCTYPE svg PUBLIC "-//W3C//DTD SVG 1.1//EN" "http://www.w3.org/Graphics/SVG/1.1/DTD/svg11.dtd">
<svg version="1.1" id="Layer_1" xmlns="http://www.w3.org/2000/svg" xmlns:xlink="http://www.w3.org/1999/xlink" x="0px" y="0px"
	 width="128px" height="128px" viewBox="0 0 128 128" enable-background="new 0 0 128 128" xml:space="preserve">
<path d="M125,77V31c0-11-9-20-20-20H23C12,11,3,20,3,31v46c0,11,9,20,20,20h23.5l-10,10.6c-3.6,3.8-0.9,10.4,4.3,10.4h46.2
	c5.3,0,8-6.5,4.3-10.4L81.5,97H105C116,97,125,88,125,77z M112,79.2c0,3.3-2.7,5.8-6,5.8H70.2H57.8h-2c-2,0-3.6-0.7-4.6-2
	c-1.8-2.2-2-5.7,0.4-8l50-50l0.2-0.2C105.5,21,112,23.7,112,29V79.2z"/>
</svg>
