<?xml version="1.0" encoding="utf-8"?>
<!-- Generator: Adobe Illustrator 18.0.0, SVG Export Plug-In . SVG Version: 6.00 Build 0)  -->
<!DOCTYPE svg PUBLIC "-//W3C//DTD SVG 1.1//EN" "http://www.w3.org/Graphics/SVG/1.1/DTD/svg11.dtd">
<svg version="1.1" id="Layer_1" xmlns="http://www.w3.org/2000/svg" xmlns:xlink="http://www.w3.org/1999/xlink" x="0px" y="0px"
	 width="128px" height="128px" viewBox="0 0 128 128" enable-background="new 0 0 128 128" xml:space="preserve">
<path d="M23,125h82c11,0,20-9,20-20V23c0-11-9-20-20-20H93H24h-1C12,3,3,12,3,23v82C3,116,12,125,23,125z M18,23c0-3.3,2.7-6,6-6h69
	c5.3,0,8,6.5,4.2,10.2l-69,69C27,97.4,25.5,98,24,98c-3.1,0-6-2.4-6-6V23z"/>
</svg>
