<?xml version="1.0" encoding="utf-8"?>
<!-- Generator: Adobe Illustrator 18.0.0, SVG Export Plug-In . SVG Version: 6.00 Build 0)  -->
<!DOCTYPE svg PUBLIC "-//W3C//DTD SVG 1.1//EN" "http://www.w3.org/Graphics/SVG/1.1/DTD/svg11.dtd">
<svg version="1.1" id="Capa_1" xmlns="http://www.w3.org/2000/svg" xmlns:xlink="http://www.w3.org/1999/xlink" x="0px" y="0px"
	 width="1000px" height="1000px" viewBox="0 0 1000 1000" enable-background="new 0 0 1000 1000" xml:space="preserve">
<path d="M918,83h-58c0,0.8,0,1.5,0,2.3V315h58c33.1,0,60-26.9,60-60V143C978,109.9,951.1,83,918,83z"/>
<path d="M978,556V444c0-33.1-26.9-60-60-60h-58v232h58C951.1,616,978,589.1,978,556z"/>
<path d="M860,909.5c0,2.5-0.1,5-0.2,7.5H918c33.1,0,60-26.9,60-60V745c0-33.1-26.9-60-60-60h-58V909.5z"/>
<path d="M759.3,28.5c-6.1-2.1-12.5-3.2-19.3-3.2H203v3.2v941h537c30.6,0,55.8-22.9,59.5-52.5c0.3-2.5,0.5-5,0.5-7.5V685v-69V384v-69
	V85.3c0-0.8,0-1.5-0.1-2.3C799,57.6,782.3,36.3,759.3,28.5z M479.9,480H329.3c-22.1,0-40-17.9-40-40s17.9-40,40-40h150.5
	c22.1,0,40,17.9,40,40S502,480,479.9,480z M630.4,297.8H329.3c-22.1,0-40-17.9-40-40s17.9-40,40-40h301.1c22.1,0,40,17.9,40,40
	S652.5,297.8,630.4,297.8z"/>
<path d="M57.1,28.5c-23.7,8-40.7,30.4-40.7,56.8v824.2c0,33.1,26.9,60,60,60H133v-941v-3.2H76.4C69.6,25.3,63.1,26.4,57.1,28.5z"/>
</svg>
