<?xml version="1.0" encoding="utf-8"?>
<!-- Generator: Adobe Illustrator 18.0.0, SVG Export Plug-In . SVG Version: 6.00 Build 0)  -->
<!DOCTYPE svg PUBLIC "-//W3C//DTD SVG 1.1//EN" "http://www.w3.org/Graphics/SVG/1.1/DTD/svg11.dtd">
<svg version="1.1" id="Capa_1" xmlns="http://www.w3.org/2000/svg" xmlns:xlink="http://www.w3.org/1999/xlink" x="0px" y="0px"
	 width="1000px" height="1000px" viewBox="0 0 1000 1000" enable-background="new 0 0 1000 1000" xml:space="preserve">
<path d="M990.8,301.6c0-16.6-13.4-30-30-30H754.5c-16.6,0-30-13.4-30-30V39.3c0-16.6-13.4-30-30-30H479.3c-24.9,0-45,20.1-45,45
	v156.8c0.4,0.4,0.9,0.8,1.3,1.3l175.1,175.1c14.3,14.3,21.9,33.3,21.8,52.7h0.1v303.2h313.1c24.9,0,45-20.1,45-45V301.6z"/>
<path d="M811.3,13.8c-9.4-9.4-25.6-2.8-25.6,10.6v175.1c0,8.3,6.7,15,15,15h175.1c13.4,0,20.1-16.2,10.6-25.6L811.3,13.8z"/>
<path d="M61.5,984.2L61.5,984.2H528c0,0,0,0,0,0c24.9,0,45-20.1,45-45V743.4V546.4c0-16.6-13.4-30-30-30H434.3h-96.5
	c-16.6,0-30-13.4-30-30v-46.1V280.1c0-16.6-13.4-30-30-30H61.5c-24.9,0-45,20.1-45,36v644.1c0,9,1.4,17,4,24
	C27.6,973.3,43.3,984.2,61.5,984.2z"/>
<path d="M382.9,455.2h51.3H558c9,0,14.9-7.3,15-15c0-3.7-1.3-7.5-4.4-10.6L434.3,295.2l-40.7-40.7c-3.1-3.1-6.8-4.4-10.5-4.4
	c-7.7,0-15.1,6-15.1,15v175.1c0,0,0,0,0,0C367.9,448.5,374.7,455.2,382.9,455.2z"/>
</svg>
