<?xml version="1.0" encoding="utf-8"?>
<!-- Generator: Adobe Illustrator 18.0.0, SVG Export Plug-In . SVG Version: 6.00 Build 0)  -->
<!DOCTYPE svg PUBLIC "-//W3C//DTD SVG 1.1//EN" "http://www.w3.org/Graphics/SVG/1.1/DTD/svg11.dtd">
<svg version="1.1" id="Layer_1" xmlns="http://www.w3.org/2000/svg" xmlns:xlink="http://www.w3.org/1999/xlink" x="0px" y="0px"
	 width="128px" height="128px" viewBox="0 0 128 128" enable-background="new 0 0 128 128" xml:space="preserve">
<path d="M126,28.9c0-3.4-2.8-5.9-6.2-5.9H8.2C4.8,23,2,25.4,2,28.9V40h124V28.9z"/>
<path d="M8.2,105h111.6c3.4,0,6.2-2.4,6.2-5.9V54H2v45.1C2,102.6,4.8,105,8.2,105z M109,80.7c3.9,0,7,3.1,7,7c0,3.9-3.1,7-7,7
	s-7-3.1-7-7C102,83.8,105.1,80.7,109,80.7z M12,86.7c0-3.3,2.6-5.7,5.8-5.7h28.4c3.2,0,5.8,2.4,5.8,5.7v2c0,3.3-2.7,6.3-5.8,6.3
	H17.8c-3.2,0-5.8-3-5.8-6.3V86.7z"/>
</svg>
