<?xml version="1.0" encoding="utf-8"?>
<!-- Generator: Adobe Illustrator 18.0.0, SVG Export Plug-In . SVG Version: 6.00 Build 0)  -->
<!DOCTYPE svg PUBLIC "-//W3C//DTD SVG 1.1//EN" "http://www.w3.org/Graphics/SVG/1.1/DTD/svg11.dtd">
<svg version="1.1" id="Layer_1" xmlns="http://www.w3.org/2000/svg" xmlns:xlink="http://www.w3.org/1999/xlink" x="0px" y="0px"
	 width="128px" height="128px" viewBox="0 0 128 128" enable-background="new 0 0 128 128" xml:space="preserve">
<path d="M126,104V22c0-11-9-20-20-20H24C13,2,4,11,4,22v82c0,11,9,20,20,20h82C117,124,126,115,126,104z M112,104c0,3.3-2.7,6-6,6
	H24c-3.3,0-6-2.7-6-6V22c0-3.3,2.7-6,6-6h82c3.3,0,6,2.7,6,6V104z"/>
<path d="M86.2,53H75V42c0-4.7-4.1-9-8.8-9h-2.9c-4.7,0-8.3,4.3-8.3,9v11H43.3c-4.7,0-8.3,4.3-8.3,9v2.9c0,4.7,3.6,8.1,8.3,8.1H55
	v11.9c0,4.7,3.6,8.1,8.3,8.1h2.9c4.7,0,8.8-3.4,8.8-8.1V73h11.2c4.7,0,8.8-3.4,8.8-8.1V62C95,57.3,90.9,53,86.2,53z"/>
</svg>
