<?xml version="1.0" encoding="utf-8"?>
<!-- Generator: Adobe Illustrator 18.0.0, SVG Export Plug-In . SVG Version: 6.00 Build 0)  -->
<!DOCTYPE svg PUBLIC "-//W3C//DTD SVG 1.1//EN" "http://www.w3.org/Graphics/SVG/1.1/DTD/svg11.dtd">
<svg version="1.1" id="Capa_1" xmlns="http://www.w3.org/2000/svg" xmlns:xlink="http://www.w3.org/1999/xlink" x="0px" y="0px"
	 width="128px" height="128px" viewBox="0 0 128 128" enable-background="new 0 0 128 128" xml:space="preserve">
<path d="M123.8,13.4L115.3,5c-2.3-2.3-6.1-2.3-8.5,0L64.4,47.4L21.2,4.2c-2.3-2.3-6.1-2.3-8.5,0l-8.5,8.5c-2.3,2.3-2.3,6.1,0,8.5
	l43.1,43.1L5,106.8c-2.3,2.3-2.3,6.1,0,8.5l8.5,8.5c2.3,2.3,6.1,2.3,8.5,0l42.4-42.4l42.4,42.4c2.3,2.3,6.1,2.3,8.5,0l8.5-8.5
	c2.3-2.3,2.3-6.1,0-8.5L81.3,64.4l42.4-42.4C126.1,19.6,126.1,15.8,123.8,13.4z"/>
</svg>
