<?xml version="1.0" encoding="utf-8"?>
<!-- Generator: Adobe Illustrator 18.0.0, SVG Export Plug-In . SVG Version: 6.00 Build 0)  -->
<!DOCTYPE svg PUBLIC "-//W3C//DTD SVG 1.1//EN" "http://www.w3.org/Graphics/SVG/1.1/DTD/svg11.dtd">
<svg version="1.1" id="Capa_1" xmlns="http://www.w3.org/2000/svg" xmlns:xlink="http://www.w3.org/1999/xlink" x="0px" y="0px"
	 width="1000px" height="1000px" viewBox="0 0 1000 1000" enable-background="new 0 0 1000 1000" xml:space="preserve">
<path d="M354.8,109.7l423.6,151c6.4,2.3,13.5,2.3,19.9,0.1l140.8-48.9c13.4-4.7,13.4-23.7,0-28.3L520.2,38.1
	c-6.5-2.3-13.4-3.4-20.2-3.4s-13.6,1.1-20.2,3.4L354.9,81.4C341.6,86.1,341.5,105,354.8,109.7z"/>
<path d="M60.9,211.9l102,35.4l317.4,110.2c12.7,4.4,26.6,4.4,39.4,0L642.3,315c13.4-4.6,13.5-23.6,0.1-28.3L218.5,135.8
	c-6.4-2.3-13.5-2.3-19.9-0.1L60.9,183.6C47.4,188.2,47.4,207.2,60.9,211.9z"/>
<path d="M61.4,812.6L425.5,939c13,4.5,26.6-5.1,26.6-18.9V460.9c0-17-10.8-32.2-26.9-37.8L40,289.3c-9.7-3.4-19.9,3.9-19.9,14.2v451
	C20.1,780.7,36.7,804,61.4,812.6z"/>
<path d="M548,460.9v459.3c0,13.8,13.6,23.4,26.6,18.9l364.1-126.4c24.8-8.6,41.3-31.9,41.3-58.1v-451c0-10.3-10.2-17.6-19.9-14.2
	L574.8,423.1C558.7,428.7,548,443.9,548,460.9z"/>
</svg>
