<?xml version="1.0" encoding="utf-8"?>
<!-- Generator: Adobe Illustrator 18.0.0, SVG Export Plug-In . SVG Version: 6.00 Build 0)  -->
<!DOCTYPE svg PUBLIC "-//W3C//DTD SVG 1.1//EN" "http://www.w3.org/Graphics/SVG/1.1/DTD/svg11.dtd">
<svg version="1.1" id="Capa_1" xmlns="http://www.w3.org/2000/svg" xmlns:xlink="http://www.w3.org/1999/xlink" x="0px" y="0px"
	 width="128px" height="128px" viewBox="0 0 128 128" enable-background="new 0 0 128 128" xml:space="preserve">
<path d="M28.3,91.1c15.1,0,27.3-12.3,27.3-27.3S43.4,36.5,28.3,36.5C13.3,36.5,1,48.7,1,63.8S13.3,91.1,28.3,91.1z M43.7,63.8
	c0,8.5-6.9,15.3-15.3,15.3c-2,0-4-0.4-5.8-1.1l20-20C43.3,59.8,43.7,61.7,43.7,63.8z M28.3,48.4c2,0,4,0.4,5.8,1.1l-20,20
	c-0.7-1.8-1.1-3.7-1.1-5.8C13,55.3,19.9,48.4,28.3,48.4z"/>
<path d="M81.2,46.2c1.6-1.6,3.7-2.4,5.7-2.4c2.1,0,4.2,0.8,5.7,2.4c3.2,3.2,3.2,8.3,0,11.5L88.2,62h10.4c3.2,0,6.2-1.3,8.5-3.5
	c2.3-2.3,3.5-5.3,3.5-8.5V39.7c0-4.5,3.6-8.1,8.1-8.1c4.5,0,8.1,3.6,8.1,8.1v10.2c0,3.8-0.8,7.5-2.2,11c-1.4,3.4-3.5,6.4-6.1,9
	c-2.6,2.6-5.6,4.6-9,6.1c-3.5,1.5-7.2,2.2-11,2.2H88.3l4.4,4.4c3.2,3.2,3.2,8.3,0,11.5c-3.2,3.2-8.3,3.2-11.5,0L63,75.9
	c-3.2-3.2-3.2-8.3,0-11.5L81.2,46.2z"/>
</svg>
