<?xml version="1.0" encoding="utf-8"?>
<!-- Generator: Adobe Illustrator 18.0.0, SVG Export Plug-In . SVG Version: 6.00 Build 0)  -->
<!DOCTYPE svg PUBLIC "-//W3C//DTD SVG 1.1//EN" "http://www.w3.org/Graphics/SVG/1.1/DTD/svg11.dtd">
<svg version="1.1" id="Layer_1" xmlns="http://www.w3.org/2000/svg" xmlns:xlink="http://www.w3.org/1999/xlink" x="0px" y="0px"
	 width="128px" height="128px" viewBox="0 0 128 128" enable-background="new 0 0 128 128" xml:space="preserve">
<path d="M64.1,2C64.1,2,64,2,64.1,2c-0.1,0-0.2,0-0.2,0C41.5,2,23.3,9.1,22,17c0,0.1,0,0.2,0,0.4c0,1.9,0.1,18.5,0.1,22.7
	c0,0.6,0.2,1.1,0.7,1.5C27.4,45.5,41.3,51,64,51c0,0,0,0,0,0c0,0,0,0,0,0c22.6,0,36.6-5.5,41.2-9.4c0.4-0.4,0.7-1.1,0.7-1.7
	c0-4.2,0-22.7,0-22.9C104.7,9.1,86.5,2,64.1,2z M64,27C64,27,64,27,64,27C64,27,64,27,64,27c-15.7,0-28.4-3.7-28.4-8.5
	c0-4.8,12.7-8.5,28.3-8.5c0,0,0,0,0,0c0,0,0,0,0,0c15.7,0,28.3,3.7,28.3,8.5C92.4,23.3,79.7,27,64,27z"/>
<path d="M22,107.7c0,1.8,0.1,3.7,1,5.3c0.5,1,1.2,1.8,2,2.6c7.4,7.1,20.4,9.2,30.1,10c5.8,0.5,11.9,0.5,17.8,0
	c9.8-0.8,22.8-2.8,30.1-10c0.8-0.8,1.5-1.6,2-2.6c0.9-1.6,1-3.5,1-5.3c0-0.6,0-7.3,0-11.4c0-1.4-1.5-2.4-2.8-1.8
	c-10.7,4.4-25,6.5-39.2,6.5c0,0,0,0,0,0s0,0,0,0c-14.2,0-28.5-2.1-39.2-6.5c-1.3-0.5-2.8,0.4-2.8,1.8C22,100.4,22,107.1,22,107.7z"
	/>
<path d="M64,87C64,87,64,87,64,87C64,87,64,87,64,87c22.8,0,36.8-5.8,41.3-9.7c0.4-0.4,0.7-0.9,0.7-1.5c0-2.7,0-10.9,0-15.5
	c0-1.4-1.5-2.4-2.8-1.8C92.5,62.9,78.2,65,64,65c0,0,0,0,0,0s0,0,0,0c-14.2,0-28.4-2.1-39.1-6.5c-1.3-0.5-2.8,0.4-2.8,1.8
	c0,4.5,0,12.8,0,15.5c0,0.6,0.2,1.1,0.7,1.5C27.3,81.2,41.2,87,64,87z"/>
</svg>
