<?xml version="1.0" encoding="utf-8"?>
<!-- Generator: Adobe Illustrator 18.0.0, SVG Export Plug-In . SVG Version: 6.00 Build 0)  -->
<!DOCTYPE svg PUBLIC "-//W3C//DTD SVG 1.1//EN" "http://www.w3.org/Graphics/SVG/1.1/DTD/svg11.dtd">
<svg version="1.1" id="Capa_1" xmlns="http://www.w3.org/2000/svg" xmlns:xlink="http://www.w3.org/1999/xlink" x="0px" y="0px"
	 width="1000px" height="1000px" viewBox="0 0 1000 1000" enable-background="new 0 0 1000 1000" xml:space="preserve">
<path d="M240.2,474c68.8,26.9,161,41.7,259.8,41.7s191-14.8,259.8-41.7c65.1-25.4,88.2-53.6,88.2-70v-124
	c-20.6,14.1-44.9,26.7-72.8,37.6C700.4,346.9,602.7,363,500,363s-200.4-16.1-275.2-45.3c-27.9-10.9-52.3-23.5-72.8-37.6v124
	C152,420.5,175.1,448.6,240.2,474z"/>
<path d="M240.2,708.2c27,10.6,57.6,19.2,90.8,25.9c51.4,10.3,109,15.8,169,15.8s117.6-5.5,169-15.8c33.2-6.7,63.8-15.3,90.8-25.9
	c65.1-25.4,88.2-53.6,88.2-70V519.8c-17.1,10.5-36.9,20.1-59.1,28.8C711.1,579,608.5,595.7,500,595.7S288.9,579,211.1,548.6
	c-22.2-8.7-41.9-18.3-59.1-28.8v118.5C152,654.6,175.1,682.7,240.2,708.2z"/>
<path d="M500,989c192.2,0,348-60.9,348-136v-99.1c-15.7,9.6-33.6,18.5-53.6,26.6c-1.8,0.7-3.7,1.5-5.5,2.2
	c-77.8,30.4-180.4,47.2-288.9,47.2s-211.1-16.7-288.9-47.2c-1.9-0.7-3.7-1.5-5.5-2.2c-20-8.1-37.9-17-53.6-26.6V853
	C152,928.1,307.8,989,500,989z"/>
<ellipse cx="500" cy="147" rx="348" ry="136"/>
</svg>
