<?xml version="1.0" encoding="utf-8"?>
<!-- Generator: Adobe Illustrator 18.0.0, SVG Export Plug-In . SVG Version: 6.00 Build 0)  -->
<!DOCTYPE svg PUBLIC "-//W3C//DTD SVG 1.1//EN" "http://www.w3.org/Graphics/SVG/1.1/DTD/svg11.dtd">
<svg version="1.1" id="Capa_1" xmlns="http://www.w3.org/2000/svg" xmlns:xlink="http://www.w3.org/1999/xlink" x="0px" y="0px"
	 width="1000px" height="1000px" viewBox="0 0 1000 1000" enable-background="new 0 0 1000 1000" xml:space="preserve">
<path d="M930.8,388.5c0-33.1-26.9-60-60-60H759.1c-33.1,0-60,26.9-60,60v407.9h231.7V388.5z"/>
<path d="M615.8,240.2c0-33.1-26.9-60-60-60H444.2c-33.1,0-60,26.9-60,60v556.2h231.7V240.2z"/>
<path d="M300.9,796.3V84c0-33.1-26.9-60-60-60H129.2c-33.1,0-60,26.9-60,60v712.3h0H300.9z"/>
<path d="M9.2,926.3c0,33.1,26.9,60,60,60h861.5c33.1,0,60-26.9,60-60c0-33.1-26.9-60-60-60h-9.3H708.4H606.6H393.4H291.6H78.5h-9.3
	C36.1,866.3,9.2,893.2,9.2,926.3z"/>
</svg>
