<?xml version="1.0" encoding="utf-8"?>
<!-- Generator: Adobe Illustrator 18.0.0, SVG Export Plug-In . SVG Version: 6.00 Build 0)  -->
<!DOCTYPE svg PUBLIC "-//W3C//DTD SVG 1.1//EN" "http://www.w3.org/Graphics/SVG/1.1/DTD/svg11.dtd">
<svg version="1.1" id="Capa_1" xmlns="http://www.w3.org/2000/svg" xmlns:xlink="http://www.w3.org/1999/xlink" x="0px" y="0px"
	 width="1000px" height="1000px" viewBox="0 0 1000 1000" enable-background="new 0 0 1000 1000" xml:space="preserve">
<path d="M883.6,171.3H594.3c-22.1,0-40,17.9-40,40s17.9,40,40,40h289.3c22.1,0,40-17.9,40-40S905.7,171.3,883.6,171.3z"/>
<path d="M594.3,537.5h193.3c22.1,0,40-17.9,40-40s-17.9-40-40-40H594.3c-22.1,0-40,17.9-40,40S572.2,537.5,594.3,537.5z"/>
<path d="M954.1,314.4H594.3c-22.1,0-40,17.9-40,40s17.9,40,40,40h359.8c22.1,0,40-17.9,40-40S976.2,314.4,954.1,314.4z"/>
<path d="M954.1,600.7H594.3c-22.1,0-40,17.9-40,40s17.9,40,40,40h359.8c22.1,0,40-17.9,40-40S976.2,600.7,954.1,600.7z"/>
<path d="M954.1,743.8H594.3c-22.1,0-40,17.9-40,40s17.9,40,40,40h359.8c22.1,0,40-17.9,40-40S976.2,743.8,954.1,743.8z"/>
<path d="M421.7,166.9H67.3c-33.1,0-60,26.9-60,60v546.3c0,33.1,26.9,60,60,60h354.4c33.1,0,60-26.9,60-60V226.9
	C481.7,193.7,454.9,166.9,421.7,166.9z"/>
</svg>
