<?xml version="1.0" encoding="utf-8"?>
<!-- Generator: Adobe Illustrator 18.0.0, SVG Export Plug-In . SVG Version: 6.00 Build 0)  -->
<!DOCTYPE svg PUBLIC "-//W3C//DTD SVG 1.1//EN" "http://www.w3.org/Graphics/SVG/1.1/DTD/svg11.dtd">
<svg version="1.1" id="Capa_1" xmlns="http://www.w3.org/2000/svg" xmlns:xlink="http://www.w3.org/1999/xlink" x="0px" y="0px"
	 width="1000px" height="1000px" viewBox="0 0 1000 1000" enable-background="new 0 0 1000 1000" xml:space="preserve">
<path d="M124.9,835.2c64.3,0,116.5-52.3,116.5-116.5c0-15.6-3.1-30.6-8.7-44.2l75.7-75.7c0.1,16.4,1.4,33.2,3.8,50.2
	c7.7,54,26.8,107.8,55.5,158.2c-1.5,4.5-2.3,9.3-2.3,14.2v133.7c0,24.9,20.1,45,45,45h133.7c24.9,0,45-20.1,45-45V821.5
	c0-24.9-20.1-45-45-45h-90c-5.6-9.1-10.9-18.3-15.7-27.7c-19.2-37.1-31.7-74.9-37.1-112.5c-10.5-73.2,7.3-137.2,50.1-180
	c42.8-42.8,106.7-60.6,180-50.1c37.6,5.4,75.4,17.9,112.5,37.1c9.3,4.8,18.4,10,27.4,15.5v96.5c0,24.9,20.1,45,45,45H950
	c24.9,0,45-20.1,45-45V421.5c0-24.9-20.1-45-45-45H816.3c-2.1,0-4.2,0.2-6.3,0.4c-52.6-31.2-109.1-51.8-165.8-59.9
	c-17-2.4-33.8-3.7-50.2-3.8l88.1-88.1c13.6,5.6,28.6,8.7,44.2,8.7c64.3,0,116.5-52.3,116.5-116.5S790.5,0.8,726.3,0.8
	S609.8,53,609.8,117.3c0,15.6,3.1,30.6,8.7,44.2L169.1,610.9c-13.6-5.6-28.6-8.7-44.2-8.7c-64.3,0-116.5,52.3-116.5,116.5
	S60.6,835.2,124.9,835.2z M905,510.3h-43.7v-43.7H905V510.3z M499.2,910.2h-43.7v-43.7h43.7V910.2z M699.8,117.3
	c0-14.6,11.9-26.5,26.5-26.5s26.5,11.9,26.5,26.5s-11.9,26.5-26.5,26.5S699.8,131.9,699.8,117.3z M151.4,718.7
	c0,14.6-11.9,26.5-26.5,26.5c-14.6,0-26.5-11.9-26.5-26.5s11.9-26.5,26.5-26.5C139.5,692.2,151.4,704.1,151.4,718.7z"/>
</svg>
