<?xml version="1.0" encoding="utf-8"?>
<!-- Generator: Adobe Illustrator 18.0.0, SVG Export Plug-In . SVG Version: 6.00 Build 0)  -->
<!DOCTYPE svg PUBLIC "-//W3C//DTD SVG 1.1//EN" "http://www.w3.org/Graphics/SVG/1.1/DTD/svg11.dtd">
<svg version="1.1" id="Capa_1" xmlns="http://www.w3.org/2000/svg" xmlns:xlink="http://www.w3.org/1999/xlink" x="0px" y="0px"
	 width="1000px" height="1000px" viewBox="0 0 1000 1000" enable-background="new 0 0 1000 1000" xml:space="preserve">
<path d="M405.1,171.3H115.8c-22.1,0-40,17.9-40,40s17.9,40,40,40h289.3c22.1,0,40-17.9,40-40S427.2,171.3,405.1,171.3z"/>
<path d="M405.1,457.5H211.8c-22.1,0-40,17.9-40,40s17.9,40,40,40h193.3c22.1,0,40-17.9,40-40S427.2,457.5,405.1,457.5z"/>
<path d="M405.1,314.4H45.3c-22.1,0-40,17.9-40,40s17.9,40,40,40h359.8c22.1,0,40-17.9,40-40S427.2,314.4,405.1,314.4z"/>
<path d="M405.1,600.7H45.3c-22.1,0-40,17.9-40,40s17.9,40,40,40h359.8c22.1,0,40-17.9,40-40S427.2,600.7,405.1,600.7z"/>
<path d="M405.1,743.8H45.3c-22.1,0-40,17.9-40,40s17.9,40,40,40h359.8c22.1,0,40-17.9,40-40S427.2,743.8,405.1,743.8z"/>
<path d="M932.1,166.9H577.7c-33.1,0-60,26.9-60,60v546.3c0,33.1,26.9,60,60,60h354.4c33.1,0,60-26.9,60-60V226.9
	C992.1,193.7,965.3,166.9,932.1,166.9z"/>
</svg>
