<?xml version="1.0" encoding="utf-8"?>
<!-- Generator: Adobe Illustrator 18.0.0, SVG Export Plug-In . SVG Version: 6.00 Build 0)  -->
<!DOCTYPE svg PUBLIC "-//W3C//DTD SVG 1.1//EN" "http://www.w3.org/Graphics/SVG/1.1/DTD/svg11.dtd">
<svg version="1.1" id="Capa_1" xmlns="http://www.w3.org/2000/svg" xmlns:xlink="http://www.w3.org/1999/xlink" x="0px" y="0px"
	 width="128px" height="128px" viewBox="0 0 128 128" enable-background="new 0 0 128 128" xml:space="preserve">
<path d="M99.6,22.4c-1.3-1.2-3-1.9-4.8-1.9H33.3c-1.8,0-3.5,0.7-4.8,1.9L3.7,46c-2.8,2.7-2.9,7.1-0.2,9.9l55.5,58.5
	c1.3,1.4,3.2,2.2,5.1,2.2s3.8-0.8,5.1-2.2l55.5-58.5c2.7-2.8,2.5-7.2-0.2-9.9L99.6,22.4z M107.6,53.5L69.2,94
	c-1.9,2-5.2,0.6-5.2-2.1V37.4c0-1.7,1.3-3,3-3h23.7c0.8,0,1.5,0.3,2.1,0.8l14.7,14C108.7,50.4,108.7,52.3,107.6,53.5z"/>
</svg>
