<?xml version="1.0" encoding="utf-8"?>
<!-- Generator: Adobe Illustrator 18.0.0, SVG Export Plug-In . SVG Version: 6.00 Build 0)  -->
<!DOCTYPE svg PUBLIC "-//W3C//DTD SVG 1.1//EN" "http://www.w3.org/Graphics/SVG/1.1/DTD/svg11.dtd">
<svg version="1.1" id="Capa_1" xmlns="http://www.w3.org/2000/svg" xmlns:xlink="http://www.w3.org/1999/xlink" x="0px" y="0px"
	 width="1000px" height="1000px" viewBox="0 0 1000 1000" enable-background="new 0 0 1000 1000" xml:space="preserve">
<path d="M67.6,992.5h864.9c33.2,0,60.1-26.9,60.1-60.1V67.5c0-33.2-26.9-60.1-60.1-60.1H67.6C34.4,7.5,7.5,34.3,7.5,67.5v864.9
	C7.5,965.7,34.4,992.5,67.6,992.5z M382.2,88.7c42.4,0,76.7,33.6,76.7,75.1c0,30.2-18.3,56.2-44.6,68.1l8.3,150h151.3
	c15.8,0,28.5,12.8,28.5,28.5v9.4c0,15.8-12.8,28.5-28.5,28.5H426.3l2.8,50.6h222.5c11.2,0,21.4,6.6,26,16.8l94.4,209.3l42.2-18.9
	c14.4-6.4,31.3,0,37.7,14.4l3.8,8.6c6.4,14.4,0,31.3-14.4,37.7l-76.7,34.3c-14.4,6.4-31.2,0-37.7-14.3l-92.3-204.7
	c-4.6-10.2-14.8-16.8-26-16.8H393.2c-15.1,0-27.6-11.8-28.5-27l-17-307.7c-25-12.4-42.2-37.7-42.2-67
	C305.5,122.3,339.8,88.7,382.2,88.7z M276.2,425.8c9.2-6.3,21.7-0.2,22.3,11l2.2,38.9c0.5,8.6-2.9,16.9-9.3,22.6
	c-40.1,36.6-65,89.4-64.2,148c1.5,105.2,84.6,190.1,189.7,193.8c84,2.9,156.9-47.2,187.8-119.3c4.9-11.4,21-11.4,26.1-0.1l16.8,37.2
	c3.9,8.7,3.3,18.9-1.9,27C598.9,858,517,906.6,423.8,906.6c-145,0-263.3-118.6-263.1-263.6C160.8,552.8,206.6,473.1,276.2,425.8z"/>
</svg>
