<?xml version="1.0" encoding="utf-8"?>
<!-- Generator: Adobe Illustrator 18.0.0, SVG Export Plug-In . SVG Version: 6.00 Build 0)  -->
<!DOCTYPE svg PUBLIC "-//W3C//DTD SVG 1.1//EN" "http://www.w3.org/Graphics/SVG/1.1/DTD/svg11.dtd">
<svg version="1.1" id="Capa_1" xmlns="http://www.w3.org/2000/svg" xmlns:xlink="http://www.w3.org/1999/xlink" x="0px" y="0px"
	 width="1000px" height="1000px" viewBox="0 0 1000 1000" enable-background="new 0 0 1000 1000" xml:space="preserve">
<path d="M942.4,473.4c12,0,23.5,2.1,34.1,6L825.7,314.8c-11.4-12.4-27.4-19.5-44.2-19.5H500H218.6c-16.8,0-32.9,7.1-44.2,19.5
	L23.5,479.4c10.7-3.9,22.2-6,34.1-6H942.4z"/>
<path d="M57.6,831.2h884.7c22.1,0,40-17.9,40-40V573.4c0-22.1-17.9-40-40-40H57.6c-22.1,0-40,17.9-40,40v217.8
	C17.6,813.3,35.6,831.2,57.6,831.2z M823.8,620c34.4,0,62.3,27.9,62.3,62.3c0,34.4-27.9,62.3-62.3,62.3c-34.4,0-62.3-27.9-62.3-62.3
	C761.6,647.9,789.4,620,823.8,620z"/>
</svg>
