<?xml version="1.0" encoding="utf-8"?>
<!-- Generator: Adobe Illustrator 18.0.0, SVG Export Plug-In . SVG Version: 6.00 Build 0)  -->
<!DOCTYPE svg PUBLIC "-//W3C//DTD SVG 1.1//EN" "http://www.w3.org/Graphics/SVG/1.1/DTD/svg11.dtd">
<svg version="1.1" id="Capa_1" xmlns="http://www.w3.org/2000/svg" xmlns:xlink="http://www.w3.org/1999/xlink" x="0px" y="0px"
	 width="1000px" height="1000px" viewBox="0 0 1000 1000" enable-background="new 0 0 1000 1000" xml:space="preserve">
<path d="M878.4,978.3c33.1,0,60-26.9,60-60V308.4c0-23.9-9.5-46.8-26.4-63.6L713.4,46.1c-16.9-16.9-39.8-26.4-63.6-26.4h-15.8v220
	c0,33.1-26.9,60-60,60H199.8c-33.1,0-60-26.9-60-60v-220H81.4c-33.1,0-60,26.9-60,60V368V440v478.3c0,33.1,26.9,60,60,60h37.9V576.4
	c0-33.1,26.9-60,60-60h601.3c33.1,0,60,26.9,60,60v401.9H878.4z"/>
<path d="M508,231.1c16.6,0,30-13.4,30-30V19.7H413.5v181.4c0,16.6,13.4,30,30,30H508z"/>
</svg>
