<?xml version="1.0" encoding="utf-8"?>
<!-- Generator: Adobe Illustrator 18.0.0, SVG Export Plug-In . SVG Version: 6.00 Build 0)  -->
<!DOCTYPE svg PUBLIC "-//W3C//DTD SVG 1.1//EN" "http://www.w3.org/Graphics/SVG/1.1/DTD/svg11.dtd">
<svg version="1.1" id="Capa_1" xmlns="http://www.w3.org/2000/svg" xmlns:xlink="http://www.w3.org/1999/xlink" x="0px" y="0px"
	 width="1000px" height="1000px" viewBox="0 0 1000 1000" enable-background="new 0 0 1000 1000" xml:space="preserve">
<path d="M500,983.4c38.7,0,70-31.3,70-70v-18h38.9c101.9,0,184.9-82.9,184.9-184.9v-95.7c0-101.9-82.9-184.9-184.9-184.9H570V244.6
	h91.7c38.7,0,70-31.3,70-70s-31.3-70-70-70H570v-18c0-38.7-31.3-70-70-70s-70,31.3-70,70v18h-38.9c-101.9,0-184.9,82.9-184.9,184.9
	v95.7c0,101.9,82.9,184.9,184.9,184.9H430v185.4H316.3c-38.7,0-70,31.3-70,70s31.3,70,70,70H430v18C430,952,461.3,983.4,500,983.4z
	 M391.1,430c-24.7,0-44.9-20.1-44.9-44.9v-95.7c0-24.7,20.1-44.9,44.9-44.9H430V430H391.1z M570,570h38.9
	c24.7,0,44.9,20.1,44.9,44.9v95.7c0,24.7-20.1,44.9-44.9,44.9H570V570z"/>
</svg>
