<?xml version="1.0" encoding="utf-8"?>
<!-- Generator: Adobe Illustrator 18.0.0, SVG Export Plug-In . SVG Version: 6.00 Build 0)  -->
<!DOCTYPE svg PUBLIC "-//W3C//DTD SVG 1.1//EN" "http://www.w3.org/Graphics/SVG/1.1/DTD/svg11.dtd">
<svg version="1.1" id="Capa_1" xmlns="http://www.w3.org/2000/svg" xmlns:xlink="http://www.w3.org/1999/xlink" x="0px" y="0px"
	 width="128px" height="128px" viewBox="0 0 128 128" enable-background="new 0 0 128 128" xml:space="preserve">
<path d="M119.2,28.8h-18.6c1.3,3.2,1.3,6.9-0.2,10.2c-2.1,5-7,8.2-12.4,8.2H40c-5.4,0-10.3-3.2-12.4-8.2c-1.4-3.3-1.4-7-0.2-10.2
	H8.8c-5.8,0-8.9,6.8-5.1,11.2l15.7,18.1c1.3,1.5,3.2,2.3,5.1,2.3h79c2,0,3.8-0.9,5.1-2.3l15.7-18.1C128.1,35.7,125,28.8,119.2,28.8z
	"/>
<path d="M66.5,6.2c-0.7-0.7-1.6-1.1-2.5-1.1s-1.8,0.4-2.5,1.1L39.8,28.8l-2.4,2.5c-2.1,2.2-0.5,5.9,2.5,5.9h48
	c3.1,0,4.7-3.7,2.5-5.9l-2.4-2.5L66.5,6.2z"/>
<path d="M108.6,69.9c-1.3-1.5-3.2-2.3-5.1-2.3h-79c-2,0-3.8,0.9-5.1,2.3L3.7,87.9C-0.1,92.3,3,99.2,8.8,99.2h18.6
	c-1.3-3.2-1.3-6.9,0.2-10.2c2.1-5,7-8.2,12.4-8.2h48c5.4,0,10.3,3.2,12.4,8.2c1.4,3.3,1.4,7,0.2,10.2h18.6c5.8,0,8.9-6.8,5.1-11.2
	L108.6,69.9z"/>
<path d="M88,90.7H40c-3.1,0-4.7,3.7-2.5,5.9l2.4,2.5l21.6,22.6c0.7,0.7,1.6,1.1,2.5,1.1s1.8-0.4,2.5-1.1l21.6-22.6l2.4-2.5
	C92.7,94.4,91.1,90.7,88,90.7z"/>
</svg>
