<?xml version="1.0" encoding="utf-8"?>
<!-- Generator: Adobe Illustrator 18.0.0, SVG Export Plug-In . SVG Version: 6.00 Build 0)  -->
<!DOCTYPE svg PUBLIC "-//W3C//DTD SVG 1.1//EN" "http://www.w3.org/Graphics/SVG/1.1/DTD/svg11.dtd">
<svg version="1.1" id="Capa_1" xmlns="http://www.w3.org/2000/svg" xmlns:xlink="http://www.w3.org/1999/xlink" x="0px" y="0px"
	 width="1000px" height="1000px" viewBox="0 0 1000 1000" enable-background="new 0 0 1000 1000" xml:space="preserve">
<path d="M955.8,570.3c17.4-18.3,27.6-43.4,27.6-68.7c0.1-26.2-10.7-52-29-70.6c-0.1-0.1-0.2-0.2-0.3-0.3L738.9,215.5
	c-39.1-39.1-102.4-39.1-141.4,0c-39.1,39.1-39.1,102.4,0,141.4l44.4,44.4H358.1l44.4-44.4c39.1-39.1,39.1-102.4,0-141.4
	c-39.1-39.1-102.4-39.1-141.4,0c0,0-215.1,215.1-215.1,215.1c-11.1,11.1-19.4,24.7-24.4,39.6c-4.6,13.9-5.9,28.8-4.2,43.3
	c1.6,13.3,6,26.3,12.7,37.9c4.3,7.5,9.7,14.5,15.9,20.6L266,792.2c19.5,19.5,45.1,29.3,70.7,29.3s51.2-9.8,70.7-29.3
	c39.1-39.1,39.1-102.4,0-141.4l-49.3-49.3h283.9l-49.3,49.3c-39.1,39.1-39.1,102.4,0,141.4c19.5,19.5,45.1,29.3,70.7,29.3
	s51.2-9.8,70.7-29.3l220.1-220.1C954.7,571.5,955.2,570.9,955.8,570.3z"/>
</svg>
