<?xml version="1.0" encoding="utf-8"?>
<!-- Generator: Adobe Illustrator 18.0.0, SVG Export Plug-In . SVG Version: 6.00 Build 0)  -->
<!DOCTYPE svg PUBLIC "-//W3C//DTD SVG 1.1//EN" "http://www.w3.org/Graphics/SVG/1.1/DTD/svg11.dtd">
<svg version="1.1" id="Capa_1" xmlns="http://www.w3.org/2000/svg" xmlns:xlink="http://www.w3.org/1999/xlink" x="0px" y="0px"
	 width="1000px" height="1000px" viewBox="0 0 1000 1000" enable-background="new 0 0 1000 1000" xml:space="preserve">
<path d="M852.9,537.6c-23.4-23.4-61.2-23.4-84.6,0c-23.4,23.4-23.4,61.2,0,84.6l21.5,21.5l-30.6-0.2c-62.3-2.9-119.4-35-154-87.3
	L567.3,499l37.9-57.1c34.7-52.3,91.7-84.5,154-87.3l30.6-0.2l-21.5,21.5c-23.4,23.4-23.4,61.2,0,84.6c23.4,23.4,61.2,23.4,84.6,0
	c0,0,123.5-123.5,123.6-123.6c22-22.2,22.3-62.3,0-84.6L850.9,126.6c-23.4-23.4-61.2-23.4-84.6,0c-23.4,23.4-23.4,61.2,0,84.6
	l23.5,23.5l-30.6-0.3c-48.9,1.4-97.2,14.3-140.3,37.4c-45.8,24.6-85.1,60.4-113.8,103.7L495,390.9l-10.1-15.3
	c-28.7-43.3-68-79.2-113.8-103.7c-45.8-24.6-97.4-37.6-149.3-37.6H68c-33.1,0-60,26.9-60,60s26.9,60,60,60h153.8
	c65.8,0,126.7,32.7,163.1,87.6l37.9,57.1l-37.9,57.1c-36.3,54.8-97.3,87.6-163.1,87.6H68c-33.1,0-60,26.9-60,60s26.9,60,60,60h153.8
	c51.9,0,103.6-13,149.3-37.6c45.8-24.6,85.1-60.4,113.8-103.7l10.1-15.3l10.1,15.3c28.7,43.3,68,79.2,113.8,103.7
	c43.1,23.1,91.4,36,140.3,37.4l30.6-0.3l-23.5,23.5c-23.4,23.4-23.4,61.2,0,84.6c23.4,23.4,61.2,23.4,84.6,0l125.6-125.6
	c22.3-22.3,22.1-62.4,0-84.6C976.4,661.1,852.9,537.6,852.9,537.6z"/>
</svg>
