<?xml version="1.0" encoding="utf-8"?>
<!-- Generator: Adobe Illustrator 18.0.0, SVG Export Plug-In . SVG Version: 6.00 Build 0)  -->
<!DOCTYPE svg PUBLIC "-//W3C//DTD SVG 1.1//EN" "http://www.w3.org/Graphics/SVG/1.1/DTD/svg11.dtd">
<svg version="1.1" id="Capa_1" xmlns="http://www.w3.org/2000/svg" xmlns:xlink="http://www.w3.org/1999/xlink" x="0px" y="0px"
	 width="1000px" height="1000px" viewBox="0 0 1000 1000" enable-background="new 0 0 1000 1000" xml:space="preserve">
<path d="M433.6,48.1c18.3-17.4,43.4-27.6,68.7-27.6c26.2-0.1,52,10.7,70.6,29c0.1,0.1,0.2,0.2,0.3,0.3L788.4,265
	c39.1,39.1,39.1,102.4,0,141.4c-39.1,39.1-102.4,39.1-141.4,0l-44.4-44.4v283.9l44.4-44.4c39.1-39.1,102.4-39.1,141.4,0
	c39.1,39.1,39.1,102.4,0,141.4L573.2,958c-11.1,11.1-24.7,19.4-39.6,24.4c-13.9,4.6-28.8,5.9-43.3,4.2c-13.3-1.6-26.3-6-37.9-12.7
	c-7.5-4.3-14.5-9.7-20.6-15.9L211.7,737.9c-19.5-19.5-29.3-45.1-29.3-70.7s9.8-51.2,29.3-70.7c39.1-39.1,102.4-39.1,141.4,0
	l49.3,49.3V361.9l-49.3,49.3c-39.1,39.1-102.4,39.1-141.4,0c-19.5-19.5-29.3-45.1-29.3-70.7s9.8-51.2,29.3-70.7L431.8,49.8
	C432.4,49.2,433,48.7,433.6,48.1z"/>
</svg>
