<?xml version="1.0" encoding="utf-8"?>
<!-- Generator: Adobe Illustrator 18.0.0, SVG Export Plug-In . SVG Version: 6.00 Build 0)  -->
<!DOCTYPE svg PUBLIC "-//W3C//DTD SVG 1.1//EN" "http://www.w3.org/Graphics/SVG/1.1/DTD/svg11.dtd">
<svg version="1.1" id="Capa_1" xmlns="http://www.w3.org/2000/svg" xmlns:xlink="http://www.w3.org/1999/xlink" x="0px" y="0px"
	 width="1000px" height="1000px" viewBox="0 0 1000 1000" enable-background="new 0 0 1000 1000" xml:space="preserve">
<path d="M64.4,960.1c22.3,18.1,49.1,27,75.7,27c34.8,0,69.4-15.1,93.1-44.2l298.7-366.7c36-44.1,36-107.4,0-151.6L235.5,60.7
	C193.6,9.3,118.1,1.6,66.7,43.4C15.3,85.3,7.6,160.9,49.4,212.3l234.7,288.1l-237,290.9C5.3,842.6,13,918.2,64.4,960.1z"/>
<path d="M656.4,60.7C614.6,9.3,539,1.6,487.6,43.4c-51.4,41.9-59.1,117.4-17.2,168.8L705,500.3l-237,290.9
	c-41.9,51.4-34.1,127,17.2,168.8c22.3,18.1,49.1,27,75.7,27c34.8,0,69.4-15.1,93.1-44.2l298.7-366.7c36-44.1,36-107.4,0-151.6
	L656.4,60.7z"/>
</svg>
