<?xml version="1.0" encoding="utf-8"?>
<!-- Generator: Adobe Illustrator 18.0.0, SVG Export Plug-In . SVG Version: 6.00 Build 0)  -->
<!DOCTYPE svg PUBLIC "-//W3C//DTD SVG 1.1//EN" "http://www.w3.org/Graphics/SVG/1.1/DTD/svg11.dtd">
<svg version="1.1" id="Capa_1" xmlns="http://www.w3.org/2000/svg" xmlns:xlink="http://www.w3.org/1999/xlink" x="0px" y="0px"
	 width="1000px" height="1000px" viewBox="0 0 1000 1000" enable-background="new 0 0 1000 1000" xml:space="preserve">
<path d="M116.6,544.4c55.2,0,100-44.8,100-100v-89.8l422.8,422.8h-89.8c-55.2,0-100,44.8-100,100s44.8,100,100,100h331.2
	c24.7,0,48.5-9.4,66.9-25.7c4.9-4.3,9.3-9.2,13.2-14.4c0,0,0,0,0,0c12.8-17.1,19.8-38.1,19.9-59.5c0-0.1,0-0.2,0-0.3V553.1
	c0-55.2-44.8-100-100-100s-100,44.8-100,100V636L358,213.2h82.8c55.2,0,100-44.8,100-100s-44.8-100-100-100H116.6
	c-0.1,0-0.1,0-0.2,0c-13.5,0.1-27.1,2.8-39.6,8.2c-12.7,5.6-24.2,13.7-33.7,23.9c-2.7,2.9-5.1,5.9-7.4,9c-2.6,3.6-5,7.3-7.1,11.2
	c0,0,0,0,0,0.1c-5.8,10.5-9.6,22.2-11.1,34.2c-0.6,4.4-0.9,8.7-0.9,13.1c0,0.1,0,0.2,0,0.3v331.2C16.6,499.6,61.4,544.4,116.6,544.4
	z"/>
</svg>
