<?xml version="1.0" encoding="utf-8"?>
<!-- Generator: Adobe Illustrator 18.0.0, SVG Export Plug-In . SVG Version: 6.00 Build 0)  -->
<!DOCTYPE svg PUBLIC "-//W3C//DTD SVG 1.1//EN" "http://www.w3.org/Graphics/SVG/1.1/DTD/svg11.dtd">
<svg version="1.1" id="Capa_1" xmlns="http://www.w3.org/2000/svg" xmlns:xlink="http://www.w3.org/1999/xlink" x="0px" y="0px"
	 width="1000px" height="1000px" viewBox="0 0 1000 1000" enable-background="new 0 0 1000 1000" xml:space="preserve">
<path d="M135.9,974.4c26.6,0,53.5-8.8,75.7-27l288.1-234.7l290.9,237c22.3,18.1,49.1,27,75.7,27c34.8,0,69.4-15.1,93.1-44.2
	c41.9-51.4,34.1-127-17.2-168.8L575.5,464.9c-44.1-36-107.5-36-151.6,0L60.1,761.4C8.7,803.2,1,878.8,42.8,930.2
	C66.6,959.3,101.1,974.4,135.9,974.4z"/>
<path d="M135.9,553.5c26.6,0,53.5-8.8,75.7-27l288.1-234.7l290.9,237c22.3,18.1,49.1,27,75.7,27c34.8,0,69.4-15.1,93.1-44.2
	c41.9-51.4,34.1-127-17.2-168.8L575.5,44c-44.1-36-107.5-36-151.6,0L60.1,340.4C8.7,382.3,1,457.9,42.8,509.3
	C66.6,538.4,101.1,553.5,135.9,553.5z"/>
</svg>
