<?xml version="1.0" encoding="utf-8"?>
<!-- Generator: Adobe Illustrator 18.0.0, SVG Export Plug-In . SVG Version: 6.00 Build 0)  -->
<!DOCTYPE svg PUBLIC "-//W3C//DTD SVG 1.1//EN" "http://www.w3.org/Graphics/SVG/1.1/DTD/svg11.dtd">
<svg version="1.1" id="Capa_1" xmlns="http://www.w3.org/2000/svg" xmlns:xlink="http://www.w3.org/1999/xlink" x="0px" y="0px"
	 width="1000px" height="1000px" viewBox="0 0 1000 1000" enable-background="new 0 0 1000 1000" xml:space="preserve">
<path d="M58.9,235.5l363.9,296.4c22.1,18,48.9,27,75.8,27s53.7-9,75.8-27l366.7-298.7c51.4-41.9,59.1-117.4,17.2-168.8
	C916.5,13,840.9,5.3,789.5,47.1l-290.9,237L210.5,49.4C159.1,7.6,83.5,15.3,41.7,66.7C-0.2,118.1,7.6,193.6,58.9,235.5z"/>
<path d="M58.9,657.4l363.9,296.4c22.1,18,48.9,27,75.8,27s53.7-9,75.8-27l366.7-298.7c51.4-41.9,59.1-117.4,17.2-168.8
	c-41.9-51.4-117.4-59.1-168.8-17.2L498.6,706L210.5,471.4c-51.4-41.9-127-34.1-168.8,17.2C-0.2,540,7.6,615.6,58.9,657.4z"/>
</svg>
