<?xml version="1.0" encoding="utf-8"?>
<!-- Generator: Adobe Illustrator 18.0.0, SVG Export Plug-In . SVG Version: 6.00 Build 0)  -->
<!DOCTYPE svg PUBLIC "-//W3C//DTD SVG 1.1//EN" "http://www.w3.org/Graphics/SVG/1.1/DTD/svg11.dtd">
<svg version="1.1" id="Capa_1" xmlns="http://www.w3.org/2000/svg" xmlns:xlink="http://www.w3.org/1999/xlink" x="0px" y="0px"
	 width="1000px" height="1000px" viewBox="0 0 1000 1000" enable-background="new 0 0 1000 1000" xml:space="preserve">
<path d="M959.2,569.7c0,0-378.1,377.5-378.1,377.5c-44.5,44.4-111.1,44.4-155.4,0L48.4,569.7C4.1,525.5,2.2,456,46.2,412.1
	c43-43,115.5-38.4,157.2,3.4l184.4,184.4c0,0,0.6-465.1,0.6-465.3c0-30.8,12-60.5,34.4-81.6c54-50.6,148.5-37.1,184.4,27.7
	c9.1,16.4,13.9,35.1,13.8,53.9l-0.4,465.3c0,0,184.2-184.3,184.3-184.4c41.9-41.9,114.1-46.1,156.9-3.4
	C1005.8,456,1003.5,525.5,959.2,569.7z"/>
</svg>
