<?xml version="1.0" encoding="utf-8"?>
<!-- Generator: Adobe Illustrator 18.0.0, SVG Export Plug-In . SVG Version: 6.00 Build 0)  -->
<!DOCTYPE svg PUBLIC "-//W3C//DTD SVG 1.1//EN" "http://www.w3.org/Graphics/SVG/1.1/DTD/svg11.dtd">
<svg version="1.1" id="Capa_1" xmlns="http://www.w3.org/2000/svg" xmlns:xlink="http://www.w3.org/1999/xlink" x="0px" y="0px"
	 width="1000px" height="1000px" viewBox="0 0 1000 1000" enable-background="new 0 0 1000 1000" xml:space="preserve">
<path d="M13.3,572.2v351c0,33.1,26.9,60,61,60h853.3c32.1,0,59-26.9,59-60v-351c0-33.1-26.9-60-60-60h-84
	c-28.3,0-52.7,19.7-58.6,47.3l-30.5,140.8c-6,27.6-30.4,47.3-58.6,47.3H305.1c-28.3,0-52.7-19.7-58.6-47.3L216,559.5
	c-6-27.6-30.4-47.3-58.6-47.3h-84C40.2,512.2,13.3,539.1,13.3,572.2z"/>
<path d="M495.9,678.6c0,0-0.1,0-0.1,0c-18.8-0.9-36-7.9-49.6-19.1c0,0,0,0-0.1-0.1c-0.5-0.4-1-0.8-1.4-1.2c-0.1-0.1-0.1-0.1-0.2-0.2
	c-0.4-0.4-0.9-0.8-1.3-1.1c-0.1-0.1-0.2-0.2-0.3-0.3c-0.4-0.4-0.8-0.8-1.3-1.2c-0.1-0.1-0.2-0.2-0.3-0.3c-0.5-0.5-1-1-1.5-1.5l0,0
	L179,392.9c-16.6-16.6-24.9-38.4-24.9-60.1c0-21.8,8.3-43.5,24.9-60.1c33.2-33.2,87.1-33.2,120.3,0l115.6,115.6V94.9
	c0-47,38.1-85.1,85.1-85.1s85.1,38.1,85.1,85.1v293.4l115.6-115.6c33.2-33.2,87.1-33.2,120.3,0c33.2,33.2,33.2,87.1,0,120.3
	L560.2,653.7l0,0c-0.5,0.5-1,1-1.5,1.5c-0.1,0.1-0.2,0.2-0.3,0.3c-0.4,0.4-0.8,0.8-1.3,1.2c-0.1,0.1-0.2,0.2-0.3,0.3
	c-0.4,0.4-0.9,0.8-1.3,1.1c-0.1,0.1-0.1,0.1-0.2,0.2c-0.5,0.4-0.9,0.8-1.4,1.2c0,0,0,0-0.1,0.1c-13.6,11.2-30.8,18.2-49.6,19.1
	c0,0-0.1,0-0.1,0c-0.7,0-1.3,0.1-2,0.1c-0.7,0-1.4,0-2.1,0c-0.7,0-1.4,0-2.1,0C497.2,678.6,496.6,678.6,495.9,678.6z"/>
</svg>
