<?xml version="1.0" encoding="utf-8"?>
<!-- Generator: Adobe Illustrator 18.0.0, SVG Export Plug-In . SVG Version: 6.00 Build 0)  -->
<!DOCTYPE svg PUBLIC "-//W3C//DTD SVG 1.1//EN" "http://www.w3.org/Graphics/SVG/1.1/DTD/svg11.dtd">
<svg version="1.1" id="Layer_1" xmlns="http://www.w3.org/2000/svg" xmlns:xlink="http://www.w3.org/1999/xlink" x="0px" y="0px"
	 width="128px" height="128px" viewBox="0 0 128 128" enable-background="new 0 0 128 128" xml:space="preserve">
<path d="M26.4,97.7c-0.1-0.7-0.1-1.4-0.1-2.1c0-5.3,2.1-10.3,5.8-14.1c3.8-3.8,8.5-5.8,13.8-5.8c0.4,0,1,0,1,0v-7.1
	c0-11,9-19.9,20-19.9s20,8.9,20,19.9v7.1c1-0.1,1.7-0.1,2.4-0.1c5.3,0,10.5,2.1,14.2,5.8c3.8,3.8,6,8.8,6,14.1
	c0,1.1-0.1,2.1-0.3,3.1c5.6-0.9,17.4-5.1,17.4-23.3c0-9.7-6-18.2-14.4-21.7c-0.2-24.3-20-43.9-44.3-43.9c-16.6,0-31,9.1-38.6,22.6
	C13,35.1,0.7,50,1.6,67.3C2.4,82,12.8,93.9,26.4,97.7z"/>
<path d="M67,59.8c-4.9,0-9,4-9,8.9v27.2l-7-6.6c-1.7-1.7-3.5-2.6-5.9-2.6s-4.5,0.9-6.2,2.6s-2.6,3.9-2.6,6.3c0,0.7,0.1,1.4,0.2,2
	c0.4,1.6,1.2,3.1,2.4,4.3c22,22,22,22,22,22c1.8,1.7,4.2,2.5,6.7,2.4c2.2-0.2,4.3-1.2,6-2.9c0.2-0.2,21.5-21.5,21.5-21.5
	c1.2-1.2,2-2.6,2.3-4.2c0.2-0.7,0.3-1.4,0.3-2.1c0-2.4-1-4.6-2.6-6.3c-1.7-1.7-4-2.6-6.3-2.6c-2.4,0-5,0.9-6.6,2.6L76,95.9V68.7
	C76,63.8,71.9,59.8,67,59.8z"/>
</svg>
