<?xml version="1.0" encoding="utf-8"?>
<!-- Generator: Adobe Illustrator 18.0.0, SVG Export Plug-In . SVG Version: 6.00 Build 0)  -->
<!DOCTYPE svg PUBLIC "-//W3C//DTD SVG 1.1//EN" "http://www.w3.org/Graphics/SVG/1.1/DTD/svg11.dtd">
<svg version="1.1" id="Layer_1" xmlns="http://www.w3.org/2000/svg" xmlns:xlink="http://www.w3.org/1999/xlink" x="0px" y="0px"
	 width="128px" height="128px" viewBox="0 0 128 128" enable-background="new 0 0 128 128" xml:space="preserve">
<circle cx="102.6" cy="101.6" r="22.5"/>
<path d="M83.5,16.5c0,0,0,55.4,0,55.4c0,6.5-4.9,11.4-11.4,11.4l-55.3,0c-6.5,0-11.7-5-11.7-11.4c0-6.3,5.7-11.3,11.8-11.3l27,0
	c0,0-37.2-37.1-37.2-37.2c-2.3-2.3-3.5-5.4-3.4-8.6C3.5,7.2,11.4,1.2,18.8,3.4c1.9,0.5,3.6,1.6,5,2.9l37.2,37.2c0,0,0-27,0-27
	c0-6.1,5-11.8,11.3-11.8C78.6,4.7,83.5,10,83.5,16.5z"/>
</svg>
