<?xml version="1.0" encoding="utf-8"?>
<!-- Generator: Adobe Illustrator 18.0.0, SVG Export Plug-In . SVG Version: 6.00 Build 0)  -->
<!DOCTYPE svg PUBLIC "-//W3C//DTD SVG 1.1//EN" "http://www.w3.org/Graphics/SVG/1.1/DTD/svg11.dtd">
<svg version="1.1" id="Capa_1" xmlns="http://www.w3.org/2000/svg" xmlns:xlink="http://www.w3.org/1999/xlink" x="0px" y="0px"
	 width="128px" height="128px" viewBox="0 0 128 128" enable-background="new 0 0 128 128" xml:space="preserve">
<path d="M8,125h112c3.3,0,6-2.7,6-6v-12c0-3.3-2.7-6-6-6H8c-3.3,0-6,2.7-6,6v12C2,122.3,4.6,125,8,125z"/>
<path d="M72.4,2.7H55.5c-3.4,0-6.2,2.8-6.2,6.2v25c0,3.4-2.8,6.2-6.2,6.2H32.3c-5.2,0-8.1,6-4.9,10.1l31.1,40c2.5,3.2,7.4,3.2,9.9,0
	l32-40c3.2-4.1,0.3-10.1-5-10.1H84.8c-3.4,0-6.2-2.8-6.2-6.2v-25C78.6,5.5,75.8,2.7,72.4,2.7z"/>
</svg>
