<?xml version="1.0" encoding="utf-8"?>
<!-- Generator: Adobe Illustrator 18.0.0, SVG Export Plug-In . SVG Version: 6.00 Build 0)  -->
<!DOCTYPE svg PUBLIC "-//W3C//DTD SVG 1.1//EN" "http://www.w3.org/Graphics/SVG/1.1/DTD/svg11.dtd">
<svg version="1.1" id="Capa_1" xmlns="http://www.w3.org/2000/svg" xmlns:xlink="http://www.w3.org/1999/xlink" x="0px" y="0px"
	 width="1000px" height="1000px" viewBox="0 0 1000 1000" enable-background="new 0 0 1000 1000" xml:space="preserve">
<path d="M937.7,765.3H63.8c-27.6,0-50,22.4-50,50s22.4,50,50,50h873.8c27.6,0,50-22.4,50-50S965.3,765.3,937.7,765.3z"/>
<path d="M924.9,733.3H726.5c-31.8,0-57.5-25.7-57.5-57.5s25.7-57.5,57.5-57.5h72.4L648.6,491.5c-2.3-2-5.3-3.1-8.4-3.1H400.4
	c-26.9,0-53-9.6-73.4-27.2L34.5,210.6c-21-18-23.4-49.5-5.4-70.5c9.9-11.5,23.9-17.5,38-17.5c11.5,0,23.1,4,32.5,12L392,385.3
	c2.3,2,5.3,3.1,8.4,3.1h239.8c26.9,0,53,9.6,73.4,27.2l153.7,129.6v-68.8c0-31.8,25.7-57.5,57.5-57.5s57.5,25.7,57.5,57.5v199.3
	C982.4,707.6,956.6,733.3,924.9,733.3z"/>
</svg>
