<?xml version="1.0" encoding="utf-8"?>
<!-- Generator: Adobe Illustrator 18.0.0, SVG Export Plug-In . SVG Version: 6.00 Build 0)  -->
<!DOCTYPE svg PUBLIC "-//W3C//DTD SVG 1.1//EN" "http://www.w3.org/Graphics/SVG/1.1/DTD/svg11.dtd">
<svg version="1.1" id="Capa_1" xmlns="http://www.w3.org/2000/svg" xmlns:xlink="http://www.w3.org/1999/xlink" x="0px" y="0px"
	 width="1000px" height="1000px" viewBox="0 0 1000 1000" enable-background="new 0 0 1000 1000" xml:space="preserve">
<path d="M500,981.5c265.9,0,481.5-215.6,481.5-481.5S765.9,18.5,500,18.5S18.5,234.1,18.5,500S234.1,981.5,500,981.5z M196.6,364.7
	c33.6-36.6,90.5-39.1,127.2-5.5l177.4,162.6l172.4-157.8c36.7-33.6,93.6-31,127.2,5.6c33.6,36.7,31,93.6-5.6,127.2L561.8,710.2
	c-17.2,15.7-39,23.6-60.8,23.6c-21.8,0-43.6-7.9-60.8-23.7L202.2,491.8C165.5,458.2,163,401.3,196.6,364.7z"/>
</svg>
