<?xml version="1.0" encoding="utf-8"?>
<!-- Generator: Adobe Illustrator 18.0.0, SVG Export Plug-In . SVG Version: 6.00 Build 0)  -->
<!DOCTYPE svg PUBLIC "-//W3C//DTD SVG 1.1//EN" "http://www.w3.org/Graphics/SVG/1.1/DTD/svg11.dtd">
<svg version="1.1" id="Capa_1" xmlns="http://www.w3.org/2000/svg" xmlns:xlink="http://www.w3.org/1999/xlink" x="0px" y="0px"
	 width="1000px" height="1000px" viewBox="0 0 1000 1000" enable-background="new 0 0 1000 1000" xml:space="preserve">
<circle cx="690.8" cy="797" r="98.5"/>
<circle cx="907.4" cy="923.3" r="71.7"/>
<path d="M955.3,415.5c0-72.9-51.7-133.7-120.4-147.9c-8.7-1.8-15.3-8.8-16.3-17.6C801.6,110.6,682.8,2.6,538.7,2.6
	c-115.2,0-214.3,69.1-258.1,168.2c-4,9-14,14-23.6,11.6c-15.6-3.9-32-5.9-48.9-5.8c-107.4,0.9-193.3,87.6-193.3,195
	c0,66.2,33,124.7,83.4,159.9c21.4,45.7,67.8,77.4,121.6,77.4c24.7,0,47.8-6.7,67.7-18.3c9.8-5.8,22.5-2.6,28.2,7.3
	c34.7,60.2,99.7,100.7,174.1,100.7c58.4,0,111-24.9,147.7-64.8c6.9-7.4,18.1-8.5,26.6-2.9c15.8,10.5,34.7,16.6,55.1,16.6
	c44.4,0,82.1-29.2,94.8-69.4c2.3-7.2,8.4-12.5,15.8-13.8C901.1,552.2,955.3,490.2,955.3,415.5z"/>
</svg>
