<?xml version="1.0" encoding="utf-8"?>
<!-- Generator: Adobe Illustrator 18.0.0, SVG Export Plug-In . SVG Version: 6.00 Build 0)  -->
<!DOCTYPE svg PUBLIC "-//W3C//DTD SVG 1.1//EN" "http://www.w3.org/Graphics/SVG/1.1/DTD/svg11.dtd">
<svg version="1.1" id="Capa_1" xmlns="http://www.w3.org/2000/svg" xmlns:xlink="http://www.w3.org/1999/xlink" x="0px" y="0px"
	 width="128px" height="128px" viewBox="0 0 128 128" enable-background="new 0 0 128 128" xml:space="preserve">
<path d="M6.6,114.4l32.1-32.1c0.9-0.9,0.7-2.5-0.4-3.1L6.2,60.6c-1.3-0.8-3,0.2-3,1.7V113C3.2,114.7,5.3,115.6,6.6,114.4z"/>
<path d="M5.8,48.5l11,6.4c1.3,0.8,3-0.2,3-1.7V38.4c0-1.7-1.9-2.6-3.2-1.6l-11,8.3C4.4,46,4.5,47.8,5.8,48.5z"/>
<path d="M52.1,14.5H64h11.9c1.9,0,2.7-2.4,1.2-3.6c0,0-11.9-9-11.9-9c-0.7-0.5-1.7-0.5-2.4,0l-11.9,9C49.3,12.1,50.1,14.5,52.1,14.5
	z"/>
<path d="M30.8,62.7c0,0,32,18.3,32,18.3c0.7,0.4,1.8,0.4,2.4,0l32-18.3c0.6-0.4,1-1,1-1.7V26.5c0-1.1-0.9-2-2-2H64H31.8
	c-1.1,0-2,0.9-2,2v34.4C29.8,61.7,30.2,62.3,30.8,62.7z M48.4,35H64h15.6c2.2,0,4,1.8,4,4s-1.8,4-4,4H64H48.4c-2.2,0-4-1.8-4-4
	S46.2,35,48.4,35z M48.4,52.8H64h15.6c2.2,0,4,1.8,4,4s-1.8,4-4,4H64H48.4c-2.2,0-4-1.8-4-4S46.2,52.8,48.4,52.8z"/>
<path d="M121.8,60.6L89.7,79.1c-1.1,0.7-1.3,2.2-0.4,3.1l32.1,32.1c1.3,1.3,3.4,0.4,3.4-1.4V62.3C124.8,60.8,123.2,59.8,121.8,60.6z
	"/>
<path d="M77.1,86.4c0,0-12.1,7-12.1,7c-0.6,0.3-1.4,0.3-2,0l-12.1-7c-0.8-0.5-1.8-0.3-2.4,0.3l-34.8,34.8c-1.3,1.3-0.4,3.4,1.4,3.4
	H64h48.9c1.8,0,2.7-2.2,1.4-3.4L79.6,86.7C78.9,86,77.9,85.9,77.1,86.4z"/>
<path d="M111.2,54.9l11-6.4c1.2-0.7,1.3-2.5,0.2-3.3l-11-8.3c-1.3-1-3.2-0.1-3.2,1.6v14.7C108.2,54.7,109.9,55.6,111.2,54.9z"/>
</svg>
