<?xml version="1.0" encoding="utf-8"?>
<!-- Generator: Adobe Illustrator 18.0.0, SVG Export Plug-In . SVG Version: 6.00 Build 0)  -->
<!DOCTYPE svg PUBLIC "-//W3C//DTD SVG 1.1//EN" "http://www.w3.org/Graphics/SVG/1.1/DTD/svg11.dtd">
<svg version="1.1" id="Capa_1" xmlns="http://www.w3.org/2000/svg" xmlns:xlink="http://www.w3.org/1999/xlink" x="0px" y="0px"
	 width="128px" height="128px" viewBox="0 0 128 128" enable-background="new 0 0 128 128" xml:space="preserve">
<path d="M10.4,119.2l44.1-19.4c2.2-1,3.6-3.1,3.6-5.5v-8.9c-2.8,2.1-6.2,3.3-9.8,3.3c-4.4,0-8.5-1.7-11.5-4.8L20.3,67.4l-0.2-0.2
	L19.9,67c-0.4-0.5-1.2-1.3-1.9-2.4c-0.8-1.3-1.5-2.8-1.9-4.4c-1.5-5.4,0-11.5,4.1-15.7l0,0c0.6-0.6,3.2-3.2,16.3-16.3
	c3.1-3.1,7.2-4.8,11.5-4.8c3.7,0,7.3,1.3,10.1,3.5V12.1c0-4.3-4.5-7.2-8.4-5.5L5.6,26.1C3.4,27,2,29.2,2,31.6v82.2
	C2,118.1,6.5,121,10.4,119.2z"/>
<path d="M91.6,28.2c14,14,15.9,15.9,16.3,16.3l0,0c4,4.2,5.6,10.2,4.1,15.7c-0.5,1.6-1.1,3.1-1.9,4.4c-0.7,1.1-1.5,2-1.9,2.4
	l-0.2,0.2l-0.2,0.2L91.2,83.9c-3.1,3.1-7.2,4.8-11.5,4.8c-3.6,0-7-1.2-9.8-3.3v8.9c0,2.4,1.4,4.5,3.6,5.5l44.1,19.4
	c4,1.7,8.4-1.2,8.4-5.5V31.6c0-2.4-1.4-4.5-3.6-5.5L78.3,6.6c-4-1.7-8.4,1.2-8.4,5.5V27c2.9-2.3,6.4-3.5,10.1-3.5
	C84.4,23.4,88.5,25.1,91.6,28.2z"/>
<path d="M100.6,51.4c0,0-16.1-16.1-16.1-16.1c-1.2-1.2-2.9-1.9-4.5-1.9s-3.2,0.6-4.5,1.9c-2.5,2.5-2.5,6.5,0,9l5.3,5.3H47.1l5.3-5.3
	c2.5-2.5,2.5-6.5,0-9c-1.2-1.2-2.9-1.9-4.5-1.9c-1.6,0-3.2,0.6-4.5,1.9c0,0-16.1,16.1-16.1,16.1c-2.5,2.5-2.2,6.4,0,9l16.5,16.5
	c1.2,1.2,2.9,1.9,4.5,1.9c1.6,0,3.2-0.6,4.5-1.9c2.5-2.5,2.5-6.5,0-9l-5.7-5.7h33.7l-5.7,5.7c-2.5,2.5-2.5,6.5,0,9
	c1.2,1.2,2.9,1.9,4.5,1.9c1.6,0,3.2-0.6,4.5-1.9c0,0,16.5-16.5,16.5-16.5C103.1,57.9,103,53.9,100.6,51.4z"/>
</svg>
