<?xml version="1.0" encoding="utf-8"?>
<!-- Generator: Adobe Illustrator 18.0.0, SVG Export Plug-In . SVG Version: 6.00 Build 0)  -->
<!DOCTYPE svg PUBLIC "-//W3C//DTD SVG 1.1//EN" "http://www.w3.org/Graphics/SVG/1.1/DTD/svg11.dtd">
<svg version="1.1" id="Layer_1" xmlns="http://www.w3.org/2000/svg" xmlns:xlink="http://www.w3.org/1999/xlink" x="0px" y="0px"
	 width="128px" height="128px" viewBox="0 0 128 128" enable-background="new 0 0 128 128" xml:space="preserve">
<path d="M65,2C30.8,2,3,29.8,3,64s27.8,62,62,62s62-27.8,62-62S99.2,2,65,2z M65,111c-25.9,0-47-21.1-47-47s21.1-47,47-47
	s47,21.1,47,47S90.9,111,65,111z"/>
<path d="M68,25h-6c-3.3,0-6,2.7-6,6v41c0,3.3,2.7,6,6,6h6c3.3,0,6-2.7,6-6V31C74,27.7,71.3,25,68,25z"/>
<circle cx="65" cy="93.5" r="9"/>
</svg>
