<?xml version="1.0" encoding="utf-8"?>
<!-- Generator: Adobe Illustrator 18.0.0, SVG Export Plug-In . SVG Version: 6.00 Build 0)  -->
<!DOCTYPE svg PUBLIC "-//W3C//DTD SVG 1.1//EN" "http://www.w3.org/Graphics/SVG/1.1/DTD/svg11.dtd">
<svg version="1.1" id="Layer_1" xmlns="http://www.w3.org/2000/svg" xmlns:xlink="http://www.w3.org/1999/xlink" x="0px" y="0px"
	 width="128px" height="128px" viewBox="0 0 128 128" enable-background="new 0 0 128 128" xml:space="preserve">
<path d="M56.5,76c-3,0-5.5-2.4-5.5-5.5V33.5c0-3,2.4-5.5,5.5-5.5h5.1c3,0,5.5,2.4,5.5,5.5v37.1c0,3-2.4,5.5-5.5,5.5H56.5z M59,99
	c4.5,0,8.2-3.7,8.2-8.2c0-4.5-3.7-8.2-8.2-8.2s-8.2,3.7-8.2,8.2C50.8,95.3,54.5,99,59,99z M126,49.1c-2.2-1.9-5.7-1.7-7.5,0.6
	l-3.3,4.1C110.2,27,86.6,6.5,58.3,6.5C26.4,6.5,0.5,32.5,0.5,64.4s25.9,57.8,57.8,57.8c19.2,0,37.2-9.5,47.9-25.5c2-3,1.2-7-1.7-9
	c-3-2-7-1.2-9,1.7c-8.4,12.4-22.3,19.8-37.2,19.8c-24.7,0-44.8-20.1-44.8-44.8c0-24.7,20.1-44.8,44.8-44.8c21.9,0,40.1,15.8,44,36.5
	l-5-4c-2.3-1.8-5.7-1.3-7.4,1.1c-1.6,2.3-1.1,5.5,1.1,7.2l15.7,12.4c1.1,0.9,2.7,1.3,4,1.1c1.3-0.2,2.7-0.8,3.6-1.9l12.4-15.7
	C128.4,54.2,128.1,50.9,126,49.1z"/>
</svg>
