<?xml version="1.0" encoding="utf-8"?>
<!-- Generator: Adobe Illustrator 18.0.0, SVG Export Plug-In . SVG Version: 6.00 Build 0)  -->
<!DOCTYPE svg PUBLIC "-//W3C//DTD SVG 1.1//EN" "http://www.w3.org/Graphics/SVG/1.1/DTD/svg11.dtd">
<svg version="1.1" id="Capa_1" xmlns="http://www.w3.org/2000/svg" xmlns:xlink="http://www.w3.org/1999/xlink" x="0px" y="0px"
	 width="1000px" height="1000px" viewBox="0 0 1000 1000" enable-background="new 0 0 1000 1000" xml:space="preserve">
<path d="M232.2,822.1c40.4,21.4,83.4,37.9,127.7,49c45.6,11.4,92.7,17.3,140.1,17.3s94.5-5.8,140.1-17.3
	c44.3-11.1,87.2-27.6,127.7-49C847,780.2,916.4,719.3,968.3,646c26.4-37.2,26.4-87.2,0-124.5C916.4,448.2,847,387.3,767.8,345.4
	c-40.4-21.4-83.4-37.9-127.7-49c-45.6-11.4-92.7-17.3-140.1-17.3s-94.5,5.8-140.1,17.3c-44.3,11.1-87.2,27.6-127.7,49
	C153,387.3,83.6,448.2,31.7,521.5c-26.4,37.2-26.4,87.2,0,124.5C83.6,719.3,153,780.2,232.2,822.1z M500,508.6
	c41.5,0,75.2,33.7,75.2,75.2S541.5,659,500,659s-75.2-33.7-75.2-75.2S458.5,508.6,500,508.6z M716.3,442.7
	c63.6,33.6,119.3,82.4,161.2,141.1c-41.9,58.7-97.6,107.5-161.2,141.1c-13.6,7.2-27.5,13.7-41.8,19.4
	c38.9-42.2,62.6-98.6,62.6-160.6s-23.7-118.3-62.6-160.6C688.8,429,702.8,435.5,716.3,442.7z M283.7,442.7
	c13.6-7.2,27.5-13.7,41.8-19.4c-38.9,42.2-62.6,98.6-62.6,160.6s23.7,118.3,62.6,160.6c-14.2-5.8-28.2-12.3-41.8-19.4
	c-63.6-33.6-119.3-82.4-161.2-141.1C164.3,525.1,220,476.3,283.7,442.7z"/>
<path d="M54.8,316.7c10.4,16.6,28.3,25.8,46.6,25.8c10,0,20.1-2.7,29.2-8.4c109.3-68.6,237-104.9,369.4-104.9
	c132.4,0,260.1,36.3,369.4,104.9c25.7,16.2,59.7,8.4,75.8-17.3c16.2-25.7,8.4-59.7-17.3-75.8C801.1,161.2,653.1,119.1,500,119.1
	c-153.1,0-301.1,42.1-427.9,121.8C46.4,257,38.6,291,54.8,316.7z"/>
</svg>
