<?xml version="1.0" encoding="utf-8"?>
<!-- Generator: Adobe Illustrator 18.0.0, SVG Export Plug-In . SVG Version: 6.00 Build 0)  -->
<!DOCTYPE svg PUBLIC "-//W3C//DTD SVG 1.1//EN" "http://www.w3.org/Graphics/SVG/1.1/DTD/svg11.dtd">
<svg version="1.1" id="Capa_1" xmlns="http://www.w3.org/2000/svg" xmlns:xlink="http://www.w3.org/1999/xlink" x="0px" y="0px"
	 width="1000px" height="1000px" viewBox="0 0 1000 1000" enable-background="new 0 0 1000 1000" xml:space="preserve">
<path d="M854.6,987c26.6,0,53.5-8.8,75.7-27c51.4-41.9,59.1-117.4,17.2-168.8L712.9,503.2l237-290.9c41.9-51.4,34.1-127-17.2-168.8
	c-51.4-41.9-127-34.1-168.8,17.2L465.1,427.4c-36,44.1-36,107.4,0,151.6l296.4,363.9C785.2,971.9,819.8,987,854.6,987z"/>
<path d="M340.6,942.8c23.7,29.1,58.3,44.2,93.1,44.2c26.6,0,53.5-8.8,75.7-27c51.4-41.9,59.1-117.4,17.2-168.8L292,503.2l237-290.9
	c41.9-51.4,34.1-127-17.2-168.8c-51.4-41.9-127-34.1-168.8,17.2L44.1,427.4c-36,44.1-36,107.5,0,151.6L340.6,942.8z"/>
</svg>
