<?xml version="1.0" encoding="utf-8"?>
<!-- Generator: Adobe Illustrator 18.0.0, SVG Export Plug-In . SVG Version: 6.00 Build 0)  -->
<!DOCTYPE svg PUBLIC "-//W3C//DTD SVG 1.1//EN" "http://www.w3.org/Graphics/SVG/1.1/DTD/svg11.dtd">
<svg version="1.1" id="Capa_1" xmlns="http://www.w3.org/2000/svg" xmlns:xlink="http://www.w3.org/1999/xlink" x="0px" y="0px"
	 width="128px" height="128px" viewBox="0 0 128 128" enable-background="new 0 0 128 128" xml:space="preserve">
<path d="M121.9,44.2L87,40.9c-2.2-0.2-4.1-1.6-5-3.7L69.5,6.9c-2-5-9.1-5-11.1,0L46,37.2c-0.8,2.1-2.8,3.5-5,3.7L6.1,44.2
	c-5.2,0.5-7.3,7-3.4,10.5l26.3,23.1c1.7,1.5,2.4,3.7,1.9,5.9L23,116.1c-1.2,5.1,4.3,9.3,8.9,6.6L61,105.6c1.9-1.1,4.2-1.1,6.1,0
	l29.1,17.1c4.6,2.7,10.1-1.4,8.9-6.6l-7.8-32.4c-0.5-2.2,0.2-4.4,1.9-5.9l26.3-23.1C129.3,51.2,127.1,44.7,121.9,44.2z"/>
</svg>
