<?xml version="1.0" encoding="utf-8"?>
<!-- Generator: Adobe Illustrator 18.0.0, SVG Export Plug-In . SVG Version: 6.00 Build 0)  -->
<!DOCTYPE svg PUBLIC "-//W3C//DTD SVG 1.1//EN" "http://www.w3.org/Graphics/SVG/1.1/DTD/svg11.dtd">
<svg version="1.1" id="Capa_1" xmlns="http://www.w3.org/2000/svg" xmlns:xlink="http://www.w3.org/1999/xlink" x="0px" y="0px"
	 width="1000px" height="1000px" viewBox="0 0 1000 1000" enable-background="new 0 0 1000 1000" xml:space="preserve">
<path d="M473.2,8.3H189c-33.3,0-60.2,27-60.2,60.2v853.9c0,33.3,27,60.2,60.2,60.2h624.5c33.3,0,60.2-27,60.2-60.2v-522
	c0-24.9-20.1-45-45-45H563.2c-24.9,0-45-20.1-45-45V53.3C518.2,28.4,498.1,8.3,473.2,8.3z"/>
<path d="M853.8,282.9c17.8,0,26.7-21.5,14.1-34.1L633.3,14.1c-12.6-12.6-34.1-3.7-34.1,14.1v234.6c0,11.1,9,20.1,20.1,20.1H853.8z"
	/>
</svg>
