<?xml version="1.0" encoding="utf-8"?>
<!-- Generator: Adobe Illustrator 18.0.0, SVG Export Plug-In . SVG Version: 6.00 Build 0)  -->
<!DOCTYPE svg PUBLIC "-//W3C//DTD SVG 1.1//EN" "http://www.w3.org/Graphics/SVG/1.1/DTD/svg11.dtd">
<svg version="1.1" id="Layer_1" xmlns="http://www.w3.org/2000/svg" xmlns:xlink="http://www.w3.org/1999/xlink" x="0px" y="0px"
	 width="128px" height="128px" viewBox="0 0 128 128" enable-background="new 0 0 128 128" xml:space="preserve">
<path d="M78.5,2H25c-3.4,0-7,2.3-7,5.7v111.9c0,3.4,3.5,6.4,7,6.4h81.8c3.4,0,6.2-3,6.2-6.4V36c0-5.5-2.2-10.7-6.1-14.6L93.3,7.9
	C89.3,3.9,84,2,78.5,2z M94.7,69.6c-0.1,2-1,3.9-2.6,5.3c-0.2,0.1-19.2,19.2-19.2,19.2c-1.5,1.5-3.5,2.3-5.6,2.3
	c-2.1,0-4.1-0.8-5.6-2.3c-1.5-1.5-2.3-3.5-2.3-5.6s0.8-4.1,2.3-5.6l5.9-5.9H42.3c-4.4,0-8-3.6-8-8c0-4.4,3.6-8,8-8h25.2l-5.9-5.9
	c-1.5-1.5-2.3-3.5-2.3-5.6c0-2.1,0.8-4.1,2.3-5.6c1.5-1.5,3.5-2.3,5.6-2.3c2.1,0,4.1,0.8,5.6,2.3c19.7,19.7,19.7,19.7,19.7,19.7
	C94,65.2,94.8,67.4,94.7,69.6z"/>
</svg>
