<?xml version="1.0" encoding="utf-8"?>
<!-- Generator: Adobe Illustrator 18.0.0, SVG Export Plug-In . SVG Version: 6.00 Build 0)  -->
<!DOCTYPE svg PUBLIC "-//W3C//DTD SVG 1.1//EN" "http://www.w3.org/Graphics/SVG/1.1/DTD/svg11.dtd">
<svg version="1.1" id="Capa_1" xmlns="http://www.w3.org/2000/svg" xmlns:xlink="http://www.w3.org/1999/xlink" x="0px" y="0px"
	 width="1000px" height="1000px" viewBox="0 0 1000 1000" enable-background="new 0 0 1000 1000" xml:space="preserve">
<path d="M122.6,337.2h466.8c-29.1-75.4-93.6-133.1-173.2-152.8l7.3-96.1c1.3-17.4-12.4-32.3-29.9-32.3h-76
	c-17.6,0-31.4,15-29.9,32.5l8,95.9C216.2,204.1,151.7,261.8,122.6,337.2z"/>
<path d="M123.9,517.2h-18c0,0,0,0,0,0v400.1c0,33.1,26.9,60,60,60h380.2c33.1,0,60-26.9,60-60V517.2h-18.3H123.9z"/>
<path d="M651.1,427.2c0-24.9-20.1-45-45-45H602H110h-4c-24.9,0-45,20.1-45,45s20.1,45,45,45h1.9h2.3h491.8h2.3h1.9
	C630.9,472.2,651.1,452,651.1,427.2z"/>
<path d="M893,213.4V128V40c0-19.7-18.6-34-37.6-29L520.2,98.6c-30,7.8-29.8,50.4,0.2,58.1l335.2,85.7
	C874.5,247.3,893,232.9,893,213.4z"/>
</svg>
