<?xml version="1.0" encoding="utf-8"?>
<!-- Generator: Adobe Illustrator 18.0.0, SVG Export Plug-In . SVG Version: 6.00 Build 0)  -->
<!DOCTYPE svg PUBLIC "-//W3C//DTD SVG 1.1//EN" "http://www.w3.org/Graphics/SVG/1.1/DTD/svg11.dtd">
<svg version="1.1" id="Capa_1" xmlns="http://www.w3.org/2000/svg" xmlns:xlink="http://www.w3.org/1999/xlink" x="0px" y="0px"
	 width="1000px" height="1000px" viewBox="0 0 1000 1000" enable-background="new 0 0 1000 1000" xml:space="preserve">
<path d="M243.5,91c-35.8,22.5-64.3,49.1-84.6,79.2c-11,16.4-19.4,33.3-25.1,50.8h111.5c10.8-14.6,27-30.1,51.3-45.3
	c25.6-16.1,55.8-28.8,89.6-37.7c35.9-9.5,74.2-14.4,113.8-14.4s77.8,4.8,113.8,14.4c33.9,9,64,21.7,89.6,37.7
	c24.2,15.2,40.5,30.8,51.3,45.3h111.5c-5.7-17.5-14.1-34.4-25.1-50.8c-20.3-30.1-48.8-56.8-84.6-79.2
	C687.2,47.6,596.1,23.7,500,23.7S312.8,47.6,243.5,91z"/>
<path d="M981.8,915.5V341.1c0-33.1-26.9-60-60-60h-46.6h-100H224.9h-100H78.2c-33.1,0-60,26.9-60,60v574.4c0,33.1,26.9,60,60,60
	h843.6C954.9,975.5,981.8,948.6,981.8,915.5z M662,688.3H560v102c0,33.1-26.9,60-60,60s-60-26.9-60-60v-102H338
	c-33.1,0-60-26.9-60-60s26.9-60,60-60h102v-39.8v-62.2c0-14,4.8-26.8,12.8-37c11-14,28-23,47.2-23s36.2,9,47.2,23
	c8,10.2,12.8,23.1,12.8,37v62.2v39.8h102c33.1,0,60,26.9,60,60S695.1,688.3,662,688.3z"/>
</svg>
