<?xml version="1.0" encoding="utf-8"?>
<!-- Generator: Adobe Illustrator 18.0.0, SVG Export Plug-In . SVG Version: 6.00 Build 0)  -->
<!DOCTYPE svg PUBLIC "-//W3C//DTD SVG 1.1//EN" "http://www.w3.org/Graphics/SVG/1.1/DTD/svg11.dtd">
<svg version="1.1" id="Capa_1" xmlns="http://www.w3.org/2000/svg" xmlns:xlink="http://www.w3.org/1999/xlink" x="0px" y="0px"
	 width="1000px" height="1000px" viewBox="0 0 1000 1000" enable-background="new 0 0 1000 1000" xml:space="preserve">
<path d="M833.9,989.1c24.9,0,45-20.1,45-45V50.1c0-24.9-20.1-45-45-45h-20c-24.9,0-45,20.1-45,45v894.1c0,24.9,20.1,45,45,45H833.9z
	"/>
<path d="M219.3,321.7l-174.9,165c-29.6,27.9-9.8,77.7,30.9,77.7h579.1c24.9,0,45-20.1,45-45V58.3c0-24.9-20.1-45-45-45H75.2
	c-40.7,0-60.5,49.8-30.9,77.7l175,165.2C238.1,274,238.1,304,219.3,321.7z"/>
</svg>
