<?xml version="1.0" encoding="utf-8"?>
<!-- Generator: Adobe Illustrator 18.0.0, SVG Export Plug-In . SVG Version: 6.00 Build 0)  -->
<!DOCTYPE svg PUBLIC "-//W3C//DTD SVG 1.1//EN" "http://www.w3.org/Graphics/SVG/1.1/DTD/svg11.dtd">
<svg version="1.1" id="Capa_1" xmlns="http://www.w3.org/2000/svg" xmlns:xlink="http://www.w3.org/1999/xlink" x="0px" y="0px"
	 width="1000px" height="1000px" viewBox="0 0 1000 1000" enable-background="new 0 0 1000 1000" xml:space="preserve">
<path d="M899.9,992c24.9,0,45-20.1,45-45V53c0-24.9-20.1-45-45-45h-20c-24.9,0-45,20.1-45,45V947c0,24.9,20.1,45,45,45H899.9z"/>
<path d="M64.3,147c-24.9,0-45,20.1-45,45v355c0,24.9,20.1,45,45,45h371c24.9,0,45-20.1,45-45v-49H366c-49.6,0-90-40.4-90-90V147
	H64.3z"/>
<path d="M480.3,453H737c24.9,0,45-20.1,45-45V53c0-24.9-20.1-45-45-45H366c-24.9,0-45,20.1-45,45v94v261c0,24.9,20.1,45,45,45H480.3
	z"/>
</svg>
