<?xml version="1.0" encoding="utf-8"?>
<!-- Generator: Adobe Illustrator 18.0.0, SVG Export Plug-In . SVG Version: 6.00 Build 0)  -->
<!DOCTYPE svg PUBLIC "-//W3C//DTD SVG 1.1//EN" "http://www.w3.org/Graphics/SVG/1.1/DTD/svg11.dtd">
<svg version="1.1" id="Capa_1" xmlns="http://www.w3.org/2000/svg" xmlns:xlink="http://www.w3.org/1999/xlink" x="0px" y="0px"
	 width="1000px" height="1000px" viewBox="0 0 1000 1000" enable-background="new 0 0 1000 1000" xml:space="preserve">
<path d="M500,16c-38.7,0-70,31.3-70,70v36.7c-26.1,4.9-51.7,12.6-76.4,23.1c-44.8,18.9-85,46-119.5,80.5
	c-34.5,34.5-61.6,74.7-80.5,119.5c-11.6,27.4-19.8,55.8-24.6,84.9H85.3c-38.7,0-70,31.3-70,70s31.3,70,70,70h46.9
	c4.9,23.1,12.1,45.8,21.4,67.8c18.9,44.8,46,85,80.5,119.5c34.5,34.5,74.7,61.6,119.5,80.5c24.7,10.5,50.2,18.2,76.4,23.1v53.8
	c0,38.7,31.3,70,70,70s70-31.3,70-70v-53.8c26.1-4.9,51.7-12.6,76.4-23.1c44.8-18.9,85-46,119.5-80.5
	c34.5-34.5,61.6-74.7,80.5-119.5c9.3-22,16.4-44.7,21.4-67.8h46.9c38.7,0,70-31.3,70-70s-31.3-70-70-70H871
	c-4.8-29.1-13-57.5-24.6-84.9c-18.9-44.8-46-85-80.5-119.5c-34.5-34.5-74.7-61.6-119.5-80.5c-24.7-10.5-50.2-18.2-76.4-23.1V86
	C570,47.3,538.7,16,500,16z M666.9,325.3c29.7,29.7,50.5,65.9,61.1,105.4h-13.6c-38.7,0-70,31.3-70,70s31.3,70,70,70h8.3
	c-11.6,32.8-30.4,63-55.8,88.3c-27.5,27.5-60.7,47.4-96.9,58.6v-2.5c0-38.7-31.3-70-70-70s-70,31.3-70,70v2.5
	c-36.2-11.2-69.3-31.1-96.9-58.6c-25.4-25.4-44.2-55.5-55.8-88.3h8.3c38.7,0,70-31.3,70-70s-31.3-70-70-70h-13.6
	c10.6-39.5,31.4-75.7,61.1-105.4c27.5-27.5,60.7-47.4,96.9-58.6v19.7c0,38.7,31.3,70,70,70s70-31.3,70-70v-19.7
	C606.2,277.9,639.3,297.7,666.9,325.3z"/>
</svg>
