<?xml version="1.0" encoding="utf-8"?>
<!-- Generator: Adobe Illustrator 18.0.0, SVG Export Plug-In . SVG Version: 6.00 Build 0)  -->
<!DOCTYPE svg PUBLIC "-//W3C//DTD SVG 1.1//EN" "http://www.w3.org/Graphics/SVG/1.1/DTD/svg11.dtd">
<svg version="1.1" id="Layer_1" xmlns="http://www.w3.org/2000/svg" xmlns:xlink="http://www.w3.org/1999/xlink" x="0px" y="0px"
	 width="128px" height="128px" viewBox="0 0 128 128" enable-background="new 0 0 128 128" xml:space="preserve">
<path d="M119.8,28H65v-3.3c0-3.4-3.1-6.7-6.6-6.7H8.2C4.8,18,2,21.2,2,24.7v9.7v6.3v63.9c0,3.4,2.8,6.4,6.2,6.4h111.6
	c3.4,0,6.2-2.9,6.2-6.4V34.4C126,31,123.2,28,119.8,28z M93.7,71.6c-0.1,2-1,3.9-2.6,5.3c-0.2,0.1-19.2,19.2-19.2,19.2
	c-1.5,1.5-3.5,2.3-5.6,2.3c-2.1,0-4.1-0.8-5.6-2.3c-1.5-1.5-2.3-3.5-2.3-5.6s0.8-4.1,2.3-5.6l5.9-5.9H41.3c-4.4,0-8-3.6-8-8
	c0-4.4,3.6-8,8-8h25.2l-5.9-5.9c-1.5-1.5-2.3-3.5-2.3-5.6c0-2.1,0.8-4.1,2.3-5.6c1.5-1.5,3.5-2.3,5.6-2.3c2.1,0,4.1,0.8,5.6,2.3
	c19.7,19.7,19.7,19.7,19.7,19.7C93,67.2,93.8,69.4,93.7,71.6z"/>
</svg>
