<?xml version="1.0" encoding="utf-8"?>
<!-- Generator: Adobe Illustrator 18.0.0, SVG Export Plug-In . SVG Version: 6.00 Build 0)  -->
<!DOCTYPE svg PUBLIC "-//W3C//DTD SVG 1.1//EN" "http://www.w3.org/Graphics/SVG/1.1/DTD/svg11.dtd">
<svg version="1.1" id="Capa_1" xmlns="http://www.w3.org/2000/svg" xmlns:xlink="http://www.w3.org/1999/xlink" x="0px" y="0px"
	 width="1000px" height="1000px" viewBox="0 0 1000 1000" enable-background="new 0 0 1000 1000" xml:space="preserve">
<path d="M980,219.6v-66.1c0-33.1-26.9-60-60-60h-87.6c-33.1,0-60,26.9-60,60v50.1H920C941.4,203.6,962,209.2,980,219.6z"/>
<path d="M390,93.5H80c-33.1,0-60,26.9-60,60V310v15.6v517.9c0,33.1,26.9,60,60,60h840c33.1,0,60-26.9,60-60V331.1v-7.5
	c0-33.1-26.9-60-60-60H772.4h-56.3H503.5H450V153.5C450,120.4,423.1,93.5,390,93.5z"/>
<path d="M658.1,93.5h-44.6h-44.6c-33.1,0-60,26.9-60,60v50.1h104.6h104.6v-50.1C718.1,120.4,691.3,93.5,658.1,93.5z"/>
</svg>
