<?xml version="1.0" encoding="utf-8"?>
<!-- Generator: Adobe Illustrator 18.0.0, SVG Export Plug-In . SVG Version: 6.00 Build 0)  -->
<!DOCTYPE svg PUBLIC "-//W3C//DTD SVG 1.1//EN" "http://www.w3.org/Graphics/SVG/1.1/DTD/svg11.dtd">
<svg version="1.1" id="Capa_1" xmlns="http://www.w3.org/2000/svg" xmlns:xlink="http://www.w3.org/1999/xlink" x="0px" y="0px"
	 width="128px" height="128px" viewBox="0 0 128 128" enable-background="new 0 0 128 128" xml:space="preserve">
<path d="M40,88.5c6.3-0.4,11.4-6.8,14.2-16.1c0.6-2-1-3.9-3.1-3.8l-24.7,1.6c-2.1,0.1-3.4,2.3-2.6,4.2C27.7,83.3,33.7,88.9,40,88.5z
	"/>
<path d="M52.6,57.5c3.1-0.2,5.6-2.8,5.6-6c0-4.9,0.5-10.4,1.3-16.4c1.9-13.7-1.5-32-18.6-32.9C20,1.1,16.4,27.5,17.4,42.9
	c0.3,4.2,0.9,8.2,1.8,11.9c0.7,2.8,3.3,4.7,6.2,4.5L52.6,57.5z"/>
<path d="M102.2,106.2l-24.7-1.6c-2.1-0.1-3.7,1.8-3.1,3.8c2.7,9.3,7.9,15.7,14.2,16.1c6.3,0.4,12.2-5.2,16.2-14.1
	C105.6,108.5,104.3,106.4,102.2,106.2z"/>
<path d="M87.7,38.2c-17.1,0.9-20.5,19.2-18.6,32.9c0.8,6.1,1.2,11.5,1.3,16.4c0,3.2,2.5,5.8,5.6,6l27.1,1.8c2.9,0.2,5.5-1.7,6.2-4.5
	c0.9-3.7,1.6-7.7,1.8-11.9C112.2,63.5,108.6,37.1,87.7,38.2z"/>
</svg>
