<?xml version="1.0" encoding="utf-8"?>
<!-- Generator: Adobe Illustrator 18.0.0, SVG Export Plug-In . SVG Version: 6.00 Build 0)  -->
<!DOCTYPE svg PUBLIC "-//W3C//DTD SVG 1.1//EN" "http://www.w3.org/Graphics/SVG/1.1/DTD/svg11.dtd">
<svg version="1.1" id="Capa_1" xmlns="http://www.w3.org/2000/svg" xmlns:xlink="http://www.w3.org/1999/xlink" x="0px" y="0px"
	 width="1000px" height="1000px" viewBox="0 0 1000 1000" enable-background="new 0 0 1000 1000" xml:space="preserve">
<path d="M140.2,461.2v221.5c0,28.6,11.3,54.4,33.5,76.7c0,0,169.3,155.6,169.7,156.5l0.4,37.1c0,16.5,13.5,30,30,30h394.8
	c16.5,0,30-13.5,30-30c0,0,31.4-99,31.4-122.9c0,0,0-474.3,0-474.8c0-25.3-22.8-38.2-45.8-38.5c-23.4-0.3-47.1,12.4-47.1,38.5v47.5
	c0,12.8-8.6,22.1-20.4,22.1c-11.8,0-20.4-9.3-20.4-22.1c0,0,0-86.1,0-86.6c0-51.9-103.2-52-103.2,0c0,0,0,86.7,0,86.7
	c0,12.8-8.6,22.1-20.4,22.1c-11.8,0-20.4-9.3-20.4-22.1c0,0,0-111.6,0-112.3c0-52.6-103.2-50.7-103.2,0v112.3
	c0,12.8-8.6,22.1-20.4,22.1s-20.4-9.3-20.4-22.1c0,0,0-347.5,0-347.6c0-52.6-103.2-51.2-103.2,0c0,0,0,551.4,0,551.4
	c0,24.8-13.7,39.6-36.6,39.6c-21.7,0-35.2-15.4-35.2-40.1c0,0,0-143.7,0-145C233.1,408.9,140.2,409,140.2,461.2z"/>
</svg>
