<?xml version="1.0" encoding="utf-8"?>
<!-- Generator: Adobe Illustrator 18.0.0, SVG Export Plug-In . SVG Version: 6.00 Build 0)  -->
<!DOCTYPE svg PUBLIC "-//W3C//DTD SVG 1.1//EN" "http://www.w3.org/Graphics/SVG/1.1/DTD/svg11.dtd">
<svg version="1.1" id="Capa_1" xmlns="http://www.w3.org/2000/svg" xmlns:xlink="http://www.w3.org/1999/xlink" x="0px" y="0px"
	 width="1000px" height="1000px" viewBox="0 0 1000 1000" enable-background="new 0 0 1000 1000" xml:space="preserve">
<path d="M953,321.6c0,0-551.4,0-551.4,0c-24.8,0-39.6-13.7-39.6-36.6c0-21.7,15.4-35.2,40.1-35.2c0,0,143.7,0,145,0
	c52.3,0,52.2-92.9,0-92.9H325.6c-28.6,0-54.4,11.3-76.7,33.5L95.3,358.2l-0.1,0.1c-0.9,0.9-1.9,1.4-2.8,1.8l-37.1,0.4
	c-16.5,0-30,13.5-30,30v394.8c0,16.5,13.5,30,30,30h32.2L89,817c22.1,25.8,65.4,29.6,89.2,29.6c0,0,474.3,0,474.8,0
	c25.3,0,38.2-22.8,38.5-45.8c0.3-23.4-12.4-47.1-38.5-47.1h-47.5c-12.8,0-22.1-8.6-22.1-20.4c0-11.8,9.3-20.4,22.1-20.4
	c0,0,86.1,0,86.6,0c51.9,0,52-103.2,0-103.2h-86.7c-12.8,0-22.1-8.6-22.1-20.4s9.3-20.4,22.1-20.4c0,0,111.6,0,112.3,0
	c52.6,0,50.7-103.2,0-103.2H605.5c-12.8,0-22.1-8.6-22.1-20.4c0-11.8,9.3-20.4,22.1-20.4c0,0,347.5,0,347.6,0
	C1005.6,424.7,1004.2,321.6,953,321.6z"/>
</svg>
