<?xml version="1.0" encoding="utf-8"?>
<!-- Generator: Adobe Illustrator 18.0.0, SVG Export Plug-In . SVG Version: 6.00 Build 0)  -->
<!DOCTYPE svg PUBLIC "-//W3C//DTD SVG 1.1//EN" "http://www.w3.org/Graphics/SVG/1.1/DTD/svg11.dtd">
<svg version="1.1" id="Capa_1" xmlns="http://www.w3.org/2000/svg" xmlns:xlink="http://www.w3.org/1999/xlink" x="0px" y="0px"
	 width="1000px" height="1000px" viewBox="0 0 1000 1000" enable-background="new 0 0 1000 1000" xml:space="preserve">
<path d="M104,590h0.5c49.7,0,90-40.3,90-90s-40.3-90-90-90H104c-49.7,0-90,40.3-90,90S54.3,590,104,590z"/>
<path d="M631.5,590h1.1c49.7,0,90-40.3,90-90s-40.3-90-90-90h-1.1c-49.7,0-90,40.3-90,90S581.8,590,631.5,590z"/>
<path d="M368.5,590c49.7,0,90-40.3,90-90s-40.3-90-90-90h-1.1c-49.7,0-90,40.3-90,90s40.3,90,90,90H368.5z"/>
<path d="M895.5,590h0.5c49.7,0,90-40.3,90-90s-40.3-90-90-90h-0.5c-49.7,0-90,40.3-90,90S845.8,590,895.5,590z"/>
</svg>
