<?xml version="1.0" encoding="utf-8"?>
<!-- Generator: Adobe Illustrator 18.0.0, SVG Export Plug-In . SVG Version: 6.00 Build 0)  -->
<!DOCTYPE svg PUBLIC "-//W3C//DTD SVG 1.1//EN" "http://www.w3.org/Graphics/SVG/1.1/DTD/svg11.dtd">
<svg version="1.1" id="Capa_1" xmlns="http://www.w3.org/2000/svg" xmlns:xlink="http://www.w3.org/1999/xlink" x="0px" y="0px"
	 width="1000px" height="1000px" viewBox="0 0 1000 1000" enable-background="new 0 0 1000 1000" xml:space="preserve">
<path d="M924,69H79c-38.7,0-70,31.3-70,70s31.3,70,70,70h845c38.7,0,70-31.3,70-70S962.6,69,924,69z"/>
<path d="M924,309.7H79c-38.7,0-70,31.3-70,70s31.3,70,70,70h845c38.7,0,70-31.3,70-70S962.6,309.7,924,309.7z"/>
<path d="M924,550.3H79c-38.7,0-70,31.3-70,70s31.3,70,70,70h845c38.7,0,70-31.3,70-70S962.6,550.3,924,550.3z"/>
<path d="M924,791H79c-38.7,0-70,31.3-70,70s31.3,70,70,70h845c38.7,0,70-31.3,70-70S962.6,791,924,791z"/>
</svg>
