<?xml version="1.0" encoding="utf-8"?>
<!-- Generator: Adobe Illustrator 18.0.0, SVG Export Plug-In . SVG Version: 6.00 Build 0)  -->
<!DOCTYPE svg PUBLIC "-//W3C//DTD SVG 1.1//EN" "http://www.w3.org/Graphics/SVG/1.1/DTD/svg11.dtd">
<svg version="1.1" id="Capa_1" xmlns="http://www.w3.org/2000/svg" xmlns:xlink="http://www.w3.org/1999/xlink" x="0px" y="0px"
	 width="1000px" height="1000px" viewBox="0 0 1000 1000" enable-background="new 0 0 1000 1000" xml:space="preserve">
<path d="M153.6,105.5H31c-16.6,0-30,13.4-30,30V374c0,16.6,13.4,30,30,30h122.6c16.6,0,30-13.4,30-30V135.5
	C183.6,119,170.2,105.5,153.6,105.5z"/>
<path d="M219,273.1c0,8.3,6.7,15,15,15h167c8.3,0,15-6.7,15-15v-37.8c0-8.3-6.7-15-15-15H234c-8.3,0-15,6.7-15,15V273.1z"/>
<path d="M219,391.3c0,8.3,6.7,15,15,15h105.5c8.3,0,15-6.7,15-15v-37.8c0-8.3-6.7-15-15-15H234c-8.3,0-15,6.7-15,15V391.3z"/>
<path d="M342.5,825.6H237.1c-8.3,0-15,6.7-15,15v37.8c0,8.3,6.7,15,15,15h105.5c8.3,0,15-6.7,15-15v-37.8
	C357.5,832.3,350.8,825.6,342.5,825.6z"/>
<path d="M234,173.4h212.1c8.3,0,15-6.7,15-15v-37.8c0-8.3-6.7-15-15-15H234c-8.3,0-15,6.7-15,15v37.8
	C219,166.6,225.7,173.4,234,173.4z"/>
<path d="M691.4,105.5H568.8c-16.6,0-30,13.4-30,30V375c0,16.6,13.4,30,30,30h122.6c16.6,0,30-13.4,30-30V135.5
	C721.4,119,708,105.5,691.4,105.5z"/>
<path d="M953.8,273.1v-37.8c0-8.3-6.7-15-15-15h-167c-8.3,0-15,6.7-15,15v37.8c0,8.3,6.7,15,15,15h167
	C947.1,288.1,953.8,281.4,953.8,273.1z"/>
<path d="M771.9,339c-8.3,0-15,6.7-15,15v37.8c0,8.3,6.7,15,15,15h105.5c8.3,0,15-6.7,15-15V354c0-8.3-6.7-15-15-15H771.9z"/>
<path d="M877.3,825.6H771.9c-8.3,0-15,6.7-15,15v37.8c0,8.3,6.7,15,15,15h105.5c8.3,0,15-6.7,15-15v-37.8
	C892.3,832.3,885.6,825.6,877.3,825.6z"/>
<path d="M985,105.5H772.9c-8.3,0-15,6.7-15,15v37.8c0,8.3,6.7,15,15,15H985c8.3,0,15-6.7,15-15v-37.8
	C1000,112.3,993.3,105.5,985,105.5z"/>
<path d="M153.6,592.1H31c-16.6,0-30,13.4-30,30v239.6c0,16.6,13.4,30,30,30h122.6c16.6,0,30-13.4,30-30V622.1
	C183.6,605.5,170.2,592.1,153.6,592.1z"/>
<path d="M404.1,706.8h-167c-8.3,0-15,6.7-15,15v37.8c0,8.3,6.7,15,15,15h167c8.3,0,15-6.7,15-15v-37.8
	C419.1,713.5,412.3,706.8,404.1,706.8z"/>
<path d="M449.2,592.1H237.1c-8.3,0-15,6.7-15,15v37.8c0,8.3,6.7,15,15,15h212.1c8.3,0,15-6.7,15-15v-37.8
	C464.2,598.8,457.5,592.1,449.2,592.1z"/>
<path d="M691.4,592.1H568.8c-16.6,0-30,13.4-30,30v241.9c0,16.6,13.4,30,30,30h122.6c16.6,0,30-13.4,30-30V622.1
	C721.4,605.5,708,592.1,691.4,592.1z"/>
<path d="M938.8,706.8h-167c-8.3,0-15,6.7-15,15v37.8c0,8.3,6.7,15,15,15h167c8.3,0,15-6.7,15-15v-37.8
	C953.8,713.5,947.1,706.8,938.8,706.8z"/>
<path d="M984,592.1H771.9c-8.3,0-15,6.7-15,15v37.8c0,8.3,6.7,15,15,15H984c8.3,0,15-6.7,15-15v-37.8
	C999,598.8,992.3,592.1,984,592.1z"/>
</svg>
