<?xml version="1.0" encoding="utf-8"?>
<!-- Generator: Adobe Illustrator 18.0.0, SVG Export Plug-In . SVG Version: 6.00 Build 0)  -->
<!DOCTYPE svg PUBLIC "-//W3C//DTD SVG 1.1//EN" "http://www.w3.org/Graphics/SVG/1.1/DTD/svg11.dtd">
<svg version="1.1" id="Capa_1" xmlns="http://www.w3.org/2000/svg" xmlns:xlink="http://www.w3.org/1999/xlink" x="0px" y="0px"
	 width="1000px" height="1000px" viewBox="0 0 1000 1000" enable-background="new 0 0 1000 1000" xml:space="preserve">
<path d="M79.2,437.5h300.1c33.1,0,60-26.9,60-60V77.4c0-33.1-26.9-60-60-60H79.2c-33.1,0-60,26.9-60,60v300.1
	C19.2,410.7,46,437.5,79.2,437.5z"/>
<path d="M620.6,437.5h300.1c33.1,0,60-26.9,60-60V77.4c0-33.1-26.9-60-60-60H620.6c-33.1,0-60,26.9-60,60v300.1
	C560.6,410.7,587.5,437.5,620.6,437.5z"/>
<path d="M19.2,922.6c0,33.1,26.9,60,60,60h300.1c33.1,0,60-26.9,60-60V622.5c0-33.1-26.9-60-60-60H79.2c-33.1,0-60,26.9-60,60V922.6
	z"/>
<path d="M560.6,922.6c0,33.1,26.9,60,60,60h300.1c33.1,0,60-26.9,60-60V622.5c0-33.1-26.9-60-60-60H620.6c-33.1,0-60,26.9-60,60
	V922.6z"/>
</svg>
