<?xml version="1.0" encoding="utf-8"?>
<!-- Generator: Adobe Illustrator 18.0.0, SVG Export Plug-In . SVG Version: 6.00 Build 0)  -->
<!DOCTYPE svg PUBLIC "-//W3C//DTD SVG 1.1//EN" "http://www.w3.org/Graphics/SVG/1.1/DTD/svg11.dtd">
<svg version="1.1" id="Capa_1" xmlns="http://www.w3.org/2000/svg" xmlns:xlink="http://www.w3.org/1999/xlink" x="0px" y="0px"
	 width="1000px" height="1000px" viewBox="0 0 1000 1000" enable-background="new 0 0 1000 1000" xml:space="preserve">
<path d="M59.3,833c23.7,15.7,55.1,12.8,75.7-6.8c0,0,117.9-100.9,152.8-128.9c10.8-8.7,24.3-13.4,38.2-13.4h172.6h172.6
	c13.9,0,27.4,4.7,38.2,13.4c34.9,28,152.8,128.9,152.8,128.9c20.6,19.6,52,22.5,75.7,6.8c77.6-51.6,52.1-189.9,33.1-266.9
	c-15.7-63.8-37.8-126.1-63.1-186.7c-37.3-89.2-118.8-202.8-232.2-178.5c-11.3,2.7-23.9,9.3-33.1,14.9c-9.5,5.7-20.4,8.8-31.5,8.8
	h-72.5V54c0-22.1-17.9-40-40-40s-40,17.9-40,40v170.5h-72.5c-11.1,0-22-3-31.5-8.8c-9.2-5.5-21.8-12.1-33.1-14.9
	c-113.3-24.3-194.9,89.3-232.2,178.5C64,440,42,502.3,26.2,566.1C7.2,643.1-18.3,781.4,59.3,833z M739.1,311.5
	c24,0,43.5,19.5,43.5,43.5s-19.5,43.5-43.5,43.5c-24,0-43.5-19.5-43.5-43.5S715.1,311.5,739.1,311.5z M636.1,438.1
	c24,0,43.5,19.5,43.5,43.5c0,24-19.5,43.5-43.5,43.5c-24,0-43.5-19.5-43.5-43.5C592.6,457.6,612.1,438.1,636.1,438.1z M204.5,389.6
	h50.6V339c0-16.6,13.4-30,30-30s30,13.4,30,30v50.6h50.6c16.6,0,30,13.4,30,30s-13.4,30-30,30h-50.6v50.6c0,16.6-13.4,30-30,30
	s-30-13.4-30-30v-50.6h-50.6c-16.6,0-30-13.4-30-30S188,389.6,204.5,389.6z"/>
</svg>
