<?xml version="1.0" encoding="utf-8"?>
<!-- Generator: Adobe Illustrator 18.0.0, SVG Export Plug-In . SVG Version: 6.00 Build 0)  -->
<!DOCTYPE svg PUBLIC "-//W3C//DTD SVG 1.1//EN" "http://www.w3.org/Graphics/SVG/1.1/DTD/svg11.dtd">
<svg version="1.1" id="Layer_1" xmlns="http://www.w3.org/2000/svg" xmlns:xlink="http://www.w3.org/1999/xlink" x="0px" y="0px"
	 width="128px" height="128px" viewBox="0 0 128 128" enable-background="new 0 0 128 128" xml:space="preserve">
<path d="M64,2c-5,0-9.8,0.6-14.4,1.7C34.5,7.3,21.5,16.4,13,28.8C6.1,38.8,2,50.9,2,64c0,34.2,27.8,62,62,62c34.2,0,62-27.8,62-62
	S98.2,2,64,2z M89.6,105.5c-0.5,4-6.2,6-7.4,1.7c-2.1-7.9-7.7-5.6-7.5-13c0.2-5.6-11.3-1.2-14.3-5.7c-3-4.4,5.3-8.7,0.8-14.2
	c-4.5-5.5-13.5,2.1-24.3-1.6c-4.8-1.7-9.4-5.6-12.6-9.5c-4.3-5.2-5.8-11.4-7.6-17.8c-0.2-0.6-0.3-1.3-0.5-1.9
	C21.7,30.8,32,20.7,44.9,15.6c2.4,3.3,10.1,1.7,15,2.2c2.5,0.2,4.3,1,4.4,3.2c0,0.4-0.1,1-0.3,1.6c-1.5,4.1-7.1,11.3-3.6,14
	c2.6,2,4.4-1.8,5.9,3.9c0.7,2.6,1,8-1.9,9.9C61.6,52.2,54.6,45,46,49c-4.7,2.3-5.4,13.1,1.1,13.7c3.8,0.3,6.8-7.2,10.4-3.6
	c2.9,2.9,5.4,10.8,12.2,11.1c6,0.3,17.5-3.4,25.1,7.1c4.5,6.4-3.8,11.5-5.3,17.6C88.2,99.9,90,102.5,89.6,105.5z"/>
</svg>
