<?xml version="1.0" encoding="utf-8"?>
<!-- Generator: Adobe Illustrator 18.0.0, SVG Export Plug-In . SVG Version: 6.00 Build 0)  -->
<!DOCTYPE svg PUBLIC "-//W3C//DTD SVG 1.1//EN" "http://www.w3.org/Graphics/SVG/1.1/DTD/svg11.dtd">
<svg version="1.1" id="Capa_1" xmlns="http://www.w3.org/2000/svg" xmlns:xlink="http://www.w3.org/1999/xlink" x="0px" y="0px"
	 width="1000px" height="1000px" viewBox="0 0 1000 1000" enable-background="new 0 0 1000 1000" xml:space="preserve">
<path d="M850.3,153.4c-45-45-97.4-80.3-155.7-105C634.1,22.8,569.9,9.8,503.8,9.8c-66.1,0-130.3,13-190.8,38.5
	c-58.4,24.7-110.8,60-155.7,105c-45,45-80.3,97.4-105,155.7c-25.6,60.5-38.5,124.6-38.5,190.8s13,130.3,38.5,190.8
	c24.7,58.4,60,110.8,105,155.7c45,45,97.4,80.3,155.7,105c60.5,25.6,124.6,38.5,190.8,38.5s130.3-13,190.8-38.5
	c58.4-24.7,110.8-60,155.7-105c45-45,80.3-97.4,105-155.7c25.6-60.5,38.5-124.6,38.5-190.8s-13-130.3-38.5-190.8
	C930.6,250.7,895.3,198.3,850.3,153.4z M911.9,459.9H776.8c-2.8-61.3-12.2-120.2-27.6-174.1c29.7-9.2,57.2-20,82.3-32.4
	C875.7,312,904.4,382.8,911.9,459.9z M543.8,114.7c8.9,4.1,17.6,9.5,26.3,16.3c23.2,18.2,45.2,46,63.8,80.4c3,5.6,6,11.4,8.8,17.4
	c-31.7,5.4-65,9-99,10.6V114.7z M373.5,211.4c18.6-34.5,40.7-62.3,63.8-80.4c8.7-6.8,17.5-12.3,26.4-16.4v124.8
	c-34.1-1.6-67.4-5.1-99.1-10.6C367.6,222.9,370.5,217.1,373.5,211.4z M327.2,339.1c2.7-11.7,5.6-23.1,8.8-34.2
	c41,7.9,83.8,12.7,127.8,14.6v140.3h-153C312.9,418.2,318.4,377.7,327.2,339.1z M463.8,539.9v140.3c-43.8,1.8-86.4,6.7-127.3,14.5
	c-3.4-11.6-6.5-23.5-9.3-35.8c-8.7-38-14.1-77.9-16.3-119H463.8z M463.8,760.3v123.1c-8.9-4.1-17.7-9.5-26.4-16.4
	c-23.2-18.2-45.2-46-63.8-80.4c-2.8-5.1-5.5-10.4-8.1-15.8C396.9,765.4,430,761.9,463.8,760.3z M634,786.6
	c-18.6,34.5-40.7,62.3-63.8,80.4c-8.7,6.8-17.5,12.2-26.3,16.3v-123c33.8,1.6,66.8,5.1,98.2,10.4C639.4,776.1,636.8,781.4,634,786.6
	z M680.3,658.9c-2.8,12.3-5.9,24.2-9.3,35.8c-40.8-7.8-83.4-12.6-127.2-14.5V539.9h152.8C694.5,580.9,689,620.8,680.3,658.9z
	 M543.8,459.9V319.5c43.9-1.8,86.7-6.7,127.7-14.6c3.2,11.1,6.2,22.5,8.8,34.2c8.8,38.6,14.3,79,16.4,120.7H543.8z M774.3,191.7
	c-16.3,6.9-33.7,13.1-52,18.6c-5.6-12.8-11.5-25.1-17.9-36.9c-9-16.6-18.5-31.9-28.7-45.9C711.7,144.1,744.8,165.8,774.3,191.7z
	 M331.8,127.6c-10.1,14-19.7,29.3-28.6,45.9c-6.4,11.8-12.3,24.1-17.9,36.9c-18.3-5.5-35.6-11.7-51.9-18.6
	C262.7,165.9,295.8,144.2,331.8,127.6z M176.1,253.4c25,12.4,52.5,23.2,82.2,32.3c-15.4,53.9-24.8,112.8-27.6,174.1h-135
	C103.2,382.8,132,312,176.1,253.4z M95.7,539.9h135.1c2.9,61.3,12.5,120.2,27.9,174c-29.9,9.2-57.5,20-82.7,32.5
	C132,687.7,103.2,616.9,95.7,539.9z M233.3,808c16.4-7,34-13.3,52.5-18.8c5.4,12.2,11.1,24,17.3,35.4c9.5,17.6,19.7,33.8,30.5,48.5
	C297,856.3,263.3,834.3,233.3,808z M673.8,873.1c10.9-14.7,21.1-30.9,30.6-48.5c6.1-11.3,11.9-23.2,17.3-35.4
	c18.6,5.6,36.2,11.9,52.6,18.9C744.3,834.3,710.5,856.3,673.8,873.1z M831.5,746.3c-25.2-12.4-52.8-23.3-82.8-32.5
	c15.5-53.8,25-112.7,27.9-173.9h135.2C904.4,616.9,875.7,687.7,831.5,746.3z"/>
</svg>
