<?xml version="1.0" encoding="utf-8"?>
<!-- Generator: Adobe Illustrator 18.0.0, SVG Export Plug-In . SVG Version: 6.00 Build 0)  -->
<!DOCTYPE svg PUBLIC "-//W3C//DTD SVG 1.1//EN" "http://www.w3.org/Graphics/SVG/1.1/DTD/svg11.dtd">
<svg version="1.1" id="Capa_1" xmlns="http://www.w3.org/2000/svg" xmlns:xlink="http://www.w3.org/1999/xlink" x="0px" y="0px"
	 width="128px" height="128px" viewBox="0 0 128 128" enable-background="new 0 0 128 128" xml:space="preserve">
<path d="M97.5,97.4V73l-27.9,9c-1.8,0.6-3.6,0.9-5.5,0.9c-1.9,0-3.7-0.3-5.5-0.9l-27.9-9v24.5c0,6.1,15,11,33.5,11
	S97.5,103.5,97.5,97.4z"/>
<path d="M122.6,40.9L65.9,22.6c-0.6-0.2-1.2-0.3-1.8-0.3s-1.2,0.1-1.8,0.3L5.5,40.9C0,42.6,0,50.5,5.5,52.3l6.8,2.2v6.3v6.3V107
	c0,2.8,2.2,5,5,5s5-2.2,5-5V70.3V64v-6.3l8.2,2.7l31.6,10.2c0.6,0.2,1.2,0.3,1.8,0.3s1.2-0.1,1.8-0.3l31.6-10.2l25.1-8.1
	C128.1,50.5,128.1,42.6,122.6,40.9z M70.3,50.7c-1.8,0.5-4,0.9-6.2,0.9s-4.4-0.3-6.2-0.9c-4-1.2-6.8-3.5-6.8-6.1c0-3.9,5.8-7,13-7
	s13,3.1,13,7C77,47.2,74.3,49.5,70.3,50.7z"/>
</svg>
