<?xml version="1.0" encoding="utf-8"?>
<!-- Generator: Adobe Illustrator 18.0.0, SVG Export Plug-In . SVG Version: 6.00 Build 0)  -->
<!DOCTYPE svg PUBLIC "-//W3C//DTD SVG 1.1//EN" "http://www.w3.org/Graphics/SVG/1.1/DTD/svg11.dtd">
<svg version="1.1" id="Capa_1" xmlns="http://www.w3.org/2000/svg" xmlns:xlink="http://www.w3.org/1999/xlink" x="0px" y="0px"
	 width="1000px" height="1000px" viewBox="0 0 1000 1000" enable-background="new 0 0 1000 1000" xml:space="preserve">
<path d="M983.3,783.2V388.4c0-16.5-13.5-30-30-30l-37.1-0.4c-0.9-0.4-2-0.9-2.8-1.8l-0.1-0.1L759.7,188.3
	c-22.3-22.2-48.1-33.5-76.7-33.5H461.5c-52.2,0-52.3,92.9,0,92.9c1.3,0,145,0,145,0c24.7,0,40.1,13.5,40.1,35.2
	c0,22.9-14.8,36.6-39.6,36.6c0,0-551.4,0-551.4,0c-51.2,0-52.6,103.2,0,103.2c0,0,347.6,0,347.6,0c12.8,0,22.1,8.6,22.1,20.4
	s-9.3,20.4-22.1,20.4H290.8c-50.7,0-52.6,103.2,0,103.2c0.8,0,112.3,0,112.3,0c12.8,0,22.1,8.6,22.1,20.4c0,11.8-9.3,20.4-22.1,20.4
	c0,0-86.7,0-86.7,0c-52,0-51.9,103.2,0,103.2c0.5,0,86.6,0,86.6,0c12.8,0,22.1,8.6,22.1,20.4c0,11.8-9.3,20.4-22.1,20.4h-47.5
	c-26.1,0-38.8,23.6-38.5,47.1c0.3,23,13.2,45.8,38.5,45.8c0.5,0,474.8,0,474.8,0c23.8,0,67.1-3.8,89.2-29.6l1.5-1.7h32.2
	C969.9,813.2,983.3,799.7,983.3,783.2z"/>
</svg>
