<?xml version="1.0" encoding="utf-8"?>
<!-- Generator: Adobe Illustrator 18.0.0, SVG Export Plug-In . SVG Version: 6.00 Build 0)  -->
<!DOCTYPE svg PUBLIC "-//W3C//DTD SVG 1.1//EN" "http://www.w3.org/Graphics/SVG/1.1/DTD/svg11.dtd">
<svg version="1.1" id="Capa_1" xmlns="http://www.w3.org/2000/svg" xmlns:xlink="http://www.w3.org/1999/xlink" x="0px" y="0px"
	 width="1000px" height="1000px" viewBox="0 0 1000 1000" enable-background="new 0 0 1000 1000" xml:space="preserve">
<path d="M869.7,480.2H705.3c-16.7,0-28.9-11.2-28.9-26.7c0-15.5,12.1-26.7,28.9-26.7c0,0,141.7,0,141.7,0c68.7,0,66.9-134.8,0-134.8
	c0,0-276.7,0-279.3,0c-12.2,0,2.4-20,5.3-23.8c31.2-40.4,58.4-84.1,71.1-134c9.4-36.8,10.1-91-29.1-111.4
	C558.3-6.7,531.7,62.1,508,98.3c-56.7,86.9-153.4,142.3-235.8,202.3c-18,13.1-56.6,41.2-57.8,41.7l-130.4,0.5
	c-21.6,0-39.2,17.6-39.2,39.2v515.7c0,21.6,17.5,39.2,39.2,39.2h101.1l2,2.3c28.8,33.7,85.4,38.7,116.5,38.7c0,0,489.2,0,489.9,0
	c33,0,49.9-29.8,50.3-59.8c0.4-30.6-16.2-61.5-50.3-61.5h-88.2c-16.7,0-28.9-11.2-28.9-26.7s12.1-26.7,28.9-26.7
	c0,0,143.9,0,144.6,0c67.8,0,67.9-134.8,0-134.8c0,0-144.6,0-144.6,0c-16.7,0-28.9-11.2-28.9-26.7s12.1-26.7,28.9-26.7
	c0,0,163.4,0,164.4,0C938.4,615,935.9,480.2,869.7,480.2z"/>
</svg>
