<?xml version="1.0" encoding="utf-8"?>
<!-- Generator: Adobe Illustrator 18.0.0, SVG Export Plug-In . SVG Version: 6.00 Build 0)  -->
<!DOCTYPE svg PUBLIC "-//W3C//DTD SVG 1.1//EN" "http://www.w3.org/Graphics/SVG/1.1/DTD/svg11.dtd">
<svg version="1.1" id="Capa_1" xmlns="http://www.w3.org/2000/svg" xmlns:xlink="http://www.w3.org/1999/xlink" x="0px" y="0px"
	 width="1000px" height="1000px" viewBox="0 0 1000 1000" enable-background="new 0 0 1000 1000" xml:space="preserve">
<path d="M877.1,940.8v-40.6l2.2-1.9c32.5-27.8,37.4-82.4,37.4-112.5c0,0,0-599.8,0-600.4c0-31.9-28.8-48.2-57.8-48.5
	c-29.6-0.4-59.4,15.7-59.4,48.5v61.4c0,16.2-10.8,27.9-25.8,27.9c-14.9,0-25.8-11.7-25.8-27.9c0,0,0-146.5,0-147.1
	c0-65.4-130.2-65.6-130.2,0c0,0,0,147.2,0,147.2c0,16.2-10.8,27.9-25.8,27.9c-14.9,0-25.8-11.7-25.8-27.9c0,0,0-183.6,0-184.6
	c0-66.4-130.1-63.9-130.1,0v184.6c0,16.2-10.8,27.9-25.8,27.9c-14.9,0-25.8-11.7-25.8-27.9c0,0,0-113.1,0-113.1
	c0-66.3-130.2-64.6-130.2,0c0,0,0,370.3,0,370.3c0,25.1-19.9,42-42.7,47.8c-8.8,2.2-17.3-4.6-17.3-13.6c-0.1-13.7-0.1-31.6-0.1-33.4
	c0,0,0-95.2,0-96.8c0-66-109.2-83-124.8,0L40.3,599.8c0,36.1,14.2,68.7,42.2,96.7l218,193.8l0.1,0.1c1.1,1.1,1.7,2.4,2.2,3.5
	l0.5,46.8c0,20.9,17,37.8,37.8,37.8h498C860.2,978.7,877.1,961.7,877.1,940.8z"/>
</svg>
