<?xml version="1.0" encoding="utf-8"?>
<!-- Generator: Adobe Illustrator 18.0.0, SVG Export Plug-In . SVG Version: 6.00 Build 0)  -->
<!DOCTYPE svg PUBLIC "-//W3C//DTD SVG 1.1//EN" "http://www.w3.org/Graphics/SVG/1.1/DTD/svg11.dtd">
<svg version="1.1" id="Capa_1" xmlns="http://www.w3.org/2000/svg" xmlns:xlink="http://www.w3.org/1999/xlink" x="0px" y="0px"
	 width="1000px" height="1000px" viewBox="0 0 1000 1000" enable-background="new 0 0 1000 1000" xml:space="preserve">
<path d="M18,500c0,266.2,215.8,482,482,482s482-215.8,482-482S766.2,18,500,18S18,233.8,18,500z M665.8,263
	c43.3,0,78.5,35.1,78.5,78.5c0,43.3-35.1,78.5-78.5,78.5s-78.5-35.1-78.5-78.5C587.3,298.1,622.4,263,665.8,263z M334.2,263
	c43.3,0,78.5,35.1,78.5,78.5c0,43.3-35.1,78.5-78.5,78.5s-78.5-35.1-78.5-78.5C255.7,298.1,290.9,263,334.2,263z M244.8,530.6
	c27.3-4.4,52.9,14.1,57.4,41.4c7.5,46.4,31.4,89,67.4,119.8c36.3,31.2,82.6,48.3,130.5,48.3c47.8,0,94.2-17.1,130.4-48.2
	c35.9-30.8,59.8-73.2,67.4-119.6c4.5-27.3,30.2-45.7,57.4-41.3c27.3,4.5,45.7,30.2,41.3,57.4c-11.4,69.6-47.3,133.2-101,179.3
	c-54.4,46.6-123.8,72.3-195.5,72.3c-71.8,0-141.3-25.7-195.7-72.4c-53.8-46.2-89.6-110-100.9-179.7C199,560.7,217.5,535,244.8,530.6
	z"/>
</svg>
