<?xml version="1.0" encoding="utf-8"?>
<!-- Generator: Adobe Illustrator 18.0.0, SVG Export Plug-In . SVG Version: 6.00 Build 0)  -->
<!DOCTYPE svg PUBLIC "-//W3C//DTD SVG 1.1//EN" "http://www.w3.org/Graphics/SVG/1.1/DTD/svg11.dtd">
<svg version="1.1" id="Capa_1" xmlns="http://www.w3.org/2000/svg" xmlns:xlink="http://www.w3.org/1999/xlink" x="0px" y="0px"
	 width="1000px" height="1000px" viewBox="0 0 1000 1000" enable-background="new 0 0 1000 1000" xml:space="preserve">
<path d="M26.9,922.1c0,33.1,26.9,60,60,60h150.6c33.1,0,60-26.9,60-60V591.8c0-33.1-26.9-60-60-60h-111V312.1
	c0-114.5,93.1-207.6,207.6-207.6h342c114.5,0,207.6,93.1,207.6,207.6v219.7H771.9c-33.1,0-60,26.9-60,60v330.3c0,33.1,26.9,60,60,60
	h151.6c33.1,0,60-26.9,60-60V609.5h0.1V312.1c0-41.5-8.1-81.8-24.2-119.7c-15.5-36.6-37.7-69.5-65.9-97.8
	c-28.2-28.2-61.1-50.4-97.8-65.9C757.8,12.7,717.5,4.5,676,4.5H334c-41.5,0-81.8,8.1-119.7,24.2c-36.6,15.5-69.5,37.7-97.8,65.9
	c-28.2,28.2-50.4,61.1-65.9,97.8c-16.1,38-24.2,78.2-24.2,119.7v297.4h0.5V922.1z"/>
</svg>
