<?xml version="1.0" encoding="utf-8"?>
<!-- Generator: Adobe Illustrator 18.0.0, SVG Export Plug-In . SVG Version: 6.00 Build 0)  -->
<!DOCTYPE svg PUBLIC "-//W3C//DTD SVG 1.1//EN" "http://www.w3.org/Graphics/SVG/1.1/DTD/svg11.dtd">
<svg version="1.1" id="Capa_1" xmlns="http://www.w3.org/2000/svg" xmlns:xlink="http://www.w3.org/1999/xlink" x="0px" y="0px"
	 width="128px" height="128px" viewBox="0 0 128 128" enable-background="new 0 0 128 128" xml:space="preserve">
<path d="M109,104.9c3.3,0,6-2.7,6-6V58.6H13v40.2c0,3.3,2.7,6,6,6H109z M88.8,82.6c0-1.7,1.3-3,3-3h10.5c1.7,0,3,1.3,3,3v10.5
	c0,1.7-1.3,3-3,3H91.8c-1.7,0-3-1.3-3-3V82.6z"/>
<path d="M4.2,48.6H13h102h8.8c2.1,0,3.5-2,2.8-4l-6.2-17.5c-0.8-2.4-3.1-4-5.7-4H13.2c-2.5,0-4.8,1.6-5.7,4L1.4,44.6
	C0.7,46.6,2.2,48.6,4.2,48.6z"/>
</svg>
