<?xml version="1.0" encoding="utf-8"?>
<!-- Generator: Adobe Illustrator 18.0.0, SVG Export Plug-In . SVG Version: 6.00 Build 0)  -->
<!DOCTYPE svg PUBLIC "-//W3C//DTD SVG 1.1//EN" "http://www.w3.org/Graphics/SVG/1.1/DTD/svg11.dtd">
<svg version="1.1" id="Layer_1" xmlns="http://www.w3.org/2000/svg" xmlns:xlink="http://www.w3.org/1999/xlink" x="0px" y="0px"
	 width="128px" height="128px" viewBox="0 0 128 128" enable-background="new 0 0 128 128" xml:space="preserve">
<path d="M123.4,91H4.6C3.2,91,2,92.2,2,93.6v9.8c0,1.4,1.2,2.6,2.6,2.6h118.8c1.4,0,2.6-1.2,2.6-2.6v-9.8
	C126,92.2,124.8,91,123.4,91z"/>
<path d="M4.7,79h11.9c1.7,0,3.4-1.7,3.4-3.4V58.2c0-1.7,1-3.2,2.7-3.2h13.6c1.7,0,2.8,1.5,2.8,3.2v17.5c0,1.7,1.6,3.4,3.3,3.4h12
	c1.7,0,2.7-1.7,2.7-3.4V23.5c0-1.7-1-2.5-2.7-2.5h-12c-1.7,0-3.3,0.9-3.3,2.5v14.3c0,1.7-1.1,3.2-2.8,3.2H22.7
	C21,41,20,39.5,20,37.8V23.5c0-1.7-1.7-2.5-3.4-2.5H4.7C3,21,2,21.9,2,23.5v52.1C2,77.3,3,79,4.7,79z"/>
<path d="M111.9,51.8c0.9-0.3,1.6-0.7,2.3-1.1c2.4-1.5,4.3-3.4,5.7-5.7c1.4-2.3,2.1-5.1,2.1-8.3c0-3.7-0.9-6.8-2.7-9.4
	c-1.8-2.6-4.2-4.1-7.1-5.1c-2.9-1-7.2-1.2-12.7-1.2H71.1c-0.9,0-2.1,0.2-2.1,1.1v55c0,0.9,1.2,1.9,2.1,1.9h14.9c0.9,0,2.1-1,2.1-1.9
	V56.6c0-0.9,0.5-1.6,1.3-1.6c1.6,0,3,0.4,4.3,1.3c1,0.7,2,2.2,3.2,4.5L106,78c0.3,0.5,0.8,1,1.4,1h16.8c1.2,0,2-1.4,1.4-2.5
	c-2.6-5.1-4.9-10.5-8.2-15.3c-1.3-1.9-2.7-4.1-4.4-5.6C111.9,54.7,109.7,52.7,111.9,51.8z M103,41.1c-0.9,1.2-2.3,2-3.8,2.4
	c-3.2,0.9-6.6,0.6-9.9,0.6c-0.9,0-1.3-0.7-1.3-1.6v-8.7c0-0.9,0.2-1.8,1.1-1.8h6.3c2.8,0,5.8,0.2,7.6,2.8
	C104.3,36.6,104.3,39.3,103,41.1z"/>
</svg>
