<?xml version="1.0" encoding="utf-8"?>
<!-- Generator: Adobe Illustrator 18.0.0, SVG Export Plug-In . SVG Version: 6.00 Build 0)  -->
<!DOCTYPE svg PUBLIC "-//W3C//DTD SVG 1.1//EN" "http://www.w3.org/Graphics/SVG/1.1/DTD/svg11.dtd">
<svg version="1.1" id="Capa_1" xmlns="http://www.w3.org/2000/svg" xmlns:xlink="http://www.w3.org/1999/xlink" x="0px" y="0px"
	 width="128px" height="128px" viewBox="0 0 128 128" enable-background="new 0 0 128 128" xml:space="preserve">
<path d="M106.5,88.5v-49c0-2.8-2.2-5-5-5h-75c-2.8,0-5,2.2-5,5v49c0,2.8,2.2,5,5,5h75C104.3,93.5,106.5,91.3,106.5,88.5z M92.5,77
	c0,1.4-1.1,2.5-2.5,2.5H38c-1.4,0-2.5-1.1-2.5-2.5V51c0-1.4,1.1-2.5,2.5-2.5h52c1.4,0,2.5,1.1,2.5,2.5V77z"/>
<path d="M123.1,22.9c0-2.8-2.2-5-5-5H95.9c-2.8,0-5,2.2-5,5s2.2,5,5,5h14.6c1.4,0,2.5,1.1,2.5,2.5v14.6c0,2.8,2.2,5,5,5s5-2.2,5-5
	V22.9z"/>
<path d="M95.9,109.1h22.1c2.8,0,5-2.2,5-5V81.9c0-2.8-2.2-5-5-5s-5,2.2-5,5v14.6c0,1.4-1.1,2.5-2.5,2.5H95.9c-2.8,0-5,2.2-5,5
	S93.2,109.1,95.9,109.1z"/>
<path d="M4.9,45.1c0,2.8,2.2,5,5,5s5-2.2,5-5V30.4c0-1.4,1.1-2.5,2.5-2.5h14.6c2.8,0,5-2.2,5-5s-2.2-5-5-5H9.9c-2.8,0-5,2.2-5,5
	V45.1z"/>
<path d="M4.9,104.1c0,2.8,2.2,5,5,5h22.1c2.8,0,5-2.2,5-5s-2.2-5-5-5H17.4c-1.4,0-2.5-1.1-2.5-2.5V81.9c0-2.8-2.2-5-5-5s-5,2.2-5,5
	V104.1z"/>
</svg>
