<?xml version="1.0" encoding="utf-8"?>
<!-- Generator: Adobe Illustrator 18.0.0, SVG Export Plug-In . SVG Version: 6.00 Build 0)  -->
<!DOCTYPE svg PUBLIC "-//W3C//DTD SVG 1.1//EN" "http://www.w3.org/Graphics/SVG/1.1/DTD/svg11.dtd">
<svg version="1.1" id="Capa_1" xmlns="http://www.w3.org/2000/svg" xmlns:xlink="http://www.w3.org/1999/xlink" x="0px" y="0px"
	 width="1000px" height="1000px" viewBox="0 0 1000 1000" enable-background="new 0 0 1000 1000" xml:space="preserve">
<path d="M980,72c0-33.1-26.9-60-60-60H80c-33.1,0-60,26.9-60,60v519c0,33.1,26.9,60,60,60h840c33.1,0,60-26.9,60-60V72z"/>
<path d="M929,728H213c-28.2,0-51,22.8-51,51c0,28.2,22.8,51,51,51h716c28.2,0,51-22.8,51-51C980,750.8,957.2,728,929,728z"/>
<path d="M929,894H338.8c-28.2,0-51,22.8-51,51c0,28.2,22.8,51,51,51H929c28.2,0,51-22.8,51-51C980,916.8,957.2,894,929,894z"/>
</svg>
