<?xml version="1.0" encoding="utf-8"?>
<!-- Generator: Adobe Illustrator 18.0.0, SVG Export Plug-In . SVG Version: 6.00 Build 0)  -->
<!DOCTYPE svg PUBLIC "-//W3C//DTD SVG 1.1//EN" "http://www.w3.org/Graphics/SVG/1.1/DTD/svg11.dtd">
<svg version="1.1" id="Capa_1" xmlns="http://www.w3.org/2000/svg" xmlns:xlink="http://www.w3.org/1999/xlink" x="0px" y="0px"
	 width="1000px" height="1000px" viewBox="0 0 1000 1000" enable-background="new 0 0 1000 1000" xml:space="preserve">
<path d="M980.7,79.3c0-33.1-26.9-60-60-60H79.3c-33.1,0-60,26.9-60,60V751h961.4V79.3z M884.8,618.3h-108H519.4H115.2
	c-37.6,0-58.6-43.3-35.4-72.8l272.7-346.9c24-30.6,70.3-30.6,94.3,0l201.3,256l53.1-67.6c24-30.6,70.3-30.6,94.3,0l124.6,158.5
	C943.4,575.1,922.3,618.3,884.8,618.3z"/>
<path d="M980.7,831H19.3v89.7c0,33.1,26.9,60,60,60h841.4c33.1,0,60-26.9,60-60V831z"/>
</svg>
