<?xml version="1.0" encoding="utf-8"?>
<!-- Generator: Adobe Illustrator 18.0.0, SVG Export Plug-In . SVG Version: 6.00 Build 0)  -->
<!DOCTYPE svg PUBLIC "-//W3C//DTD SVG 1.1//EN" "http://www.w3.org/Graphics/SVG/1.1/DTD/svg11.dtd">
<svg version="1.1" id="Capa_1" xmlns="http://www.w3.org/2000/svg" xmlns:xlink="http://www.w3.org/1999/xlink" x="0px" y="0px"
	 width="1000px" height="1000px" viewBox="0 0 1000 1000" enable-background="new 0 0 1000 1000" xml:space="preserve">
<path d="M181.8,700.8c63.1,0,142.6-25.7,236.2-76.5c32.6-17.6,61.1-35.2,82-48.7c20.9,13.5,49.4,31.1,82,48.7
	c93.7,50.7,173.1,76.5,236.2,76.5c0,0,0,0,0,0c64.6,0,103.1-27,123.9-49.6c31.7-34.4,47.8-84.5,47.8-148.9
	c0-65.6-15.9-116.7-47.2-151.8c-20.9-23.4-59.5-51.3-124.6-51.3c-63.4,0-143.1,26.6-237,79.2c-32.2,18-60.4,36-81.2,49.9
	c-20.8-13.9-49.1-31.9-81.2-49.9c-93.9-52.6-173.6-79.2-237-79.2c-65.1,0-103.7,27.9-124.6,51.3C25.9,385.6,10,436.7,10,502.3
	c0,64.4,16.1,114.5,47.8,148.9C78.7,673.8,117.2,700.8,181.8,700.8z M641.1,482.4c73-40.8,135.9-63.2,177.1-63.2
	c25,0,32.4,8.2,35.1,11.3c6.2,7,16.7,25.6,16.7,71.8c0,43.6-10,61-16,67.5c-2.5,2.7-10.1,11-35.7,11c0,0,0,0,0,0
	c-41.4,0-104.6-21.8-177.8-61.3c-11.2-6-21.9-12.1-31.9-18C618.7,495.3,629.6,488.8,641.1,482.4z M146.7,430.5
	c2.8-3.1,10.1-11.3,35.1-11.3c41.2,0,104,22.5,177.1,63.2c11.5,6.4,22.4,12.8,32.7,19c-10,5.9-20.7,11.9-31.9,18
	c-73.2,39.5-136.4,61.3-177.8,61.3c-25.6,0-33.3-8.3-35.8-11c-6-6.5-16-23.9-16-67.5C130,456.1,140.5,437.5,146.7,430.5z"/>
</svg>
