<?xml version="1.0" encoding="utf-8"?>
<!-- Generator: Adobe Illustrator 18.0.0, SVG Export Plug-In . SVG Version: 6.00 Build 0)  -->
<!DOCTYPE svg PUBLIC "-//W3C//DTD SVG 1.1//EN" "http://www.w3.org/Graphics/SVG/1.1/DTD/svg11.dtd">
<svg version="1.1" id="Capa_1" xmlns="http://www.w3.org/2000/svg" xmlns:xlink="http://www.w3.org/1999/xlink" x="0px" y="0px"
	 width="128px" height="128px" viewBox="0 0 128 128" enable-background="new 0 0 128 128" xml:space="preserve">
<path d="M22.9,46.3c1.5,0,2.9-0.1,4.3-0.4c3.4,4.4,7.5,8.7,12.5,12.6c6.5,5.2,13,8.9,17.2,11.1v15.6C48.6,88,42.6,95.8,42.6,105
	c0,11.5,9.4,20.9,20.9,20.9s20.9-9.4,20.9-20.9c0-9.2-6-17-14.3-19.8V69.6c4.2-2.2,10.7-5.9,17.2-11.1c5-4,9.1-8.2,12.5-12.6
	c1.4,0.3,2.8,0.4,4.3,0.4c11.8,0,21.4-9.6,21.4-21.4s-9.6-21.4-21.4-21.4s-21.4,9.6-21.4,21.4c0,5.1,1.8,9.8,4.8,13.4
	c-7.7,9.5-18.5,15.7-24,18.4c-5.5-2.7-16.3-8.9-24-18.4c3-3.7,4.8-8.3,4.8-13.4c0-11.8-9.6-21.4-21.4-21.4S1.5,13.1,1.5,24.9
	S11.1,46.3,22.9,46.3z M104.1,17.8c2.4,0,4.6,1.2,5.9,3.1c0.8,1.2,1.3,2.6,1.3,4.1c0,2.6-1.4,4.8-3.4,6.1c-1.1,0.7-2.4,1.1-3.7,1.1
	c-3.9,0-7.1-3.2-7.1-7.1S100.2,17.8,104.1,17.8z M63.5,97.9c3.2,0,5.9,2.1,6.8,5c0.2,0.7,0.3,1.4,0.3,2.1c0,3.9-3.2,7.1-7.1,7.1
	s-7.1-3.2-7.1-7.1c0-0.7,0.1-1.4,0.3-2.1C57.6,100,60.3,97.9,63.5,97.9z M17,20.8c1.3-1.9,3.4-3.1,5.9-3.1c3.9,0,7.1,3.2,7.1,7.1
	S26.8,32,22.9,32c-1.4,0-2.6-0.4-3.7-1.1c-2-1.3-3.4-3.5-3.4-6.1C15.8,23.4,16.2,22,17,20.8z"/>
</svg>
