<?xml version="1.0" encoding="utf-8"?>
<!-- Generator: Adobe Illustrator 18.0.0, SVG Export Plug-In . SVG Version: 6.00 Build 0)  -->
<!DOCTYPE svg PUBLIC "-//W3C//DTD SVG 1.1//EN" "http://www.w3.org/Graphics/SVG/1.1/DTD/svg11.dtd">
<svg version="1.1" id="Layer_1" xmlns="http://www.w3.org/2000/svg" xmlns:xlink="http://www.w3.org/1999/xlink" x="0px" y="0px"
	 width="128px" height="128px" viewBox="0 0 128 128" enable-background="new 0 0 128 128" xml:space="preserve">
<path d="M106.6,28.3c-9-9-23.5-9-32.5,0c-7.2,7.2-8.6,17.8-4.3,26.4c-4.1,3.9-8.7,6-13.5,6c-3.5,0-7-1.2-10.2-3.3V46.8
	c9.5-2.8,16.5-11.6,16.5-22.1c0-12.7-10.3-23-23-23s-23,10.3-23,23c0,10.4,7,19.3,16.5,22.1v33.9c-9.5,2.8-16.5,11.6-16.5,22.1
	c0,12.7,10.3,23,23,23s23-10.3,23-23c0-10.4-7-19.3-16.5-22.1v-8.8c3.3,1.2,6.8,1.8,10.2,1.8c8,0,15.9-3.3,22.3-9.4
	c8.8,5.3,20.4,4.1,28-3.5C115.6,51.9,115.6,37.3,106.6,28.3z M48.5,102.8c0,5-4,9-9,9s-9-4-9-9c0-5,4-9,9-9S48.5,97.8,48.5,102.8z
	 M39.5,33.8c-5,0-9-4-9-9c0-5,4-9,9-9s9,4,9,9C48.5,29.7,44.5,33.8,39.5,33.8z M96.7,50.9c-3.5,3.5-9.2,3.5-12.7,0s-3.5-9.2,0-12.7
	s9.2-3.5,12.7,0C100.2,41.7,100.2,47.4,96.7,50.9z"/>
</svg>
