<?xml version="1.0" encoding="utf-8"?>
<!-- Generator: Adobe Illustrator 18.0.0, SVG Export Plug-In . SVG Version: 6.00 Build 0)  -->
<!DOCTYPE svg PUBLIC "-//W3C//DTD SVG 1.1//EN" "http://www.w3.org/Graphics/SVG/1.1/DTD/svg11.dtd">
<svg version="1.1" id="Capa_1" xmlns="http://www.w3.org/2000/svg" xmlns:xlink="http://www.w3.org/1999/xlink" x="0px" y="0px"
	 width="128px" height="128px" viewBox="0 0 128 128" enable-background="new 0 0 128 128" xml:space="preserve">
<path d="M7,41.6h22.1c2.8,0,5-2.2,5-5V14.4c0-2.8-2.2-5-5-5s-5,2.2-5,5v14.6c0,1.4-1.1,2.5-2.5,2.5H7c-2.8,0-5,2.2-5,5
	C2,39.3,4.3,41.6,7,41.6z"/>
<path d="M121,31.7h-14.6c-1.4,0-2.5-1.1-2.5-2.5V14.5c0-2.8-2.2-5-5-5s-5,2.2-5,5v22.1c0,2.8,2.2,5,5,5H121c2.8,0,5-2.2,5-5
	C126,33.9,123.7,31.7,121,31.7z"/>
<path d="M7,95.5h14.6c1.4,0,2.5,1.1,2.5,2.5v14.6c0,2.8,2.2,5,5,5s5-2.2,5-5V90.5c0-2.8-2.2-5-5-5H7c-2.8,0-5,2.2-5,5
	C2,93.3,4.3,95.5,7,95.5z"/>
<path d="M121,85.4H98.8c-2.8,0-5,2.2-5,5v22.1c0,2.8,2.2,5,5,5s5-2.2,5-5V97.9c0-1.4,1.1-2.5,2.5-2.5H121c2.8,0,5-2.2,5-5
	C126,87.7,123.7,85.4,121,85.4z"/>
<path d="M44,45.2c-3.3,0-6,2.7-6,6v24.6c0,3.3,2.7,6,6,6h40c3.3,0,6-2.7,6-6V51.2c0-3.3-2.7-6-6-6H44z M76,65.4
	c0,1.4-1.1,2.5-2.5,2.5h-19c-1.4,0-2.5-1.1-2.5-2.5v-3.6c0-1.4,1.1-2.5,2.5-2.5h19c1.4,0,2.5,1.1,2.5,2.5V65.4z"/>
</svg>
