<?xml version="1.0" encoding="utf-8"?>
<!-- Generator: Adobe Illustrator 18.0.0, SVG Export Plug-In . SVG Version: 6.00 Build 0)  -->
<!DOCTYPE svg PUBLIC "-//W3C//DTD SVG 1.1//EN" "http://www.w3.org/Graphics/SVG/1.1/DTD/svg11.dtd">
<svg version="1.1" id="Layer_1" xmlns="http://www.w3.org/2000/svg" xmlns:xlink="http://www.w3.org/1999/xlink" x="0px" y="0px"
	 width="128px" height="128px" viewBox="0 0 128 128" enable-background="new 0 0 128 128" xml:space="preserve">
<path d="M16.5,102.8c0,12.7,10.3,23,23,23s23-10.3,23-23c0-6.5-2.7-12.3-6.9-16.5c12.6-0.2,24.6-1.7,32.5-9.6
	c5.1-5,7.8-12.2,7.9-20.9c9.5-2.8,16.5-11.6,16.5-22.1c0-12.7-10.3-23-23-23s-23,10.3-23,23c0,10.4,7,19.2,16.5,22.1
	c-0.1,5.5-1.6,9.1-4.2,11.6c-6.1,6-19.6,6-32.8,5.8V46.8c9.5-2.8,16.5-11.6,16.5-22.1c0-12.7-10.3-23-23-23s-23,10.3-23,23
	c0,10.4,7,19.3,16.5,22.1v33.9C23.5,83.5,16.5,92.3,16.5,102.8z M80.5,33.8c0-5,4-9,9-9s9,4,9,9c0,5-4,9-9,9S80.5,38.7,80.5,33.8z
	 M30.5,24.8c0-5,4-9,9-9s9,4,9,9c0,5-4,9-9,9S30.5,29.7,30.5,24.8z M39.5,93.8c5,0,9,4,9,9c0,5-4,9-9,9s-9-4-9-9
	C30.5,97.8,34.5,93.8,39.5,93.8z"/>
</svg>
