<?xml version="1.0" encoding="utf-8"?>
<!-- Generator: Adobe Illustrator 18.0.0, SVG Export Plug-In . SVG Version: 6.00 Build 0)  -->
<!DOCTYPE svg PUBLIC "-//W3C//DTD SVG 1.1//EN" "http://www.w3.org/Graphics/SVG/1.1/DTD/svg11.dtd">
<svg version="1.1" id="Capa_1" xmlns="http://www.w3.org/2000/svg" xmlns:xlink="http://www.w3.org/1999/xlink" x="0px" y="0px"
	 width="1000px" height="1000px" viewBox="0 0 1000 1000" enable-background="new 0 0 1000 1000" xml:space="preserve">
<path d="M943.9,822.1H672.1l-96.5,96.5h368.3c26.6,0,48.2-21.6,48.2-48.2C992.1,843.6,970.5,822.1,943.9,822.1z"/>
<path d="M943.9,451.2c22.5-22.5,22.5-59,0-81.5L634.2,60c-11.3-11.3-26-16.9-40.7-16.9S564,48.8,552.7,60L317.5,295.2l391.2,391.2
	L943.9,451.2z"/>
<path d="M258.7,901.5c10.9,10.9,25.7,17,41.1,17h145.5h7.3c15.4,0,30.2-6.1,41.1-17l79.4-79.4l79.1-79.1L261,351.8L25.7,587
	c-22.5,22.5-22.5,59,0,81.5L258.7,901.5z"/>
</svg>
