<?xml version="1.0" encoding="utf-8"?>
<!-- Generator: Adobe Illustrator 18.0.0, SVG Export Plug-In . SVG Version: 6.00 Build 0)  -->
<!DOCTYPE svg PUBLIC "-//W3C//DTD SVG 1.1//EN" "http://www.w3.org/Graphics/SVG/1.1/DTD/svg11.dtd">
<svg version="1.1" id="Layer_1" xmlns="http://www.w3.org/2000/svg" xmlns:xlink="http://www.w3.org/1999/xlink" x="0px" y="0px"
	 width="128px" height="128px" viewBox="0 0 128 128" enable-background="new 0 0 128 128" xml:space="preserve">
<path d="M78.2,2.8l-10.1,9.3c-2.3,2.1-5.8,2.1-8.1,0L49.8,2.9c-3.1-2.8-8-1.7-9.6,2.1l-8.3,20h64.2L87.8,4.9
	C86.2,1.1,81.3,0,78.2,2.8z"/>
<path d="M12.9,43.3C10,44.7,11.1,49,14.2,49H64h49.7c3.2,0,4.2-4.3,1.4-5.7L102.9,37H25.1L12.9,43.3z"/>
<path d="M2.7,91.4l5.3,28.8c0.5,2.9,3,4.8,5.9,4.8H64h50.2c2.9,0,5.4-2,5.9-4.8l5.3-28.8c0.5-2.8-1-5.6-3.7-6.7
	c-12.8-5-26.2-7.7-36.8-9.3c-2.7-0.4-5.3,1.1-6.3,3.5l-10.1,22.9c-1.8,4-7.5,4-9.2-0.1L49.5,79c-1.1-2.5-3.7-4-6.4-3.6
	c-10.6,1.5-24,4.3-36.7,9.3C3.7,85.7,2.1,88.5,2.7,91.4z"/>
</svg>
