<?xml version="1.0" encoding="utf-8"?>
<!-- Generator: Adobe Illustrator 18.0.0, SVG Export Plug-In . SVG Version: 6.00 Build 0)  -->
<!DOCTYPE svg PUBLIC "-//W3C//DTD SVG 1.1//EN" "http://www.w3.org/Graphics/SVG/1.1/DTD/svg11.dtd">
<svg version="1.1" id="Capa_1" xmlns="http://www.w3.org/2000/svg" xmlns:xlink="http://www.w3.org/1999/xlink" x="0px" y="0px"
	 width="1000px" height="1000px" viewBox="0 0 1000 1000" enable-background="new 0 0 1000 1000" xml:space="preserve">
<path d="M565,769.1c2.3-7.7,4.6-15.6,6.6-23.6c0.3-1.3,35.1-135.6,72.3-275.8c64-241.1,79.6-289.6,83.1-297
	c11.9-24.6,31.2-43.2,59-56.9c24-11.8,54.6-19.6,91-23.2c10.7-1.1,20.8-7,28.2-16.6c6.7-8.7,10.6-19.7,10.6-30.2
	c0-23.7-19.3-43-43-43H385.3c-23.7,0-43,19.3-43,43v1.5c0,21.2,15.2,39,36.1,42.4c27.7,4.5,65.7,10.7,95.5,24.8
	c15.3,7.2,27.2,16,35.1,26c9,11.3,13.4,24.4,13.4,39.9c0,29-8.5,58.1-16.7,86.2c-1.7,5.9-3.5,12.1-5.2,18.1
	c-10.5,37.5-26,94.4-43.9,160.3c-41.3,151.7-92.7,340.4-105.6,376.3c-8.7,24.2-41,81.5-152.1,90c-10.8,0.8-20.9,5.7-28.2,13.6
	c-7.4,8-11.4,18.3-11.4,29.2v0.1c0,23.7,19.3,43,43,43h487.6c23.7,0,43-19.3,43-43v-0.3c0-21.7-16.2-40-37.7-42.6
	c-4.2-0.5-8.3-1-12.7-1.5c-42.8-4.9-96-11.1-118.4-40.2c-10.4-13.5-13.7-31.3-10.3-54.2C556,799.9,560.4,784.9,565,769.1z"/>
</svg>
