<?xml version="1.0" encoding="utf-8"?>
<!-- Generator: Adobe Illustrator 18.0.0, SVG Export Plug-In . SVG Version: 6.00 Build 0)  -->
<!DOCTYPE svg PUBLIC "-//W3C//DTD SVG 1.1//EN" "http://www.w3.org/Graphics/SVG/1.1/DTD/svg11.dtd">
<svg version="1.1" id="Layer_1" xmlns="http://www.w3.org/2000/svg" xmlns:xlink="http://www.w3.org/1999/xlink" x="0px" y="0px"
	 width="128px" height="128px" viewBox="0 0 128 128" enable-background="new 0 0 128 128" xml:space="preserve">
<path d="M122,66.2c0-18-14.2-32.6-32-33.3L89.9,17C89,9,70.6,1.6,48,1.6S6.9,9,6.1,17L6,108.6c0,0.2,0,0.4,0,0.6c0,0.2,0,0.3,0,0.5
	c0,8.9,18.8,16,42,16s42-7.2,42-16c0-0.2,0-0.3,0-0.5c0-0.2,0.1-0.4,0.1-0.6v-9.1C107.8,98.8,122,84.2,122,66.2z M48,9.2
	c15.7,0,28.4,3.9,28.4,8.6c0,4.8-12.7,8.6-28.4,8.6s-28.4-3.9-28.4-8.6C19.6,13,32.3,9.2,48,9.2z M23,104.4c0,2-1.3,4.6-3.3,4.6
	h-0.2c-2,0-3.5-2.5-3.5-4.6V37.7c0-2,1.5-2.7,3.5-2.7h0.2c2,0,3.3,0.7,3.3,2.7V104.4z M52,110.4c0,2-1.9,4.6-3.9,4.6h-0.2
	c-2,0-3.8-2.6-3.8-4.6V43.6c0-2,1.9-2.6,3.8-2.6h0.2c2,0,3.9,0.6,3.9,2.6V110.4z M80,51.3v29.9v17.2v6.1c0,2-1.6,4.6-3.5,4.6h-0.2
	c-2,0-3.2-2.5-3.2-4.6v-8.8V73.5V58.9V37.7c0-0.4,0.1-0.7,0.1-1c0.4-1.3,1.5-1.8,3.1-1.8h0.2c0.2,0,0.3,0,0.5,0c1.7,0.1,3,0.9,3,2.7
	V51.3z M90,83.5V49c8.9,0.7,16,8.1,16,17.2S98.9,82.8,90,83.5z"/>
</svg>
