<?xml version="1.0" encoding="utf-8"?>
<!-- Generator: Adobe Illustrator 18.0.0, SVG Export Plug-In . SVG Version: 6.00 Build 0)  -->
<!DOCTYPE svg PUBLIC "-//W3C//DTD SVG 1.1//EN" "http://www.w3.org/Graphics/SVG/1.1/DTD/svg11.dtd">
<svg version="1.1" id="Capa_1" xmlns="http://www.w3.org/2000/svg" xmlns:xlink="http://www.w3.org/1999/xlink" x="0px" y="0px"
	 width="1000px" height="1000px" viewBox="0 0 1000 1000" enable-background="new 0 0 1000 1000" xml:space="preserve">
<path d="M281.3,47.4c0-16.6-13.4-30-30-30H49.3c-16.6,0-30,13.4-30,30v202.1c0,16.6,13.4,30,30,30h202.1c16.6,0,30-13.4,30-30V47.4z
	"/>
<path d="M631,47.4c0-16.6-13.4-30-30-30H399c-16.6,0-30,13.4-30,30v202.1c0,16.6,13.4,30,30,30H601c16.6,0,30-13.4,30-30V47.4z"/>
<path d="M980.7,47.4c0-16.6-13.4-30-30-30H748.7c-16.6,0-30,13.4-30,30v202.1c0,16.6,13.4,30,30,30h202.1c16.6,0,30-13.4,30-30V47.4
	z"/>
<path d="M281.3,399c0-16.6-13.4-30-30-30H49.3c-16.6,0-30,13.4-30,30V601c0,16.6,13.4,30,30,30h202.1c16.6,0,30-13.4,30-30V399z"/>
<path d="M631,399c0-16.6-13.4-30-30-30H399c-16.6,0-30,13.4-30,30V601c0,16.6,13.4,30,30,30H601c16.6,0,30-13.4,30-30V399z"/>
<path d="M980.7,399c0-16.6-13.4-30-30-30H748.7c-16.6,0-30,13.4-30,30V601c0,16.6,13.4,30,30,30h202.1c16.6,0,30-13.4,30-30V399z"/>
<path d="M251.3,720.5H49.3c-16.6,0-30,13.4-30,30v202.1c0,16.6,13.4,30,30,30h202.1c16.6,0,30-13.4,30-30V750.5
	C281.3,734,267.9,720.5,251.3,720.5z"/>
<path d="M601,720.5H399c-16.6,0-30,13.4-30,30v202.1c0,16.6,13.4,30,30,30H601c16.6,0,30-13.4,30-30V750.5
	C631,734,617.6,720.5,601,720.5z"/>
<path d="M950.7,720.5H748.7c-16.6,0-30,13.4-30,30v202.1c0,16.6,13.4,30,30,30h202.1c16.6,0,30-13.4,30-30V750.5
	C980.7,734,967.3,720.5,950.7,720.5z"/>
</svg>
