<?xml version="1.0" encoding="utf-8"?>
<!-- Generator: Adobe Illustrator 18.0.0, SVG Export Plug-In . SVG Version: 6.00 Build 0)  -->
<!DOCTYPE svg PUBLIC "-//W3C//DTD SVG 1.1//EN" "http://www.w3.org/Graphics/SVG/1.1/DTD/svg11.dtd">
<svg version="1.1" id="Layer_1" xmlns="http://www.w3.org/2000/svg" xmlns:xlink="http://www.w3.org/1999/xlink" x="0px" y="0px"
	 width="128px" height="128px" viewBox="0 0 128 128" enable-background="new 0 0 128 128" xml:space="preserve">
<path d="M120,26H7c-1.7,0-3,1.3-3,3v72c0,1.7,1.3,3,3,3h113c1.7,0,3-1.3,3-3V29C123,27.3,121.7,26,120,26z M80,37c0-1.7,1.3-3,3-3h8
	c1.7,0,3,1.3,3,3v8c0,1.7-1.3,3-3,3h-8c-1.7,0-3-1.3-3-3V37z M80,60c0-1.7,1.3-3,3-3h8c1.7,0,3,1.3,3,3v8c0,1.7-1.3,3-3,3h-8
	c-1.7,0-3-1.3-3-3V60z M57,37c0-1.7,1.3-3,3-3h8c1.7,0,3,1.3,3,3v8c0,1.7-1.3,3-3,3h-8c-1.7,0-3-1.3-3-3V37z M57,60c0-1.7,1.3-3,3-3
	h8c1.7,0,3,1.3,3,3v8c0,1.7-1.3,3-3,3h-8c-1.7,0-3-1.3-3-3V60z M34,60c0-1.7,1.3-3,3-3h8c1.7,0,3,1.3,3,3v8c0,1.7-1.3,3-3,3h-8
	c-1.7,0-3-1.3-3-3V60z M25,68c0,1.7-1.3,3-3,3h-8c-1.7,0-3-1.3-3-3v-8c0-1.7,1.3-3,3-3h8c1.7,0,3,1.3,3,3V68z M25,45
	c0,1.7-1.3,3-3,3h-8c-1.7,0-3-1.3-3-3v-8c0-1.7,1.3-3,3-3h8c1.7,0,3,1.3,3,3V45z M100,91c0,1.7-1.3,3-3,3H30c-1.7,0-3-1.3-3-3v-8
	c0-1.7,1.3-3,3-3h67c1.7,0,3,1.3,3,3V91z M117,68c0,1.7-1.3,3-3,3h-8c-1.7,0-3-1.3-3-3v-8c0-1.7,1.3-3,3-3h8c1.7,0,3,1.3,3,3V68z
	 M117,45c0,1.7-1.3,3-3,3h-8c-1.7,0-3-1.3-3-3v-8c0-1.7,1.3-3,3-3h8c1.7,0,3,1.3,3,3V45z"/>
</svg>
