<?xml version="1.0" encoding="utf-8"?>
<!-- Generator: Adobe Illustrator 18.0.0, SVG Export Plug-In . SVG Version: 6.00 Build 0)  -->
<!DOCTYPE svg PUBLIC "-//W3C//DTD SVG 1.1//EN" "http://www.w3.org/Graphics/SVG/1.1/DTD/svg11.dtd">
<svg version="1.1" id="Capa_1" xmlns="http://www.w3.org/2000/svg" xmlns:xlink="http://www.w3.org/1999/xlink" x="0px" y="0px"
	 width="1000px" height="1000px" viewBox="0 0 1000 1000" enable-background="new 0 0 1000 1000" xml:space="preserve">
<path d="M174.1,795.4c17.6,17.6,40.6,26.4,63.6,26.4c23,0,46.1-8.8,63.6-26.4l234.2-234.2c16.9-16.9,26.4-39.8,26.4-63.6
	c0-23.9-9.5-46.8-26.4-63.6L306.3,204.6c-35.1-35.1-92.1-35.1-127.3,0c-35.1,35.1-35.1,92.1,0,127.3l165.6,165.6L174.1,668.1
	C138.9,703.3,138.9,760.2,174.1,795.4z"/>
<path d="M762.3,978.1c49.7,0,90-40.3,90-90V111.9c0-49.7-40.3-90-90-90s-90,40.3-90,90v776.2C672.3,937.8,712.6,978.1,762.3,978.1z"
	/>
</svg>
