<?xml version="1.0" encoding="utf-8"?>
<!-- Generator: Adobe Illustrator 18.0.0, SVG Export Plug-In . SVG Version: 6.00 Build 0)  -->
<!DOCTYPE svg PUBLIC "-//W3C//DTD SVG 1.1//EN" "http://www.w3.org/Graphics/SVG/1.1/DTD/svg11.dtd">
<svg version="1.1" id="Capa_1" xmlns="http://www.w3.org/2000/svg" xmlns:xlink="http://www.w3.org/1999/xlink" x="0px" y="0px"
	 width="1000px" height="1000px" viewBox="0 0 1000 1000" enable-background="new 0 0 1000 1000" xml:space="preserve">
<path d="M673.7,493.4c-0.4-9.7-2.4-19.4-5.8-28.5c-2-5.2-4.6-10.3-7.6-15c-3.6-5.6-7.7-11.6-12.8-16.1L418.2,204.6
	c-35.1-35.1-92.1-35.1-127.3,0c-35.1,35.1-35.1,92.1,0,127.3l75.6,75.6H111.4c-49.7,0-90,40.3-90,90s40.3,90,90,90h255.1L286,668.1
	c-35.1,35.1-35.1,92.1,0,127.3c17.6,17.6,40.6,26.4,63.6,26.4s46.1-8.8,63.6-26.4c0,0,234.2-234.2,234.2-234.2
	c13.8-14.7,23.4-32.5,25.7-52.8C673.7,503.4,673.9,498.4,673.7,493.4z"/>
<path d="M874.2,21.9c-49.7,0-90,40.3-90,90v776.2c0,49.7,40.3,90,90,90s90-40.3,90-90V111.9C964.2,62.2,923.9,21.9,874.2,21.9z"/>
</svg>
