<?xml version="1.0" encoding="utf-8"?>
<!-- Generator: Adobe Illustrator 18.0.0, SVG Export Plug-In . SVG Version: 6.00 Build 0)  -->
<!DOCTYPE svg PUBLIC "-//W3C//DTD SVG 1.1//EN" "http://www.w3.org/Graphics/SVG/1.1/DTD/svg11.dtd">
<svg version="1.1" id="Capa_1" xmlns="http://www.w3.org/2000/svg" xmlns:xlink="http://www.w3.org/1999/xlink" x="0px" y="0px"
	 width="1000px" height="1000px" viewBox="0 0 1000 1000" enable-background="new 0 0 1000 1000" xml:space="preserve">
<path d="M500,981.5c265.9,0,481.5-215.6,481.5-481.5S765.9,18.5,500,18.5S18.5,234.1,18.5,500S234.1,981.5,500,981.5z M289.9,440.3
	l218.3-238.1c33.6-36.6,90.5-39.1,127.2-5.5c36.6,33.6,39.1,90.5,5.5,127.2L478.3,501.1l157.8,172.4c33.6,36.7,31,93.6-5.6,127.2
	c-17.3,15.8-39,23.6-60.7,23.6c-24.4,0-48.7-9.8-66.4-29.2L289.8,561.8C258.4,527.4,258.4,474.7,289.9,440.3z"/>
</svg>
