<?xml version="1.0" encoding="utf-8"?>
<!-- Generator: Adobe Illustrator 18.0.0, SVG Export Plug-In . SVG Version: 6.00 Build 0)  -->
<!DOCTYPE svg PUBLIC "-//W3C//DTD SVG 1.1//EN" "http://www.w3.org/Graphics/SVG/1.1/DTD/svg11.dtd">
<svg version="1.1" id="Capa_1" xmlns="http://www.w3.org/2000/svg" xmlns:xlink="http://www.w3.org/1999/xlink" x="0px" y="0px"
	 width="1000px" height="1000px" viewBox="0 0 1000 1000" enable-background="new 0 0 1000 1000" xml:space="preserve">
<path d="M425.5,956.6c0,0-377.5-378.1-377.5-378.1C3.6,534,3.6,467.4,48,423.1L425.5,45.8c44.3-44.3,113.7-46.2,157.7-2.2
	c43,43,38.4,115.5-3.4,157.2L395.4,385.2c0,0,465.1,0.6,465.3,0.6c30.8,0,60.5,12,81.6,34.4c50.6,54,37.1,148.5-27.7,184.4
	c-16.4,9.1-35.1,13.9-53.9,13.8L395.4,618c0,0,184.3,184.2,184.4,184.3c41.9,41.9,46.1,114.1,3.4,156.9
	C539.2,1003.2,469.8,1000.9,425.5,956.6z"/>
</svg>
