<?xml version="1.0" encoding="utf-8"?>
<!-- Generator: Adobe Illustrator 18.0.0, SVG Export Plug-In . SVG Version: 6.00 Build 0)  -->
<!DOCTYPE svg PUBLIC "-//W3C//DTD SVG 1.1//EN" "http://www.w3.org/Graphics/SVG/1.1/DTD/svg11.dtd">
<svg version="1.1" id="Capa_1" xmlns="http://www.w3.org/2000/svg" xmlns:xlink="http://www.w3.org/1999/xlink" x="0px" y="0px"
	 width="128px" height="128px" viewBox="0 0 128 128" enable-background="new 0 0 128 128" xml:space="preserve">
<path d="M51.8,31.8c3.1-1.3,4.4-5,3-8l-4.9-10.3c-1.4-2.9-4.8-4.2-7.8-2.9c-8.5,3.6-15.8,8.3-21.6,14C13.4,31.3,8.6,39,6,47.5
	C3.4,56.1,2,67.8,2,82.7v30.7c0,3.3,2.7,6,6,6h39.3c3.3,0,6-2.7,6-6V74.1c0-3.3-2.7-6-6-6H28.5c0.2-10.1,2.6-18.2,7-24.3
	C39.1,38.9,44.5,34.9,51.8,31.8z"/>
<path d="M122.4,31.8c3.1-1.3,4.4-5,3-8l-4.9-10.2c-1.4-2.9-4.8-4.2-7.8-2.9c-8.4,3.6-15.6,8.3-21.5,13.9c-7.1,6.8-12,14.5-14.6,23
	C74,56,72.7,67.7,72.7,82.7v30.7c0,3.3,2.7,6,6,6h39.3c3.3,0,6-2.7,6-6V74.1c0-3.3-2.7-6-6-6H99.1c0.2-10.1,2.6-18.2,7-24.3
	C109.7,38.9,115.1,34.9,122.4,31.8z"/>
</svg>
