<?xml version="1.0" encoding="utf-8"?>
<!-- Generator: Adobe Illustrator 18.0.0, SVG Export Plug-In . SVG Version: 6.00 Build 0)  -->
<!DOCTYPE svg PUBLIC "-//W3C//DTD SVG 1.1//EN" "http://www.w3.org/Graphics/SVG/1.1/DTD/svg11.dtd">
<svg version="1.1" id="Capa_1" xmlns="http://www.w3.org/2000/svg" xmlns:xlink="http://www.w3.org/1999/xlink" x="0px" y="0px"
	 width="1000px" height="1000px" viewBox="0 0 1000 1000" enable-background="new 0 0 1000 1000" xml:space="preserve">
<path d="M915.8,214.5c-24.4-24.4-52.9-43.7-84.5-57.1c-32.9-14-67.8-21.1-103.6-21.1H83c-41.4,0-75,33.6-75,75c0,41.4,33.6,75,75,75
	h644.7c30.9,0,60,12.2,82.1,34.2c22.1,22.1,34.2,51.2,34.2,82.1v97c0,30.9-12.2,60-34.2,82.1c-22.1,22.1-51.2,34.2-82.1,34.2h-284
	l44.1-44.1c29.3-29.3,29.3-76.8,0-106.1c-29.3-29.3-76.8-29.3-106.1,0L209,638.5c-29.3,29.3-29.3,76.8,0,106.1l172.7,172.7
	c14.6,14.6,33.8,22,53,22c19.2,0,38.4-7.3,53-22c29.3-29.3,29.3-76.8,0-106.1L442.5,766h285.2c35.8,0,70.7-7.1,103.6-21.1
	c31.7-13.4,60.1-32.7,84.5-57.1c24.4-24.4,43.7-52.9,57.1-84.5c14-32.9,21.1-67.8,21.1-103.6v-97c0-35.8-7.1-70.7-21.1-103.6
	C959.5,267.4,940.3,239,915.8,214.5z"/>
</svg>
