<?xml version="1.0" encoding="utf-8"?>
<!-- Generator: Adobe Illustrator 18.0.0, SVG Export Plug-In . SVG Version: 6.00 Build 0)  -->
<!DOCTYPE svg PUBLIC "-//W3C//DTD SVG 1.1//EN" "http://www.w3.org/Graphics/SVG/1.1/DTD/svg11.dtd">
<svg version="1.1" id="Capa_1" xmlns="http://www.w3.org/2000/svg" xmlns:xlink="http://www.w3.org/1999/xlink" x="0px" y="0px"
	 width="1000px" height="1000px" viewBox="0 0 1000 1000" enable-background="new 0 0 1000 1000" xml:space="preserve">
<path d="M132.3,715.1c37.7,37.7,81.7,67.3,130.6,88c50.7,21.4,104.5,32.3,160,32.3s109.3-10.9,160-32.3
	c23.1-9.8,45.1-21.6,65.8-35.2l197.4,197.4c23.4,23.4,61.4,23.4,84.9,0l32.7-32.7c23.4-23.4,23.4-61.4,0-84.9L766.3,650.3
	c13.7-20.7,25.4-42.7,35.2-65.8c21.4-50.7,32.3-104.5,32.3-160s-10.9-109.3-32.3-160c-20.7-48.9-50.3-92.9-88-130.6
	c-37.7-37.7-81.7-67.3-130.6-88c-50.7-21.4-104.5-32.3-160-32.3s-109.3,10.9-160,32.3c-48.9,20.7-92.9,50.3-130.6,88
	c-37.7,37.7-67.3,81.7-88,130.6c-21.4,50.7-32.3,104.5-32.3,160s10.9,109.3,32.3,160C64.9,633.4,94.6,677.4,132.3,715.1z
	 M610.5,501.7H235.2c-41.4,0-75-33.6-75-75s33.6-75,75-75h375.3c41.4,0,75,33.6,75,75S652,501.7,610.5,501.7z"/>
</svg>
