<?xml version="1.0" encoding="utf-8"?>
<!-- Generator: Adobe Illustrator 18.0.0, SVG Export Plug-In . SVG Version: 6.00 Build 0)  -->
<!DOCTYPE svg PUBLIC "-//W3C//DTD SVG 1.1//EN" "http://www.w3.org/Graphics/SVG/1.1/DTD/svg11.dtd">
<svg version="1.1" id="Capa_1" xmlns="http://www.w3.org/2000/svg" xmlns:xlink="http://www.w3.org/1999/xlink" x="0px" y="0px"
	 width="1000px" height="1000px" viewBox="0 0 1000 1000" enable-background="new 0 0 1000 1000" xml:space="preserve">
<path d="M27.8,636.2h25.5c10.9,0,20.5-7,23.8-17.5c8.6-26.7,20.8-47.2,36.3-60.9c15.5-13.7,34.5-21.1,57.7-22.4l-0.1,294.9
	c0,8.5-3.9,10.6-23.4,12.6l-0.2,0c-8.9,0.9-18.3,1.8-28.6,2.6c-12.9,1-23,12-23,24.9v25.9c0,13.8,11.2,25,25,25h111.6h0.1h111.6
	c13.8,0,25-11.2,25-25v-25.9c0-12.9-10.1-23.9-23-24.9c-10.3-0.8-19.7-1.7-28.6-2.6l-0.2,0c-19.5-2-23.4-4.2-23.4-12.6l-0.1-294.9
	c23.2,1.3,42.2,8.7,57.7,22.4c15.5,13.7,27.7,34.1,36.3,60.9c3.3,10.4,12.9,17.5,23.8,17.5h25.5c13.8,0,25-11.2,25-25V482
	c0-13.8-11.2-25-25-25H232.5h-0.1H27.8c-13.8,0-25,11.2-25,25v129.1C2.8,624.9,14,636.2,27.8,636.2z"/>
<path d="M967,97.4H637.9h-0.2H308.7c-16.6,0-30,13.4-30,30v200.2c0,16.6,13.4,30,30,30H341c13,0,24.4-8.3,28.5-20.6
	c28.7-86.9,83.6-145.8,184.4-144.3l-0.1,595.9c0,31.5-27.9,34.3-53.2,36.9c-14.1,1.5-28.1,2.7-42.2,3.9
	c-15.6,1.3-27.6,14.3-27.6,29.9v31.8c0,16.6,13.4,30,30,30h177h0.2h177c16.6,0,30-13.4,30-30v-31.8c0-15.6-12-28.6-27.6-29.9
	c-14.1-1.1-28.1-2.4-42.2-3.9c-25.3-2.6-53.2-5.4-53.2-36.9l-0.1-595.9c100.8-1.5,155.7,57.4,184.4,144.3
	c4.1,12.3,15.5,20.6,28.5,20.6H967c16.6,0,30-13.4,30-30V127.4C997,110.8,983.6,97.4,967,97.4z"/>
</svg>
