<?xml version="1.0" encoding="utf-8"?>
<!-- Generator: Adobe Illustrator 18.0.0, SVG Export Plug-In . SVG Version: 6.00 Build 0)  -->
<!DOCTYPE svg PUBLIC "-//W3C//DTD SVG 1.1//EN" "http://www.w3.org/Graphics/SVG/1.1/DTD/svg11.dtd">
<svg version="1.1" id="Capa_1" xmlns="http://www.w3.org/2000/svg" xmlns:xlink="http://www.w3.org/1999/xlink" x="0px" y="0px"
	 width="1000px" height="1000px" viewBox="0 0 1000 1000" enable-background="new 0 0 1000 1000" xml:space="preserve">
<path d="M334.8,858c0-33.1-26.9-60-60-60H169.2c-16.5,0-30-13.5-30-30V208.8c0-16.5,13.5-30,30-30h107.5c33.1,0,60-26.9,60-60
	s-26.9-60-60-60H169.2c-82.7,0-150,67.3-150,150V768c0,82.7,67.3,150,150,150h105.5C307.9,918,334.8,891.1,334.8,858z"/>
<path d="M725.2,918h105.5c82.7,0,150-67.3,150-150V208.8c0-82.7-67.3-150-150-150H723.2c-33.1,0-60,26.9-60,60s26.9,60,60,60h107.5
	c16.5,0,30,13.5,30,30V768c0,16.5-13.5,30-30,30H725.2c-33.1,0-60,26.9-60,60S692.1,918,725.2,918z"/>
<path d="M694.1,693.8c17.5-27.5,26.3-57.1,26.3-88.7c0-34.8-7.3-64.1-22-87.7c-14.7-23.7-34.9-42.3-60.9-56
	c-25.9-13.6-65.9-26.9-120-39.6c-54.1-12.8-88.2-25-102.2-36.8c-11-9.3-16.5-20.4-16.5-33.4c0-14.3,5.9-25.7,17.7-34.2
	c18.3-13.3,43.6-19.9,75.9-19.9c31.3,0,54.8,6.2,70.4,18.6c9.6,7.6,17.1,18.2,22.6,31.8c7,17.4,24.1,28.6,42.8,27.8l26.5-1.2
	c29.7-1.3,49.5-31.1,39.4-59.1c-9.1-25-23.9-46.5-44.6-64.5c-34.9-30.3-87-45.5-156.1-45.5c-42.3,0-78.5,6.4-108.4,19.2
	c-29.9,12.8-52.8,31.4-68.8,55.8c-15.9,24.4-23.9,50.7-23.9,78.7c0,43.6,16.9,80.5,50.7,110.8c24,21.5,65.9,39.7,125.5,54.5
	c46.3,11.5,76,19.5,89,24c19,6.8,32.4,14.7,40,23.9c7.6,9.1,11.5,20.2,11.5,33.2c0,20.3-9.1,38-27.2,53.2
	c-18.2,15.2-45.1,22.7-81,22.7c-33.8,0-60.7-8.5-80.6-25.5c-13.4-11.5-23.8-27.4-31.2-47.7c-6.8-18.9-25.6-30.7-45.6-28.8l-22.5,2.2
	c-27.9,2.7-46,30.4-37.7,57.1c11.4,36.5,30.1,66,56,88.3c37.3,32.2,90.8,48.3,160.4,48.3c47.8,0,87.8-6.7,119.8-20.1
	C651.8,741.8,676.6,721.3,694.1,693.8z"/>
</svg>
