<?xml version="1.0" encoding="utf-8"?>
<!-- Generator: Adobe Illustrator 18.0.0, SVG Export Plug-In . SVG Version: 6.00 Build 0)  -->
<!DOCTYPE svg PUBLIC "-//W3C//DTD SVG 1.1//EN" "http://www.w3.org/Graphics/SVG/1.1/DTD/svg11.dtd">
<svg version="1.1" id="Capa_1" xmlns="http://www.w3.org/2000/svg" xmlns:xlink="http://www.w3.org/1999/xlink" x="0px" y="0px"
	 width="1000px" height="1000px" viewBox="0 0 1000 1000" enable-background="new 0 0 1000 1000" xml:space="preserve">
<path d="M159,974c24.9,0,45-20.1,45-45V71c0-24.9-20.1-45-45-45H54C29.2,26,9,46.1,9,71v858c0,24.9,20.1,45,45,45H159z"/>
<path d="M421,974c24.9,0,45-20.1,45-45V71c0-24.9-20.1-45-45-45H316c-24.9,0-45,20.1-45,45v858c0,24.9,20.1,45,45,45H421z"/>
<path d="M578,974h105c24.9,0,45-20.1,45-45V71c0-24.9-20.1-45-45-45H578c-24.9,0-45,20.1-45,45v858C533,953.9,553.2,974,578,974z"/>
<path d="M945,26H840c-24.9,0-45,20.1-45,45v858c0,24.9,20.1,45,45,45h105c24.9,0,45-20.1,45-45V71C990,46.1,969.9,26,945,26z"/>
</svg>
