<?xml version="1.0" encoding="utf-8"?>
<!-- Generator: Adobe Illustrator 18.0.0, SVG Export Plug-In . SVG Version: 6.00 Build 0)  -->
<!DOCTYPE svg PUBLIC "-//W3C//DTD SVG 1.1//EN" "http://www.w3.org/Graphics/SVG/1.1/DTD/svg11.dtd">
<svg version="1.1" id="Layer_1" xmlns="http://www.w3.org/2000/svg" xmlns:xlink="http://www.w3.org/1999/xlink" x="0px" y="0px"
	 width="128px" height="128px" viewBox="0 0 128 128" enable-background="new 0 0 128 128" xml:space="preserve">
<path d="M116.2,50.4c9.1,1.6,9.6-11.8,1.4-11.9c-9.9,0-18.8,0.5-27.2-5.1c-5-3.3-10.1-5.8-15.7-6.9c1.7-2.1,2.7-4.7,2.7-7.6
	C77.4,12.3,72,6.8,65,7c-6.8-0.2-12.3,5.2-12.3,12c0,2.9,1,5.5,2.7,7.6c-5.6,1.1-10.7,3.5-15.7,6.9c-8.4,5.6-17.4,5.1-27.2,5.1
	c-8.2,0-7.7,13.5,1.4,11.9c0.1,0.1,0,0,0.1,0.1c-6.1,10-13.2,25.2-8.2,35.3c2.1,4.2,7,9.2,18.9,9.2s16.8-5,18.9-9.2
	c5.3-10.6-2.8-26.8-9-36.7c1.3-0.3,2.5-0.8,3.8-1.3c4.3-1.8,8-4.5,11.9-6.9c2.8-1.7,5.7-2.5,8.8-2.8V109H44.2
	c-3.1,0-5.8,2.2-6.2,5.2c-0.4,3.6,2.4,6.8,6,6.8h42.1c3.6,0,6.4-3.1,6-6.8c-0.4-3-3.1-5.2-6.2-5.2H71V38.1c3,0.3,6.1,1.1,8.9,2.8
	c3.9,2.4,7.6,5.1,11.9,6.9c1.2,0.5,2.5,0.9,3.8,1.3c-6.2,9.9-14.3,26.1-9,36.7c2.1,4.2,7.1,9.2,18.9,9.2s16.8-5,18.9-9.2
	c5-10.1-2.1-25.3-8.2-35.3C116.2,50.5,116.2,50.5,116.2,50.4z M15.3,75c1.1-5.9,5.1-14,9.4-20.8C29,61,33,69.1,34,75H15.3z M96,75
	c1.1-6,5.1-14,9.4-20.8c4.3,6.8,8.3,14.8,9.4,20.8H96z"/>
</svg>
