<?xml version="1.0" encoding="utf-8"?>
<!-- Generator: Adobe Illustrator 18.0.0, SVG Export Plug-In . SVG Version: 6.00 Build 0)  -->
<!DOCTYPE svg PUBLIC "-//W3C//DTD SVG 1.1//EN" "http://www.w3.org/Graphics/SVG/1.1/DTD/svg11.dtd">
<svg version="1.1" id="Capa_1" xmlns="http://www.w3.org/2000/svg" xmlns:xlink="http://www.w3.org/1999/xlink" x="0px" y="0px"
	 width="1000px" height="1000px" viewBox="0 0 1000 1000" enable-background="new 0 0 1000 1000" xml:space="preserve">
<path d="M11,914c0,33.1,26.9,60,60,60h160c33.1,0,60-26.9,60-60V86c0-33.1-26.9-60-60-60H71c-33.1,0-60,26.9-60,60V914z"/>
<path d="M420,26c-33.1,0-60,26.9-60,60v828c0,33.1,26.9,60,60,60h160c33.1,0,60-26.9,60-60V86c0-33.1-26.9-60-60-60H420z"/>
<path d="M769,974h160c33.1,0,60-26.9,60-60V86c0-33.1-26.9-60-60-60H769c-33.1,0-60,26.9-60,60v828C709,947.1,735.9,974,769,974z"/>
</svg>
