<?xml version="1.0" encoding="utf-8"?>
<!-- Generator: Adobe Illustrator 18.0.0, SVG Export Plug-In . SVG Version: 6.00 Build 0)  -->
<!DOCTYPE svg PUBLIC "-//W3C//DTD SVG 1.1//EN" "http://www.w3.org/Graphics/SVG/1.1/DTD/svg11.dtd">
<svg version="1.1" id="Capa_1" xmlns="http://www.w3.org/2000/svg" xmlns:xlink="http://www.w3.org/1999/xlink" x="0px" y="0px"
	 width="128px" height="128px" viewBox="0 0 128 128" enable-background="new 0 0 128 128" xml:space="preserve">
<path d="M119.3,57H96L85.5,44.2c-1.5-1.8-3.8-2.8-6.2-2.5C77,42,75,43.4,73.9,45.5l-12,23.6l-0.2-45.8c0-3.3-2.3-6.1-5.5-6.8
	c-3.2-0.7-6.4,0.8-7.8,3.8L30.6,57H9c-3.9,0-7,3.1-7,7s3.1,7,7,7h26c2.7,0,5.1-1.5,6.3-4l6.5-13.4L48,98c0,3.2,2.2,6,5.4,6.8
	c0.5,0.1,1.1,0.2,1.6,0.2c2.6,0,5-1.4,6.2-3.8l20.3-39.8l5.8,7c1.3,1.6,3.3,2.6,5.4,2.6h26.7c3.9,0,7-3.1,7-7S123.2,57,119.3,57z"/>
</svg>
