<?xml version="1.0" encoding="utf-8"?>
<!-- Generator: Adobe Illustrator 18.0.0, SVG Export Plug-In . SVG Version: 6.00 Build 0)  -->
<!DOCTYPE svg PUBLIC "-//W3C//DTD SVG 1.1//EN" "http://www.w3.org/Graphics/SVG/1.1/DTD/svg11.dtd">
<svg version="1.1" id="Capa_1" xmlns="http://www.w3.org/2000/svg" xmlns:xlink="http://www.w3.org/1999/xlink" x="0px" y="0px"
	 width="1000px" height="1000px" viewBox="0 0 1000 1000" enable-background="new 0 0 1000 1000" xml:space="preserve">
<path d="M958.5,918.3v-45.8H41.5v45.8c0,33.1,26.9,60,60,60h797.1C931.7,978.3,958.5,951.4,958.5,918.3z"/>
<path d="M958.5,79.7c0-33.1-26.9-60-60-60h-57.4v78.7c0,33.1-26.9,60-60,60H407c-33.1,0-60-26.9-60-60V19.7h-16.8
	c-23.9,0-46.8,9.5-63.6,26.4L67.8,244.8c-16.9,16.9-26.4,39.8-26.4,63.6v484.1h917.1V79.7z M544,647.9
	c-91.1,0-164.9-73.8-164.9-164.9c0-91.1,73.8-164.9,164.9-164.9S708.9,392,708.9,483C708.9,574.1,635.1,647.9,544,647.9z"/>
</svg>
