<?xml version="1.0" encoding="utf-8"?>
<!-- Generator: Adobe Illustrator 18.0.0, SVG Export Plug-In . SVG Version: 6.00 Build 0)  -->
<!DOCTYPE svg PUBLIC "-//W3C//DTD SVG 1.1//EN" "http://www.w3.org/Graphics/SVG/1.1/DTD/svg11.dtd">
<svg version="1.1" id="Layer_1" xmlns="http://www.w3.org/2000/svg" xmlns:xlink="http://www.w3.org/1999/xlink" x="0px" y="0px"
	 width="128px" height="128px" viewBox="0 0 128 128" enable-background="new 0 0 128 128" xml:space="preserve">
<path d="M64,2.3c-24.8,0-44.8,20.1-44.8,44.8c0,8.8,2.6,17.4,7.4,24.8c5.3,8,13,14.5,16.9,23.1H59V54h-8c-2.8,0-5-2.2-5-5s2.2-5,5-5
	h26c2.8,0,5,2.2,5,5s-2.2,5-5,5h-8v41h15.3c2.9-6.8,8-12.8,12.9-18c7.6-7.9,11.6-18.9,11.6-29.8C108.8,22.4,88.8,2.3,64,2.3z"/>
<path d="M46,106.1V120c0,3.3,2.7,6,6,6h24c3.3,0,6-2.7,6-6v-14.2c0-0.3,0-0.5,0-0.8H46C46,105.4,46,105.7,46,106.1z"/>
</svg>
