<?xml version="1.0" encoding="utf-8"?>
<!-- Generator: Adobe Illustrator 18.0.0, SVG Export Plug-In . SVG Version: 6.00 Build 0)  -->
<!DOCTYPE svg PUBLIC "-//W3C//DTD SVG 1.1//EN" "http://www.w3.org/Graphics/SVG/1.1/DTD/svg11.dtd">
<svg version="1.1" id="Layer_1" xmlns="http://www.w3.org/2000/svg" xmlns:xlink="http://www.w3.org/1999/xlink" x="0px" y="0px"
	 width="128px" height="128px" viewBox="0 0 128 128" enable-background="new 0 0 128 128" xml:space="preserve">
<path d="M14.4,78.4c7.7,10.2,17.7,18.4,28.1,25.8c0,0,12.4,8.6,18.1,12.6c2.1,1.4,4.8,1.4,6.8,0c5.7-4,18-12.6,18-12.6
	c10.4-7.4,20.2-15.5,28-25.8c6.6-8.8,11.5-19.2,12.4-30.2c1.6-20-11.3-39.2-32.7-39.2c-12.5,0-23.5,6.8-29.1,16.9
	C58.2,15.7,47.3,8.9,34.8,8.9C13.5,8.9,0.4,28.1,2,48.1C2.9,59.1,7.7,69.6,14.4,78.4z"/>
</svg>
