<?xml version="1.0" encoding="utf-8"?>
<!-- Generator: Adobe Illustrator 18.0.0, SVG Export Plug-In . SVG Version: 6.00 Build 0)  -->
<!DOCTYPE svg PUBLIC "-//W3C//DTD SVG 1.1//EN" "http://www.w3.org/Graphics/SVG/1.1/DTD/svg11.dtd">
<svg version="1.1" id="Layer_1" xmlns="http://www.w3.org/2000/svg" xmlns:xlink="http://www.w3.org/1999/xlink" x="0px" y="0px"
	 width="128px" height="128px" viewBox="0 0 128 128" enable-background="new 0 0 128 128" xml:space="preserve">
<path d="M29.2,82.6c-0.3-1.5-1.5-2.6-3-2.6H21c-1.7,0-3-1.3-3-3V52c0-1.7,1.3-3,3-3h52c1.7,0,3,1.3,3,3v16c0,1.7,1.3,3,3,3h6
	c1.7,0,3-1.3,3-3V48.7C88,42.2,82.8,37,76.3,37H17.9C11.3,37,6,42.3,6,48.9v30.8C6,86.5,11.5,92,18.3,92H29h1.8
	c1.8,0,2.7-2.1,1.4-3.4C30.9,87.2,29.7,85.2,29.2,82.6z"/>
<path d="M108.7,37H98h-1.8c-1.8,0-2.7,2.1-1.4,3.4c1.4,1.4,2.5,3.4,3,6c0.3,1.5,1.5,2.6,3,2.6h5.2c1.7,0,3,1.3,3,3v25
	c0,1.7-1.3,3-3,3H54c-1.7,0-3-1.3-3-3V61c0-1.7-1.3-3-3-3h-6c-1.7,0-3,1.3-3,3v19.3C39,86.8,44.2,92,50.7,92h58.4
	c6.6,0,11.9-5.3,11.9-11.9V49.3C121,42.5,115.5,37,108.7,37z"/>
</svg>
