<?xml version="1.0" encoding="utf-8"?>
<!-- Generator: Adobe Illustrator 18.0.0, SVG Export Plug-In . SVG Version: 6.00 Build 0)  -->
<!DOCTYPE svg PUBLIC "-//W3C//DTD SVG 1.1//EN" "http://www.w3.org/Graphics/SVG/1.1/DTD/svg11.dtd">
<svg version="1.1" id="Capa_1" xmlns="http://www.w3.org/2000/svg" xmlns:xlink="http://www.w3.org/1999/xlink" x="0px" y="0px"
	 width="1000px" height="1000px" viewBox="0 0 1000 1000" enable-background="new 0 0 1000 1000" xml:space="preserve">
<path d="M128.3,330.5l68.1-68.1c-10.8-39.5,2.8-88.1,38.7-124c26.8-26.8,62-42.2,96.4-42.2c8,0,17.6,0.9,27.6,3.5l61.9-61.9l6.2-6.2
	c-28.2-16.6-61-25.4-95.7-25.4c-58.1,0-116.5,25-160.1,68.6c-40.2,40.2-64.4,91.9-68.1,145.7c-1.9,27,1.5,53.1,9.9,77.6
	C117.3,309.5,122.3,320.3,128.3,330.5z"/>
<path d="M374.8,925.4c11.9,11.9,27.4,17.8,43,17.8c15.5,0,31.1-5.9,43-17.8l274.3-274.3c6.9-6.9,15.4-12,24.7-15l125.7-39.6
	c32.7-10.3,42.8-51.6,18.5-75.8l-19.3-19.3l-35.9-35.9L502,118.6l-38.5-38.5l-54.4,54.4L231.3,312.3l-64.1,64.1L39.5,504.2
	c-23.7,23.7-23.7,62.2,0,85.9L374.8,925.4z M129.2,550.8h647.5c6.3,0,7.5,9,1.3,10.6l-64.4,16.4c-2.6,0.7-5,2-7,4L425.3,862.1
	c-5.9,5.9-15.5,5.9-21.5,0L118.5,576.8C108.9,567.2,115.7,550.8,129.2,550.8z"/>
<path d="M895,656.4c-4.6-4.3-10.5-6.6-16.6-6.8c-9.2,0.3-18.2,5.4-22.5,15.3c-0.6,1.5-1.3,2.9-1.9,4.4
	c-15.3,35.4-31.9,70.1-45.7,106.1c-21.4,55.8-51.8,131.9-0.9,181.2c19.6,19,45.4,27.1,71,25.9c25.6,1.2,51.4-6.9,71-25.9
	c50.9-49.3,20.5-125.4-0.9-181.2c-14.4-37.5-31.8-73.6-47.5-110.5C899.4,661.5,897.4,658.6,895,656.4z"/>
</svg>
