<?xml version="1.0" encoding="utf-8"?>
<!-- Generator: Adobe Illustrator 18.0.0, SVG Export Plug-In . SVG Version: 6.00 Build 0)  -->
<!DOCTYPE svg PUBLIC "-//W3C//DTD SVG 1.1//EN" "http://www.w3.org/Graphics/SVG/1.1/DTD/svg11.dtd">
<svg version="1.1" id="Layer_1" xmlns="http://www.w3.org/2000/svg" xmlns:xlink="http://www.w3.org/1999/xlink" x="0px" y="0px"
	 width="128px" height="128px" viewBox="0 0 128 128" enable-background="new 0 0 128 128" xml:space="preserve">
<path d="M118,4H47c-3.3,0-6,2.7-6,6v12c0,3.3,2.7,6,6,6h71c3.3,0,6-2.7,6-6V10C124,6.7,121.3,4,118,4z"/>
<path d="M118,52H47c-3.3,0-6,2.7-6,6v12c0,3.3,2.7,6,6,6h71c3.3,0,6-2.7,6-6V58C124,54.7,121.3,52,118,52z"/>
<path d="M118,100H47c-3.3,0-6,2.7-6,6v12c0,3.3,2.7,6,6,6h71c3.3,0,6-2.7,6-6v-12C124,102.7,121.3,100,118,100z"/>
<path d="M22,4H10c-3.3,0-6,2.7-6,6v12c0,3.3,2.7,6,6,6h12c3.3,0,6-2.7,6-6V10C28,6.7,25.3,4,22,4z"/>
<path d="M22,52H10c-3.3,0-6,2.7-6,6v12c0,3.3,2.7,6,6,6h12c3.3,0,6-2.7,6-6V58C28,54.7,25.3,52,22,52z"/>
<path d="M22,100H10c-3.3,0-6,2.7-6,6v12c0,3.3,2.7,6,6,6h12c3.3,0,6-2.7,6-6v-12C28,102.7,25.3,100,22,100z"/>
</svg>
