<?xml version="1.0" encoding="utf-8"?>
<!-- Generator: Adobe Illustrator 18.0.0, SVG Export Plug-In . SVG Version: 6.00 Build 0)  -->
<!DOCTYPE svg PUBLIC "-//W3C//DTD SVG 1.1//EN" "http://www.w3.org/Graphics/SVG/1.1/DTD/svg11.dtd">
<svg version="1.1" id="Layer_1" xmlns="http://www.w3.org/2000/svg" xmlns:xlink="http://www.w3.org/1999/xlink" x="0px" y="0px"
	 width="128px" height="128px" viewBox="0 0 128 128" enable-background="new 0 0 128 128" xml:space="preserve">
<path d="M106,45V24.3C106,12.8,96.4,3,84.8,3H43.2C31.6,3,22,12.8,22,24.3V45h14V24.3c0-3.9,3.3-7.3,7.2-7.3h41.7
	c3.9,0,7.2,3.5,7.2,7.3V45H106z"/>
<path d="M113.8,55H106H92H36H22h-7.8C10.9,55,8,57.4,8,60.7v56.7c0,3.3,2.9,5.6,6.2,5.6h99.5c3.3,0,6.2-2.3,6.2-5.6V60.7
	C120,57.4,117.1,55,113.8,55z"/>
</svg>
