<?xml version="1.0" encoding="utf-8"?>
<!-- Generator: Adobe Illustrator 18.0.0, SVG Export Plug-In . SVG Version: 6.00 Build 0)  -->
<!DOCTYPE svg PUBLIC "-//W3C//DTD SVG 1.1//EN" "http://www.w3.org/Graphics/SVG/1.1/DTD/svg11.dtd">
<svg version="1.1" id="Capa_1" xmlns="http://www.w3.org/2000/svg" xmlns:xlink="http://www.w3.org/1999/xlink" x="0px" y="0px"
	 width="128px" height="128px" viewBox="0 0 128 128" enable-background="new 0 0 128 128" xml:space="preserve">
<path d="M89.3,29.6V8.9c0-3.3-2.7-6-6-6h-74c-3.3,0-6,2.7-6,6v3.9v78.2v2.7c0,2.2,1.3,4.3,3.2,5.3l45.6,23.6c2,1,4.4-0.4,4.4-2.7
	V96.9h26.8c3.3,0,6-2.7,6-6V58.1h-12l0,23.8c0,1.7-1.3,3-3,3H56.6V54.1V34.6v-0.6c0-2.2-1.3-4.3-3.2-5.3L26.5,14.9l47.8,0
	c1.7,0,3,1.3,3,3l0,11.8H89.3z"/>
<path d="M104.7,19.8c0,0,19.5,19.5,19.5,19.5c2.5,2.5,2.5,6.2,0,8.7l-19.5,19.5c-2.5,2.5-6.3,2.6-8.8,0.1c-2.4-2.4-2.1-6.4,0.2-8.8
	l8.8-8.7c0,0-34.1,0-34.1,0c-1.7,0-3.4-0.7-4.5-2c-2.8-3-2.1-8.3,1.5-10.3c0.9-0.5,2-0.8,3-0.8l34.1,0c0,0-8.7-8.7-8.8-8.7
	c-2.3-2.3-2.6-6.4-0.2-8.7C98.3,17.2,102.2,17.3,104.7,19.8z"/>
</svg>
