<?xml version="1.0" encoding="utf-8"?>
<!-- Generator: Adobe Illustrator 18.0.0, SVG Export Plug-In . SVG Version: 6.00 Build 0)  -->
<!DOCTYPE svg PUBLIC "-//W3C//DTD SVG 1.1//EN" "http://www.w3.org/Graphics/SVG/1.1/DTD/svg11.dtd">
<svg version="1.1" id="Capa_1" xmlns="http://www.w3.org/2000/svg" xmlns:xlink="http://www.w3.org/1999/xlink" x="0px" y="0px"
	 width="1000px" height="1000px" viewBox="0 0 1000 1000" enable-background="new 0 0 1000 1000" xml:space="preserve">
<path d="M80.5,994.5c19.2,0,38.4-7.3,53-22L441,665.1V559H334.9L27.5,866.5c-29.3,29.3-29.3,76.8,0,106.1
	C42.1,987.2,61.3,994.5,80.5,994.5z"/>
<path d="M920.6,329H777.1l101.5-101.5c29.3-29.3,29.3-76.8,0-106.1c-14.6-14.6-33.8-22-53-22c-19.2,0-38.4,7.3-53,22L671,222.9V79.4
	c0-41.4-33.6-75-75-75s-75,33.6-75,75v143.5L419.5,121.4c-14.6-14.6-33.8-22-53-22s-38.4,7.3-53,22c-29.3,29.3-29.3,76.8,0,106.1
	L414.9,329H271.4c-41.4,0-75,33.6-75,75s33.6,75,75,75h143.5H521v106.1v143.5c0,41.4,33.6,75,75,75s75-33.6,75-75V585.1l101.5,101.5
	c14.6,14.6,33.8,22,53,22c19.2,0,38.4-7.3,53-22c29.3-29.3,29.3-76.8,0-106.1L777.1,479h143.5c41.4,0,75-33.6,75-75
	S962,329,920.6,329z"/>
</svg>
