<?xml version="1.0" encoding="utf-8"?>
<!-- Generator: Adobe Illustrator 18.0.0, SVG Export Plug-In . SVG Version: 6.00 Build 0)  -->
<!DOCTYPE svg PUBLIC "-//W3C//DTD SVG 1.1//EN" "http://www.w3.org/Graphics/SVG/1.1/DTD/svg11.dtd">
<svg version="1.1" id="Capa_1" xmlns="http://www.w3.org/2000/svg" xmlns:xlink="http://www.w3.org/1999/xlink" x="0px" y="0px"
	 width="1000px" height="1000px" viewBox="0 0 1000 1000" enable-background="new 0 0 1000 1000" xml:space="preserve">
<path d="M138.9,863.1c43,43,93.2,76.3,149.3,99.1c54.1,21.9,111.1,33,169.6,33c58.5,0,115.6-11.1,169.6-33
	c56-22.7,106.2-56,149.3-99.1l60.9-60.9L660.8,625.4l-60.9,60.9c-38,38-88.4,58.9-142.1,58.9c-53.7,0-104.2-20.9-142.1-58.9
	c-78.4-78.4-78.4-205.9,0-284.3l60.9-60.9L199.8,164.4l-60.9,60.9c-43,43-76.3,93.2-99.1,149.3c-21.9,54.1-33,111.1-33,169.6
	c0,58.5,11.1,115.6,33,169.6C62.5,769.9,95.8,820.1,138.9,863.1z"/>
<path d="M884.8,486.3c-23.4-23.4-61.4-23.4-84.9,0l-82.6,82.6l176.8,176.8l82.6-82.6c23.4-23.4,23.4-61.4,0-84.9L884.8,486.3z"/>
<path d="M338.9,25.3l-82.6,82.6l176.8,176.8l82.6-82.6c23.4-23.4,23.4-61.4,0-84.9l-91.9-91.9C400.3,1.8,362.4,1.8,338.9,25.3z"/>
</svg>
