<?xml version="1.0" encoding="utf-8"?>
<!-- Generator: Adobe Illustrator 18.0.0, SVG Export Plug-In . SVG Version: 6.00 Build 0)  -->
<!DOCTYPE svg PUBLIC "-//W3C//DTD SVG 1.1//EN" "http://www.w3.org/Graphics/SVG/1.1/DTD/svg11.dtd">
<svg version="1.1" id="Capa_1" xmlns="http://www.w3.org/2000/svg" xmlns:xlink="http://www.w3.org/1999/xlink" x="0px" y="0px"
	 width="1000px" height="1000px" viewBox="0 0 1000 1000" enable-background="new 0 0 1000 1000" xml:space="preserve">
<path d="M228.7,186.5c7.8,21.8,28.6,36.5,51.8,36.5h440.8c22.8,0,43.5-14.3,51.5-35.7L840,8.1H164.9L228.7,186.5z"/>
<path d="M792.6,270.7c-21,14.6-45.6,22.3-71.2,22.3H538.2v516h186.7c42.3,0,81.4,21.1,104.6,56.5l43.2,66V120.4l-34.3,91.5
	C829.5,235.8,813.6,256.2,792.6,270.7z"/>
<path d="M770.9,903.9c-10.2-15.6-27.4-24.9-46-24.9H277.1c-19.1,0-36.5,9.6-46.6,25.8l-49.1,78.4h641.4L770.9,903.9z"/>
<path d="M127.2,110.4v827.5l44-70.2c23-36.7,62.6-58.6,105.9-58.6h191.1V293H280.5c-52.7,0-100-33.3-117.7-82.9L127.2,110.4z"/>
</svg>
