<?xml version="1.0" encoding="utf-8"?>
<!-- Generator: Adobe Illustrator 18.0.0, SVG Export Plug-In . SVG Version: 6.00 Build 0)  -->
<!DOCTYPE svg PUBLIC "-//W3C//DTD SVG 1.1//EN" "http://www.w3.org/Graphics/SVG/1.1/DTD/svg11.dtd">
<svg version="1.1" id="Capa_1" xmlns="http://www.w3.org/2000/svg" xmlns:xlink="http://www.w3.org/1999/xlink" x="0px" y="0px"
	 width="1000px" height="1000px" viewBox="0 0 1000 1000" enable-background="new 0 0 1000 1000" xml:space="preserve">
<path d="M745.1,198.8c0,0-15.9,91.1-29.3,168.7c-6.8,33.5-11.9,58.8-11.9,58.8c-6.8,29.4-45,30-43,0c0,0,24-316.5,24-317.1
	c4.4-65.6-96.3-75.6-100.9,0c0,0-25.9,315.7-26,317.1c-2.2,27.2-40,28.3-40,0c0,0-6-370.3-6-371.1c0-67.7-100.9-65.8-100.9,0
	c0,0,5,369.7,5,371.1c0.4,30.2-49,25.2-49,0l-39.7-303.2c-0.1-0.9-0.2-1.4-0.2-1.4c-9.8-64.6-103-57.2-99.2,7
	c0,0.9,48.2,497,48.2,497c0,24.2-19.2,53.8-35.8,38.7c-15-13.6-90-164.8-90.7-166.2c-11-19-34.9-35.2-56.7-37.8
	C63.5,457,46.8,486.9,58.6,513L196,817.2c17.3,30.5,46.2,69.4,82.7,89.5l33.4,18.4l0.1,0.1c0.8,0.8,1.3,1.9,1.7,2.7l-0.6,36.3
	c0,16.2,14.2,29.3,30.3,29.3h386c16.2,0,29.3-13.1,29.3-29.3v-31.5l1.7-1.5c25.2-21.6,29-87.2,29-87.2s15.9-203.4,29.7-381.1
	c6.9-85.6,20.5-256.6,20.6-257C844.9,142.6,758.3,129,745.1,198.8z"/>
</svg>
