<?xml version="1.0" encoding="utf-8"?>
<!-- Generator: Adobe Illustrator 18.0.0, SVG Export Plug-In . SVG Version: 6.00 Build 0)  -->
<!DOCTYPE svg PUBLIC "-//W3C//DTD SVG 1.1//EN" "http://www.w3.org/Graphics/SVG/1.1/DTD/svg11.dtd">
<svg version="1.1" id="Layer_1" xmlns="http://www.w3.org/2000/svg" xmlns:xlink="http://www.w3.org/1999/xlink" x="0px" y="0px"
	 width="128px" height="128px" viewBox="0 0 128 128" enable-background="new 0 0 128 128" xml:space="preserve">
<path d="M64.2,35.2c14.9,0,27,12.1,27,27c0,4.3-1,8.3-2.8,11.9c1.6,2.8,2.1,6.1,1.4,9.3L87,96.3c11-7.4,18.2-19.9,18.2-34.1
	c0-22.6-18.4-41-41-41s-41,18.4-41,41c0,14.1,7.1,26.5,17.9,33.9l-2.7-12.6c-0.7-3.3-0.2-6.7,1.5-9.6c-1.7-3.5-2.7-7.5-2.7-11.7
	C37.2,47.4,49.3,35.2,64.2,35.2z"/>
<path d="M47.3,122.9l-1.5-11.6c-1.1-1.4-1.9-3-2.4-4.8c-16.1-7.8-27.2-24.2-27.2-43.3c0-26.5,21.5-48,48-48s48,21.5,48,48
	c0,19.1-11.2,35.7-27.5,43.4c-0.5,1.7-1.3,3.3-2.4,4.7L80.8,123c26.2-7.3,45.4-31.2,45.4-59.7c0-34.2-27.8-62-62-62
	c-34.2,0-62,27.8-62,62C2.2,91.7,21.3,115.6,47.3,122.9z"/>
<path d="M46.9,96.1c0.1,1.4,0.6,2.8,1.3,4c0.3,0.5,0.7,1,1.2,1.4c0.5,0.5,1.1,1,1.7,1.3l0.2,4.2l0.1,2.5l0.5,10.4
	c0,1.8,0.8,3.3,2,4.4c0.2,0.2,0.4,0.3,0.6,0.5c1,0.7,2.2,1.1,3.5,1.1h3.7h4.5h3.9c1.2,0,2.3-0.4,3.3-1c0.3-0.2,0.6-0.4,0.8-0.6
	c1.2-1.1,2-2.7,2-4.4l0.5-10.5l0.1-2.8l0.2-3.9c0.5-0.3,1-0.7,1.5-1.1c0.6-0.5,1-1.1,1.5-1.7c0.7-1.1,1.2-2.5,1.3-3.9
	c0-0.5,2.6-13.5,2.6-13.5c0.1-0.7,0.2-1.5,0.2-2.2c-0.1-2.3-1.1-4.6-2.8-6.1C79.8,73,77.8,72,75.7,72h-23c-2.1,0-4.1,1-5.6,2.3
	c-1.8,1.5-2.7,3.8-2.8,6.1c0,0.7,0,1.5,0.2,2.2C44.3,82.6,46.9,95.6,46.9,96.1z"/>
<path d="M50.3,56c0,4.5,2.1,8.4,5.4,11c2.4,1.9,5.4,3,8.6,3s6.3-1.1,8.6-3c3.3-2.6,5.4-6.5,5.4-11c0-7.7-6.3-14-14-14
	S50.3,48.3,50.3,56z"/>
</svg>
