<?xml version="1.0" encoding="utf-8"?>
<!-- Generator: Adobe Illustrator 18.0.0, SVG Export Plug-In . SVG Version: 6.00 Build 0)  -->
<!DOCTYPE svg PUBLIC "-//W3C//DTD SVG 1.1//EN" "http://www.w3.org/Graphics/SVG/1.1/DTD/svg11.dtd">
<svg version="1.1" id="Capa_1" xmlns="http://www.w3.org/2000/svg" xmlns:xlink="http://www.w3.org/1999/xlink" x="0px" y="0px"
	 width="1000px" height="1000px" viewBox="0 0 1000 1000" enable-background="new 0 0 1000 1000" xml:space="preserve">
<path d="M898.5,56.6H797.4l-2-2.3C766.6,20.6,710,15.6,678.9,15.6c0,0-489.2,0-489.9,0c-33,0-49.9,29.8-50.3,59.8
	C138.4,106.1,155,137,189,137h88.2c16.7,0,28.9,11.2,28.9,26.7c0,15.5-12.1,26.7-28.9,26.7c0,0-143.9,0-144.6,0
	c-67.8,0-67.9,134.8,0,134.8c0,0,144.6,0,144.6,0c16.7,0,28.9,11.2,28.9,26.7s-12.1,26.7-28.9,26.7c0,0-163.4,0-164.4,0
	c-68.7,0-66.2,134.8,0,134.8h164.4c16.7,0,28.9,11.2,28.9,26.7c0,15.5-12.1,26.7-28.9,26.7c0,0-141.7,0-141.7,0
	c-68.7,0-66.9,134.8,0,134.8c0,0,276.7,0,279.3,0c12.2,0-2.4,20-5.3,23.8c-31.2,40.4-58.4,84.1-71.1,134
	c-9.4,36.8-10.1,91,29.1,111.4c56.5,29.5,83.2-39.3,106.8-75.6c56.7-86.9,153.4-142.3,235.8-202.3c18-13.1,56.6-41.2,57.8-41.7
	l130.4-0.5c21.6,0,39.2-17.6,39.2-39.2V95.8C937.7,74.1,920.1,56.6,898.5,56.6z"/>
</svg>
