<?xml version="1.0" encoding="utf-8"?>
<!-- Generator: Adobe Illustrator 18.0.0, SVG Export Plug-In . SVG Version: 6.00 Build 0)  -->
<!DOCTYPE svg PUBLIC "-//W3C//DTD SVG 1.1//EN" "http://www.w3.org/Graphics/SVG/1.1/DTD/svg11.dtd">
<svg version="1.1" id="Capa_1" xmlns="http://www.w3.org/2000/svg" xmlns:xlink="http://www.w3.org/1999/xlink" x="0px" y="0px"
	 width="1000px" height="1000px" viewBox="0 0 1000 1000" enable-background="new 0 0 1000 1000" xml:space="preserve">
<path d="M913.2,924.8v-77.9H86.8v77.9c0,33.1,26.9,60,60,60h706.4C886.4,984.8,913.2,958,913.2,924.8z"/>
<path d="M373.8,486.8H140c-57.4,0-104,46.6-104,104v156.1c0,16.6,13.4,30,30,30H933c16.6,0,30-13.4,30-30V590.8
	c0-57.4-46.6-104-104-104H626.2c-24.8,0-33.3-21-28.6-42.6c5.6-25.4,28.9-41,45.3-59.4c39.7-44.7,49.7-97.7,49.7-159.1
	C692.7,108.2,617.9,13,500.4,13c-0.1,0-0.3,0-0.4,0s-0.3,0-0.4,0c-117.5,0-192.2,95.2-192.2,212.7c0,61.3,10,114.4,49.7,159.1
	c16.4,18.5,39.7,34,45.3,59.4C407.1,465.8,398.6,486.8,373.8,486.8z"/>
</svg>
