<?xml version="1.0" encoding="utf-8"?>
<!-- Generator: Adobe Illustrator 18.0.0, SVG Export Plug-In . SVG Version: 6.00 Build 0)  -->
<!DOCTYPE svg PUBLIC "-//W3C//DTD SVG 1.1//EN" "http://www.w3.org/Graphics/SVG/1.1/DTD/svg11.dtd">
<svg version="1.1" id="Capa_1" xmlns="http://www.w3.org/2000/svg" xmlns:xlink="http://www.w3.org/1999/xlink" x="0px" y="0px"
	 width="1000px" height="1000px" viewBox="0 0 1000 1000" enable-background="new 0 0 1000 1000" xml:space="preserve">
<path d="M363,176c-16,0-29,13-29,29v590c0,16,13,29,29,29h274c16,0,29-13,29-29V205c0-16-13-29-29-29H363z"/>
<path d="M752.5,815.9l201.3-79.2c13.4-5.3,22.2-18.2,22.2-32.6V102.9c0-11-11.1-18.6-21.3-14.5l-200.5,78.9
	c-13.4,5.3-22.2,18.2-22.2,32.6V802C732,812.6,742.7,819.8,752.5,815.9z"/>
<path d="M247.5,177.1L46.2,256.3C32.8,261.5,24,274.5,24,288.8v601.2c0,11,11.1,18.6,21.3,14.5l200.5-78.9
	c13.4-5.3,22.2-18.2,22.2-32.6V191C268,180.4,257.3,173.2,247.5,177.1z"/>
</svg>
