<?xml version="1.0" encoding="utf-8"?>
<!-- Generator: Adobe Illustrator 18.0.0, SVG Export Plug-In . SVG Version: 6.00 Build 0)  -->
<!DOCTYPE svg PUBLIC "-//W3C//DTD SVG 1.1//EN" "http://www.w3.org/Graphics/SVG/1.1/DTD/svg11.dtd">
<svg version="1.1" id="Capa_1" xmlns="http://www.w3.org/2000/svg" xmlns:xlink="http://www.w3.org/1999/xlink" x="0px" y="0px"
	 width="1000px" height="1000px" viewBox="0 0 1000 1000" enable-background="new 0 0 1000 1000" xml:space="preserve">
<path d="M624.8,598.9c-47.6-50.8-91.3-109.8-129.9-175.6c-16.1-27.5-32.9-57-46.1-89.1c-1.7-4.1-3.3-8.2-4.8-12.2h-81
	c-16,0-29,13-29,29v528.2c0,16,13,29,29,29h274c16,0,29-13,29-29V626c-1.9-0.7-3.9-1.5-5.8-2.3C646.8,618,634.8,609.7,624.8,598.9z"
	/>
<path d="M46.2,820.9l201.3,79.2c9.8,3.9,20.5-3.4,20.5-14V345.8c0-14.4-8.8-27.3-22.2-32.6L45.3,234.3c-10.2-4-21.3,3.5-21.3,14.5
	v539.4C24,802.7,32.8,815.6,46.2,820.9z"/>
<path d="M892.2,452c-33,52.9-71.8,102.7-115.3,147.9c-10.1,10.5-21.9,18.6-35.1,24.2c-3.2,1.4-6.5,2.5-9.8,3.6v249.7
	c0,14.4,8.8,27.3,22.2,32.6l200.5,78.9c10.2,4,21.3-3.5,21.3-14.5V434.8c0-14.4-8.8-27.3-22.2-32.6l-26.3-10.3
	C916.3,412.9,904.1,432.9,892.2,452z"/>
<path d="M668.5,557.8c9,9.6,20.9,14.4,32.8,14.4c11,0,22-4.1,30.7-12.2c0.6-0.5,1.1-1.1,1.7-1.6c40.5-42.1,76.7-88.5,107.7-138.1
	c10.1-16.1,20.4-33,30-50.5c25.2-45.9,45.7-95.9,45.7-147.2c0-119.3-96.7-216-216-216s-216,96.7-216,216c0,35,9.8,68,23.8,99.5
	c10.9,24.5,24.4,48.1,37.8,71c33.9,57.9,73.6,113,119.4,162.2C666.8,556,667.7,556.9,668.5,557.8z M633,321.9
	c-35-22.2-58.1-61.3-58.1-105.7C574.8,147.1,630.9,91,700,91s125.2,56.1,125.2,125.2c0,47.3-26.3,88.5-65,109.8
	c-8.8,4.8-18.2,8.6-28.2,11.2c-10.2,2.7-20.9,4.1-32,4.1c-13.5,0-26.4-2.1-38.6-6.1C651.3,332.1,641.8,327.5,633,321.9z"/>
</svg>
