<?xml version="1.0" encoding="utf-8"?>
<!-- Generator: Adobe Illustrator 18.0.0, SVG Export Plug-In . SVG Version: 6.00 Build 0)  -->
<!DOCTYPE svg PUBLIC "-//W3C//DTD SVG 1.1//EN" "http://www.w3.org/Graphics/SVG/1.1/DTD/svg11.dtd">
<svg version="1.1" id="Layer_1" xmlns="http://www.w3.org/2000/svg" xmlns:xlink="http://www.w3.org/1999/xlink" x="0px" y="0px"
	 width="128px" height="128px" viewBox="0 0 128 128" enable-background="new 0 0 128 128" xml:space="preserve">
<path d="M91,2h-2.1c-2.7,0-5.1,1.7-5.9,4.3c-2.3,8.3-10,14.4-19,14.4c-9.1,0-16.7-6.1-19-14.4C44.3,3.7,41.8,2,39.1,2H37
	c-3.3,0-6,2.7-6,6v26.1c0,8.7-5.8,15.9-13.8,18.2C14.7,53,13,55.4,13,58v62c0,3.3,2.7,6,6,6h45h45c3.3,0,6-2.7,6-6V58
	c0-2.6-1.7-5-4.2-5.7C102.8,50,97,42.7,97,34.1V8C97,4.7,94.3,2,91,2z M57,89.8c0,2.8-2.3,5.2-5.2,5.2H41.2c-2.8,0-5.2-2.3-5.2-5.2
	V59.2c0-2.8,2.3-5.2,5.2-5.2h10.7c2.8,0,5.2,2.3,5.2,5.2V89.8z M92,89.8c0,2.8-2.3,5.2-5.2,5.2H76.2c-2.8,0-5.2-2.3-5.2-5.2V59.2
	c0-2.8,2.3-5.2,5.2-5.2h10.7c2.8,0,5.2,2.3,5.2,5.2V89.8z"/>
</svg>
