<?xml version="1.0" encoding="utf-8"?>
<!-- Generator: Adobe Illustrator 18.0.0, SVG Export Plug-In . SVG Version: 6.00 Build 0)  -->
<!DOCTYPE svg PUBLIC "-//W3C//DTD SVG 1.1//EN" "http://www.w3.org/Graphics/SVG/1.1/DTD/svg11.dtd">
<svg version="1.1" id="Capa_1" xmlns="http://www.w3.org/2000/svg" xmlns:xlink="http://www.w3.org/1999/xlink" x="0px" y="0px"
	 width="128px" height="128px" viewBox="0 0 128 128" enable-background="new 0 0 128 128" xml:space="preserve">
<path d="M8.1,99.9h112c3.3,0,6-2.7,6-6V34c0-3.3-2.7-6-6-6H8.1c-3.3,0-6,2.7-6,6V94C2.1,97.3,4.8,99.9,8.1,99.9z M76.2,60.2
	c2.4-2.4,6.3-2.4,8.7,0l5.2,5.2l0-17.4c0-3.4,2.8-6.2,6.2-6.2s6.2,2.8,6.2,6.2v17.4l5.5-5.5c2.4-2.4,6.3-2.4,8.7,0
	c1.2,1.2,1.8,2.8,1.8,4.3s-0.6,3.1-1.8,4.3c0,0-16,16-16,16c-2.4,2.4-6.3,2.4-8.7,0c0,0-15.7-15.7-15.7-15.7
	C73.8,66.5,73.8,62.6,76.2,60.2z M9,44.6c0-1.7,1.3-3,3-3h15c1.4,0,2.6,0.9,2.9,2.2l4.7,18c0.8,3,5,3,5.8,0l4.6-17.9
	c0.3-1.3,1.5-2.2,2.9-2.2h15c1.7,0,3,1.3,3,3v38.7c0,1.7-1.3,3-3,3h-7.3c-1.7,0-3-1.3-3-3v-8.1c0-3.6-5.1-4.1-5.9-0.7L44.4,84
	c-0.3,1.4-1.5,2.3-2.9,2.3h-8.2c-1.4,0-2.6-1-2.9-2.3l-2.2-9.3c-0.8-3.5-5.9-2.9-5.9,0.7v7.9c0,1.7-1.3,3-3,3H12c-1.7,0-3-1.3-3-3
	V44.6z"/>
</svg>
