<?xml version="1.0" encoding="utf-8"?>
<!-- Generator: Adobe Illustrator 18.0.0, SVG Export Plug-In . SVG Version: 6.00 Build 0)  -->
<!DOCTYPE svg PUBLIC "-//W3C//DTD SVG 1.1//EN" "http://www.w3.org/Graphics/SVG/1.1/DTD/svg11.dtd">
<svg version="1.1" id="Capa_1" xmlns="http://www.w3.org/2000/svg" xmlns:xlink="http://www.w3.org/1999/xlink" x="0px" y="0px"
	 width="1000px" height="1000px" viewBox="0 0 1000 1000" enable-background="new 0 0 1000 1000" xml:space="preserve">
<path d="M262.2,249.3c0,63.8,24.8,123.7,69.9,168.8c28.1,28.1,61.9,48.3,98.8,59.6v367.4H345c-38.7,0-70,31.3-70,70s31.3,70,70,70
	h155.9h155.9c38.7,0,70-31.3,70-70s-31.3-70-70-70h-85.9V477.7c36.9-11.3,70.8-31.5,98.8-59.6c45.1-45.1,69.9-105.1,69.9-168.8
	s-24.8-123.7-69.9-168.8s-105-69.9-168.8-69.9S377.2,35.4,332.1,80.5C287,125.6,262.2,185.5,262.2,249.3z M599.7,249.3
	c0,27.1-11,51.7-28.8,69.6c-17.9,18-42.7,29.2-70,29.2s-52.1-11.2-70-29.2c-17.8-17.9-28.8-42.5-28.8-69.6
	c0-54.5,44.3-98.8,98.8-98.8C555.4,150.6,599.7,194.9,599.7,249.3z"/>
<path d="M810.2,55.6c-29.6,24.9-33.4,69-8.6,98.6c22.4,26.7,34.8,60.7,34.8,95.6c0,33.9-11.1,65.8-32,92.2
	c-24,30.3-18.9,74.3,11.5,98.3c12.9,10.2,28.2,15.1,43.4,15.1c20.7,0,41.1-9.1,54.9-26.6c19.7-25,35.1-52.8,45.7-82.7
	c11-30.9,16.5-63.4,16.5-96.4c0-67.9-24-133.8-67.6-185.7C883.9,34.6,839.8,30.8,810.2,55.6z"/>
<path d="M40.1,346.3c10.6,29.9,26,57.7,45.7,82.7c13.8,17.5,34.3,26.6,54.9,26.6c15.2,0,30.5-4.9,43.4-15.1
	c30.3-24,35.5-68,11.5-98.3c-20.9-26.5-32-58.4-32-92.2c0-35,12.4-68.9,34.8-95.6c24.9-29.6,21-73.8-8.6-98.6
	c-29.6-24.9-73.8-21-98.6,8.6C47.6,116.1,23.6,182,23.6,249.9C23.6,282.9,29.2,315.4,40.1,346.3z"/>
</svg>
