<?xml version="1.0" encoding="utf-8"?>
<!-- Generator: Adobe Illustrator 18.0.0, SVG Export Plug-In . SVG Version: 6.00 Build 0)  -->
<!DOCTYPE svg PUBLIC "-//W3C//DTD SVG 1.1//EN" "http://www.w3.org/Graphics/SVG/1.1/DTD/svg11.dtd">
<svg version="1.1" id="Capa_1" xmlns="http://www.w3.org/2000/svg" xmlns:xlink="http://www.w3.org/1999/xlink" x="0px" y="0px"
	 width="1000px" height="1000px" viewBox="0 0 1000 1000" enable-background="new 0 0 1000 1000" xml:space="preserve">
<path d="M55.5,988.5c12.8,0,25.6-4.9,35.4-14.6l82-82L137,856l-34.9-34.9l-82,82c-19.5,19.5-19.5,51.2,0,70.7
	C29.9,983.6,42.7,988.5,55.5,988.5z"/>
<path d="M719.5,6.9c-64.6,1.5-128.7,26.9-177.9,76.2c-20.5,20.5-36.8,43.5-49.1,68.1l20.6,20.6l154,154l154,154l20.6,20.6
	c24.6-12.2,47.6-28.6,68.1-49.1c49.3-49.3,74.7-113.4,76.2-177.9l-12.1,12.1c-6.8,6.8-15.8,10.3-24.7,10.3c-9,0-17.9-3.4-24.7-10.3
	c-13.7-13.7-13.7-35.8,0-49.5l49.1-49.1c-8.9-27.4-22.4-53.7-40.6-77.5l-67.5,67.5c-6.8,6.8-15.8,10.3-24.7,10.3
	c-9,0-17.9-3.4-24.7-10.3c-13.7-13.7-13.7-35.8,0-49.5l67.5-67.5c-23.8-18.2-50.1-31.7-77.5-40.6l-49.1,49.1
	c-6.8,6.8-15.8,10.3-24.7,10.3c-9,0-17.9-3.4-24.7-10.3c-13.7-13.7-13.7-35.8,0-49.5L719.5,6.9z"/>
<path d="M463.6,221.3L115.5,660.4c-18.9,23.9-17,58.2,4.6,79.7l31.5,31.5l34.9,34.9l35.9,35.9l30.5,30.5
	c11.6,11.6,27,17.6,42.4,17.6c13.1,0,26.3-4.3,37.3-13l439.1-348.1l-4.9-4.9L617.6,375.4L468.5,226.3L463.6,221.3z"/>
</svg>
