<?xml version="1.0" encoding="utf-8"?>
<!-- Generator: Adobe Illustrator 18.0.0, SVG Export Plug-In . SVG Version: 6.00 Build 0)  -->
<!DOCTYPE svg PUBLIC "-//W3C//DTD SVG 1.1//EN" "http://www.w3.org/Graphics/SVG/1.1/DTD/svg11.dtd">
<svg version="1.1" id="Capa_1" xmlns="http://www.w3.org/2000/svg" xmlns:xlink="http://www.w3.org/1999/xlink" x="0px" y="0px"
	 width="128px" height="128px" viewBox="0 0 128 128" enable-background="new 0 0 128 128" xml:space="preserve">
<path d="M15.1,100.8h30.3v12.4H32.2c-3.8,0-6.9,3.1-6.9,6.9c0,3.8,3.1,6.9,6.9,6.9h74.9c3.8,0,6.9-3.1,6.9-6.9
	c0-3.8-3.1-6.9-6.9-6.9v-8.3c7-4,11.8-11.6,11.8-20.3c0-8.4-4.5-15.8-11.2-19.9c-0.1-7.3-1.9-18.8-10-31l-5.5,6l-4.6,5l-1,1.1
	c3.4,6.1,4.8,11.7,5.2,15.9c-11.1,1.8-19.5,11.4-19.5,23c0,2.2,0.3,4.3,0.9,6.3h-58c-2.7,0-4.9,2.2-4.9,4.9
	C10.2,98.6,12.4,100.8,15.1,100.8z M95.6,77.1c4.2,0,7.6,3.4,7.6,7.6c0,2.6-1.3,4.9-3.3,6.3c-1.2,0.8-2.7,1.3-4.2,1.3
	c-1.6,0-3-0.5-4.2-1.3c-2-1.4-3.3-3.7-3.3-6.3C88,80.5,91.4,77.1,95.6,77.1z"/>
<path d="M42.9,57.9l6.4,6.4c2.4,2.4,6.2,2.3,8.5-0.2L96.7,22c1-1.1,1.6-2.6,1.6-4c0-1.5-0.5-2.9-1.6-4.1c1.9-1.2,3.1-3.4,3.1-5.8
	c0-2-0.8-3.7-2.1-5c-1.3-1.3-3-2.1-5-2.1c-2.4,0-4.6,1.2-5.8,3.1c-1.1-1.1-2.6-1.6-4.1-1.6c-1.4,0-2.9,0.5-4,1.6L36.6,43
	c-2.5,2.3-2.5,6.1-0.2,8.5L42.9,57.9z"/>
</svg>
