<?xml version="1.0" encoding="utf-8"?>
<!-- Generator: Adobe Illustrator 18.0.0, SVG Export Plug-In . SVG Version: 6.00 Build 0)  -->
<!DOCTYPE svg PUBLIC "-//W3C//DTD SVG 1.1//EN" "http://www.w3.org/Graphics/SVG/1.1/DTD/svg11.dtd">
<svg version="1.1" id="Capa_1" xmlns="http://www.w3.org/2000/svg" xmlns:xlink="http://www.w3.org/1999/xlink" x="0px" y="0px"
	 width="1000px" height="1000px" viewBox="0 0 1000 1000" enable-background="new 0 0 1000 1000" xml:space="preserve">
<path d="M394.2,640.8l76.6,317.3c7.4,30.6,50.9,30.6,58.3,0l76.6-317.3C571.7,651.5,536.3,657,500,657S428.3,651.5,394.2,640.8z"/>
<path d="M792,305c0-80.6-32.7-153.6-85.5-206.5C653.6,45.7,580.6,13,500,13c-161.3,0-292,130.7-292,292
	c0,117.4,69.2,218.5,169.1,264.9c37.4,17.4,79,27.1,122.9,27.1s85.6-9.7,122.9-27.1C722.8,523.5,792,422.4,792,305z"/>
</svg>
