<?xml version="1.0" encoding="utf-8"?>
<!-- Generator: Adobe Illustrator 18.0.0, SVG Export Plug-In . SVG Version: 6.00 Build 0)  -->
<!DOCTYPE svg PUBLIC "-//W3C//DTD SVG 1.1//EN" "http://www.w3.org/Graphics/SVG/1.1/DTD/svg11.dtd">
<svg version="1.1" id="Layer_1" xmlns="http://www.w3.org/2000/svg" xmlns:xlink="http://www.w3.org/1999/xlink" x="0px" y="0px"
	 width="128px" height="128px" viewBox="0 0 128 128" enable-background="new 0 0 128 128" xml:space="preserve">
<path d="M23,124h82c11,0,20-9,20-20V22c0-11-9-20-20-20H23C12,2,3,11,3,22v82C3,115,12,124,23,124z M17,22c0-3.3,2.7-6,6-6h82
	c3.3,0,6,2.7,6,6v82c0,3.3-2.7,6-6,6H23c-3.3,0-6-2.7-6-6V22z"/>
<path d="M42.6,74h42.9c4.7,0,8.6-3.8,8.6-8.6v-2.9c0-4.7-3.8-8.6-8.6-8.6H42.6c-4.7,0-8.6,3.8-8.6,8.6v2.9C34,70.2,37.8,74,42.6,74z
	"/>
</svg>
