<?xml version="1.0" encoding="utf-8"?>
<!-- Generator: Adobe Illustrator 18.0.0, SVG Export Plug-In . SVG Version: 6.00 Build 0)  -->
<!DOCTYPE svg PUBLIC "-//W3C//DTD SVG 1.1//EN" "http://www.w3.org/Graphics/SVG/1.1/DTD/svg11.dtd">
<svg version="1.1" id="Layer_1" xmlns="http://www.w3.org/2000/svg" xmlns:xlink="http://www.w3.org/1999/xlink" x="0px" y="0px"
	 width="128px" height="128px" viewBox="0 0 128 128" enable-background="new 0 0 128 128" xml:space="preserve">
<path d="M39,126h48c11,0,20-9,20-20V21c0-11-9-20-20-20H39c-11,0-20,9-20,20v85C19,117,28,126,39,126z M63.3,114
	c-6.6,0-12-5.6-12-12.2c0-6.6,5.4-12.1,12-12.1c6.6,0,12,5.6,12,12.2C75.3,108.4,70,114,63.3,114z M33,29.1C33,21.9,38.9,16,46.1,16
	h33.8C87.1,16,93,21.9,93,29.1v37.8C93,74.1,87.1,80,79.9,80H46.1C38.9,80,33,74.1,33,66.9V29.1z"/>
</svg>
