<?xml version="1.0" encoding="utf-8"?>
<!-- Generator: Adobe Illustrator 18.0.0, SVG Export Plug-In . SVG Version: 6.00 Build 0)  -->
<!DOCTYPE svg PUBLIC "-//W3C//DTD SVG 1.1//EN" "http://www.w3.org/Graphics/SVG/1.1/DTD/svg11.dtd">
<svg version="1.1" id="Capa_1" xmlns="http://www.w3.org/2000/svg" xmlns:xlink="http://www.w3.org/1999/xlink" x="0px" y="0px"
	 width="1000px" height="1000px" viewBox="0 0 1000 1000" enable-background="new 0 0 1000 1000" xml:space="preserve">
<path d="M148.7,663.3c79.6,0,144.1-64.5,144.1-144.1c0-79.6-64.5-144.1-144.1-144.1C69,375,4.5,439.5,4.5,519.1
	C4.5,598.7,69,663.3,148.7,663.3z M148.7,449.6c38.3,0,69.5,31.2,69.5,69.5s-31.2,69.5-69.5,69.5c-38.3,0-69.5-31.2-69.5-69.5
	S110.3,449.6,148.7,449.6z"/>
<path d="M355.9,519.1c0,79.6,64.5,144.1,144.1,144.1s144.1-64.5,144.1-144.1c0-79.6-64.5-144.1-144.1-144.1S355.9,439.5,355.9,519.1
	z M569.5,519.1c0,38.3-31.2,69.5-69.5,69.5s-69.5-31.2-69.5-69.5s31.2-69.5,69.5-69.5S569.5,480.8,569.5,519.1z"/>
<path d="M851.3,375c-79.6,0-144.1,64.5-144.1,144.1c0,79.6,64.5,144.1,144.1,144.1c79.6,0,144.1-64.5,144.1-144.1
	C995.5,439.5,931,375,851.3,375z M851.3,588.6c-38.3,0-69.5-31.2-69.5-69.5s31.2-69.5,69.5-69.5c38.3,0,69.5,31.2,69.5,69.5
	S889.7,588.6,851.3,588.6z"/>
</svg>
