<?xml version="1.0" encoding="utf-8"?>
<!-- Generator: Adobe Illustrator 18.0.0, SVG Export Plug-In . SVG Version: 6.00 Build 0)  -->
<!DOCTYPE svg PUBLIC "-//W3C//DTD SVG 1.1//EN" "http://www.w3.org/Graphics/SVG/1.1/DTD/svg11.dtd">
<svg version="1.1" id="Capa_1" xmlns="http://www.w3.org/2000/svg" xmlns:xlink="http://www.w3.org/1999/xlink" x="0px" y="0px"
	 width="1000px" height="1000px" viewBox="0 0 1000 1000" enable-background="new 0 0 1000 1000" xml:space="preserve">
<path d="M559.9,13.9H440.1C315.2,13.9,214,115.2,214,240v512c0,124.8,101.2,226.1,226.1,226.1h119.9C684.8,978.1,786,876.8,786,752
	V240C786,115.2,684.8,13.9,559.9,13.9z M556,329c0,24.8-20.3,45-45,45H489c-24.8,0-45-20.3-45-45V181c0-24.8,20.3-45,45-45H511
	c24.8,0,45,20.3,45,45V329z"/>
</svg>
