<?xml version="1.0" encoding="utf-8"?>
<!-- Generator: Adobe Illustrator 18.0.0, SVG Export Plug-In . SVG Version: 6.00 Build 0)  -->
<!DOCTYPE svg PUBLIC "-//W3C//DTD SVG 1.1//EN" "http://www.w3.org/Graphics/SVG/1.1/DTD/svg11.dtd">
<svg version="1.1" id="Capa_1" xmlns="http://www.w3.org/2000/svg" xmlns:xlink="http://www.w3.org/1999/xlink" x="0px" y="0px"
	 width="1000px" height="1000px" viewBox="0 0 1000 1000" enable-background="new 0 0 1000 1000" xml:space="preserve">
<path d="M205.8,911.8c109.6,0,198.7-87.3,201.7-196.2h0.1V271.8l438.6,110.4v212.7c-18.7-5.6-38.5-8.6-59-8.4
	C675.7,587,584.4,680.5,586.5,792c2,109.7,91.6,198,201.7,198c109.6,0,198.7-87.3,201.7-196.2h0.1V215.2c0-25.5-17.3-47.7-42-54
	L333,6.3c-35.2-8.9-69.3,17.7-69.3,54v456.4c-18.7-5.6-38.5-8.6-59-8.4C93.2,508.8,2,602.3,4,713.8
	C6.1,823.5,95.6,911.8,205.8,911.8z"/>
</svg>
