<?xml version="1.0" encoding="utf-8"?>
<!-- Generator: Adobe Illustrator 18.0.0, SVG Export Plug-In . SVG Version: 6.00 Build 0)  -->
<!DOCTYPE svg PUBLIC "-//W3C//DTD SVG 1.1//EN" "http://www.w3.org/Graphics/SVG/1.1/DTD/svg11.dtd">
<svg version="1.1" id="Capa_1" xmlns="http://www.w3.org/2000/svg" xmlns:xlink="http://www.w3.org/1999/xlink" x="0px" y="0px"
	 width="128px" height="128px" viewBox="0 0 128 128" enable-background="new 0 0 128 128" xml:space="preserve">
<path d="M8.3,89.4l30.2-30.2c1.4-1.4,1.1-3.6-0.5-4.7L7.8,35.7c-2-1.2-4.6,0.2-4.6,2.5v49.1C3.2,89.9,6.4,91.3,8.3,89.4z"/>
<path d="M89.5,59.1l30.2,30.2c1.9,1.9,5.1,0.6,5.1-2.1v-49c0-2.4-2.6-3.8-4.6-2.5L90.1,54.4C88.4,55.5,88.1,57.7,89.5,59.1z"/>
<path d="M16.4,29.2l46.1,28.7c1,0.6,2.2,0.6,3.2,0l46.1-28.7c2.6-1.6,1.4-5.5-1.6-5.5H17.9C14.9,23.7,13.8,27.6,16.4,29.2z"/>
<path d="M76.1,63.1l-10.5,6.5c-1,0.6-2.2,0.6-3.2,0L52,63.1c-1.2-0.7-2.7-0.6-3.7,0.4L15.4,96.4c-1.9,1.9-0.6,5.1,2.1,5.1h93.1
	c2.7,0,4-3.2,2.1-5.1L79.8,63.5C78.8,62.6,77.3,62.4,76.1,63.1z"/>
</svg>
