<?xml version="1.0" encoding="utf-8"?>
<!-- Generator: Adobe Illustrator 18.0.0, SVG Export Plug-In . SVG Version: 6.00 Build 0)  -->
<!DOCTYPE svg PUBLIC "-//W3C//DTD SVG 1.1//EN" "http://www.w3.org/Graphics/SVG/1.1/DTD/svg11.dtd">
<svg version="1.1" id="Capa_1" xmlns="http://www.w3.org/2000/svg" xmlns:xlink="http://www.w3.org/1999/xlink" x="0px" y="0px"
	 width="1000px" height="1000px" viewBox="0 0 1000 1000" enable-background="new 0 0 1000 1000" xml:space="preserve">
<path d="M207,983h625c33.1,0,60-26.9,60-60c0,0,0.3-792.8,0.3-795.4C892.3,63.9,840.4,12,776.6,12c-33.9,0-64.5,14.7-85.6,38
	c-21.2-23.3-51.7-38-85.6-38c-33.9,0-64.5,14.7-85.6,38c-21.2-23.3-51.7-38-85.6-38s-64.5,14.7-85.6,38c-21.2-23.3-51.7-38-85.6-38
	C199,12,147.2,63.9,147.2,127.6L147,923C147,956.2,173.9,983,207,983z M519.7,787.5H293.8c-27.6,0-50-22.4-50-50s22.4-50,50-50
	h225.9c27.6,0,50,22.4,50,50S547.3,787.5,519.7,787.5z M745.6,605.3H293.8c-27.6,0-50-22.4-50-50s22.4-50,50-50h451.7
	c27.6,0,50,22.4,50,50S773.2,605.3,745.6,605.3z M745.6,423.2H293.8c-27.6,0-50-22.4-50-50s22.4-50,50-50h451.7
	c27.6,0,50,22.4,50,50S773.2,423.2,745.6,423.2z M776.6,72c30.7,0,55.6,25,55.6,55.6H721C721,97,746,72,776.6,72z M605.4,72
	C636,72,661,97,661,127.6H549.7C549.7,97,574.7,72,605.4,72z M434.1,72c30.7,0,55.6,25,55.6,55.6H378.4C378.4,97,403.4,72,434.1,72z
	 M262.8,72c30.7,0,55.6,25,55.6,55.6H207.2C207.2,97,232.1,72,262.8,72z"/>
</svg>
