<?xml version="1.0" encoding="utf-8"?>
<!-- Generator: Adobe Illustrator 18.0.0, SVG Export Plug-In . SVG Version: 6.00 Build 0)  -->
<!DOCTYPE svg PUBLIC "-//W3C//DTD SVG 1.1//EN" "http://www.w3.org/Graphics/SVG/1.1/DTD/svg11.dtd">
<svg version="1.1" id="Capa_1" xmlns="http://www.w3.org/2000/svg" xmlns:xlink="http://www.w3.org/1999/xlink" x="0px" y="0px"
	 width="1000px" height="1000px" viewBox="0 0 1000 1000" enable-background="new 0 0 1000 1000" xml:space="preserve">
<path d="M27.6,183v732.7c0,33.1,26.9,60,60,60h732.7c33.1,0,60-26.9,60-60V332L478.8,735.8c-10.6,10.6-23.7,18.7-37.9,23.4
	L295.2,807c-7.9,2.6-16.1,3.9-24.4,3.9c-12.2,0-24.4-2.9-35.4-8.5c-10.3-5.2-19.5-12.8-26.5-21.9c-15-19.2-20.1-43.7-14.2-67.3
	l39-154.9c4.2-16.6,12.8-31.9,24.9-44L647.6,123H87.6C54.4,123,27.6,149.9,27.6,183z"/>
<path d="M904.4,222.6l59.6-60c16.3-16.3,16-50-0.6-66.6l-68.8-68.8c-8.4-8.4-21.2-12.6-33.9-12.6c-12.4,0-24.6,4-32.6,12l-59.6,60
	l36.4,36.4l75.4,75.4L904.4,222.6z"/>
<path d="M291.9,573l-39,154.9c-3,12,6.5,23,17.9,23c1.9,0,3.8-0.3,5.7-0.9l145.7-47.8c0.4-0.1,0.8-0.3,1.1-0.4L292.5,570.9
	C292.3,571.6,292.1,572.3,291.9,573z"/>
<polygon points="332,525.6 468,661.6 862.1,265.2 726.1,129.2 "/>
</svg>
