<?xml version="1.0" encoding="utf-8"?>
<!-- Generator: Adobe Illustrator 18.0.0, SVG Export Plug-In . SVG Version: 6.00 Build 0)  -->
<!DOCTYPE svg PUBLIC "-//W3C//DTD SVG 1.1//EN" "http://www.w3.org/Graphics/SVG/1.1/DTD/svg11.dtd">
<svg version="1.1" id="Layer_1" xmlns="http://www.w3.org/2000/svg" xmlns:xlink="http://www.w3.org/1999/xlink" x="0px" y="0px"
	 width="128px" height="128px" viewBox="0 0 128 128" enable-background="new 0 0 128 128" xml:space="preserve">
<path d="M39.6,105c4,4,10.5,4.5,14.7,0.7c4.6-4.1,4.8-11.2,0.5-15.5L34.7,70.1c-3.9-3.9-3.9-10.2,0-14.1l20.2-20.3
	c4.3-4.3,4.1-11.4-0.5-15.5C50.1,16.5,43.6,17,39.6,21L5.1,55.5C3,57.6,2,60.3,2,63c0,2.7,1,5.4,3.1,7.5L39.6,105z"/>
<path d="M122.9,55.5L88.4,21c-4-4-10.5-4.5-14.7-0.7c-4.6,4.1-4.8,11.2-0.5,15.5L93.4,56c3.9,3.9,3.9,10.2,0,14.1L73.1,90.3
	c-4.3,4.3-4.1,11.4,0.5,15.5c4.2,3.7,10.7,3.2,14.7-0.7l34.5-34.5c2.1-2.1,3.1-4.8,3.1-7.5C126,60.3,125,57.6,122.9,55.5z"/>
</svg>
