<?xml version="1.0" encoding="utf-8"?>
<!-- Generator: Adobe Illustrator 18.0.0, SVG Export Plug-In . SVG Version: 6.00 Build 0)  -->
<!DOCTYPE svg PUBLIC "-//W3C//DTD SVG 1.1//EN" "http://www.w3.org/Graphics/SVG/1.1/DTD/svg11.dtd">
<svg version="1.1" id="Capa_1" xmlns="http://www.w3.org/2000/svg" xmlns:xlink="http://www.w3.org/1999/xlink" x="0px" y="0px"
	 width="1000px" height="1000px" viewBox="0 0 1000 1000" enable-background="new 0 0 1000 1000" xml:space="preserve">
<path d="M106.3,554.2h400.2c11.5,0,20.8,9.3,20.8,20.8v26.6c0.2,0,0.5,0,0.7,0h78.6c0.2,0,0.5,0,0.7,0V575
	c0-55.6-45.2-100.8-100.8-100.8H106.3c-11.5,0-20.8-9.3-20.8-20.8V286.9c0-11.5,9.3-20.8,20.8-20.8h11.1v-80h-11.1
	c-55.6,0-100.8,45.2-100.8,100.8v166.5C5.5,509,50.7,554.2,106.3,554.2z"/>
<path d="M937,34.9H237.4c-33.1,0-60,26.9-60,60v206.3c0,33.1,26.9,60,60,60H937c33.1,0,60-26.9,60-60V94.9
	C997,61.7,970.1,34.9,937,34.9z"/>
<path d="M607.2,631.6c-0.2,0-0.5,0-0.7,0H528c-0.2,0-0.5,0-0.7,0c-32.8,0.4-59.3,27.1-59.3,60v231.8c0,33.1,26.9,60,60,60h78.6
	c33.1,0,60-26.9,60-60V691.6C666.5,658.7,640.1,632,607.2,631.6z"/>
</svg>
