<?xml version="1.0" encoding="utf-8"?>
<!-- Generator: Adobe Illustrator 18.0.0, SVG Export Plug-In . SVG Version: 6.00 Build 0)  -->
<!DOCTYPE svg PUBLIC "-//W3C//DTD SVG 1.1//EN" "http://www.w3.org/Graphics/SVG/1.1/DTD/svg11.dtd">
<svg version="1.1" id="Capa_1" xmlns="http://www.w3.org/2000/svg" xmlns:xlink="http://www.w3.org/1999/xlink" x="0px" y="0px"
	 width="1000px" height="1000px" viewBox="0 0 1000 1000" enable-background="new 0 0 1000 1000" xml:space="preserve">
<path d="M967.2,23.9c-26-20.6-63.7-16.3-84.3,9.7L380.1,667.2c29.4,6.7,55.8,17.2,78.7,31.6c11.2,7,21.5,14.8,30.8,23.5l487.3-614
	C997.5,82.2,993.2,44.5,967.2,23.9z"/>
<path d="M22.6,973.4C22.6,973.4,22.6,973.4,22.6,973.4c28,0,55.8-0.2,79.4-0.4c13.5-0.1,98.5-53.3,111-53.6c0,0,0.1,0,0.1,0
	c13.3,0-22.2,52.1-10.2,52.1c0,0,0.1,0,0.1,0c156.4-4.6,209-18,253.9-49c37.2-25.8,47.1-101.4-4.8-153
	c-23.9-23.8-61-42.4-114.6-48.7c-12.8-1.5-26.4-2.3-41.1-2.3c-177.7,0-262.9,182.7-284.9,238.8C8.5,965,14.3,973.4,22.6,973.4z"/>
</svg>
