<?xml version="1.0" encoding="utf-8"?>
<!-- Generator: Adobe Illustrator 18.0.0, SVG Export Plug-In . SVG Version: 6.00 Build 0)  -->
<!DOCTYPE svg PUBLIC "-//W3C//DTD SVG 1.1//EN" "http://www.w3.org/Graphics/SVG/1.1/DTD/svg11.dtd">
<svg version="1.1" id="Capa_1" xmlns="http://www.w3.org/2000/svg" xmlns:xlink="http://www.w3.org/1999/xlink" x="0px" y="0px"
	 width="1000px" height="1000px" viewBox="0 0 1000 1000" enable-background="new 0 0 1000 1000" xml:space="preserve">
<path d="M556.6,428v-58h-80v58v30v30h-6.3c-33.1,0-60,26.9-60,60v375.9c0,33.1,26.9,60,60,60h93.5c33.1,0,60-26.9,60-60V548
	c0-33.1-26.9-60-60-60h-7.3v-30V428z"/>
<path d="M861.5,250.2v-171c0-33-26.8-59.8-59.8-59.8H348.8c-26.4,0-49.8,17.4-57.3,42.7c-18.7,63.2-89.9,136-179,192.5
	c-25.4,16.1-14,55.3,16,55.3h348.1h80h245C834.7,310,861.5,283.2,861.5,250.2z"/>
</svg>
