<?xml version="1.0" encoding="utf-8"?>
<!-- Generator: Adobe Illustrator 18.0.0, SVG Export Plug-In . SVG Version: 6.00 Build 0)  -->
<!DOCTYPE svg PUBLIC "-//W3C//DTD SVG 1.1//EN" "http://www.w3.org/Graphics/SVG/1.1/DTD/svg11.dtd">
<svg version="1.1" id="Capa_1" xmlns="http://www.w3.org/2000/svg" xmlns:xlink="http://www.w3.org/1999/xlink" x="0px" y="0px"
	 width="1000px" height="1000px" viewBox="0 0 1000 1000" enable-background="new 0 0 1000 1000" xml:space="preserve">
<path d="M759,154.9c-3.8-8.3-8.6-16-14.4-23C726.2,109.7,699.4,97,671,97h-34.5c-7.5-17-17.9-32.3-31.1-45.5
	c-13.7-13.7-29.6-24.4-47.4-31.9C539.7,11.9,520.2,8,500.1,8s-39.6,3.9-58,11.7c-17.8,7.5-33.7,18.2-47.4,31.9
	C381.6,64.7,371.1,80,363.6,97h-34.5c-26.6,0-53,11.3-72.5,30.9c-7.9,8-14.5,17.1-19.5,27h-33.3c-33.1,0-60,26.9-60,60v703.1
	c0,33.1,26.9,60,60,60h593.1c33.1,0,60-26.9,60-60V214.9c0-33.1-26.9-60-60-60H759z M500.1,68c48.5,0,87.9,38.9,89,86.9
	c0,0.7,0,1.4,0,2.1H671c22.4,0,38,20.5,38,43.9V215c0,23.4-15.6,41-38,41H329.1c-22.4,0-43.1-17.7-43.1-41v-14.1
	c0-23.4,20.8-43.9,43.1-43.9h81.9c0-0.7,0-1.4,0-2.1C412.2,106.9,451.6,68,500.1,68z"/>
</svg>
