<?xml version="1.0" encoding="utf-8"?>
<!-- Generator: Adobe Illustrator 18.0.0, SVG Export Plug-In . SVG Version: 6.00 Build 0)  -->
<!DOCTYPE svg PUBLIC "-//W3C//DTD SVG 1.1//EN" "http://www.w3.org/Graphics/SVG/1.1/DTD/svg11.dtd">
<svg version="1.1" id="Capa_1" xmlns="http://www.w3.org/2000/svg" xmlns:xlink="http://www.w3.org/1999/xlink" x="0px" y="0px"
	 width="1000px" height="1000px" viewBox="0 0 1000 1000" enable-background="new 0 0 1000 1000" xml:space="preserve">
<path d="M703.5,985c38.7,0,70-31.3,70-70V164.1h143c38.7,0,70-31.3,70-70s-31.3-70-70-70h-213H452H263.4c-66,0-128,25.7-174.6,72.3
	c-46.6,46.6-72.3,108.7-72.3,174.6s25.7,128,72.3,174.6c46.6,46.6,108.7,72.3,174.6,72.3H382V915c0,38.7,31.3,70,70,70
	s70-31.3,70-70V449c0-0.3,0-0.6,0-1s0-0.6,0-1v-283h111.5V915C633.5,953.7,664.8,985,703.5,985z M382,378.1H263.4
	c-59,0-107-48-107-107s48-107,107-107H382V378.1z"/>
</svg>
