<?xml version="1.0" encoding="utf-8"?>
<!-- Generator: Adobe Illustrator 18.0.0, SVG Export Plug-In . SVG Version: 6.00 Build 0)  -->
<!DOCTYPE svg PUBLIC "-//W3C//DTD SVG 1.1//EN" "http://www.w3.org/Graphics/SVG/1.1/DTD/svg11.dtd">
<svg version="1.1" id="Capa_1" xmlns="http://www.w3.org/2000/svg" xmlns:xlink="http://www.w3.org/1999/xlink" x="0px" y="0px"
	 width="1000px" height="1000px" viewBox="0 0 1000 1000" enable-background="new 0 0 1000 1000" xml:space="preserve">
<path d="M947.7,132.8l-140.6-107C767.6-4.4,711.1,3.3,681,42.9L350.2,477.4c-24.8-7.7-50.7-11.6-76.9-11.6
	c-11.8,0-23.7,0.8-35.4,2.4c-69.2,9.4-130.7,45.2-173,100.8C22.6,624.5,4.5,693.2,13.8,762.5c8.6,63.1,39.7,120.8,87.8,162.5
	c47.6,41.3,108.4,64,171.2,64c0,0,0,0,0,0c11.8,0,23.7-0.8,35.4-2.4c69.2-9.4,130.7-45.2,173-100.8s60.5-124.3,51.1-193.6
	c-5.2-38-18.5-74-38.8-105.8l125.6-165l70.8,53.9c16.3,12.4,35.4,18.4,54.4,18.4c27.1,0,54-12.2,71.7-35.5
	c30.1-39.6,22.5-96-17.1-126.1l-70.8-53.9l41.6-54.7l69,52.5c16.3,12.4,35.4,18.4,54.4,18.4c27.1,0,54-12.2,71.7-35.5
	C994.9,219.3,987.3,162.9,947.7,132.8z M284,808.2c-3.7,0.5-7.5,0.8-11.2,0.8c-40.5,0-75.2-30.4-80.6-70.6c0-0.4-0.1-0.7-0.1-1.1
	c-5.4-44.2,25.8-84.7,70-90.7c3.7-0.5,7.5-0.8,11.2-0.8c40.5,0,75.2,30.4,80.6,70.6c2.9,21.6-2.7,43-15.9,60.4
	c-13,17.1-31.8,28.2-53.1,31.3C284.6,808.1,284.3,808.1,284,808.2z"/>
</svg>
