<?xml version="1.0" encoding="utf-8"?>
<!-- Generator: Adobe Illustrator 18.0.0, SVG Export Plug-In . SVG Version: 6.00 Build 0)  -->
<!DOCTYPE svg PUBLIC "-//W3C//DTD SVG 1.1//EN" "http://www.w3.org/Graphics/SVG/1.1/DTD/svg11.dtd">
<svg version="1.1" id="Layer_1" xmlns="http://www.w3.org/2000/svg" xmlns:xlink="http://www.w3.org/1999/xlink" x="0px" y="0px"
	 width="128px" height="128px" viewBox="0 0 128 128" enable-background="new 0 0 128 128" xml:space="preserve">
<path d="M111.5,12.1C96-1.3,72.5-1.4,57,12C45.2,22.2,40.5,37.2,43.1,51.2c0.7,3.9-0.4,7.9-3.2,10.7L6,95.7
	c-5.4,5.4-5.4,14.2,0,19.5l6.8,6.7c5.1,5.1,14,5.9,18.4,0.7c0.4-0.5,0.7-1.3,0.7-2V112c0-1.7,1.3-3,3-3h7c1.7,0,3-1.4,3-3v-6
	c0-1.7,1.3-3,3-3h7c1.7,0,3-1.4,3-3v-8.2c0-1.6,1.3-3,2.9-3c9.6-0.2,18.8,2.8,28.4,2.2c9.3-0.6,18-5.1,24.5-11.6
	C130.8,56.3,130.1,28.2,111.5,12.1z M96.4,56c-7,7-18.4,7-25.5,0c-7-7-7-18.4,0-25.5c7-7,18.4-7,25.5,0C103.4,37.6,103.4,49,96.4,56
	z"/>
</svg>
