<?xml version="1.0" encoding="utf-8"?>
<!-- Generator: Adobe Illustrator 18.0.0, SVG Export Plug-In . SVG Version: 6.00 Build 0)  -->
<!DOCTYPE svg PUBLIC "-//W3C//DTD SVG 1.1//EN" "http://www.w3.org/Graphics/SVG/1.1/DTD/svg11.dtd">
<svg version="1.1" id="Capa_1" xmlns="http://www.w3.org/2000/svg" xmlns:xlink="http://www.w3.org/1999/xlink" x="0px" y="0px"
	 width="128px" height="128px" viewBox="0 0 128 128" enable-background="new 0 0 128 128" xml:space="preserve">
<path d="M118.2,125.9c3.3,0,6-2.7,6-6V7.4c0-3.3-2.7-6-6-6h-36c-3.3,0-6,2.7-6,6v112.5c0,3.3,2.7,6,6,6H118.2z"/>
<path d="M46,125.9c3.3,0,6-2.7,6-6V7.4c0-3.3-2.7-6-6-6H10c-3.3,0-6,2.7-6,6v112.5c0,3.3,2.7,6,6,6H46z"/>
</svg>
