<?xml version="1.0" encoding="utf-8"?>
<!-- Generator: Adobe Illustrator 18.0.0, SVG Export Plug-In . SVG Version: 6.00 Build 0)  -->
<!DOCTYPE svg PUBLIC "-//W3C//DTD SVG 1.1//EN" "http://www.w3.org/Graphics/SVG/1.1/DTD/svg11.dtd">
<svg version="1.1" id="Capa_1" xmlns="http://www.w3.org/2000/svg" xmlns:xlink="http://www.w3.org/1999/xlink" x="0px" y="0px"
	 width="1000px" height="1000px" viewBox="0 0 1000 1000" enable-background="new 0 0 1000 1000" xml:space="preserve">
<path d="M61.8,972.1L245.1,912c6.7-2.2,12.8-5.9,17.7-10.9L692.4,469L521.3,297.8l-428.5,431c-5.6,5.7-9.6,12.8-11.6,20.6L32,944.4
	C27.6,961.9,44.6,977.8,61.8,972.1z"/>
<path d="M945.2,130.3l-86.6-86.6c-20.9-20.9-63.3-21.2-83.8-0.8L563.6,255.3l171.2,171.2l66.5-66.9l32.4,32.6
	c7.8,7.8,7.7,20.5,0,28.3l-52.5,52.4l-42.5,42.4L560.8,692.7c-15.6,15.6-15.7,40.9-0.1,56.6c7.8,7.8,18.1,11.7,28.3,11.7
	c10.2,0,20.4-3.9,28.3-11.7L890.2,477c39-38.9,39.1-102.3,0.2-141.3l-32.7-32.9l88.2-88.7C966.4,193.6,966.1,151.2,945.2,130.3z"/>
</svg>
