<?xml version="1.0" encoding="utf-8"?>
<!-- Generator: Adobe Illustrator 18.0.0, SVG Export Plug-In . SVG Version: 6.00 Build 0)  -->
<!DOCTYPE svg PUBLIC "-//W3C//DTD SVG 1.1//EN" "http://www.w3.org/Graphics/SVG/1.1/DTD/svg11.dtd">
<svg version="1.1" id="Capa_1" xmlns="http://www.w3.org/2000/svg" xmlns:xlink="http://www.w3.org/1999/xlink" x="0px" y="0px"
	 width="1000px" height="1000px" viewBox="0 0 1000 1000" enable-background="new 0 0 1000 1000" xml:space="preserve">
<path d="M296,985.5h624.5c33.3,0,60.2-27,60.2-60.2v-526c0-24.9-20.1-45-45-45H675.2c-24.9,0-45-20.1-45-45V56.1
	c0-24.9-20.1-45-45-45H296c-33.3,0-60.2,27-60.2,60.2v77.2l404.1,401.3c10.6,10.6,18.7,23.7,23.4,37.9L711,733.4
	c4,12.2,4.9,25.2,2.7,37.8c-2,11.6-6.8,22.9-13.8,32.5c-14.8,20.4-38.5,32.6-63.5,32.6c-6.4,0-12.9-0.8-19.1-2.4l-154.9-39
	c-16.6-4.2-31.9-12.8-44-24.8L235.7,588.7v336.5C235.7,958.5,262.7,985.5,296,985.5z"/>
<path d="M960.8,285.7c17.8,0,26.7-21.5,14.1-34.1L740.3,16.9c-12.6-12.6-34.1-3.7-34.1,14.1v234.6c0,11.1,9,20.1,20.1,20.1H960.8z"
	/>
<path d="M132.6,151.1c-12.7,0-25.5,4.2-33.9,12.6l-68.8,68.8c-16.6,16.6-16.9,50.3-0.6,66.6l60,59.6l136-136l-60-59.6
	C157.2,155.1,145,151.1,132.6,151.1z"/>
<polygon points="429.6,696.7 565.6,560.7 267.9,265 235.7,297.2 131.9,401 235.7,504.2 "/>
<path d="M632,775.8c1.5,0.4,3,0.6,4.5,0.6c12,0,21.5-12,17.6-24.2l-47.8-145.7c-0.1-0.4-0.3-0.8-0.4-1.1L475,736.2
	c0.7,0.2,1.4,0.4,2,0.6L632,775.8z"/>
</svg>
