<?xml version="1.0" encoding="utf-8"?>
<!-- Generator: Adobe Illustrator 18.0.0, SVG Export Plug-In . SVG Version: 6.00 Build 0)  -->
<!DOCTYPE svg PUBLIC "-//W3C//DTD SVG 1.1//EN" "http://www.w3.org/Graphics/SVG/1.1/DTD/svg11.dtd">
<svg version="1.1" id="Capa_1" xmlns="http://www.w3.org/2000/svg" xmlns:xlink="http://www.w3.org/1999/xlink" x="0px" y="0px"
	 width="128px" height="128px" viewBox="0 0 128 128" enable-background="new 0 0 128 128" xml:space="preserve">
<polygon points="38,111.2 105.5,43.3 83.3,21.1 15.8,89 "/>
<path d="M113.9,34.8l9.8-9.9c2.7-2.7,2.7-7.1,0-9.8L111.4,2.7c-2.7-2.7-7.1-2.7-9.8,0l-9.8,9.9L113.9,34.8z"/>
<path d="M9.1,96.9l-6.7,25.6c-0.6,2.3,1.6,4.4,3.9,3.6l24.1-8.1c0.1,0,0.1-0.1,0.2-0.1L9.2,96.6C9.1,96.7,9.1,96.8,9.1,96.9z"/>
</svg>
