<?xml version="1.0" encoding="utf-8"?>
<!-- Generator: Adobe Illustrator 18.0.0, SVG Export Plug-In . SVG Version: 6.00 Build 0)  -->
<!DOCTYPE svg PUBLIC "-//W3C//DTD SVG 1.1//EN" "http://www.w3.org/Graphics/SVG/1.1/DTD/svg11.dtd">
<svg version="1.1" id="Capa_1" xmlns="http://www.w3.org/2000/svg" xmlns:xlink="http://www.w3.org/1999/xlink" x="0px" y="0px"
	 width="1000px" height="1000px" viewBox="0 0 1000 1000" enable-background="new 0 0 1000 1000" xml:space="preserve">
<path d="M654.9,903H529.4v22c0,33.1,26.9,60,60,60h234.6c33.1,0,60-26.9,60-60V73c0-33.1-26.9-60-60-60H589.4c-33.1,0-60,26.9-60,60
	v22h125.5c16.6,0,30,13.4,30,30s-13.4,30-30,30H529.4v60.7H593c16.6,0,30,13.4,30,30s-13.4,30-30,30h-63.6v66H593
	c16.6,0,30,13.4,30,30s-13.4,30-30,30h-63.6v66h125.5c16.6,0,30,13.4,30,30s-13.4,30-30,30H529.4v64.6H593c16.6,0,30,13.4,30,30
	s-13.4,30-30,30h-63.6v66H593c16.6,0,30,13.4,30,30s-13.4,30-30,30h-63.6V843h125.5c16.6,0,30,13.4,30,30S671.5,903,654.9,903z"/>
<polygon points="367,203.2 174.6,203.2 176.3,783.4 368.6,783.4 "/>
<path d="M319.1,12h-97.3c-23.5,0-47.5,23.6-47.5,46.6l0.2,84.6h192.3l-0.2-84.6C366.5,35.6,342.5,12,319.1,12z"/>
<path d="M263.4,982.4c7.4,12.3,25.8,11.7,32.3-1.1l69.2-136.8c0.2-0.4,0.3-0.7,0.5-1.1h-185c0.3,0.6,0.7,1.3,1,1.9L263.4,982.4z"/>
</svg>
