<?xml version="1.0" encoding="utf-8"?>
<!-- Generator: Adobe Illustrator 18.0.0, SVG Export Plug-In . SVG Version: 6.00 Build 0)  -->
<!DOCTYPE svg PUBLIC "-//W3C//DTD SVG 1.1//EN" "http://www.w3.org/Graphics/SVG/1.1/DTD/svg11.dtd">
<svg version="1.1" id="Capa_1" xmlns="http://www.w3.org/2000/svg" xmlns:xlink="http://www.w3.org/1999/xlink" x="0px" y="0px"
	 width="1000px" height="1000px" viewBox="0 0 1000 1000" enable-background="new 0 0 1000 1000" xml:space="preserve">
<path d="M648.1,901.3H522.6v22c0,33.1,26.9,60,60,60l234.6,0c33.1,0,60-26.9,60-60v-852c0-33.1-26.9-60-60-60H582.6
	c-33.1,0-60,26.9-60,60v22h125.5c16.6,0,30,13.4,30,30s-13.4,30-30,30H522.6V214h63.6c16.6,0,30,13.4,30,30s-13.4,30-30,30h-63.6v66
	h63.6c16.6,0,30,13.4,30,30s-13.4,30-30,30h-63.6v66h125.5c16.6,0,30,13.4,30,30s-13.4,30-30,30H522.6v64.6h63.6
	c16.6,0,30,13.4,30,30s-13.4,30-30,30h-63.6v66h63.6c16.6,0,30,13.4,30,30s-13.4,30-30,30h-63.6v64.6h125.5c16.6,0,30,13.4,30,30
	S664.7,901.3,648.1,901.3z"/>
<path d="M256.7,980.8c7.4,12.3,25.8,11.7,32.3-1.1l69.2-136.8c0.2-0.4,0.3-0.7,0.5-1.1h-185c0.3,0.6,0.7,1.3,1,1.9L256.7,980.8z"/>
<path d="M312.3,10.3H215c-23.5,0-47.5,23.6-47.5,46.6l0.2,84.6H360L359.8,57C359.8,34,335.8,10.3,312.3,10.3z"/>
<polygon points="360.2,201.6 167.9,201.6 169.5,781.8 361.9,781.8 "/>
</svg>
