<?xml version="1.0" encoding="utf-8"?>
<!-- Generator: Adobe Illustrator 18.0.0, SVG Export Plug-In . SVG Version: 6.00 Build 0)  -->
<!DOCTYPE svg PUBLIC "-//W3C//DTD SVG 1.1//EN" "http://www.w3.org/Graphics/SVG/1.1/DTD/svg11.dtd">
<svg version="1.1" id="Capa_1" xmlns="http://www.w3.org/2000/svg" xmlns:xlink="http://www.w3.org/1999/xlink" x="0px" y="0px"
	 width="1000px" height="1000px" viewBox="0 0 1000 1000" enable-background="new 0 0 1000 1000" xml:space="preserve">
<path d="M934,115.5H66c-33.1,0-60,26.9-60,60v649c0,33.1,26.9,60,60,60h868c33.1,0,60-26.9,60-60v-649
	C994,142.4,967.1,115.5,934,115.5z M476.5,677.7c0,24.4-85.8,44.2-192.5,44.7c-106.7-0.5-192.5-20.3-192.5-44.7v-93.2
	c0-32.5,26.3-58.8,58.8-58.8h62.3c14,0,18.9-11.9,16.2-24.1c-3.2-14.4-16.3-23.2-25.6-33.6c-22.5-25.3-39.7-55.3-39.7-90
	c0-66.5,53.9-120.4,120.4-120.4c0.1,0,0.2,0,0.2,0c0.1,0,0.2,0,0.2,0c66.5,0,120.4,53.9,120.4,120.4c0,34.7-17.2,64.7-39.7,90
	c-9.3,10.4-22.5,19.3-25.6,33.6c-2.7,12.3,2.1,24.1,16.2,24.1h62.3c32.5,0,58.8,26.3,58.8,58.8V677.7z M865.4,648.5h-264
	c-22.1,0-40-17.9-40-40s17.9-40,40-40h264c22.1,0,40,17.9,40,40S887.5,648.5,865.4,648.5z M865.4,411.5h-264c-22.1,0-40-17.9-40-40
	s17.9-40,40-40h264c22.1,0,40,17.9,40,40S887.5,411.5,865.4,411.5z"/>
</svg>
