<?xml version="1.0" encoding="utf-8"?>
<!-- Generator: Adobe Illustrator 18.0.0, SVG Export Plug-In . SVG Version: 6.00 Build 0)  -->
<!DOCTYPE svg PUBLIC "-//W3C//DTD SVG 1.1//EN" "http://www.w3.org/Graphics/SVG/1.1/DTD/svg11.dtd">
<svg version="1.1" id="Layer_1" xmlns="http://www.w3.org/2000/svg" xmlns:xlink="http://www.w3.org/1999/xlink" x="0px" y="0px"
	 width="128px" height="128px" viewBox="0 0 128 128" enable-background="new 0 0 128 128" xml:space="preserve">
<path d="M20.1,53H2v51.4c0,3.1,2.5,5.6,5.6,5.6h112c3.5,0,6.4-2.9,6.4-6.4V34.1c0-3.4-2.7-6.1-6.1-6.1H91.1c-3,0-5.5-2.2-5.9-5.1
	l-1-6.6c-0.5-2.9-3-5.3-5.9-5.3H49.5c-3,0-5.5,2.3-5.9,5.3l-1,6.6c-0.4,2.9-3,5.1-5.9,5.1H8c-3.3,0-6,2.7-6,6v5h18.1
	c3.8,0,6.9,3.1,6.9,6.9v0.1C27,49.9,23.9,53,20.1,53z M110,39.2c3.9,0,7,3.1,7,7c0,3.9-3.1,7-7,7s-7-3.1-7-7
	C103,42.4,106.1,39.2,110,39.2z M64.3,41.7c16.6,0,30,13.4,30,30s-13.4,30-30,30c-16.6,0-30-13.4-30-30S47.8,41.7,64.3,41.7z"/>
<circle cx="64" cy="71.7" r="15"/>
</svg>
