<?xml version="1.0" encoding="utf-8"?>
<!-- Generator: Adobe Illustrator 18.0.0, SVG Export Plug-In . SVG Version: 6.00 Build 0)  -->
<!DOCTYPE svg PUBLIC "-//W3C//DTD SVG 1.1//EN" "http://www.w3.org/Graphics/SVG/1.1/DTD/svg11.dtd">
<svg version="1.1" id="Capa_1" xmlns="http://www.w3.org/2000/svg" xmlns:xlink="http://www.w3.org/1999/xlink" x="0px" y="0px"
	 width="1000px" height="1000px" viewBox="0 0 1000 1000" enable-background="new 0 0 1000 1000" xml:space="preserve">
<path d="M798.7,213.3H201.3c-33.1,0-60,26.9-60,60v453.3c0,33.1,26.9,60,60,60h597.4c33.1,0,60-26.9,60-60V273.3
	C858.7,240.2,831.8,213.3,798.7,213.3z"/>
<path d="M45.5,252.3C22,252.3,3,271.4,3,294.8v410.3c0,23.5,19,42.5,42.5,42.5s42.5-19,42.5-42.5V294.8
	C88,271.4,69,252.3,45.5,252.3z"/>
<path d="M954.5,250.1c-23.5,0-42.5,19-42.5,42.5v410.3c0,23.5,19,42.5,42.5,42.5s42.5-19,42.5-42.5V292.6
	C997,269.1,978,250.1,954.5,250.1z"/>
</svg>
