<?xml version="1.0" encoding="utf-8"?>
<!-- Generator: Adobe Illustrator 18.0.0, SVG Export Plug-In . SVG Version: 6.00 Build 0)  -->
<!DOCTYPE svg PUBLIC "-//W3C//DTD SVG 1.1//EN" "http://www.w3.org/Graphics/SVG/1.1/DTD/svg11.dtd">
<svg version="1.1" id="Capa_1" xmlns="http://www.w3.org/2000/svg" xmlns:xlink="http://www.w3.org/1999/xlink" x="0px" y="0px"
	 width="1000px" height="1000px" viewBox="0 0 1000 1000" enable-background="new 0 0 1000 1000" xml:space="preserve">
<path d="M989.7,306.5c0-33.1-26.9-60-60-60H852v470.2c0,17.5-3.4,34.6-10.2,50.6c-6.6,15.5-15.9,29.4-27.8,41.3
	c-11.9,11.9-25.8,21.3-41.3,27.8c-16.1,6.8-33.1,10.2-50.6,10.2H250.6v78.9c0,33.1,26.9,60,60,60h619.1c33.1,0,60-26.9,60-60V306.5z
	"/>
<path d="M11.4,579.4h239.2H782V246.5V66.1c0-33.1-26.9-60-60-60H71.4c-33.1,0-60,26.9-60,60V579.4z M92.7,417.9l200.7-255.3
	c16-20.4,46.9-20.4,62.9,0l65.9,83.9l80.7,102.6l40.4-51.4c16-20.4,46.9-20.4,62.9,0l94.5,120.2c15.5,19.7,1.5,48.5-23.6,48.5h-82
	H410.7H250.6H116.3C91.3,466.4,77.3,437.6,92.7,417.9z"/>
<path d="M11.4,716.7c0,33.1,26.9,60,60,60h179.2H722c33.1,0,60-26.9,60-60v-57.3H250.6H11.4V716.7z"/>
</svg>
