<?xml version="1.0" encoding="utf-8"?>
<!-- Generator: Adobe Illustrator 18.0.0, SVG Export Plug-In . SVG Version: 6.00 Build 0)  -->
<!DOCTYPE svg PUBLIC "-//W3C//DTD SVG 1.1//EN" "http://www.w3.org/Graphics/SVG/1.1/DTD/svg11.dtd">
<svg version="1.1" id="Capa_1" xmlns="http://www.w3.org/2000/svg" xmlns:xlink="http://www.w3.org/1999/xlink" x="0px" y="0px"
	 width="128px" height="128px" viewBox="0 0 128 128" enable-background="new 0 0 128 128" xml:space="preserve">
<path d="M61.1,121.7c0.8,3,5,3,5.8,0l10.7-41.2H50.4L61.1,121.7z"/>
<path d="M100.6,8.1c0.7-3.7-2.1-7.1-5.9-7.1H33.3c-3.8,0-6.6,3.4-5.9,7.1c1.3,6.6,4.3,12.7,8.6,17.6v20.1
	c-4.3,4.9-7.4,10.9-8.6,17.6c-0.7,3.7,2.1,7.1,5.9,7.1h18h25.4h18c3.8,0,6.6-3.4,5.9-7.1c-1.3-6.6-4.3-12.7-8.6-17.6V25.7
	C96.3,20.8,99.4,14.8,100.6,8.1z"/>
</svg>
