<?xml version="1.0" encoding="utf-8"?>
<!-- Generator: Adobe Illustrator 18.0.0, SVG Export Plug-In . SVG Version: 6.00 Build 0)  -->
<!DOCTYPE svg PUBLIC "-//W3C//DTD SVG 1.1//EN" "http://www.w3.org/Graphics/SVG/1.1/DTD/svg11.dtd">
<svg version="1.1" id="Capa_1" xmlns="http://www.w3.org/2000/svg" xmlns:xlink="http://www.w3.org/1999/xlink" x="0px" y="0px"
	 width="1000px" height="1000px" viewBox="0 0 1000 1000" enable-background="new 0 0 1000 1000" xml:space="preserve">
<path d="M66.6,964.5l266.9-186.4l-59.2-59.2l-0.1-0.1l-0.1-0.1l0,0l0,0l-59.5-59.5L28.1,926.1C10.5,951.4,41.3,982.2,66.6,964.5z"/>
<path d="M120.3,465.9l135,135l68.3,68.3l0.1,0.1l0.1,0.1l68,68l135.3,135.3c6.4,6.4,14.6,9.4,22.7,9.4c11.4,0,22.6-6,28.5-17.1
	c44.6-83.6,124.4-255.1,286.4-434l21.2,21.2c1.2,1.2,2.4,2.3,3.7,3.4c9.2,7.5,20.4,11.3,31.6,11.3c1.9,0,3.9-0.1,5.8-0.3
	c10.8-1.3,21.3-6,29.6-14.3c14.4-14.4,18.2-35.5,11.3-53.4c-2.4-6.3-6.2-12.2-11.3-17.3l-19.6-19.6l-306-306l-19.6-19.6
	c-5.1-5.1-11-8.8-17.3-11.3c-17.9-6.9-39-3.2-53.4,11.3c-8.3,8.3-13,18.8-14.3,29.6c-1.5,13.1,2.1,26.7,10.9,37.4
	c1,1.3,2.2,2.5,3.4,3.7l21.2,21.2C383.1,290.2,211.5,370,128,414.6C108.9,424.8,105,450.5,120.3,465.9z"/>
</svg>
