<?xml version="1.0" encoding="utf-8"?>
<!-- Generator: Adobe Illustrator 18.0.0, SVG Export Plug-In . SVG Version: 6.00 Build 0)  -->
<!DOCTYPE svg PUBLIC "-//W3C//DTD SVG 1.1//EN" "http://www.w3.org/Graphics/SVG/1.1/DTD/svg11.dtd">
<svg version="1.1" id="Layer_1" xmlns="http://www.w3.org/2000/svg" xmlns:xlink="http://www.w3.org/1999/xlink" x="0px" y="0px"
	 width="128px" height="128px" viewBox="0 0 128 128" enable-background="new 0 0 128 128" xml:space="preserve">
<path d="M64,4.7c-24.6,0-44.5,19.9-44.5,44.5c0,12.8,6.4,24.4,12.7,35.1C39.9,97.6,49.1,110,59.8,121c2.3,2.4,6.1,2.4,8.5,0
	c9.4-9.3,17.7-19.8,24.7-31c7.5-12.1,15.6-26.1,15.6-40.8C108.5,24.7,88.6,4.7,64,4.7z M64,75c-14.9,0-27-12.1-27-27s12.1-27,27-27
	S91,33,91,48S78.9,75,64,75z"/>
</svg>
