<?xml version="1.0" encoding="utf-8"?>
<!-- Generator: Adobe Illustrator 18.0.0, SVG Export Plug-In . SVG Version: 6.00 Build 0)  -->
<!DOCTYPE svg PUBLIC "-//W3C//DTD SVG 1.1//EN" "http://www.w3.org/Graphics/SVG/1.1/DTD/svg11.dtd">
<svg version="1.1" id="Layer_1" xmlns="http://www.w3.org/2000/svg" xmlns:xlink="http://www.w3.org/1999/xlink" x="0px" y="0px"
	 width="128px" height="128px" viewBox="0 0 128 128" enable-background="new 0 0 128 128" xml:space="preserve">
<path d="M103.3,105h1.9c4.6,0,8.7-3.4,8.7-8V9.2c0-4.5-4.1-8.2-8.6-8.2H42.3C37.7,1,34,4.5,34,9c0,1.2,1,2,2.1,2h52.6
	c6.9,0,12.2,5.9,12.2,12.8v79.5C101,104.4,102.2,105,103.3,105z"/>
<path d="M38.2,20H20.1c-3.7,0-7.1,2.6-7.1,6.3v91.9c0,3.7,3.4,6.7,7.1,6.7h65.7c3.9,0,7.1-3.2,7.1-7.1v-16.7V26.9
	c0-4-3.3-6.9-7.4-6.9H38.2z M74,102.3c0,3.4-2.4,5.7-5.8,5.7H52.7H37.7c-3.7,0-6.8-2.8-6.8-6.6c0-3.7,3-6.4,6.7-6.4h0.6h14.5h14.5
	h0.5c3.7,0,6.4,3.1,6.4,6.8V102.3z M74,60.1c0,3.9-2.8,6.9-6.7,6.9h-6.8c-0.4,0-0.5,0.4-0.5,0.8v6.6c0,4-3.4,7.6-7.3,7.6h-0.5
	c-3.7,0-7.2-3.4-7.2-7.2v-7.1c0-0.4,0.1-0.8-0.2-0.8h-6.6h-0.3c-3.8,0-6.9-3-6.9-6.8v-0.8c0-3.7,3-6.4,6.7-6.4h0.5h6.6
	c0.4,0,0.2-0.6,0.2-1v-6.9c0-3.8,3.5-7.1,7.3-7.1h0.5c3.8,0,7.1,3.3,7.1,7.2V52c0,0.4,0.2,1,0.5,1h7.1c3.7,0,6.4,2.7,6.4,6.4V60.1z"
	/>
</svg>
