<?xml version="1.0" encoding="utf-8"?>
<!-- Generator: Adobe Illustrator 18.0.0, SVG Export Plug-In . SVG Version: 6.00 Build 0)  -->
<!DOCTYPE svg PUBLIC "-//W3C//DTD SVG 1.1//EN" "http://www.w3.org/Graphics/SVG/1.1/DTD/svg11.dtd">
<svg version="1.1" id="Capa_1" xmlns="http://www.w3.org/2000/svg" xmlns:xlink="http://www.w3.org/1999/xlink" x="0px" y="0px"
	 width="1000px" height="1000px" viewBox="0 0 1000 1000" enable-background="new 0 0 1000 1000" xml:space="preserve">
<path d="M968.1,849.9L770.7,652.5c13.7-20.7,25.4-42.7,35.2-65.8c21.4-50.7,32.3-104.5,32.3-160s-10.9-109.3-32.3-160
	c-20.7-48.9-50.3-92.9-88-130.6c-37.7-37.7-81.7-67.3-130.6-88c-50.7-21.4-104.5-32.3-160-32.3S318,26.6,267.3,48.1
	c-48.9,20.7-92.9,50.3-130.6,88c-37.7,37.7-67.3,81.7-88,130.6c-21.4,50.7-32.3,104.5-32.3,160s10.9,109.3,32.3,160
	c20.7,48.9,50.3,92.9,88,130.6s81.7,67.3,130.6,88c50.7,21.4,104.5,32.3,160,32.3s109.3-10.9,160-32.3c23.1-9.8,45.1-21.6,65.8-35.2
	l197.4,197.4c23.4,23.4,61.4,23.4,84.9,0l32.7-32.7C991.5,911.3,991.5,873.3,968.1,849.9z M239.6,501.7c-41.4,0-75-33.6-75-75
	s33.6-75,75-75h112.7V239c0-41.4,33.6-75,75-75s75,33.6,75,75v112.7H615c41.4,0,75,33.6,75,75s-33.6,75-75,75H502.3v112.7
	c0,41.4-33.6,75-75,75s-75-33.6-75-75V501.7H239.6z"/>
</svg>
