<?xml version="1.0" encoding="utf-8"?>
<!-- Generator: Adobe Illustrator 18.0.0, SVG Export Plug-In . SVG Version: 6.00 Build 0)  -->
<!DOCTYPE svg PUBLIC "-//W3C//DTD SVG 1.1//EN" "http://www.w3.org/Graphics/SVG/1.1/DTD/svg11.dtd">
<svg version="1.1" id="Capa_1" xmlns="http://www.w3.org/2000/svg" xmlns:xlink="http://www.w3.org/1999/xlink" x="0px" y="0px"
	 width="1000px" height="1000px" viewBox="0 0 1000 1000" enable-background="new 0 0 1000 1000" xml:space="preserve">
<path d="M980,336.6v-267c0-33.1-26.9-60-60-60H80c-33.1,0-60,26.9-60,60v267c0,12.3,3.8,24.4,10.9,34.5l391.5,602.1
	c8.1,12.5,27.6,6.8,27.6-8.2V390.5c-36.8-18.4-62-56.4-62-100.2c0-61.6,49.7-111.5,111.1-112c61.9-0.5,112.9,50.1,112.9,112
	c0,43.9-25.2,81.9-62,100.2V965c0,14.9,19.4,20.7,27.6,8.2l391.5-602.1C976.2,361,980,348.9,980,336.6z"/>
</svg>
