<?xml version="1.0" encoding="utf-8"?>
<!-- Generator: Adobe Illustrator 18.0.0, SVG Export Plug-In . SVG Version: 6.00 Build 0)  -->
<!DOCTYPE svg PUBLIC "-//W3C//DTD SVG 1.1//EN" "http://www.w3.org/Graphics/SVG/1.1/DTD/svg11.dtd">
<svg version="1.1" id="Layer_1" xmlns="http://www.w3.org/2000/svg" xmlns:xlink="http://www.w3.org/1999/xlink" x="0px" y="0px"
	 width="128px" height="128px" viewBox="0 0 128 128" enable-background="new 0 0 128 128" xml:space="preserve">
<path d="M79,65h14.8c1.8,0,3.2-1.2,3.2-3V38h-6c0,0,0-17.9,0-17.9c0-4.6-4.3-9.1-9-9.1H64H46c-4.7,0-9,4.5-9,9.1V38h-6v24
	c0,1.8,1.4,3,3.2,3H49c0.1-4,3.4-7,7.2-7H64h7.8C75.6,58,78.9,61,79,65z M64,38H51V25h13h13v13H64z"/>
<polygon points="56,65 56,79 56,80 64,80 72,80 72,79 72,65 64,65 "/>
<path d="M8.2,121H64h55.8c3.4,0,6.2-3,6.2-6.5V44.3c0-3.4-2.8-6.3-6.2-6.3H111v24c0,9.5-7.7,17-17.2,17H79v0.9
	c0,3.9-3.4,7.1-7.2,7.1H64h-7.8c-3.9,0-7.2-3.2-7.2-7.1V79H34.2C24.7,79,17,71.5,17,62V38H8.2C4.8,38,2,40.8,2,44.3v70.3
	C2,118,4.8,121,8.2,121z"/>
</svg>
