<?xml version="1.0" encoding="utf-8"?>
<!-- Generator: Adobe Illustrator 18.0.0, SVG Export Plug-In . SVG Version: 6.00 Build 0)  -->
<!DOCTYPE svg PUBLIC "-//W3C//DTD SVG 1.1//EN" "http://www.w3.org/Graphics/SVG/1.1/DTD/svg11.dtd">
<svg version="1.1" id="Capa_1" xmlns="http://www.w3.org/2000/svg" xmlns:xlink="http://www.w3.org/1999/xlink" x="0px" y="0px"
	 width="1000px" height="1000px" viewBox="0 0 1000 1000" enable-background="new 0 0 1000 1000" xml:space="preserve">
<path d="M444.9,741.7c-16.5,0-30-13.5-30-30v-52.9h171.9v52.9c0,16.5-13.5,30-30,30H444.9z M646.8,658.7v53c0,49.6-40.4,90-90,90
	H444.9c-49.6,0-90-40.4-90-90v-53H80c-7.8,0-15.5-0.7-23-2.2v260.3c0,33.1,26.9,60,60,60h383h1.8h383c33.1,0,60-26.9,60-60V656.5
	c-7.5,1.4-15.2,2.2-23,2.2H646.8z M981.8,255.8v282.9c0,25-15.3,46.4-37,55.4c-7.1,2.9-14.9,4.6-23,4.6h-420H500H80
	c-8.2,0-15.9-1.6-23-4.6c-21.7-9-37-30.4-37-55.4V255.8c0-33.1,26.9-60,60-60h65.2c3.3-10.2,7.6-20.2,12.9-30
	c3.3-6.1,6.9-12.1,10.9-18.1c2.7-4,5.6-8,8.7-11.9c18.7-24.1,43.1-45.7,72.9-64.4C317.9,29.2,406.4,5.8,500,5.5v0c0.3,0,0.6,0,0.9,0
	c0.3,0,0.6,0,0.9,0v0c93.6,0.3,182.1,23.6,249.4,65.8c29.8,18.7,54.2,40.3,72.9,64.4c3,3.9,5.9,7.9,8.7,11.9c4,5.9,7.6,12,10.9,18.1
	c5.3,9.8,9.6,19.8,12.9,30h65.2C954.9,195.8,981.8,222.6,981.8,255.8z M768.7,195.8c-6.5-10.4-14.9-20.4-25.1-30
	c-10-9.4-21.6-18.3-34.9-26.6c-1.8-1.1-3.6-2.3-5.5-3.4c-54.3-32.3-125.8-50.1-202.3-50.3c-76.5,0.1-148,17.9-202.3,50.3
	c-1.8,1.1-3.7,2.2-5.5,3.4c-13.3,8.3-24.9,17.3-34.9,26.6c-10.2,9.6-18.6,19.6-25.1,30H768.7z"/>
</svg>
