<?xml version="1.0" encoding="utf-8"?>
<!-- Generator: Adobe Illustrator 18.0.0, SVG Export Plug-In . SVG Version: 6.00 Build 0)  -->
<!DOCTYPE svg PUBLIC "-//W3C//DTD SVG 1.1//EN" "http://www.w3.org/Graphics/SVG/1.1/DTD/svg11.dtd">
<svg version="1.1" id="Capa_1" xmlns="http://www.w3.org/2000/svg" xmlns:xlink="http://www.w3.org/1999/xlink" x="0px" y="0px"
	 width="1000px" height="1000px" viewBox="0 0 1000 1000" enable-background="new 0 0 1000 1000" xml:space="preserve">
<path d="M186.2,834.6c40.7,40.7,88.2,72.7,141,95.1c54.8,23.2,112.9,34.9,172.8,34.9s118-11.7,172.8-34.9
	c52.9-22.4,100.3-54.3,141-95.1c40.7-40.7,72.7-88.2,95.1-141c23.2-54.8,34.9-112.9,34.9-172.8s-11.7-118-34.9-172.8
	c-22.4-52.9-54.3-100.3-95.1-141c-40.7-40.7-88.2-72.7-141-95.1c-7.5-3.2-15.1-6.1-22.8-8.9v153.5c23.4,13.3,45.2,29.9,64.8,49.5
	c57.4,57.4,89,133.7,89,214.8s-31.6,157.4-89,214.8c-57.4,57.4-133.7,89-214.8,89s-157.4-31.6-214.8-89
	c-57.4-57.4-89-133.7-89-214.8s31.6-157.4,89-214.8c19.6-19.6,41.4-36.2,64.8-49.5V103c-7.6,2.8-15.2,5.7-22.8,8.9
	c-52.9,22.4-100.3,54.3-141,95.1c-40.7,40.7-72.7,88.2-95.1,141c-23.2,54.8-34.9,112.9-34.9,172.8s11.7,118,34.9,172.8
	C113.5,746.4,145.5,793.9,186.2,834.6z"/>
<path d="M500,523.9c38.7,0,70-31.3,70-70V225.1V82.5v-0.4c0-38.7-31.3-70-70-70s-70,31.3-70,70v0.4v142.6v228.9
	C430,492.6,461.3,523.9,500,523.9z"/>
</svg>
