<?xml version="1.0" encoding="utf-8"?>
<!-- Generator: Adobe Illustrator 18.0.0, SVG Export Plug-In . SVG Version: 6.00 Build 0)  -->
<!DOCTYPE svg PUBLIC "-//W3C//DTD SVG 1.1//EN" "http://www.w3.org/Graphics/SVG/1.1/DTD/svg11.dtd">
<svg version="1.1" id="Capa_1" xmlns="http://www.w3.org/2000/svg" xmlns:xlink="http://www.w3.org/1999/xlink" x="0px" y="0px"
	 width="128px" height="128px" viewBox="0 0 128 128" enable-background="new 0 0 128 128" xml:space="preserve">
<path d="M28.4,121.3c-0.6,1.9,0.8,3.9,2.9,3.9h65.5c1.9,0,3.4-1.8,2.9-3.7c-2.8-11.1-17.9-14.1-17.9-14.1l4.9-49.6H41.2l4.9,49.6
	C46.1,107.4,31.7,111.5,28.4,121.3z"/>
<path d="M44.1,13.6c0-2.8-2.2-5-5-5s-5,2.2-5,5v2.5v5v5H20.9c-3.3,0-6,2.7-6,6v9.8c0,3.3,2.7,6,6,6h19.3h47.6h19.3c3.3,0,6-2.7,6-6
	v-9.8c0-3.3-2.7-6-6-6H90H49.8c1-1.7,2.2-3.4,3.6-5c1.5-1.9,3.2-3.6,5.1-5c3-2.3,6.5-3.8,10.5-3.8c2.8,0,5-2.2,5-5s-2.2-5-5-5
	c-10.9,0-18.9,6.5-24.5,13.8c-0.1,0.2-0.4,0.5-0.4,0.5V13.6z"/>
</svg>
