<?xml version="1.0" encoding="utf-8"?>
<!-- Generator: Adobe Illustrator 18.0.0, SVG Export Plug-In . SVG Version: 6.00 Build 0)  -->
<!DOCTYPE svg PUBLIC "-//W3C//DTD SVG 1.1//EN" "http://www.w3.org/Graphics/SVG/1.1/DTD/svg11.dtd">
<svg version="1.1" id="Capa_1" xmlns="http://www.w3.org/2000/svg" xmlns:xlink="http://www.w3.org/1999/xlink" x="0px" y="0px"
	 width="1000px" height="1000px" viewBox="0 0 1000 1000" enable-background="new 0 0 1000 1000" xml:space="preserve">
<path d="M759.9,200.5c0-30.5-12.1-59.8-33.7-81.4L651.1,44c-21.6-21.6-50.9-33.7-81.4-33.7H300.1c-33.1,0-60,26.9-60,60v192.7h519.9
	V200.5z"/>
<path d="M72.8,832.4h103V624h64.3h519.9h64.3v208.4h103c33.1,0,60-26.9,60-60V392.9c0-33.1-26.9-60-60-60H759.9H240.1H72.8
	c-33.1,0-60,26.9-60,60v379.5C12.8,805.6,39.6,832.4,72.8,832.4z M167.7,414.9c34.8,0,63,28.2,63,63s-28.2,63-63,63s-63-28.2-63-63
	S132.9,414.9,167.7,414.9z"/>
<path d="M764.3,959.6v-57.1v-35v-35V684h-12.5H248.2h-12.5v148.4v35v35v57.1c0,16.5,13.5,30,30,30h468.6
	C750.8,989.6,764.3,976.1,764.3,959.6z M370,806.8h260c15.1,0,27.6,11.1,29.7,25.6c0.2,1.4,0.3,2.9,0.3,4.4c0,16.6-13.4,30-30,30
	H370c-16.6,0-30-13.4-30-30c0-1.5,0.1-2.9,0.3-4.4C342.4,817.9,354.9,806.8,370,806.8z"/>
</svg>
