<?xml version="1.0" encoding="utf-8"?>
<!-- Generator: Adobe Illustrator 18.0.0, SVG Export Plug-In . SVG Version: 6.00 Build 0)  -->
<!DOCTYPE svg PUBLIC "-//W3C//DTD SVG 1.1//EN" "http://www.w3.org/Graphics/SVG/1.1/DTD/svg11.dtd">
<svg version="1.1" id="Capa_1" xmlns="http://www.w3.org/2000/svg" xmlns:xlink="http://www.w3.org/1999/xlink" x="0px" y="0px"
	 width="1000px" height="1000px" viewBox="0 0 1000 1000" enable-background="new 0 0 1000 1000" xml:space="preserve">
<path d="M351.6,682.4c-11.3-4.8-22.4-10.1-33.1-15.9v289.4c0,20.5,16.7,33.9,34.1,33.9c8.8,0,17.7-3.4,24.7-11.1l98.8-108.1
	c6.7-7.3,15.8-11,25-11c9.1,0,18.3,3.7,25,11l98.8,108.1c7,7.7,15.9,11.1,24.7,11.1c17.4,0,34.1-13.4,34.1-33.9V665.3
	c-11.4,6.3-23.2,12-35.3,17.1c-47,19.9-97,30-148.4,30S398.6,702.3,351.6,682.4z"/>
<path d="M713.7,571c10.7-9.5,20.7-19.7,30-30.5c48.3-56.2,77.5-129.3,77.5-209.3C821.2,153.8,677.4,10,500,10
	S178.8,153.8,178.8,331.2c0,81.1,30.1,155.2,79.7,211.8c9.3,10.6,19.4,20.6,30,30c9.5,8.3,19.5,16.1,30,23.3
	c51.6,35.4,114.1,56.2,181.5,56.2c68.3,0,131.6-21.3,183.7-57.7C694.1,587.4,704.2,579.5,713.7,571z M500,458.4
	c-44.2,0-83.1-22.5-105.9-56.7c-6.1-9.2-11.1-19.2-14.7-29.9c-3.2-9.4-5.3-19.4-6.1-29.7c-0.3-3.6-0.5-7.3-0.5-11
	c0-70.2,56.9-127.2,127.2-127.2s127.2,56.9,127.2,127.2c0,3.6-0.2,7.2-0.5,10.8c-0.9,10.3-3,20.3-6.1,29.7
	c-3.6,10.7-8.6,20.8-14.7,30C583.1,435.9,544.2,458.4,500,458.4z"/>
</svg>
