<?xml version="1.0" encoding="utf-8"?>
<!-- Generator: Adobe Illustrator 18.0.0, SVG Export Plug-In . SVG Version: 6.00 Build 0)  -->
<!DOCTYPE svg PUBLIC "-//W3C//DTD SVG 1.1//EN" "http://www.w3.org/Graphics/SVG/1.1/DTD/svg11.dtd">
<svg version="1.1" id="Capa_1" xmlns="http://www.w3.org/2000/svg" xmlns:xlink="http://www.w3.org/1999/xlink" x="0px" y="0px"
	 width="128px" height="128px" viewBox="0 0 128 128" enable-background="new 0 0 128 128" xml:space="preserve">
<path d="M108.6,61c-5.2,0-9.9,2.2-13.2,5.7V38.4c0-3.3-2.7-6-6-6H62.1c3.2-3.3,5.2-7.7,5.2-12.7c0-10-8.1-18.2-18.2-18.2
	c-10,0-18.2,8.1-18.2,18.2c0,4.9,2,9.4,5.2,12.7H8.8c-3.3,0-6,2.7-6,6v21.3c0,2.1,2.2,3.5,4.1,2.7c2.5-1,5.2-1.5,8.1-1.3
	c8.7,0.6,15.8,7.5,16.7,16.1c1.2,10.9-7.4,20.2-18.1,20.2c-2.4,0-4.6-0.5-6.7-1.3c-2-0.8-4.1,0.6-4.1,2.7V119c0,3.3,2.7,6,6,6h20
	c2,0,3.4-1.9,2.8-3.8c-0.5-1.7-0.7-3.6-0.7-5.5c0.3-9.8,8.5-17.8,18.3-17.7c10,0.1,18,8.2,18,18.2c0,1.8-0.3,3.5-0.7,5.1
	c-0.5,1.9,0.9,3.7,2.9,3.7h20c3.3,0,6-2.7,6-6V91.7c3.3,3.5,8,5.7,13.2,5.7c10,0,18.2-8.1,18.2-18.2S118.7,61,108.6,61z"/>
</svg>
