<?xml version="1.0" encoding="utf-8"?>
<!-- Generator: Adobe Illustrator 18.0.0, SVG Export Plug-In . SVG Version: 6.00 Build 0)  -->
<!DOCTYPE svg PUBLIC "-//W3C//DTD SVG 1.1//EN" "http://www.w3.org/Graphics/SVG/1.1/DTD/svg11.dtd">
<svg version="1.1" id="Capa_1" xmlns="http://www.w3.org/2000/svg" xmlns:xlink="http://www.w3.org/1999/xlink" x="0px" y="0px"
	 width="128px" height="128px" viewBox="0 0 128 128" enable-background="new 0 0 128 128" xml:space="preserve">
<path d="M64,126c34.2,0,62-27.8,62-62S98.2,2,64,2S2,29.8,2,64S29.8,126,64,126z M64,17c25.9,0,47,21.1,47,47s-21.1,47-47,47
	S17,89.9,17,64S38.1,17,64,17z"/>
<path d="M41.2,49.5l6.3,0.8c2.8,0.3,5.5-1.3,6.3-4c0.7-2,1.6-4,3.3-5.4c1.9-1.6,4.2-2.4,7.1-2.4c3,0,5.2,0.7,6.9,2.2
	c1.6,1.4,2.3,3,2.3,4.9c0,1.3-0.4,2.6-1.3,3.7c-0.3,0.4-1.6,1.7-6.8,6c-4.3,3.5-7.2,6.7-8.7,9.6c-1.5,3-2.3,6.7-2.3,11.2
	c0,0,0,0,0,0c0,3.3,2.7,5.9,5.9,5.9h6c3.2,0,5.7-2.5,5.9-5.6c0.1-1.5,0.3-2.9,0.6-3.7c0.3-0.6,1.3-2.1,4.7-4.9
	c5.9-4.9,9.6-8.7,11.5-11.7c2-3.1,3-6.5,3-10c0-6.2-2.7-11.8-7.9-16.4c-5.1-4.5-12.1-6.8-20.6-6.8c-8.1,0-14.8,2.3-19.9,6.8
	c-4,3.5-6.3,7.8-7.5,12.7C35.3,45.6,37.7,49,41.2,49.5z"/>
<path d="M66.1,86.5h-5.7c-3.3,0-6,2.7-6,6v5.7c0,3.3,2.7,6,6,6h5.7c3.3,0,6-2.7,6-6v-5.7C72.1,89.2,69.4,86.5,66.1,86.5z"/>
</svg>
