<?xml version="1.0" encoding="utf-8"?>
<!-- Generator: Adobe Illustrator 18.0.0, SVG Export Plug-In . SVG Version: 6.00 Build 0)  -->
<!DOCTYPE svg PUBLIC "-//W3C//DTD SVG 1.1//EN" "http://www.w3.org/Graphics/SVG/1.1/DTD/svg11.dtd">
<svg version="1.1" id="Capa_1" xmlns="http://www.w3.org/2000/svg" xmlns:xlink="http://www.w3.org/1999/xlink" x="0px" y="0px"
	 width="1000px" height="1000px" viewBox="0 0 1000 1000" enable-background="new 0 0 1000 1000" xml:space="preserve">
<path d="M977.8,597V78c0-33.1-26.9-60-60-60h-840c-33.1,0-60,26.9-60,60v519c0,33.1,26.9,60,60,60h840
	C951,657,977.8,630.2,977.8,597z"/>
<path d="M896.8,779c0-28.2-22.8-51-51-51h-696c-28.2,0-51,22.8-51,51c0,28.2,22.8,51,51,51h696C874,830,896.8,807.1,896.8,779z"/>
<path d="M212.7,894c-28.2,0-51,22.8-51,51c0,28.2,22.8,51,51,51h590.2c28.2,0,31-22.8,31-51c0-28.2-22.8-51-51-51H212.7z"/>
</svg>
