<?xml version="1.0" encoding="utf-8"?>
<!-- Generator: Adobe Illustrator 18.0.0, SVG Export Plug-In . SVG Version: 6.00 Build 0)  -->
<!DOCTYPE svg PUBLIC "-//W3C//DTD SVG 1.1//EN" "http://www.w3.org/Graphics/SVG/1.1/DTD/svg11.dtd">
<svg version="1.1" id="Capa_1" xmlns="http://www.w3.org/2000/svg" xmlns:xlink="http://www.w3.org/1999/xlink" x="0px" y="0px"
	 width="1000px" height="1000px" viewBox="0 0 1000 1000" enable-background="new 0 0 1000 1000" xml:space="preserve">
<path d="M654.8,688.3c46.9,0,85-38.1,85-85V496.2c0-39.9-7.9-78.6-23.4-115.2c-15-35.2-36.3-66.8-63.5-94
	c-27.2-27.2-58.8-48.5-94-63.5c-36.6-15.5-75.4-23.4-115.2-23.4H335.4l46.2-46.2c33.2-33.2,33.2-87,0-120.2
	c-33.2-33.2-87-33.2-120.2,0L70.7,224.2c-33.2,33.2-33.2,87,0,120.2l190.7,190.7c16.6,16.6,38.3,24.9,60.1,24.9
	c21.8,0,43.5-8.3,60.1-24.9c33.2-33.2,33.2-87,0-120.2l-44.9-45h106.9c33.5,0,65.1,13.2,89.1,37.2c24,24,37.2,55.6,37.2,89.1v107.1
	C569.8,650.2,607.8,688.3,654.8,688.3z"/>
<path d="M177.5,991.8h642.4c94.5,0,171.1-76.6,171.1-171.1V589.2c0-46.9-37.5-85.7-84.4-86.1c-47.2-0.4-85.6,37.8-85.6,85v213.2
	c0,11.2-9.2,20.4-20.4,20.4H196.8c-11.3,0-20.4-9.1-20.4-20.4V589.2c0-46.9-37.5-85.7-84.4-86.1c-47.2-0.4-85.6,37.8-85.6,85v232.6
	C6.4,915.2,83,991.8,177.5,991.8z"/>
</svg>
