<?xml version="1.0" encoding="utf-8"?>
<!-- Generator: Adobe Illustrator 18.0.0, SVG Export Plug-In . SVG Version: 6.00 Build 0)  -->
<!DOCTYPE svg PUBLIC "-//W3C//DTD SVG 1.1//EN" "http://www.w3.org/Graphics/SVG/1.1/DTD/svg11.dtd">
<svg version="1.1" id="Capa_1" xmlns="http://www.w3.org/2000/svg" xmlns:xlink="http://www.w3.org/1999/xlink" x="0px" y="0px"
	 width="1000px" height="1000px" viewBox="0 0 1000 1000" enable-background="new 0 0 1000 1000" xml:space="preserve">
<path d="M85.2,774.5c24.4,24.4,52.9,43.7,84.5,57.1c32.9,14,67.8,21.1,103.6,21.1H918c41.4,0,75-33.6,75-75s-33.6-75-75-75H273.3
	c-30.9,0-60-12.2-82.1-34.2c-22.1-22.1-34.2-51.2-34.2-82.1v-97c0-30.9,12.2-60,34.2-82.1c22.1-22.1,51.2-34.2,82.1-34.2h284
	l-44.1,44.1c-29.3,29.3-29.3,76.8,0,106.1c14.6,14.6,33.8,22,53,22s38.4-7.3,53-22L792,350.4c29.3-29.3,29.3-76.8,0-106.1
	L619.3,71.7c-29.3-29.3-76.8-29.3-106.1,0c-29.3,29.3-29.3,76.8,0,106.1l45.2,45.2H273.3c-35.8,0-70.7,7.1-103.6,21.1
	c-31.7,13.4-60.1,32.7-84.5,57.1S41.5,354,28.1,385.7C14.1,418.6,7,453.5,7,489.3v97c0,35.8,7.1,70.7,21.1,103.6
	C41.5,721.6,60.7,750,85.2,774.5z"/>
</svg>
