<?xml version="1.0" encoding="utf-8"?>
<!-- Generator: Adobe Illustrator 18.0.0, SVG Export Plug-In . SVG Version: 6.00 Build 0)  -->
<!DOCTYPE svg PUBLIC "-//W3C//DTD SVG 1.1//EN" "http://www.w3.org/Graphics/SVG/1.1/DTD/svg11.dtd">
<svg version="1.1" id="Capa_1" xmlns="http://www.w3.org/2000/svg" xmlns:xlink="http://www.w3.org/1999/xlink" x="0px" y="0px"
	 width="128px" height="128px" viewBox="0 0 128 128" enable-background="new 0 0 128 128" xml:space="preserve">
<path d="M8.8,125.8h12c3.3,0,6-2.7,6-6V7.8c0-3.3-2.7-6-6-6h-12c-3.3,0-6,2.7-6,6v112C2.8,123.1,5.5,125.8,8.8,125.8z"/>
<path d="M93.9,78.5h25c3.4,0,6.2-2.8,6.2-6.2V55.4c0-3.4-2.8-6.2-6.2-6.2h-25c-3.4,0-6.2-2.8-6.2-6.2V32.3c0-5.2-6-8.2-10.1-5
	l-40,32c-3.2,2.5-3.2,7.4,0,9.9l40,31.1c4.1,3.2,10.1,0.3,10.1-4.9V84.7C87.7,81.3,90.5,78.5,93.9,78.5z"/>
</svg>
