<?xml version="1.0" encoding="utf-8"?>
<!-- Generator: Adobe Illustrator 18.0.0, SVG Export Plug-In . SVG Version: 6.00 Build 0)  -->
<!DOCTYPE svg PUBLIC "-//W3C//DTD SVG 1.1//EN" "http://www.w3.org/Graphics/SVG/1.1/DTD/svg11.dtd">
<svg version="1.1" id="Layer_1" xmlns="http://www.w3.org/2000/svg" xmlns:xlink="http://www.w3.org/1999/xlink" x="0px" y="0px"
	 width="128px" height="128px" viewBox="0 0 128 128" enable-background="new 0 0 128 128" xml:space="preserve">
<path d="M125,105V23c0-11-9-20-20-20H23C12,3,3,12,3,23v82c0,11,9,20,20,20h82C116,125,125,116,125,105z M111,105c0,3.3-2.7,6-6,6
	H23c-3.3,0-6-2.7-6-6V23c0-3.3,2.7-6,6-6h82c3.3,0,6,2.7,6,6V105z"/>
<path d="M75.9,32.7c-1.9-1.9-4.4-2.9-7-2.9c-2.7,0-5.1,1-7,2.9C60,34.5,59,37,59,39.7s1,5.1,2.9,7l7.4,7.3H37.8
	c-5.5,0-9.9,4.5-9.9,10s4.5,10,9.9,10h31.5l-7.4,7.3c-1.9,1.9-2.9,4.4-2.9,7c0,2.7,1,5.1,2.9,7c1.9,1.9,4.4,2.9,7,2.9
	c2.7,0,5.1-1,7-2.9c0,0,23.8-23.8,24-24c1.9-1.9,3.1-4.2,3.2-6.7c0.2-2.7-0.8-5.5-2.6-7.5C100.5,57.2,100.5,57.2,75.9,32.7z"/>
</svg>
