<?xml version="1.0" encoding="utf-8"?>
<!-- Generator: Adobe Illustrator 18.0.0, SVG Export Plug-In . SVG Version: 6.00 Build 0)  -->
<!DOCTYPE svg PUBLIC "-//W3C//DTD SVG 1.1//EN" "http://www.w3.org/Graphics/SVG/1.1/DTD/svg11.dtd">
<svg version="1.1" id="Capa_1" xmlns="http://www.w3.org/2000/svg" xmlns:xlink="http://www.w3.org/1999/xlink" x="0px" y="0px"
	 width="1000px" height="1000px" viewBox="0 0 1000 1000" enable-background="new 0 0 1000 1000" xml:space="preserve">
<path d="M451.9,12.5c-48.8,0-89.4,35-98.2,81.2h196.5C541.3,47.4,500.7,12.5,451.9,12.5z"/>
<path d="M551.9,887.5V538.7h-200v348.9c0,55.2,44.8,100,100,100S551.9,942.8,551.9,887.5z"/>
<path d="M958,287.8l-72-107.5c-11.1-16.6-29.8-26.6-49.9-26.6H551.9h-200H78.8c-33.1,0-60,26.9-60,60v205c0,33.1,26.9,60,60,60
	h273.2h200h285.6c19.2,0,37.3-9.2,48.6-24.8l70.6-97.5C971.5,336,972,308.6,958,287.8z"/>
</svg>
