<?xml version="1.0" encoding="utf-8"?>
<!-- Generator: Adobe Illustrator 18.0.0, SVG Export Plug-In . SVG Version: 6.00 Build 0)  -->
<!DOCTYPE svg PUBLIC "-//W3C//DTD SVG 1.1//EN" "http://www.w3.org/Graphics/SVG/1.1/DTD/svg11.dtd">
<svg version="1.1" id="Capa_1" xmlns="http://www.w3.org/2000/svg" xmlns:xlink="http://www.w3.org/1999/xlink" x="0px" y="0px"
	 width="1000px" height="1000px" viewBox="0 0 1000 1000" enable-background="new 0 0 1000 1000" xml:space="preserve">
<path d="M634.3,540.9c-9.9-9.9-16.1-23.7-16.1-38.9c0-30.4,24.6-55,55-55h139.2l-74.7-74.7c-21.5-21.5-21.5-56.3,0-77.8
	c21.5-21.5,56.3-21.5,77.8,0l168.6,168.6c0,0,0.1,0.1,0.1,0.1c6.4,6.4,11.2,14.4,13.7,23.1c0,0,0,0,0,0.1
	c3.2,10.8,2.9,22.5-0.6,33.1c-2.7,8-7.3,15.4-13.2,21.4L815.3,709.5c-21.5,21.5-56.3,21.5-77.8,0c-21.5-21.5-21.5-56.3,0-77.8
	l74.7-74.7H673.1C658,557,644.2,550.8,634.3,540.9z"/>
<path d="M367.7,540.9c9.9-9.9,16.1-23.7,16.1-38.9c0-30.4-24.6-55-55-55H189.7l74.7-74.7c21.5-21.5,21.5-56.3,0-77.8
	c-21.5-21.5-56.3-21.5-77.8,0L18.1,463.1c0,0-0.1,0.1-0.1,0.1c-6.4,6.4-11.2,14.4-13.7,23.1c0,0,0,0,0,0.1
	c-3.2,10.8-2.9,22.5,0.6,33.1c2.7,8,7.3,15.4,13.2,21.4l168.6,168.6c21.5,21.5,56.3,21.5,77.8,0c21.5-21.5,21.5-56.3,0-77.8
	L189.7,557h139.2C344,557,357.8,550.8,367.7,540.9z"/>
<path d="M571,925.7V74.3c0-38.7-31.3-70-70-70s-70,31.3-70,70v851.3c0,38.7,31.3,70,70,70S571,964.3,571,925.7z"/>
</svg>
