<?xml version="1.0" encoding="utf-8"?>
<!-- Generator: Adobe Illustrator 18.0.0, SVG Export Plug-In . SVG Version: 6.00 Build 0)  -->
<!DOCTYPE svg PUBLIC "-//W3C//DTD SVG 1.1//EN" "http://www.w3.org/Graphics/SVG/1.1/DTD/svg11.dtd">
<svg version="1.1" id="Capa_1" xmlns="http://www.w3.org/2000/svg" xmlns:xlink="http://www.w3.org/1999/xlink" x="0px" y="0px"
	 width="1000px" height="1000px" viewBox="0 0 1000 1000" enable-background="new 0 0 1000 1000" xml:space="preserve">
<path d="M400.1,950.4c23.4,23.4,54.1,35.1,84.9,35.1s61.4-11.7,84.9-35.1l368-368l0,0c19.6-19.6,33.2-47.6,35-75.4
	c0.5-7.9,0.5-16.5-0.7-24.3c-2.2-15-6.5-29.6-13.9-42.9c-5.5-9.9-12.4-19.1-20.4-27.1l0,0l-368-368C523-2.1,447-2.1,400.1,44.7
	c-46.9,46.9-46.9,122.8,0,169.7l163.1,163.1h-414c-66.3,0-120,53.7-120,120s53.7,120,120,120h414L400.1,780.7
	C353.2,827.6,353.2,903.6,400.1,950.4z"/>
</svg>
