<?xml version="1.0" encoding="utf-8"?>
<!-- Generator: Adobe Illustrator 18.0.0, SVG Export Plug-In . SVG Version: 6.00 Build 0)  -->
<!DOCTYPE svg PUBLIC "-//W3C//DTD SVG 1.1//EN" "http://www.w3.org/Graphics/SVG/1.1/DTD/svg11.dtd">
<svg version="1.1" id="Capa_1" xmlns="http://www.w3.org/2000/svg" xmlns:xlink="http://www.w3.org/1999/xlink" x="0px" y="0px"
	 width="1000px" height="1000px" viewBox="0 0 1000 1000" enable-background="new 0 0 1000 1000" xml:space="preserve">
<path d="M500,990.7c41.4,0,75-33.6,75-75V84.3c0-41.4-33.6-75-75-75s-75,33.6-75,75v831.3C425,957.1,458.6,990.7,500,990.7z"/>
<path d="M670.1,741.6c14.6,14.6,33.8,22,53,22s38.4-7.3,53-22l189.7-189.7c14.1-14.1,22-33.1,22-53c0-19.9-7.9-39-22-53L778.3,258.4
	c-29.3-29.3-76.8-29.3-106.1,0c-29.3,29.3-29.3,76.8,0,106.1l134.5,134.5L670.1,635.6C640.8,664.9,640.8,712.4,670.1,741.6z"/>
<path d="M12.2,498.9c0,19.9,7.9,39,22,53l189.7,189.7c14.6,14.6,33.8,22,53,22s38.4-7.3,53-22c29.3-29.3,29.3-76.8,0-106.1
	L193.2,498.9l134.5-134.5c29.3-29.3,29.3-76.8,0-106.1c-29.3-29.3-76.8-29.3-106.1,0L34.1,445.9C20.1,459.9,12.2,479,12.2,498.9z"/>
</svg>
