<?xml version="1.0" encoding="utf-8"?>
<!-- Generator: Adobe Illustrator 18.0.0, SVG Export Plug-In . SVG Version: 6.00 Build 0)  -->
<!DOCTYPE svg PUBLIC "-//W3C//DTD SVG 1.1//EN" "http://www.w3.org/Graphics/SVG/1.1/DTD/svg11.dtd">
<svg version="1.1" id="Capa_1" xmlns="http://www.w3.org/2000/svg" xmlns:xlink="http://www.w3.org/1999/xlink" x="0px" y="0px"
	 width="1000px" height="1000px" viewBox="0 0 1000 1000" enable-background="new 0 0 1000 1000" xml:space="preserve">
<path d="M18.3,501.8c0,265.9,215.6,481.5,481.5,481.5c265.9,0,481.5-215.6,481.5-481.5c0-265.9-215.6-481.5-481.5-481.5
	C233.8,20.3,18.3,235.9,18.3,501.8z M709.9,563.6L496.5,796.9c-17.8,19.4-42.1,29.2-66.4,29.2c-21.7,0-43.5-7.8-60.7-23.6
	c-36.7-33.6-39.2-90.5-5.6-127.2l157.8-172.4L358.9,325.6c-33.6-36.6-31.1-93.6,5.5-127.2c36.6-33.6,93.6-31.1,127.2,5.5L709.8,442
	C741.3,476.4,741.4,529.2,709.9,563.6z"/>
</svg>
