<?xml version="1.0" encoding="utf-8"?>
<!-- Generator: Adobe Illustrator 18.0.0, SVG Export Plug-In . SVG Version: 6.00 Build 0)  -->
<!DOCTYPE svg PUBLIC "-//W3C//DTD SVG 1.1//EN" "http://www.w3.org/Graphics/SVG/1.1/DTD/svg11.dtd">
<svg version="1.1" id="Capa_1" xmlns="http://www.w3.org/2000/svg" xmlns:xlink="http://www.w3.org/1999/xlink" x="0px" y="0px"
	 width="1000px" height="1000px" viewBox="0 0 1000 1000" enable-background="new 0 0 1000 1000" xml:space="preserve">
<path d="M938,69.3H634c-27.6,0-50,22.4-50,50v304c0,27.6,22.4,50,50,50h145.5c-1.9,79.6-20.4,143.3-55.4,191.2
	c-27.6,37.8-69.4,69.1-125.3,93.8C573.1,769.6,562,800,574,825.4l36,76c11.6,24.4,40.3,35.1,65.1,24.4
	C741.3,897.2,797.2,861,842.8,817c55.6-53.7,93.7-114.3,114.3-181.9c20.6-67.6,30.9-159.8,30.9-276.8v-239
	C988,91.7,965.6,69.3,938,69.3z"/>
<path d="M119,925.6c65.4-28.5,121-64.7,166.9-108.6c56.1-53.7,94.4-114.1,115-181.2c20.6-67.1,30.9-159.6,30.9-277.5v-239
	c0-27.6-22.4-50-50-50h-304c-27.6,0-50,22.4-50,50v304c0,27.6,22.4,50,50,50h145.5c-1.9,79.6-20.4,143.3-55.4,191.2
	c-27.6,37.8-69.4,69.1-125.3,93.8C16.9,769.6,5.8,800,17.8,825.4l35.9,75.8C65.3,925.6,94.2,936.4,119,925.6z"/>
</svg>
