<?xml version="1.0" encoding="utf-8"?>
<!-- Generator: Adobe Illustrator 18.0.0, SVG Export Plug-In . SVG Version: 6.00 Build 0)  -->
<!DOCTYPE svg PUBLIC "-//W3C//DTD SVG 1.1//EN" "http://www.w3.org/Graphics/SVG/1.1/DTD/svg11.dtd">
<svg version="1.1" id="Layer_1" xmlns="http://www.w3.org/2000/svg" xmlns:xlink="http://www.w3.org/1999/xlink" x="0px" y="0px"
	 width="128px" height="128px" viewBox="0 0 128 128" enable-background="new 0 0 128 128" xml:space="preserve">
<path d="M8,126h112c3.3,0,6-2.7,6-6V8c0-3.3-2.7-6-6-6H8C4.7,2,2,4.7,2,8v112C2,123.3,4.7,126,8,126z M94.4,60.4L82.6,48.5
	c-2.4-2.4-2.3-6.3,0.2-8.7c2.4-2.2,6.1-2,8.4,0.3l19.6,19.6c1.2,1.2,1.8,2.7,1.8,4.2s-0.6,3.1-1.8,4.2L91.2,87.8
	c-2.3,2.3-6,2.5-8.4,0.3c-2.5-2.3-2.6-6.3-0.2-8.7l11.8-11.8C96.4,65.6,96.4,62.4,94.4,60.4z M17.3,59.8l19.6-19.6
	c2.3-2.3,6-2.5,8.4-0.3c2.5,2.3,2.6,6.3,0.2,8.7L33.6,60.4c-2,2-2,5.3,0,7.3l11.8,11.8c2.4,2.4,2.3,6.3-0.2,8.7
	c-2.4,2.2-6.1,2-8.4-0.3L17.3,68.2c-1.2-1.2-1.8-2.7-1.8-4.2S16.1,60.9,17.3,59.8z"/>
</svg>
