<?xml version="1.0" encoding="utf-8"?>
<!-- Generator: Adobe Illustrator 18.0.0, SVG Export Plug-In . SVG Version: 6.00 Build 0)  -->
<!DOCTYPE svg PUBLIC "-//W3C//DTD SVG 1.1//EN" "http://www.w3.org/Graphics/SVG/1.1/DTD/svg11.dtd">
<svg version="1.1" id="Capa_1" xmlns="http://www.w3.org/2000/svg" xmlns:xlink="http://www.w3.org/1999/xlink" x="0px" y="0px"
	 width="1000px" height="1000px" viewBox="0 0 1000 1000" enable-background="new 0 0 1000 1000" xml:space="preserve">
<path d="M534.5,917.5v-89.7h-150v89.7c0,41.4,33.6,75,75,75S534.5,959,534.5,917.5z"/>
<rect x="384.5" y="416.8" width="150" height="59.2"/>
<path d="M459.5,7.5c-35.4,0-65.1,24.5-72.9,57.5h145.9C524.5,32,494.9,7.5,459.5,7.5z"/>
<path d="M36.8,676.9l80.1,81.9c5.6,5.8,13.4,9,21.4,9h246.1h150H859c16.6,0,30-13.4,30-30V566c0-16.6-13.4-30-30-30H534.5h-150
	H139.1c-8.5,0-16.6,3.6-22.3,9.9l-80.9,90C25.3,647.7,25.7,665.6,36.8,676.9z"/>
<path d="M94,125c-16.6,0-30,13.4-30,30v171.8c0,16.6,13.4,30,30,30h290.4h150h280.2c8.1,0,15.8-3.2,21.4-9l80.1-81.9
	c11.1-11.3,11.5-29.3,0.9-41l-80.9-90c-5.7-6.3-13.8-9.9-22.3-9.9H534.5h-150H94z"/>
</svg>
