<?xml version="1.0" encoding="utf-8"?>
<!-- Generator: Adobe Illustrator 18.0.0, SVG Export Plug-In . SVG Version: 6.00 Build 0)  -->
<!DOCTYPE svg PUBLIC "-//W3C//DTD SVG 1.1//EN" "http://www.w3.org/Graphics/SVG/1.1/DTD/svg11.dtd">
<svg version="1.1" id="Capa_1" xmlns="http://www.w3.org/2000/svg" xmlns:xlink="http://www.w3.org/1999/xlink" x="0px" y="0px"
	 width="128px" height="128px" viewBox="0 0 128 128" enable-background="new 0 0 128 128" xml:space="preserve">
<path d="M119.2,1.8h-12c-3.3,0-6,2.7-6,6v112c0,3.3,2.7,6,6,6h12c3.3,0,6-2.7,6-6V7.8C125.2,4.5,122.5,1.8,119.2,1.8z"/>
<path d="M9.1,78.5h25c3.4,0,6.2,2.8,6.2,6.2v10.7c0,5.2,6,8.1,10.1,4.9l40-31.1c3.2-2.5,3.2-7.4,0-9.9l-40-32
	c-4.1-3.2-10.1-0.3-10.1,5V43c0,3.4-2.8,6.2-6.2,6.2h-25c-3.4,0-6.2,2.8-6.2,6.2v16.8C2.8,75.7,5.6,78.5,9.1,78.5z"/>
</svg>
