<?xml version="1.0" encoding="utf-8"?>
<!-- Generator: Adobe Illustrator 18.0.0, SVG Export Plug-In . SVG Version: 6.00 Build 0)  -->
<!DOCTYPE svg PUBLIC "-//W3C//DTD SVG 1.1//EN" "http://www.w3.org/Graphics/SVG/1.1/DTD/svg11.dtd">
<svg version="1.1" id="Capa_1" xmlns="http://www.w3.org/2000/svg" xmlns:xlink="http://www.w3.org/1999/xlink" x="0px" y="0px"
	 width="128px" height="128px" viewBox="0 0 128 128" enable-background="new 0 0 128 128" xml:space="preserve">
<rect x="55.5" y="71.1" width="14" height="54.4"/>
<rect x="55.5" y="2" width="14" height="13.3"/>
<path d="M17.2,61.1h38.2h14h30.1c1.7,0,3.3-0.7,4.4-1.9l11-11.9c2.1-2.3,2.1-5.8,0-8.1l-11-11.9c-1.1-1.2-2.7-1.9-4.4-1.9H69.5h-14
	H17.2c-3.3,0-6,2.7-6,6v23.8C11.2,58.4,13.9,61.1,17.2,61.1z M45.3,37.2h10.2h14h9c3.3,0,6,2.7,6,6s-2.7,6-6,6h-9h-14H45.3
	c-3.3,0-6-2.7-6-6S42,37.2,45.3,37.2z"/>
</svg>
