<?xml version="1.0" encoding="utf-8"?>
<!-- Generator: Adobe Illustrator 18.0.0, SVG Export Plug-In . SVG Version: 6.00 Build 0)  -->
<!DOCTYPE svg PUBLIC "-//W3C//DTD SVG 1.1//EN" "http://www.w3.org/Graphics/SVG/1.1/DTD/svg11.dtd">
<svg version="1.1" id="Layer_1" xmlns="http://www.w3.org/2000/svg" xmlns:xlink="http://www.w3.org/1999/xlink" x="0px" y="0px"
	 width="128px" height="128px" viewBox="0 0 128 128" enable-background="new 0 0 128 128" xml:space="preserve">
<path d="M46,59H34c-3.3,0-6,2.7-6,6v12c0,3.3,2.7,6,6,6h12c3.3,0,6-2.7,6-6V65C52,61.7,49.3,59,46,59z"/>
<path d="M120,36h-9.5H94V26c4-2.1,6.1-6,6.1-10.4c0-6.6-5.4-12-12-12s-12,5.4-12,12c0,4.4,1.9,8.2,5.9,10.3V36H64H46V25.9
	c3.5-2.1,5.9-5.9,5.9-10.3c0-6.6-5.4-12-12-12s-12,5.4-12,12c0,4.5,2.5,8.4,6.1,10.4v10H17.5H8c-3.3,0-6,2.7-6,6v7.4v61v7.7
	c0,3.3,2.7,6,6,6h9.5h35H64h11.5h35h9.5c3.3,0,6-2.7,6-6v-7.7v-61V42C126,38.7,123.3,36,120,36z M110,104c0,3.3-2.7,6-6,6H82v-7
	c0-3.3-3.2-6-6.5-6H64H52.5c-3.3,0-6.5,2.7-6.5,6v7H24c-3.3,0-6-2.7-6-6V56c0-3.3,2.7-6,6-6h40h40c3.3,0,6,2.7,6,6V104z"/>
<path d="M94,59H82c-3.3,0-6,2.7-6,6v12c0,3.3,2.7,6,6,6h12c3.3,0,6-2.7,6-6V65C100,61.7,97.3,59,94,59z"/>
</svg>
