<?xml version="1.0" encoding="utf-8"?>
<!-- Generator: Adobe Illustrator 18.0.0, SVG Export Plug-In . SVG Version: 6.00 Build 0)  -->
<!DOCTYPE svg PUBLIC "-//W3C//DTD SVG 1.1//EN" "http://www.w3.org/Graphics/SVG/1.1/DTD/svg11.dtd">
<svg version="1.1" id="Capa_1" xmlns="http://www.w3.org/2000/svg" xmlns:xlink="http://www.w3.org/1999/xlink" x="0px" y="0px"
	 width="128px" height="128px" viewBox="0 0 128 128" enable-background="new 0 0 128 128" xml:space="preserve">
<path d="M80.2,72.4c5.2-4.5,10.6-9.6,16.2-15.2c9.6-9.6,16-18.1,20.3-25.4c-10.6-2.3-18.9-10.7-21.2-21.2
	c-7.2,4.3-15.7,10.8-25.3,20.5c-5.6,5.6-10.7,11-15.2,16.2c-1.3,1.5-3.2,2.3-5.2,2l-14.1-1.6c-1.8-0.2-3.6,0.4-4.9,1.7L3.5,76.7
	c-1.8,1.8-0.7,4.8,1.8,5.1l18.1,2.1c1.8,0.2,3.6-0.4,4.9-1.7l6.5-6.5c1.4-1.4,3.7-0.4,3.7,1.5c-0.1,3.3,1,6.2,3.4,8.5
	c2.4,2.4,5.2,3.4,8.5,3.3c1.9,0,2.9,2.3,1.5,3.7l-6.5,6.5c-1.3,1.3-1.9,3.1-1.7,4.9l2.1,18.1c0.3,2.5,3.3,3.6,5.1,1.8l27.3-27.3
	c1.3-1.3,1.9-3.1,1.7-4.9l-1.6-14.1C78,75.7,78.7,73.7,80.2,72.4z M71.3,65.9c-5.3,5.3-11.7,7.3-14.4,4.7c-2.7-2.7-0.6-9.1,4.7-14.4
	c5.3-5.3,11.7-7.3,14.4-4.7S76.5,60.7,71.3,65.9z"/>
<path d="M104.9,5.8c0.6,8.9,7.7,16,16.5,16.7c5.2-12.7,3.3-19.8,3.3-19.8S117.9,0.3,104.9,5.8z"/>
</svg>
