<?xml version="1.0" encoding="utf-8"?>
<!-- Generator: Adobe Illustrator 18.0.0, SVG Export Plug-In . SVG Version: 6.00 Build 0)  -->
<!DOCTYPE svg PUBLIC "-//W3C//DTD SVG 1.1//EN" "http://www.w3.org/Graphics/SVG/1.1/DTD/svg11.dtd">
<svg version="1.1" id="Capa_1" xmlns="http://www.w3.org/2000/svg" xmlns:xlink="http://www.w3.org/1999/xlink" x="0px" y="0px"
	 width="1000px" height="1000px" viewBox="0 0 1000 1000" enable-background="new 0 0 1000 1000" xml:space="preserve">
<path d="M870,830.5c0-30.4-24.6-55-55-55H184.9c-30.4,0-55,24.6-55,55s24.6,55,55,55H815C845.4,885.5,870,860.8,870,830.5z"/>
<path d="M74.4,385.3c0.9,0,1.7,0,2.6-0.1l87.2,315.6H500h335.7l87.2-315.6c0.9,0,1.7,0.1,2.6,0.1c36.1,0,65.4-29.3,65.4-65.4
	c0-36.1-29.3-65.4-65.4-65.4c-36.1,0-65.4,29.3-65.4,65.4c0,7,1.1,13.8,3.2,20.1l-157.7,92.2l-169.5-281
	c17.6-11.7,29.3-31.8,29.3-54.5c0-36.1-29.3-65.4-65.4-65.4s-65.4,29.3-65.4,65.4c0,22.8,11.6,42.8,29.3,54.5l-169.5,281L136.7,340
	c2-6.3,3.2-13.1,3.2-20.1c0-36.1-29.3-65.4-65.4-65.4C38.3,254.5,9,283.8,9,319.9C9,356,38.3,385.3,74.4,385.3z"/>
</svg>
