<?xml version="1.0" encoding="utf-8"?>
<!-- Generator: Adobe Illustrator 18.0.0, SVG Export Plug-In . SVG Version: 6.00 Build 0)  -->
<!DOCTYPE svg PUBLIC "-//W3C//DTD SVG 1.1//EN" "http://www.w3.org/Graphics/SVG/1.1/DTD/svg11.dtd">
<svg version="1.1" id="Capa_1" xmlns="http://www.w3.org/2000/svg" xmlns:xlink="http://www.w3.org/1999/xlink" x="0px" y="0px"
	 width="128px" height="128px" viewBox="0 0 128 128" enable-background="new 0 0 128 128" xml:space="preserve">
<circle cx="22.7" cy="105.3" r="20"/>
<path d="M69.4,115.5c0,5.5,4.5,10,10,10s10-4.5,10-10c0-42.4-34.5-77-77-77c-5.5,0-10,4.5-10,10s4.5,10,10,10
	C43.9,58.5,69.4,84.1,69.4,115.5z"/>
<path d="M116.4,125.5c5.5,0,10-4.5,10-10C126.4,52.7,75.3,1.6,12.5,1.6c-5.5,0-10,4.5-10,10s4.5,10,10,10
	c51.8,0,93.9,42.1,93.9,93.9C106.4,121,110.8,125.5,116.4,125.5z"/>
</svg>
