<?xml version="1.0" encoding="utf-8"?>
<!-- Generator: Adobe Illustrator 18.0.0, SVG Export Plug-In . SVG Version: 6.00 Build 0)  -->
<!DOCTYPE svg PUBLIC "-//W3C//DTD SVG 1.1//EN" "http://www.w3.org/Graphics/SVG/1.1/DTD/svg11.dtd">
<svg version="1.1" id="Capa_1" xmlns="http://www.w3.org/2000/svg" xmlns:xlink="http://www.w3.org/1999/xlink" x="0px" y="0px"
	 width="1000px" height="1000px" viewBox="0 0 1000 1000" enable-background="new 0 0 1000 1000" xml:space="preserve">
<path d="M69.1,991.1h861.7c33.2,0,60.2-26.9,60.2-60.2V69.1c0-33.2-26.9-60.2-60.2-60.2H69.1C35.9,8.9,8.9,35.9,8.9,69.1v861.7
	C8.9,964.1,35.9,991.1,69.1,991.1z M243.7,866c-67,0-121.3-54.3-121.3-121.3c0-67,54.3-121.3,121.3-121.3
	c67,0,121.3,54.3,121.3,121.3C365,811.7,310.7,866,243.7,866z M181.6,116.3c93.2,0,183.5,18.3,268.7,54.3
	c82.2,34.8,156,84.5,219.4,147.9s113.1,137.2,147.9,219.4c36,85.1,54.3,175.5,54.3,268.7c0,33.1-26.9,60-60,60s-60-26.9-60-60
	c0-77-15.1-151.7-44.8-221.9c-28.7-67.9-69.8-128.9-122.2-181.3c-52.4-52.4-113.4-93.5-181.3-122.2
	c-70.3-29.7-144.9-44.8-221.9-44.8c-33.1,0-60-26.9-60-60S148.5,116.3,181.6,116.3z M180.6,341.3c62.9,0,124,12.3,181.5,36.7
	c55.5,23.5,105.4,57.1,148.2,99.9s76.4,92.6,99.9,148.2c24.3,57.5,36.7,118.6,36.7,181.5c0,33.1-26.9,60-60,60s-60-26.9-60-60
	c0-92.5-36-179.4-101.4-244.8C360,497.3,273.1,461.3,180.6,461.3c-33.1,0-60-26.9-60-60S147.5,341.3,180.6,341.3z"/>
</svg>
