<?xml version="1.0" encoding="utf-8"?>
<!-- Generator: Adobe Illustrator 18.0.0, SVG Export Plug-In . SVG Version: 6.00 Build 0)  -->
<!DOCTYPE svg PUBLIC "-//W3C//DTD SVG 1.1//EN" "http://www.w3.org/Graphics/SVG/1.1/DTD/svg11.dtd">
<svg version="1.1" id="Capa_1" xmlns="http://www.w3.org/2000/svg" xmlns:xlink="http://www.w3.org/1999/xlink" x="0px" y="0px"
	 width="1000px" height="1000px" viewBox="0 0 1000 1000" enable-background="new 0 0 1000 1000" xml:space="preserve">
<path d="M219.7,969.9c23.4,23.4,61.4,23.4,84.9,0l667.4-667.4c23.4-23.4,23.4-61.4,0-84.9L782.3,28.1c-23.4-23.4-61.4-23.4-84.9,0
	l-16.2,16.2l97.1,97.1c11.7,11.7,11.7,30.7,0,42.4c-5.9,5.9-13.5,8.8-21.2,8.8s-15.4-2.9-21.2-8.8l-97.1-97.1l-53.2,53.2l49.3,49.3
	c11.7,11.7,11.7,30.7,0,42.4c-5.9,5.9-13.5,8.8-21.2,8.8c-7.7,0-15.4-2.9-21.2-8.8l-49.3-49.3l-57.4,57.4l49.3,49.3
	c11.7,11.7,11.7,30.7,0,42.4c-5.9,5.9-13.5,8.8-21.2,8.8s-15.4-2.9-21.2-8.8l-49.3-49.3L386,339.6l97.1,97.1
	c11.7,11.7,11.7,30.7,0,42.4c-5.9,5.9-13.5,8.8-21.2,8.8s-15.4-2.9-21.2-8.8L343.6,382l-56.3,56.3l49.3,49.3
	c11.7,11.7,11.7,30.7,0,42.4c-5.9,5.9-13.5,8.8-21.2,8.8c-7.7,0-15.4-2.9-21.2-8.8l-49.3-49.3l-57.4,57.4l49.3,49.3
	c11.7,11.7,11.7,30.7,0,42.4c-5.9,5.9-13.5,8.8-21.2,8.8s-15.4-2.9-21.2-8.8L145,580.6l-56.3,56.3l97.1,97.1
	c11.7,11.7,11.7,30.7,0,42.4c-5.9,5.9-13.5,8.8-21.2,8.8c-7.7,0-15.4-2.9-21.2-8.8l-97.1-97.1l-16.2,16.2
	c-23.4,23.4-23.4,61.4,0,84.9L219.7,969.9z"/>
</svg>
