<?xml version="1.0" encoding="utf-8"?>
<!-- Generator: Adobe Illustrator 18.0.0, SVG Export Plug-In . SVG Version: 6.00 Build 0)  -->
<!DOCTYPE svg PUBLIC "-//W3C//DTD SVG 1.1//EN" "http://www.w3.org/Graphics/SVG/1.1/DTD/svg11.dtd">
<svg version="1.1" id="Capa_1" xmlns="http://www.w3.org/2000/svg" xmlns:xlink="http://www.w3.org/1999/xlink" x="0px" y="0px"
	 width="1000px" height="1000px" viewBox="0 0 1000 1000" enable-background="new 0 0 1000 1000" xml:space="preserve">
<path d="M500,18C233.8,18,18,233.8,18,500s215.8,482,482,482s482-215.8,482-482S766.2,18,500,18z M665.8,263
	c43.3,0,78.5,35.1,78.5,78.5c0,43.3-35.1,78.5-78.5,78.5s-78.5-35.1-78.5-78.5C587.3,298.1,622.4,263,665.8,263z M334.2,263
	c43.3,0,78.5,35.1,78.5,78.5c0,43.3-35.1,78.5-78.5,78.5s-78.5-35.1-78.5-78.5C255.7,298.1,290.9,263,334.2,263z M755.3,790.4
	c-27.2,4.5-53-14-57.4-41.3c-7.6-46.3-31.5-88.8-67.4-119.6c-36.3-31.1-82.6-48.2-130.4-48.2c-47.9,0-94.3,17.2-130.5,48.3
	c-35.9,30.8-59.8,73.4-67.4,119.8c-4,24.5-25.2,42-49.3,42c-2.7,0-5.3-0.2-8.1-0.7c-27.3-4.4-45.8-30.1-41.4-57.4
	c11.3-69.7,47.1-133.5,100.9-179.7c54.4-46.7,123.9-72.4,195.7-72.4c71.7,0,141.1,25.7,195.5,72.3c53.8,46.1,89.6,109.8,101,179.3
	C801,760.2,782.5,785.9,755.3,790.4z"/>
</svg>
