<?xml version="1.0" encoding="utf-8"?>
<!-- Generator: Adobe Illustrator 18.0.0, SVG Export Plug-In . SVG Version: 6.00 Build 0)  -->
<!DOCTYPE svg PUBLIC "-//W3C//DTD SVG 1.1//EN" "http://www.w3.org/Graphics/SVG/1.1/DTD/svg11.dtd">
<svg version="1.1" id="Layer_1" xmlns="http://www.w3.org/2000/svg" xmlns:xlink="http://www.w3.org/1999/xlink" x="0px" y="0px"
	 width="128px" height="128px" viewBox="0 0 128 128" enable-background="new 0 0 128 128" xml:space="preserve">
<path d="M90.1,64l23-35.2c3.6-5.5,3.9-12.6,0.8-18.4C110.7,4.6,104.6,1,98,1H63H28c-6.6,0-12.7,3.6-15.8,9.4
	C9,16.3,9.3,23.3,12.9,28.8l23,35.2l-23,35.2c-3.6,5.5-3.9,12.6-0.8,18.4c3.1,5.8,9.2,9.4,15.8,9.4h35h35c6.6,0,12.7-3.6,15.8-9.4
	c3.1-5.8,2.9-12.9-0.8-18.4L90.1,64z M56,87.2c0,1.5-1,2.8-2.5,3c-7.5,1-14.4,3.1-20.4,6.2c-1.8,0.9-3.6-1.1-2.5-2.8l17.9-28.7
	c0.4-0.6,1-0.9,1.7-0.9h4c1.1,0,1.8,0.9,1.8,2V87.2z M27.7,27c-1,0-2-0.5-2.5-1.4L23,22.3c-2.6-4,0.3-9.3,5-9.3h35h35
	c4.8,0,7.6,5.3,5,9.3l-2.2,3.4c-0.6,0.8-1.5,1.4-2.5,1.4H63H27.7z M92.9,96.4c-6-3.1-12.9-5.3-20.4-6.2C71,90,70,88.7,70,87.2V66
	c0-1.1,0.7-2,1.8-2h4c0.7,0,1.4,0.4,1.7,0.9l17.9,28.7C96.5,95.3,94.7,97.4,92.9,96.4z"/>
</svg>
