<?xml version="1.0" encoding="utf-8"?>
<!-- Generator: Adobe Illustrator 18.0.0, SVG Export Plug-In . SVG Version: 6.00 Build 0)  -->
<!DOCTYPE svg PUBLIC "-//W3C//DTD SVG 1.1//EN" "http://www.w3.org/Graphics/SVG/1.1/DTD/svg11.dtd">
<svg version="1.1" id="Capa_1" xmlns="http://www.w3.org/2000/svg" xmlns:xlink="http://www.w3.org/1999/xlink" x="0px" y="0px"
	 width="128px" height="128px" viewBox="0 0 128 128" enable-background="new 0 0 128 128" xml:space="preserve">
<path d="M52,102.5c10.5,0,20.2-3.2,28.3-8.6l29.3,29.3c2.3,2.3,6.1,2.3,8.5,0l5.7-5.7c2.3-2.3,2.3-6.1,0-8.5L94.4,79.8
	c5.4-8.1,8.6-17.8,8.6-28.3c0-28.1-22.9-51-51-51S1,23.4,1,51.5S23.8,102.5,52,102.5z M52,20.5c17.1,0,31,13.9,31,31s-13.9,31-31,31
	s-31-13.9-31-31S34.9,20.5,52,20.5z"/>
</svg>
