<?xml version="1.0" encoding="utf-8"?>
<!-- Generator: Adobe Illustrator 18.0.0, SVG Export Plug-In . SVG Version: 6.00 Build 0)  -->
<!DOCTYPE svg PUBLIC "-//W3C//DTD SVG 1.1//EN" "http://www.w3.org/Graphics/SVG/1.1/DTD/svg11.dtd">
<svg version="1.1" id="Capa_1" xmlns="http://www.w3.org/2000/svg" xmlns:xlink="http://www.w3.org/1999/xlink" x="0px" y="0px"
	 width="1000px" height="1000px" viewBox="0 0 1000 1000" enable-background="new 0 0 1000 1000" xml:space="preserve">
<path d="M992.8,588.1c0-46.9-38.1-85-85-85s-85,38.1-85,85v232.6c0,0.6-0.5,1.1-1.1,1.1H179.3c-0.6,0-1.1-0.5-1.1-1.1V588.1
	c0-46.9-38.1-85-85-85c-46.9,0-85,38.1-85,85v232.6C8.3,915,85,991.8,179.3,991.8h642.4c94.3,0,171.1-76.7,171.1-171.1V588.1z"/>
<path d="M737.9,33.6c-33.2-33.2-87-33.2-120.2,0c-33.2,33.2-33.2,87,0,120.2l46.2,46.2H555.7c-39.9,0-78.6,7.9-115.3,23.4
	c-35.2,15-66.8,36.3-94,63.5c-27.2,27.2-48.5,58.8-63.5,94c-15.5,36.6-23.4,75.4-23.4,115.2v107.1c0,46.9,38.1,85,85,85
	c46.9,0,85-38.1,85-85V496.2c0-33.5,13.2-65.1,37.2-89.1c24-24,55.6-37.2,89.1-37.2h106.9l-44.9,44.9c-33.2,33.2-33.2,87,0,120.2
	c16.6,16.6,38.4,24.9,60.1,24.9s43.5-8.3,60.1-24.9l190.7-190.7c33.2-33.2,33.2-87,0-120.2L737.9,33.6z"/>
</svg>
