<?xml version="1.0" encoding="utf-8"?>
<!-- Generator: Adobe Illustrator 18.0.0, SVG Export Plug-In . SVG Version: 6.00 Build 0)  -->
<!DOCTYPE svg PUBLIC "-//W3C//DTD SVG 1.1//EN" "http://www.w3.org/Graphics/SVG/1.1/DTD/svg11.dtd">
<svg version="1.1" id="Capa_1" xmlns="http://www.w3.org/2000/svg" xmlns:xlink="http://www.w3.org/1999/xlink" x="0px" y="0px"
	 width="128px" height="128px" viewBox="0 0 128 128" enable-background="new 0 0 128 128" xml:space="preserve">
<path d="M104.8,5.4L70.8,39.4l17.1,17.1L122,22.5c4.7-4.7,4.7-12.4,0-17.1C117.2,0.7,109.6,0.7,104.8,5.4z"/>
<path d="M81.7,62.8L64.5,45.7l-2.8-2.8c-1.3-1.3-1.8-3.1-1.3-4.8c0.8-3,1.1-6.2,0.8-9.5c-0.3-3.7-1.3-7.3-3-10.6
	c-1.6-3.2-3.9-6.1-6.6-8.5c-2.7-2.4-5.9-4.3-9.3-5.5c-4.5-1.6-9.3-2-14-1.3c-2.4,0.4-3.4,3.4-1.6,5.1l11.7,11.7
	c4.7,4.7,5,12.7,0.3,17.4c-2.4,2.4-5.5,3.5-8.6,3.5c-3.1,0-6.2-1.2-8.6-3.6L9.5,25c-0.6-0.6-1.4-0.9-2.1-0.9c-1.4,0-2.8,1-3,2.6
	c-0.2,1.3-0.3,2.6-0.3,3.9C3.8,44.8,15.7,58.2,30,59.5c0.9,0.1,1.8,0.1,2.7,0.1c2.5,0,4.8-0.3,7.1-0.9c1.8-0.4,3.6,0.1,4.9,1.4
	l2.7,2.7l4.8,4.8l7.1,7.1l5.2,5.2l38.8,38.8c2.4,2.4,5.5,3.6,8.6,3.6c3.1,0,6.2-1.2,8.6-3.6c4.7-4.7,4.7-12.4,0-17.1L81.7,62.8z"/>
<path d="M32,107.8l-0.2-2.5c-0.1-1.3,0.4-2.5,1.3-3.4l11.7-11.7c0.3-0.3,0.8-0.3,1.1,0c2.4,2.4,6.2,2.4,8.6,0l3.9-3.9l-4.8-4.8
	l-3.8-3.8L46,73.9l-4.8-4.8L37.3,73c-2.4,2.4-2.4,6.2,0,8.6c0.3,0.3,0.3,0.8,0,1.1L25.5,94.4c-0.9,0.9-2.1,1.4-3.4,1.3l-2.5-0.2
	c-1-0.1-1.9,0.3-2.6,1.1L2.2,114.8c-1,1.2-0.9,3,0.2,4.1l3.1,3.1l3.1,3.1c1.1,1.1,2.8,1.2,4.1,0.2l18.2-14.8
	C31.6,109.7,32,108.8,32,107.8z"/>
</svg>
