<?xml version="1.0" encoding="utf-8"?>
<!-- Generator: Adobe Illustrator 18.0.0, SVG Export Plug-In . SVG Version: 6.00 Build 0)  -->
<!DOCTYPE svg PUBLIC "-//W3C//DTD SVG 1.1//EN" "http://www.w3.org/Graphics/SVG/1.1/DTD/svg11.dtd">
<svg version="1.1" id="Capa_1" xmlns="http://www.w3.org/2000/svg" xmlns:xlink="http://www.w3.org/1999/xlink" x="0px" y="0px"
	 width="1000px" height="1000px" viewBox="0 0 1000 1000" enable-background="new 0 0 1000 1000" xml:space="preserve">
<path d="M202.5,27.8c-33.1,0-60,26.9-60,60v118h534.1v-118c0-33.1-26.9-60-60-60H202.5z"/>
<path d="M809.4,679.6c0,0,30.7-340,40.9-453.1c1.4-15.5,14.4-27.3,29.9-27.3h62.4c26.3,0,48.2-21.9,48.2-48.2
	c0-26.3-21.9-48.2-48.2-48.2H815.3c-13.9,0-26.7,6.8-36.3,16.5c-10.8,11-15.2,22.7-17.1,37.6l-10.4,82.7
	c-1.9,15-14.6,26.2-29.8,26.2h-45.1H142.5h-57c-33.5,0-60,28.4-57.7,61.8l28,350c2.2,31.5,28.3,55.9,59.9,55.9h636
	C782,733.4,807.3,709.9,809.4,679.6z"/>
<path d="M257.9,878.6c0-39.4-25.3-72.9-60.5-85.2c-9.3-3.2-19.3-5-29.7-5c-10.4,0-20.4,1.8-29.7,5c-35.2,12.3-60.5,45.8-60.5,85.2
	c0,49.8,40.4,90.2,90.2,90.2C217.5,968.8,257.9,928.4,257.9,878.6z"/>
<path d="M787.8,878.6c0-39.4-25.3-72.9-60.5-85.2c-9.3-3.2-19.3-5-29.7-5c-10.4,0-20.4,1.8-29.7,5c-35.2,12.3-60.5,45.8-60.5,85.2
	c0,49.8,40.4,90.2,90.2,90.2C747.5,968.8,787.8,928.4,787.8,878.6z"/>
</svg>
