<?xml version="1.0" encoding="utf-8"?>
<!-- Generator: Adobe Illustrator 18.0.0, SVG Export Plug-In . SVG Version: 6.00 Build 0)  -->
<!DOCTYPE svg PUBLIC "-//W3C//DTD SVG 1.1//EN" "http://www.w3.org/Graphics/SVG/1.1/DTD/svg11.dtd">
<svg version="1.1" id="Capa_1" xmlns="http://www.w3.org/2000/svg" xmlns:xlink="http://www.w3.org/1999/xlink" x="0px" y="0px"
	 width="1000px" height="1000px" viewBox="0 0 1000 1000" enable-background="new 0 0 1000 1000" xml:space="preserve">
<path d="M18.2,286.1l28,405.4c2.2,31.5,28.3,55.9,59.9,55.9h636c30.4,0,55.6-23.5,57.7-53.8c0,0,30.7-395.3,40.9-508.5
	c1.4-15.5,14.4-27.3,29.9-27.3H933c26.3,0,48.2-21.9,48.2-48.2c0-26.3-21.9-48.2-48.2-48.2H805.7c-30.1,0-50,26.9-53.4,54.1
	L741.8,198c-1.9,15-14.6,26.2-29.8,26.2H75.9C42.4,224.3,15.9,252.7,18.2,286.1z"/>
<circle cx="158.1" cy="892.5" r="90.2"/>
<circle cx="688.1" cy="892.5" r="90.2"/>
</svg>
