<?xml version="1.0" encoding="utf-8"?>
<!-- Generator: Adobe Illustrator 18.0.0, SVG Export Plug-In . SVG Version: 6.00 Build 0)  -->
<!DOCTYPE svg PUBLIC "-//W3C//DTD SVG 1.1//EN" "http://www.w3.org/Graphics/SVG/1.1/DTD/svg11.dtd">
<svg version="1.1" id="Layer_1" xmlns="http://www.w3.org/2000/svg" xmlns:xlink="http://www.w3.org/1999/xlink" x="0px" y="0px"
	 width="128px" height="128px" viewBox="0 0 128 128" enable-background="new 0 0 128 128" xml:space="preserve">
<path d="M125,105V23c0-11-9-20-20-20H23C12,3,3,12,3,23v82c0,11,9,20,20,20h82C116,125,125,116,125,105z M111,105c0,3.3-2.7,6-6,6
	H23c-3.3,0-6-2.7-6-6V23c0-3.3,2.7-6,6-6h82c3.3,0,6,2.7,6,6V105z"/>
<path d="M76.7,34.3L34.3,76.7c-4.7,4.7-4.7,12.3,0,17c2.3,2.3,5.4,3.5,8.5,3.5s6.1-1.2,8.5-3.5l42.4-42.4c4.7-4.7,4.7-12.3,0-17
	C89,29.6,81.4,29.6,76.7,34.3z"/>
</svg>
