<?xml version="1.0" encoding="utf-8"?>
<!-- Generator: Adobe Illustrator 18.0.0, SVG Export Plug-In . SVG Version: 6.00 Build 0)  -->
<!DOCTYPE svg PUBLIC "-//W3C//DTD SVG 1.1//EN" "http://www.w3.org/Graphics/SVG/1.1/DTD/svg11.dtd">
<svg version="1.1" id="Capa_1" xmlns="http://www.w3.org/2000/svg" xmlns:xlink="http://www.w3.org/1999/xlink" x="0px" y="0px"
	 width="1000px" height="1000px" viewBox="0 0 1000 1000" enable-background="new 0 0 1000 1000" xml:space="preserve">
<path d="M538,6C287.2,6,84,209.3,84,460c0,57.8,10.8,113.1,30.5,164L27.1,942.2c-10.5,25.1,13.3,50.9,39.2,42.6L394.8,891
	c45,14.9,93.2,23,143.2,23c250.7,0,454-203.3,454-454S788.7,6,538,6z M694.1,236.8c40.8,0,73.9,33.1,73.9,73.9
	c0,40.8-33.1,73.9-73.9,73.9c-40.8,0-73.9-33.1-73.9-73.9C620.2,269.9,653.3,236.8,694.1,236.8z M381.8,236.8
	c40.8,0,73.9,33.1,73.9,73.9c0,40.8-33.1,73.9-73.9,73.9c-40.8,0-73.9-33.1-73.9-73.9C307.9,269.9,341,236.8,381.8,236.8z
	 M820.1,543.8c-10.8,66.2-45,126.8-96.1,170.6c-51.7,44.4-117.8,68.8-186,68.8c-68.3,0-134.4-24.5-186.2-68.9
	c-51.2-44-85.3-104.7-96-171c-4.4-27.3,14.1-52.9,41.4-57.4c27.3-4.4,52.9,14.1,57.4,41.4c7,43,29.2,82.5,62.5,111.1
	c33.6,28.9,76.6,44.8,121.1,44.8c44.4,0,87.3-15.9,120.9-44.7c33.3-28.5,55.5-67.9,62.5-110.9c4.5-27.3,30.2-45.7,57.4-41.3
	C806.1,490.8,824.6,516.5,820.1,543.8z"/>
</svg>
