<?xml version="1.0" encoding="utf-8"?>
<!-- Generator: Adobe Illustrator 18.0.0, SVG Export Plug-In . SVG Version: 6.00 Build 0)  -->
<!DOCTYPE svg PUBLIC "-//W3C//DTD SVG 1.1//EN" "http://www.w3.org/Graphics/SVG/1.1/DTD/svg11.dtd">
<svg version="1.1" id="Capa_1" xmlns="http://www.w3.org/2000/svg" xmlns:xlink="http://www.w3.org/1999/xlink" x="0px" y="0px"
	 width="1000px" height="1000px" viewBox="0 0 1000 1000" enable-background="new 0 0 1000 1000" xml:space="preserve">
<path d="M824,347.4c-44.1-38.1-93.9-67.8-148.2-88.3C619.7,237.8,560.5,227,500,227s-119.7,10.8-175.8,32.1
	c-54.2,20.6-104.1,50.3-148.2,88.3C87,424.3,28,530.2,10,645.8c-5,31.9,4.2,64.2,25.1,88.7C56,759,86.5,773,118.6,773h281.2
	c18.4,36.7,56.4,62,100.2,62s81.8-25.3,100.2-62h281.2c32.2,0,62.6-14,83.5-38.5c21-24.5,30.1-56.8,25.1-88.7
	C972,530.2,913,424.3,824,347.4z M500,765c-16.5,0-30.8-9.6-37.7-23.4c-2.8-5.6-4.3-11.9-4.3-18.6c0-23.2,18.8-42,42-42
	c13.7,0,25.9,6.6,33.5,16.7c5.3,7,8.5,15.8,8.5,25.3C542,746.2,523.2,765,500,765z M888.9,669.5c-1.4,1.6-3.8,3.5-7.5,3.5H600.2
	c-18.4-36.7-56.4-62-100.2-62c-3.2,0-6.4,0.1-9.6,0.4L362,441.8c-22-29-66.9-1.3-50.9,31.4l93.6,191c-1.8,2.8-3.4,5.8-4.9,8.8H118.6
	c-3.8,0-6.2-1.9-7.5-3.5c-1.4-1.6-2.9-4.4-2.3-8.2c14.4-92.2,61.5-176.8,132.6-238.2c35.2-30.4,75-54.1,118.3-70.5
	c32.3-12.3,66-20.1,100.4-23.6v81.2c0,22.1,17.9,40,40,40s40-17.9,40-40V329c34.4,3.4,68,11.3,100.4,23.6
	c43.3,16.4,83.1,40.1,118.3,70.5c71.1,61.4,118.2,146,132.6,238.2C891.8,665.2,890.3,667.9,888.9,669.5z"/>
</svg>
