<?xml version="1.0" encoding="utf-8"?>
<!-- Generator: Adobe Illustrator 18.0.0, SVG Export Plug-In . SVG Version: 6.00 Build 0)  -->
<!DOCTYPE svg PUBLIC "-//W3C//DTD SVG 1.1//EN" "http://www.w3.org/Graphics/SVG/1.1/DTD/svg11.dtd">
<svg version="1.1" id="Capa_1" xmlns="http://www.w3.org/2000/svg" xmlns:xlink="http://www.w3.org/1999/xlink" x="0px" y="0px"
	 width="1000px" height="1000px" viewBox="0 0 1000 1000" enable-background="new 0 0 1000 1000" xml:space="preserve">
<path d="M65.5,884.4l156-95.1c9.4-5.7,20.2-8.8,31.2-8.8h667.5c33.1,0,60-26.9,60-60V124.5c0-33.1-26.9-60-60-60H79.9
	c-33.1,0-60,26.9-60,60v734.3C19.9,882.2,45.5,896.6,65.5,884.4z M183.3,241.1h633.4c16.6,0,30,13.4,30,30s-13.4,30-30,30H183.3
	c-16.6,0-30-13.4-30-30S166.8,241.1,183.3,241.1z M183.3,384.4h633.4c16.6,0,30,13.4,30,30s-13.4,30-30,30H183.3
	c-16.6,0-30-13.4-30-30S166.8,384.4,183.3,384.4z M183.3,527.7H500c16.6,0,30,13.4,30,30s-13.4,30-30,30H183.3
	c-16.6,0-30-13.4-30-30S166.8,527.7,183.3,527.7z"/>
</svg>
