<?xml version="1.0" encoding="utf-8"?>
<!-- Generator: Adobe Illustrator 18.0.0, SVG Export Plug-In . SVG Version: 6.00 Build 0)  -->
<!DOCTYPE svg PUBLIC "-//W3C//DTD SVG 1.1//EN" "http://www.w3.org/Graphics/SVG/1.1/DTD/svg11.dtd">
<svg version="1.1" id="Capa_1" xmlns="http://www.w3.org/2000/svg" xmlns:xlink="http://www.w3.org/1999/xlink" x="0px" y="0px"
	 width="1000px" height="1000px" viewBox="0 0 1000 1000" enable-background="new 0 0 1000 1000" xml:space="preserve">
<path d="M862.2,180.8C818,276.7,792.9,369.3,787,457.4h192.1C970.4,351.9,927.8,256.1,862.2,180.8z"/>
<path d="M135.2,814c44.1-95.9,69.3-188.6,75.2-276.6H18.3C27,642.9,69.6,738.7,135.2,814z"/>
<path d="M538.7,457.4h168.1c6.4-107.3,38.1-219.6,94.6-335.1c-73-59-163.6-97.1-262.7-105.2V457.4z"/>
<path d="M135.2,180.8C69.6,256.1,27,351.9,18.3,457.4h192.1c-3.9-57.3-15.9-116.8-35.9-177.4C163.6,247.2,150.6,214.3,135.2,180.8z"
	/>
<path d="M250.5,254.9c22.8,68.9,36.2,136.8,40.1,202.5h168.1V17C359.6,25.2,269,63.3,196,122.3C217.9,167.2,235.9,211,250.5,254.9z"
	/>
<path d="M979.1,537.4H787c7.2,104,41.1,199.7,75.8,275.9C928.1,738.1,970.4,642.6,979.1,537.4z"/>
<path d="M458.7,537.4H290.6c-6.4,107.2-38.1,219.5-94.6,335.1c73,59,163.6,97.1,262.7,105.3V537.4z"/>
<path d="M538.7,977.8c99.3-8.2,190.1-46.4,263.2-105.7c-42-87.5-87.2-204.2-95.1-334.7H538.7V977.8z"/>
</svg>
