<?xml version="1.0" encoding="utf-8"?>
<!-- Generator: Adobe Illustrator 18.0.0, SVG Export Plug-In . SVG Version: 6.00 Build 0)  -->
<!DOCTYPE svg PUBLIC "-//W3C//DTD SVG 1.1//EN" "http://www.w3.org/Graphics/SVG/1.1/DTD/svg11.dtd">
<svg version="1.1" id="Capa_1" xmlns="http://www.w3.org/2000/svg" xmlns:xlink="http://www.w3.org/1999/xlink" x="0px" y="0px"
	 width="128px" height="128px" viewBox="0 0 128 128" enable-background="new 0 0 128 128" xml:space="preserve">
<path d="M102.8,33.6c-1.1-3.2-0.9-6.2-0.5-9.3c0.3-1.9-1.3-3.6-3.2-3.4C85.6,22.1,74.7,32.6,80,46.7c1,2.8-2.1,5.2-4.5,3.5
	c-4.9-3.5-9.6-5.1-15.3-6.8c-5-1.5-10.2-3.4-13.7-7.5c-2.7-3.2-3.4-7.3-5.6-10.7c-3.4-5.3-9.4-5.8-9.4-5.8L28.9,15
	c-1.4-2.5-5.1-1.8-5.6,0.9c-0.3,1.7-0.5,3-0.5,3c0,0.1-0.5,0.2-0.5,0.3c-1.4,0.6-2.9,1.1-4.2,1.8c-1.2,0.7-2.4,1.5-3.5,2.4
	c-2.4,1.9-4.3,4.4-5.9,7c-0.4,0.8-0.8,1.5-1.2,2.3c-0.9,2-1.6,4.1-2.1,6.3c-0.9,4.3-1,9.8,2.7,12.8c2.5,2.1,5.9,2.5,9.1,2.6
	c0.7,0,7.5,0,7.5-0.2c0,3.8-3.4,9.1-7.7,7.9c-2.1-0.6-4.3-1-6.6-1.1c-2.1,0-4.9,0.2-6.3,1.8c-1.4,1.5-1.7,4.2,0.5,5.1
	c0.7,0.3,1.6,0.4,2.5,0.4c0,0,3.7,0,3.7,0c3.4,0,6.4,3.6,8.8,5.5c3.6,2.9,7.6,4.9,12.3,3.1c2.3-0.8,3.8-2.3,5.4-4.1
	c1.4-1.6,3-3.5,5-4.2c0.5-0.2,2.9,0.1,3,0.1C45.2,68.9,35,76,35,84.7c0,8.8,6.8,16.7,6.8,16.7c-3.4,0-6.8,1.5-8.5,4.6
	c-0.6,1.2-0.6,4,1.3,4c0.2,0,49.8,0,49.8,0c3.6,0,7.2-0.5,10.7-1.5c4.1-1.2,7.9-3.2,11.3-5.8c15.6-11.5,22.2-34.5,11-51.3
	C113.2,45,105.4,41.1,102.8,33.6z M17.4,42.7c-2.3,0-4.1-1.8-4.1-4.1c0-2.3,1.8-4.1,4.1-4.1c2.3,0,4.1,1.8,4.1,4.1
	C21.5,40.8,19.7,42.7,17.4,42.7z"/>
</svg>
