<?xml version="1.0" encoding="utf-8"?>
<!-- Generator: Adobe Illustrator 18.0.0, SVG Export Plug-In . SVG Version: 6.00 Build 0)  -->
<!DOCTYPE svg PUBLIC "-//W3C//DTD SVG 1.1//EN" "http://www.w3.org/Graphics/SVG/1.1/DTD/svg11.dtd">
<svg version="1.1" id="Capa_1" xmlns="http://www.w3.org/2000/svg" xmlns:xlink="http://www.w3.org/1999/xlink" x="0px" y="0px"
	 width="1000px" height="1000px" viewBox="0 0 1000 1000" enable-background="new 0 0 1000 1000" xml:space="preserve">
<path d="M351.6,682.4c-11.3-4.8-22.4-10.1-33.1-15.9v289.4c0,20.5,16.7,33.9,34.1,33.9c8.8,0,17.7-3.4,24.7-11.1l98.8-108.1
	c6.7-7.3,15.8-11,25-11c9.1,0,18.3,3.7,25,11l98.8,108.1c7,7.7,15.9,11.1,24.7,11.1c17.4,0,34.1-13.4,34.1-33.9V665.3
	c-11.4,6.3-23.2,12-35.3,17.1c-47,19.9-97,30-148.4,30S398.6,702.3,351.6,682.4z"/>
<path d="M500,10c-177.4,0-321.2,143.8-321.2,321.2c0,81.1,30.1,155.2,79.7,211.8c9.3,10.6,19.4,20.6,30,30
	c9.5,8.3,19.5,16.1,30,23.3c51.6,35.4,114.1,56.2,181.5,56.2c68.3,0,131.6-21.3,183.7-57.7c10.5-7.3,20.5-15.2,30-23.7
	c10.7-9.5,20.7-19.7,30-30.5c48.3-56.2,77.5-129.3,77.5-209.3C821.2,153.8,677.4,10,500,10z M580.5,482.4l-65.3-38.4
	c-9.4-5.5-21-5.5-30.4,0l-65.3,38.4c-22.8,13.4-50.6-7.2-44.4-32.9l11.6-47.8l5.9-24.3c0.5-1.9,0.7-3.8,0.8-5.7
	c0.4-9-3.2-17.8-10.1-23.9l-6.7-5.9L323.2,295c-19.7-17.4-9.2-49.9,17-52.4l79.9-7.5c11.1-1,20.7-8.2,24.9-18.5l27.3-66.3
	c10.2-24.8,45.3-24.8,55.5,0l27.3,66.3c4.2,10.3,13.8,17.4,24.9,18.5l79.9,7.5c26.2,2.5,36.7,35,17,52.4l-53.2,46.8l-6.8,6
	c-6.9,6.1-10.5,14.9-10.1,23.9c0.1,1.9,0.3,3.8,0.8,5.7l5.9,24.3l11.6,47.8C631.1,475.3,603.4,495.8,580.5,482.4z"/>
</svg>
