<?xml version="1.0" encoding="utf-8"?>
<!-- Generator: Adobe Illustrator 18.0.0, SVG Export Plug-In . SVG Version: 6.00 Build 0)  -->
<!DOCTYPE svg PUBLIC "-//W3C//DTD SVG 1.1//EN" "http://www.w3.org/Graphics/SVG/1.1/DTD/svg11.dtd">
<svg version="1.1" id="Layer_1" xmlns="http://www.w3.org/2000/svg" xmlns:xlink="http://www.w3.org/1999/xlink" x="0px" y="0px"
	 width="128px" height="128px" viewBox="0 0 128 128" enable-background="new 0 0 128 128" xml:space="preserve">
<path d="M45,65H33c-3.3,0-6,2.7-6,6V95c0,3.3,2.7,6,6,6H45c3.3,0,6-2.7,6-6V71C51,67.7,48.3,65,45,65z"/>
<path d="M66,48c-3.3,0-6,2.7-6,6V95c0,3.3,2.7,6,6,6H78c3.3,0,6-2.7,6-6V54c0-3.3-2.7-6-6-6H66z"/>
<path d="M111,48H99c-3.3,0-6,2.7-6,6V95c0,3.3,2.7,6,6,6H111c3.3,0,6-2.7,6-6V54C117,50.7,114.3,48,111,48z"/>
<path d="M8.5,126h111.9c3.3,0,5.5-3.2,5.5-6.5v-2c0-3.3-2.2-6.4-5.5-6.4H22.7c-3.3,0-5.7-2.3-5.7-5.7V7.5C17,4.2,13.9,2,10.6,2h-2
	C5.2,2,2,4.2,2,7.5v111.9C2,122.8,5.2,126,8.5,126z"/>
</svg>
