<?xml version="1.0" encoding="utf-8"?>
<!-- Generator: Adobe Illustrator 18.0.0, SVG Export Plug-In . SVG Version: 6.00 Build 0)  -->
<!DOCTYPE svg PUBLIC "-//W3C//DTD SVG 1.1//EN" "http://www.w3.org/Graphics/SVG/1.1/DTD/svg11.dtd">
<svg version="1.1" id="Capa_1" xmlns="http://www.w3.org/2000/svg" xmlns:xlink="http://www.w3.org/1999/xlink" x="0px" y="0px"
	 width="1000px" height="1000px" viewBox="0 0 1000 1000" enable-background="new 0 0 1000 1000" xml:space="preserve">
<path d="M747.9,517.9c0,1.2,0,123.7,0,123.7c0,22.8-7.4,37-27.4,37c-21.1,0-28.7-13.7-28.7-36.5c0,0,0-99.9,0-211.6
	c0-141.2,0-303.8,0-303.8c0-67.7-94.7-69.7-94.7-4.6L596.5,454c0,11.8-7.9,20.4-18.8,20.4c-10.9,0-18.9-8.6-18.9-20.4V52.7
	c0-62.6-95.2-64.4-95.2,0c0,0.7,0,401.3,0,401.3c0,11.8-7.9,20.4-18.8,20.4c-10.9,0-18.8-8.6-18.8-20.4c0,0,0-359,0-359
	c0-63.8-95.2-63.7-95.2,0c0,0.5,0,359,0,359c0,11.8-7.9,20.4-18.9,20.4c-10.9,0-18.8-8.6-18.8-20.4c0,0,0-275.3,0-275.3
	c0-22.2-19.5-39.9-40.9-40.8c-22.2-0.9-44.8,17.4-44.8,40.8c0,0.1,0,141.6,0,276.4c0,184.4,0,393.1,0,393.1c0,22,3.5,61.9,27.3,82.3
	l1.6,1.4v29.7c0,15.3,12.4,27.7,27.7,27.7h364.1c15.3,0,27.7-12.4,27.7-27.7l0.4-34.2c0.4-0.8,0.8-1.8,1.6-2.6l0.1-0.1l154.8-141.7
	c20.5-20.5,30.9-44.3,30.9-70.7V517.9C843.5,453.8,747.9,453.8,747.9,517.9z"/>
</svg>
