<?xml version="1.0" encoding="utf-8"?>
<!-- Generator: Adobe Illustrator 18.0.0, SVG Export Plug-In . SVG Version: 6.00 Build 0)  -->
<!DOCTYPE svg PUBLIC "-//W3C//DTD SVG 1.1//EN" "http://www.w3.org/Graphics/SVG/1.1/DTD/svg11.dtd">
<svg version="1.1" id="Capa_1" xmlns="http://www.w3.org/2000/svg" xmlns:xlink="http://www.w3.org/1999/xlink" x="0px" y="0px"
	 width="1000px" height="1000px" viewBox="0 0 1000 1000" enable-background="new 0 0 1000 1000" xml:space="preserve">
<path d="M767.3,151.7L685,234c15,10.6,29.1,22.4,42.2,35.6s25,27.2,35.6,42.2l82.3-82.3c21.5-21.5,21.5-56.3,0-77.8
	C823.6,130.2,788.8,130.2,767.3,151.7z"/>
<path d="M237.2,681.7L154.9,764c-21.5,21.5-21.5,56.3,0,77.8c10.7,10.7,24.8,16.1,38.9,16.1s28.2-5.4,38.9-16.1l82.3-82.3
	c-15-10.6-29.1-22.4-42.2-35.6S247.8,696.7,237.2,681.7z"/>
<path d="M762.8,681.7c-10.6,15-22.4,29.1-35.6,42.2s-27.2,25-42.2,35.6l82.3,82.3c10.7,10.7,24.8,16.1,38.9,16.1s28.2-5.4,38.9-16.1
	c21.5-21.5,21.5-56.3,0-77.8L762.8,681.7z"/>
<path d="M237.2,311.8c10.6-15,22.4-29.1,35.6-42.2s27.2-25,42.2-35.6l-82.3-82.3c-21.5-21.5-56.3-21.5-77.8,0
	c-21.5,21.5-21.5,56.3,0,77.8L237.2,311.8z"/>
<path d="M178.7,496.8c0-18.6,1.6-37,4.7-55H67c-30.4,0-55,24.6-55,55s24.6,55,55,55h116.4C180.3,533.7,178.7,515.4,178.7,496.8z"/>
<path d="M933,441.8H816.6c3.1,18,4.7,36.4,4.7,55s-1.6,37-4.7,55H933c30.4,0,55-24.6,55-55S963.4,441.8,933,441.8z"/>
<path d="M445,813.4v116.4c0,30.4,24.6,55,55,55s55-24.6,55-55V813.4c-18,3.1-36.4,4.7-55,4.7S463,816.5,445,813.4z"/>
<path d="M445,63.8v116.4c18-3.1,36.4-4.7,55-4.7s37,1.6,55,4.7V63.8c0-30.4-24.6-55-55-55S445,33.4,445,63.8z"/>
<path d="M755.5,551.8c3.8-17.7,5.8-36.1,5.8-55s-2-37.3-5.8-55c-6.7-31.4-19.1-60.7-35.9-86.8c-20.1-31.1-46.7-57.7-77.8-77.8
	c-26.1-16.9-55.4-29.2-86.8-36c-17.7-3.8-36.1-5.8-55-5.8s-37.3,2-55,5.8c-31.4,6.7-60.7,19.1-86.8,36
	c-31.1,20.1-57.7,46.7-77.8,77.8c-16.9,26.1-29.2,55.4-35.9,86.8c-3.8,17.7-5.8,36.1-5.8,55s2,37.3,5.8,55
	c6.7,31.4,19.1,60.7,35.9,86.8c20.1,31.1,46.7,57.7,77.8,77.8c26.1,16.9,55.4,29.2,86.8,36c17.7,3.8,36.1,5.8,55,5.8s37.3-2,55-5.8
	c31.4-6.7,60.7-19.1,86.8-36c31.1-20.1,57.7-46.7,77.8-77.8C736.4,612.4,748.8,583.1,755.5,551.8z"/>
</svg>
