<?xml version="1.0" encoding="utf-8"?>
<!-- Generator: Adobe Illustrator 18.0.0, SVG Export Plug-In . SVG Version: 6.00 Build 0)  -->
<!DOCTYPE svg PUBLIC "-//W3C//DTD SVG 1.1//EN" "http://www.w3.org/Graphics/SVG/1.1/DTD/svg11.dtd">
<svg version="1.1" id="Layer_1" xmlns="http://www.w3.org/2000/svg" xmlns:xlink="http://www.w3.org/1999/xlink" x="0px" y="0px"
	 width="128px" height="128px" viewBox="0 0 128 128" enable-background="new 0 0 128 128" xml:space="preserve">
<path d="M121,58H86.7c-2.6-9.9-11.6-17.2-22.3-17.2S44.7,48.1,42.1,58H8c-3.3,0-6,2.7-6,6s2.7,6,6,6h34.2
	c2.7,9.7,11.6,16.8,22.1,16.8S83.8,79.7,86.5,70H121c3.3,0,6-2.7,6-6S124.3,58,121,58z M70.8,70c-1.6,1.7-3.9,2.8-6.5,2.8
	s-4.8-1.1-6.5-2.8c-1.6-1.6-2.5-3.8-2.5-6.2c0-2.2,0.8-4.2,2.1-5.8c1.7-2,4.1-3.2,6.9-3.2s5.3,1.3,6.9,3.2c1.3,1.6,2.1,3.6,2.1,5.8
	C73.4,66.2,72.4,68.4,70.8,70z"/>
</svg>
