<?xml version="1.0" encoding="utf-8"?>
<!-- Generator: Adobe Illustrator 18.0.0, SVG Export Plug-In . SVG Version: 6.00 Build 0)  -->
<!DOCTYPE svg PUBLIC "-//W3C//DTD SVG 1.1//EN" "http://www.w3.org/Graphics/SVG/1.1/DTD/svg11.dtd">
<svg version="1.1" id="Capa_1" xmlns="http://www.w3.org/2000/svg" xmlns:xlink="http://www.w3.org/1999/xlink" x="0px" y="0px"
	 width="1000px" height="1000px" viewBox="0 0 1000 1000" enable-background="new 0 0 1000 1000" xml:space="preserve">
<path d="M193.1,19.9c-32.6,0-59,26.4-59,59v836.4c0,33.1,26.9,60,60,60h622.7c33.1,0,60-26.9,60-60V78.9c0-32.6-26.4-59-59-59H193.1
	z M505.5,916c-23.4,0-42.3-18.9-42.3-42.3s18.9-42.3,42.3-42.3s42.3,18.9,42.3,42.3S528.9,916,505.5,916z M800.9,745.3
	c0,16.6-13.4,30-30,30H240.1c-16.6,0-30-13.4-30-30V124.8c0-16.6,13.4-30,30-30h530.7c16.6,0,30,13.4,30,30V745.3z"/>
</svg>
