<?xml version="1.0" encoding="utf-8"?>
<!-- Generator: Adobe Illustrator 18.0.0, SVG Export Plug-In . SVG Version: 6.00 Build 0)  -->
<!DOCTYPE svg PUBLIC "-//W3C//DTD SVG 1.1//EN" "http://www.w3.org/Graphics/SVG/1.1/DTD/svg11.dtd">
<svg version="1.1" id="Capa_1" xmlns="http://www.w3.org/2000/svg" xmlns:xlink="http://www.w3.org/1999/xlink" x="0px" y="0px"
	 width="1000px" height="1000px" viewBox="0 0 1000 1000" enable-background="new 0 0 1000 1000" xml:space="preserve">
<path d="M751.5,174L526.3,17.8c-8-5.3-17.2-7.9-26.3-7.6c-9.2-0.3-18.4,2.3-26.3,7.6L248.5,174c-12.5,8.4-20,22.4-20,37.4V950
	c0,36.1,40.4,57.5,70.3,37.2l175.1-121.7c7.9-5.3,17-7.9,26.1-7.8c9.1-0.2,18.2,2.4,26.1,7.8l175.1,121.7
	c29.9,20.3,70.3-1.1,70.3-37.2V211.4C771.5,196.4,764,182.3,751.5,174z M500,476.4c-84.2,0-152.5-68.3-152.5-152.5
	c0-84.2,68.3-152.5,152.5-152.5s152.5,68.3,152.5,152.5C652.5,408.1,584.2,476.4,500,476.4z"/>
</svg>
