<?xml version="1.0" encoding="utf-8"?>
<!-- Generator: Adobe Illustrator 18.0.0, SVG Export Plug-In . SVG Version: 6.00 Build 0)  -->
<!DOCTYPE svg PUBLIC "-//W3C//DTD SVG 1.1//EN" "http://www.w3.org/Graphics/SVG/1.1/DTD/svg11.dtd">
<svg version="1.1" id="Capa_1" xmlns="http://www.w3.org/2000/svg" xmlns:xlink="http://www.w3.org/1999/xlink" x="0px" y="0px"
	 width="128px" height="128px" viewBox="0 0 128 128" enable-background="new 0 0 128 128" xml:space="preserve">
<path d="M120.7,61L64.1,4.4c-1.2-1.2-2.9-1.9-4.7-1.7L12.2,6.1c-3,0.2-5.3,2.6-5.6,5.6L3.2,58.9c-0.1,1.7,0.5,3.4,1.7,4.7l56.6,56.6
	c2.3,2.3,6.1,2.3,8.5,0l50.7-50.7C123.1,67.1,123.1,63.3,120.7,61z M22.9,22.3c4.8-4.8,12.5-4.8,17.3,0s4.8,12.5,0,17.3
	c-4.8,4.8-12.5,4.8-17.3,0C18.1,34.9,18.1,27.1,22.9,22.3z M103.1,67.4l-35.1,35.1c-1.2,1.2-3.1,1.2-4.2,0L31.1,69.9
	c-1.2-1.2-1.2-3.1,0-4.2l35.1-35.1c1.2-1.2,3.1-1.2,4.2,0l32.6,32.6C104.2,64.3,104.2,66.2,103.1,67.4z"/>
</svg>
