<?xml version="1.0" encoding="utf-8"?>
<!-- Generator: Adobe Illustrator 18.0.0, SVG Export Plug-In . SVG Version: 6.00 Build 0)  -->
<!DOCTYPE svg PUBLIC "-//W3C//DTD SVG 1.1//EN" "http://www.w3.org/Graphics/SVG/1.1/DTD/svg11.dtd">
<svg version="1.1" id="Capa_1" xmlns="http://www.w3.org/2000/svg" xmlns:xlink="http://www.w3.org/1999/xlink" x="0px" y="0px"
	 width="128px" height="128px" viewBox="0 0 128 128" enable-background="new 0 0 128 128" xml:space="preserve">
<circle cx="22.1" cy="15.1" r="12.1"/>
<path d="M8.6,69.6h1.2v24c0,3.3,2.7,6,6,6h12.6c3.3,0,6-2.7,6-6v-1.4c-1.1-2.1-1.8-4.5-1.8-7V53.8c0-6.1,3.7-11.4,9-13.7v-2.4
	c0-3.3-2.7-6-6-6H8.6c-3.3,0-6,2.7-6,6v25.9C2.6,66.9,5.2,69.6,8.6,69.6z"/>
<circle cx="105.9" cy="15.1" r="12.1"/>
<path d="M86.3,37.6v2.4c5.3,2.3,9,7.6,9,13.7v31.3c0,2.5-0.6,4.9-1.8,7v1.4c0,3.3,2.7,6,6,6h12.6c3.3,0,6-2.7,6-6v-24h1.2
	c3.3,0,6-2.7,6-6V37.6c0-3.3-2.7-6-6-6H92.3C89,31.6,86.3,34.3,86.3,37.6z"/>
<path d="M41.7,53.8C41.7,53.8,41.7,53.8,41.7,53.8l0,9.8v21.6c0,3.3,2.7,6,6,6h2.3v28.3c0,3.3,2.7,6,6,6h16.1c3.3,0,6-2.7,6-6V91.1
	h2.3c3.3,0,6-2.7,6-6V63.6v-9.8c0,0,0,0,0,0c0-3.3-2.7-6-6-6H47.7C44.3,47.8,41.7,50.5,41.7,53.8z"/>
<circle cx="64" cy="28.9" r="13.9"/>
</svg>
