<?xml version="1.0" encoding="utf-8"?>
<!-- Generator: Adobe Illustrator 18.0.0, SVG Export Plug-In . SVG Version: 6.00 Build 0)  -->
<!DOCTYPE svg PUBLIC "-//W3C//DTD SVG 1.1//EN" "http://www.w3.org/Graphics/SVG/1.1/DTD/svg11.dtd">
<svg version="1.1" id="Capa_1" xmlns="http://www.w3.org/2000/svg" xmlns:xlink="http://www.w3.org/1999/xlink" x="0px" y="0px"
	 width="128px" height="128px" viewBox="0 0 128 128" enable-background="new 0 0 128 128" xml:space="preserve">
<path d="M97.5,10.1l-17.3,6.7c-0.6,0.2-0.9,0.9-0.8,1.5c1.5,5.1,7.1,26.3,8.4,31.5c0.2,0.7,0.8,1.1,1.5,0.9l18.7-3.9
	c1.4-0.3,2.1-1.9,1.3-3.1c-3-4.4-5.3-10-6.9-15.4c-2-6.4-2.2-12.7-2.1-16.3C100.4,10.6,98.9,9.5,97.5,10.1z"/>
<path d="M114.8,5.8c-1.4-1.1-3.4-1.7-4.9-0.4c-2.9,2.6-3.3,11.3-0.6,21c1.3,4.5,3,9,5.7,12.8c2.3,3.4,7.6,7.6,9.8,1.7
	c1.4-3.9,1.2-11-0.9-18.6C121.8,14.5,118.2,8.2,114.8,5.8z"/>
<path d="M11.3,66.3l27-5.6c0.6-0.1,1-0.7,0.8-1.3c-1.1-4.2-4.9-19.1-6-23.4c-0.2-0.6-0.8-1-1.5-0.7L5.3,45.3
	C2.8,46,2.1,51.2,3.6,57.1C5.1,63,8.8,67,11.3,66.3z"/>
<path d="M93.2,117.7c1.8,1.8,5.3,1.9,7.2,0c2-2,2-5.2,0-7.2L70,80.2c-1.9-1.9-2.9-4.4-2.9-7.1V63c0-1.5,1.1-2.7,2.5-3
	c0,0,5.6-1,5.6-1c3.3-0.6,5.7-4.2,4.8-7.5l-7.7-29.7c-0.2-0.6-0.4-1.2-0.8-1.7c-1.5-2.4-4.7-3.4-7.3-2.4c0,0-21.9,8.7-21.9,8.7
	c-2.7,1.1-4.4,4.3-3.6,7.2l6.4,25c0.7,2.6,3.2,4.6,5.9,4.6c0.2,0,1.8-0.3,3.5-0.5c1.8-0.3,3.5,1.1,3.5,3v7.6c0,2.7-1.1,5.2-2.9,7.1
	l-30.3,30.3c-2,2-2,5.2,0,7.2c1.9,1.9,5.2,2,7.2,0l20.9-20.9c1.9-1.9,5.2-0.6,5.2,2.1v15c0,0.4,0,0.7,0.1,1.1c1,4.6,7.9,4.6,8.9,0
	c0.1-0.4,0.1-0.7,0.1-1.1v-15c0-2.7,3.3-4.1,5.2-2.1C72.3,96.8,93.2,117.7,93.2,117.7z"/>
</svg>
