<?xml version="1.0" encoding="utf-8"?>
<!-- Generator: Adobe Illustrator 18.0.0, SVG Export Plug-In . SVG Version: 6.00 Build 0)  -->
<!DOCTYPE svg PUBLIC "-//W3C//DTD SVG 1.1//EN" "http://www.w3.org/Graphics/SVG/1.1/DTD/svg11.dtd">
<svg version="1.1" id="Layer_1" xmlns="http://www.w3.org/2000/svg" xmlns:xlink="http://www.w3.org/1999/xlink" x="0px" y="0px"
	 width="128px" height="128px" viewBox="0 0 128 128" enable-background="new 0 0 128 128" xml:space="preserve">
<path d="M92.8,7.9C88.8,3.9,83.5,2,78,2H24.5C21,2,18,4.3,18,7.7v111.9c0,3.4,3,6.4,6.5,6.4h81.8c3.4,0,6.7-3,6.7-6.4V36
	c0-5.5-2.5-10.7-6.4-14.6L92.8,7.9z M34,42h25c3.8,0,7,3.1,7,7c0,3.8-3.2,7-7,7H34c-3.8,0-7-3.2-7-7C27,45.1,30.2,42,34,42z M97,106
	H34c-3.8,0-7-3.2-7-7c0-3.9,3.2-7,7-7h63c3.8,0,7,3.1,7,7C104,102.8,100.8,106,97,106z M97,81H34c-3.8,0-7-3.2-7-7c0-3.9,3.2-7,7-7
	h63c3.8,0,7,3.1,7,7C104,77.8,100.8,81,97,81z"/>
</svg>
