<?xml version="1.0" encoding="utf-8"?>
<!-- Generator: Adobe Illustrator 18.0.0, SVG Export Plug-In . SVG Version: 6.00 Build 0)  -->
<!DOCTYPE svg PUBLIC "-//W3C//DTD SVG 1.1//EN" "http://www.w3.org/Graphics/SVG/1.1/DTD/svg11.dtd">
<svg version="1.1" id="Capa_1" xmlns="http://www.w3.org/2000/svg" xmlns:xlink="http://www.w3.org/1999/xlink" x="0px" y="0px"
	 width="1000px" height="1000px" viewBox="0 0 1000 1000" enable-background="new 0 0 1000 1000" xml:space="preserve">
<path d="M237.2,793.4h112.5c12.3,0,22.3-10,22.3-22.3v-15.4c0-11.6-8.9-21.3-20.5-22.2c-8.3-0.7-16.7-1.5-25-2.3
	c-16.5-1.7-34.7-3.5-34.7-24.1l-0.1-434.7c65-1,100.6,36.6,119.5,92.2c3.1,9.1,11.6,15.3,21.2,15.3h16.3c12.3,0,22.3-10,22.3-22.3
	V232.7c0-12.3-10-22.3-22.3-22.3H237.2h-0.1H25.5c-12.3,0-22.3,10-22.3,22.3v124.8c0,12.3,10,22.3,22.3,22.3h16.3
	c9.6,0,18.1-6.2,21.2-15.3c18.9-55.6,54.6-93.1,119.5-92.2l-0.1,434.7c0,20.5-18.2,22.3-34.7,24.1c-8.3,0.9-16.6,1.6-25,2.3
	c-11.6,1-20.5,10.6-20.5,22.2v15.4c0,12.3,10,22.3,22.3,22.3h112.5H237.2z"/>
<path d="M974.9,210.4H763.3h-0.1H551.7c-12.3,0-22.3,10-22.3,22.3v124.8c0,12.3,10,22.3,22.3,22.3H568c9.6,0,18.1-6.2,21.2-15.3
	c18.9-55.6,54.6-93.1,119.5-92.2l-0.1,434.7c0,20.5-18.2,22.3-34.7,24.1c-8.3,0.9-16.6,1.6-25,2.3c-11.6,1-20.5,10.6-20.5,22.2v15.4
	c0,12.3,10,22.3,22.3,22.3h112.5h0.1h112.5c12.3,0,22.3-10,22.3-22.3v-15.4c0-11.6-8.9-21.3-20.5-22.2c-8.3-0.7-16.7-1.5-25-2.3
	c-16.5-1.7-34.7-3.5-34.7-24.1l-0.1-434.7c65-1,100.6,36.6,119.5,92.2c3.1,9.1,11.6,15.3,21.2,15.3h16.3c12.3,0,22.3-10,22.3-22.3
	V232.7C997.2,220.4,987.2,210.4,974.9,210.4z"/>
</svg>
