<?xml version="1.0" encoding="utf-8"?>
<!-- Generator: Adobe Illustrator 18.0.0, SVG Export Plug-In . SVG Version: 6.00 Build 0)  -->
<!DOCTYPE svg PUBLIC "-//W3C//DTD SVG 1.1//EN" "http://www.w3.org/Graphics/SVG/1.1/DTD/svg11.dtd">
<svg version="1.1" id="Capa_1" xmlns="http://www.w3.org/2000/svg" xmlns:xlink="http://www.w3.org/1999/xlink" x="0px" y="0px"
	 width="1000px" height="1000px" viewBox="0 0 1000 1000" enable-background="new 0 0 1000 1000" xml:space="preserve">
<path d="M782,941.4v-35.3c0-23.4-18-42.9-41.3-44.8c-17.9-1.5-35.8-3.1-53.7-5c-34.5-3.6-72.5-7.4-72.5-50.3l-0.2-663.5
	c136-2,210.5,76.7,250,193.2c6.3,18.7,23.8,31.3,43.5,31.3H944c24.9,0,45-20.1,45-45V57.9c0-24.9-20.1-45-45-45H500.2H500H56.3
	c-24.9,0-45,20.1-45,45V322c0,24.9,20.1,45,45,45h36.2c19.7,0,37.2-12.6,43.5-31.3c39.4-116.5,114-195.2,250-193.2L385.7,806
	c0,42.9-38,46.7-72.5,50.3c-17.9,1.9-35.8,3.5-53.7,5c-23.3,1.9-41.3,21.4-41.3,44.8v35.3c0,24.9,20.1,45,45,45H500h0.3H737
	C761.8,986.4,782,966.2,782,941.4z"/>
</svg>
