<?xml version="1.0" encoding="utf-8"?>
<!-- Generator: Adobe Illustrator 18.0.0, SVG Export Plug-In . SVG Version: 6.00 Build 0)  -->
<!DOCTYPE svg PUBLIC "-//W3C//DTD SVG 1.1//EN" "http://www.w3.org/Graphics/SVG/1.1/DTD/svg11.dtd">
<svg version="1.1" id="Capa_1" xmlns="http://www.w3.org/2000/svg" xmlns:xlink="http://www.w3.org/1999/xlink" x="0px" y="0px"
	 width="128px" height="128px" viewBox="0 0 128 128" enable-background="new 0 0 128 128" xml:space="preserve">
<path d="M117.3,4.7H62.6c-3.3,0-6,2.7-6,6v9.5H34.1c-3.3,0-6,2.7-6,6v11.6H9c-3.3,0-6,2.7-6,6v40.6c0,3.3,2.7,6,6,6h19.1v11.6
	c0,3.3,2.7,6,6,6h22.6v9.5c0,3.3,2.7,6,6,6h54.7c3.3,0,6-2.7,6-6V10.7C123.3,7.3,120.7,4.7,117.3,4.7z M27.7,76.3H20
	c-1.7,0-3-1.3-3-3V54.7c0-1.7,1.3-3,3-3h7.7V76.3z M56.6,93.9H45.1c-1.7,0-3-1.3-3-3V37.1c0-1.7,1.3-3,3-3h11.6V93.9z M109.3,106.3
	c0,1.7-1.3,3-3,3H90H73.7c-1.7,0-3-1.3-3-3V21.7c0-1.7,1.3-3,3-3H90h16.3c1.7,0,3,1.3,3,3V106.3z"/>
</svg>
