<?xml version="1.0" encoding="utf-8"?>
<!-- Generator: Adobe Illustrator 18.0.0, SVG Export Plug-In . SVG Version: 6.00 Build 0)  -->
<!DOCTYPE svg PUBLIC "-//W3C//DTD SVG 1.1//EN" "http://www.w3.org/Graphics/SVG/1.1/DTD/svg11.dtd">
<svg version="1.1" id="Capa_1" xmlns="http://www.w3.org/2000/svg" xmlns:xlink="http://www.w3.org/1999/xlink" x="0px" y="0px"
	 width="128px" height="128px" viewBox="0 0 128 128" enable-background="new 0 0 128 128" xml:space="preserve">
<path d="M120,10.1H8c-3.3,0-6,2.7-6,6V32c0,3.3,2.7,6,6,6h112c3.3,0,6-2.7,6-6V16.1C126,12.8,123.3,10.1,120,10.1z M24.4,28.5
	c0,1.7-1.3,3-3,3h-8.9c-1.7,0-3-1.3-3-3v-8.9c0-1.7,1.3-3,3-3h8.9c1.7,0,3,1.3,3,3V28.5z M48,28.5c0,1.7-1.3,3-3,3h-8.9
	c-1.7,0-3-1.3-3-3v-8.9c0-1.7,1.3-3,3-3H45c1.7,0,3,1.3,3,3V28.5z M71.6,28.5c0,1.7-1.3,3-3,3h-8.9c-1.7,0-3-1.3-3-3v-8.9
	c0-1.7,1.3-3,3-3h8.9c1.7,0,3,1.3,3,3V28.5z M95.2,28.5c0,1.7-1.3,3-3,3h-8.9c-1.7,0-3-1.3-3-3v-8.9c0-1.7,1.3-3,3-3h8.9
	c1.7,0,3,1.3,3,3V28.5z M119.2,21.1c0,1.7-1.3,3-3,3h-1.4c-1.7,0-3-1.3-3-3v-1.4c0-1.7,1.3-3,3-3h1.4c1.7,0,3,1.3,3,3V21.1z"/>
<path d="M120,50H8c-3.3,0-6,2.7-6,6V72c0,3.3,2.7,6,6,6h112c3.3,0,6-2.7,6-6V56C126,52.7,123.3,50,120,50z M24.4,68.4
	c0,1.7-1.3,3-3,3h-8.9c-1.7,0-3-1.3-3-3v-8.9c0-1.7,1.3-3,3-3h8.9c1.7,0,3,1.3,3,3V68.4z M48,68.4c0,1.7-1.3,3-3,3h-8.9
	c-1.7,0-3-1.3-3-3v-8.9c0-1.7,1.3-3,3-3H45c1.7,0,3,1.3,3,3V68.4z M71.6,68.4c0,1.7-1.3,3-3,3h-8.9c-1.7,0-3-1.3-3-3v-8.9
	c0-1.7,1.3-3,3-3h8.9c1.7,0,3,1.3,3,3V68.4z M95.2,68.4c0,1.7-1.3,3-3,3h-8.9c-1.7,0-3-1.3-3-3v-8.9c0-1.7,1.3-3,3-3h8.9
	c1.7,0,3,1.3,3,3V68.4z"/>
<path d="M120,89.9H8c-3.3,0-6,2.7-6,6v15.9c0,3.3,2.7,6,6,6h112c3.3,0,6-2.7,6-6V96C126,92.6,123.3,89.9,120,89.9z M24.4,108.4
	c0,1.7-1.3,3-3,3h-8.9c-1.7,0-3-1.3-3-3v-8.9c0-1.7,1.3-3,3-3h8.9c1.7,0,3,1.3,3,3V108.4z M48,108.4c0,1.7-1.3,3-3,3h-8.9
	c-1.7,0-3-1.3-3-3v-8.9c0-1.7,1.3-3,3-3H45c1.7,0,3,1.3,3,3V108.4z M71.6,108.4c0,1.7-1.3,3-3,3h-8.9c-1.7,0-3-1.3-3-3v-8.9
	c0-1.7,1.3-3,3-3h8.9c1.7,0,3,1.3,3,3V108.4z M95.2,108.4c0,1.7-1.3,3-3,3h-8.9c-1.7,0-3-1.3-3-3v-8.9c0-1.7,1.3-3,3-3h8.9
	c1.7,0,3,1.3,3,3V108.4z"/>
</svg>
