<?xml version="1.0" encoding="utf-8"?>
<!-- Generator: Adobe Illustrator 18.0.0, SVG Export Plug-In . SVG Version: 6.00 Build 0)  -->
<!DOCTYPE svg PUBLIC "-//W3C//DTD SVG 1.1//EN" "http://www.w3.org/Graphics/SVG/1.1/DTD/svg11.dtd">
<svg version="1.1" id="Layer_1" xmlns="http://www.w3.org/2000/svg" xmlns:xlink="http://www.w3.org/1999/xlink" x="0px" y="0px"
	 width="128px" height="128px" viewBox="0 0 128 128" enable-background="new 0 0 128 128" xml:space="preserve">
<path d="M127,62.3c0-12.9-10.4-23.3-23.3-23.3H25.3C12.4,39,2,49.4,2,62.3v0.5c0,0,0,0,0,0s0,0,0,0v0V63v0.2v0c0,0,0,0,0,0s0,0,0,0
	v0.5C2,76.6,12.4,87,25.3,87h78.5c12.9,0,23.3-10.4,23.3-23.3v-0.5c0-0.1,0-0.2,0-0.3c0-0.1,0-0.2,0-0.3V62.3z M24.8,74.8
	c-6.5,0-11.9-5.2-12-11.8c0.1-6.5,5.4-11.8,12-11.8s11.9,5.2,12,11.8C36.6,69.5,31.3,74.8,24.8,74.8z M64,74.8
	c-6.5,0-11.9-5.2-12-11.8c0.1-6.5,5.4-11.8,12-11.8S75.9,56.5,76,63C75.9,69.5,70.5,74.8,64,74.8z M103,74.8
	c-6.5,0-11.9-5.2-12-11.8c0.1-6.5,5.4-11.8,12-11.8s11.9,5.2,12,11.8C114.9,69.5,109.5,74.8,103,74.8z"/>
</svg>
