<?xml version="1.0" encoding="utf-8"?>
<!-- Generator: Adobe Illustrator 18.0.0, SVG Export Plug-In . SVG Version: 6.00 Build 0)  -->
<!DOCTYPE svg PUBLIC "-//W3C//DTD SVG 1.1//EN" "http://www.w3.org/Graphics/SVG/1.1/DTD/svg11.dtd">
<svg version="1.1" id="Capa_1" xmlns="http://www.w3.org/2000/svg" xmlns:xlink="http://www.w3.org/1999/xlink" x="0px" y="0px"
	 width="1000px" height="1000px" viewBox="0 0 1000 1000" enable-background="new 0 0 1000 1000" xml:space="preserve">
<path d="M957,82.5H202.6c-14.6,0-27.1,10.5-29.6,24.9c-10.4,61.3-58.8,109.7-120.2,120.2C38.5,230,28,242.5,28,257.1v451.4
	c0,14.6,10.5,27.1,24.9,29.6c61.3,10.4,109.7,58.8,120.2,120.2c2.4,14.4,15,24.9,29.6,24.9H957c8.3,0,15-6.7,15-15v-20.6
	c0-7-4.9-13-11.8-14.6c-22.9-5.3-39.9-25.8-39.9-50.3c0-24.5,17-45,39.9-50.3c6.8-1.6,11.8-7.6,11.8-14.6v-20c0-7-4.9-13-11.8-14.6
	c-22.9-5.3-39.9-25.8-39.9-50.3s17-45,39.9-50.3c6.8-1.6,11.8-7.6,11.8-14.6v-20c0-7-4.9-13-11.8-14.6
	c-22.9-5.3-39.9-25.8-39.9-50.3c0-24.5,17-45,39.9-50.3c6.8-1.6,11.8-7.6,11.8-14.6v-20c0-7-4.9-13-11.8-14.6
	c-22.9-5.3-39.9-25.8-39.9-50.3s17-45,39.9-50.3C967.1,281,972,275,972,268v-20c0-7-4.9-13-11.8-14.6c-22.9-5.3-39.9-25.8-39.9-50.3
	c0-24.5,17-45,39.9-50.3c6.8-1.6,11.8-7.6,11.8-14.6V97.5C972,89.2,965.3,82.5,957,82.5z M717.8,453.6l-78.4,69
	c-8.4,7.4-12,18.7-9.3,29.6l23,95.3c6.2,25.7-21.5,46.3-44.4,32.9l-86-50.5c-9.4-5.5-21-5.5-30.4,0l-86,50.5
	c-22.8,13.4-50.6-7.2-44.4-32.9l23-95.3c2.6-10.8-1-22.2-9.3-29.6l-78.4-69c-19.7-17.4-9.2-49.9,17-52.4l104.3-9.8
	c11.1-1,20.7-8.2,24.9-18.5l36.4-88.4c10.2-24.8,45.3-24.8,55.5,0l36.4,88.4c4.2,10.3,13.8,17.4,24.9,18.5l104.3,9.8
	C727,403.7,737.6,436.2,717.8,453.6z"/>
</svg>
