<?xml version="1.0" encoding="utf-8"?>
<!-- Generator: Adobe Illustrator 18.0.0, SVG Export Plug-In . SVG Version: 6.00 Build 0)  -->
<!DOCTYPE svg PUBLIC "-//W3C//DTD SVG 1.1//EN" "http://www.w3.org/Graphics/SVG/1.1/DTD/svg11.dtd">
<svg version="1.1" id="Capa_1" xmlns="http://www.w3.org/2000/svg" xmlns:xlink="http://www.w3.org/1999/xlink" x="0px" y="0px"
	 width="128px" height="128px" viewBox="0 0 128 128" enable-background="new 0 0 128 128" xml:space="preserve">
<path d="M24.3,125.9H32c2.4,0,4.5-1.4,5.5-3.6l0.7-1.7c0.5-1.1,1.6-1.8,2.7-1.8H64h22.4c1.2,0,2.2,0.7,2.7,1.8l0.8,1.8
	c1,2.1,3.1,3.5,5.5,3.5h8.2c4.4,0,7.3-4.6,5.4-8.6L75.5,46.2c0,0,0,0,0,0c-3.3,2.3-7.2,3.7-11.5,3.7c-4.6,0-8.9-1.6-12.2-4.2
	c-0.1,0.2-0.2,0.4-0.3,0.6l-32.6,71.1C17,121.4,19.9,125.9,24.3,125.9z M55.6,79.6l5.5-13.3c0.5-1.3,1.7-1.9,2.8-1.8
	c1.1,0,2.2,0.6,2.7,1.8l5.7,13.3c0.8,2-0.6,4.2-2.8,4.2H64h-5.6C56.2,83.8,54.8,81.6,55.6,79.6z M47.4,100.7l0.5-1.1
	c0.5-1.1,1.6-1.8,2.7-1.8h26.7c1.2,0,2.2,0.7,2.7,1.8l0.5,1.1c0.9,2-0.5,4.2-2.7,4.2H50.2C48,104.9,46.5,102.7,47.4,100.7z"/>
<circle cx="64" cy="29.9" r="12"/>
<path d="M88,44.6c0.9,0.7,2,1,3,1c1.5,0,3-0.7,4-2c3-4,4.6-8.7,4.6-13.7c0-5.1-1.7-10-4.9-14c-1.7-2.2-4.9-2.5-7-0.8
	c-2.2,1.7-2.5,4.9-0.8,7c1.8,2.2,2.7,4.9,2.7,7.8c0,2.8-0.9,5.4-2.6,7.6C85.3,39.8,85.8,42.9,88,44.6z"/>
<path d="M106.6,57c0.9,0.7,2,1,3,1c1.5,0,3-0.7,4-2c5.8-7.5,8.8-16.5,8.8-26c0-9.8-3.2-19-9.3-26.6c-1.7-2.2-4.9-2.5-7-0.8
	c-2.2,1.7-2.5,4.9-0.8,7c4.6,5.8,7.1,12.9,7.1,20.4c0,7.3-2.3,14.2-6.7,19.9C104,52.2,104.4,55.4,106.6,57z"/>
<path d="M40.3,15.1c-2.2-1.7-5.3-1.4-7,0.8c-3.1,4-4.9,8.9-4.9,14c0,5,1.6,9.7,4.6,13.7c1,1.3,2.5,2,4,2c1.1,0,2.1-0.3,3-1
	c2.2-1.7,2.6-4.8,0.9-7c-1.7-2.2-2.6-4.8-2.6-7.6c0-2.9,0.9-5.6,2.7-7.8C42.8,20,42.5,16.8,40.3,15.1z"/>
<path d="M21.9,2.7c-2.2-1.7-5.3-1.4-7,0.8c-6.1,7.6-9.3,16.8-9.3,26.6c0,9.5,3,18.5,8.8,26c1,1.3,2.5,2,4,2c1.1,0,2.1-0.3,3-1
	c2.2-1.7,2.6-4.8,0.9-7c-4.4-5.8-6.7-12.7-6.7-19.9c0-7.5,2.5-14.5,7.1-20.4C24.4,7.5,24.1,4.4,21.9,2.7z"/>
</svg>
