<?xml version="1.0" encoding="utf-8"?>
<!-- Generator: Adobe Illustrator 18.0.0, SVG Export Plug-In . SVG Version: 6.00 Build 0)  -->
<!DOCTYPE svg PUBLIC "-//W3C//DTD SVG 1.1//EN" "http://www.w3.org/Graphics/SVG/1.1/DTD/svg11.dtd">
<svg version="1.1" id="Capa_1" xmlns="http://www.w3.org/2000/svg" xmlns:xlink="http://www.w3.org/1999/xlink" x="0px" y="0px"
	 width="1000px" height="1000px" viewBox="0 0 1000 1000" enable-background="new 0 0 1000 1000" xml:space="preserve">
<path d="M774.7,560h150c33.1,0,60-26.9,60-60s-26.9-60-60-60h-150c-33.1,0-60,26.9-60,60S741.6,560,774.7,560z"/>
<path d="M574.7,440h-150c-33.1,0-60,26.9-60,60s26.9,60,60,60h150c33.1,0,60-26.9,60-60S607.9,440,574.7,440z"/>
<path d="M224.7,440h-150c-33.1,0-60,26.9-60,60s26.9,60,60,60h150c33.1,0,60-26.9,60-60S257.9,440,224.7,440z"/>
</svg>
