<?xml version="1.0" encoding="utf-8"?>
<!-- Generator: Adobe Illustrator 18.0.0, SVG Export Plug-In . SVG Version: 6.00 Build 0)  -->
<!DOCTYPE svg PUBLIC "-//W3C//DTD SVG 1.1//EN" "http://www.w3.org/Graphics/SVG/1.1/DTD/svg11.dtd">
<svg version="1.1" id="Capa_1" xmlns="http://www.w3.org/2000/svg" xmlns:xlink="http://www.w3.org/1999/xlink" x="0px" y="0px"
	 width="1000px" height="1000px" viewBox="0 0 1000 1000" enable-background="new 0 0 1000 1000" xml:space="preserve">
<path d="M913,377.6c-10.3-19.8-30.8-32.3-53.2-32.3H720.9v394.5h34.3c0,10.7,1.8,20.9,5.1,30.5c3.9,11.3,10,21.6,17.7,30.5
	c17,19.6,42.2,32,70.2,32c28,0,53.1-12.4,70.2-32c7.7-8.9,13.8-19.2,17.7-30.5c3.3-9.6,5.1-19.8,5.1-30.5H956c16.6,0,30-13.4,30-30
	V532.5c0-9.6-2.3-19.1-6.8-27.7L913,377.6z"/>
<path d="M609,739.8h30.5h21.4V345.3v-30.5v-30.5v-54.5c0-33.1-26.9-60-60-60H70.2c-33.1,0-60,26.9-60,60v450c0,33.1,26.9,60,60,60
	h56.2c0,10.5,1.7,20.6,4.9,30c3.8,11.1,9.6,21.2,17,30c17.1,20.2,42.6,33,71,33s54-12.8,71-33c7.4-8.8,13.2-18.9,17-30
	c3.2-9.4,4.9-19.5,4.9-30h266.2H609z"/>
</svg>
