<?xml version="1.0" encoding="utf-8"?>
<!-- Generator: Adobe Illustrator 18.0.0, SVG Export Plug-In . SVG Version: 6.00 Build 0)  -->
<!DOCTYPE svg PUBLIC "-//W3C//DTD SVG 1.1//EN" "http://www.w3.org/Graphics/SVG/1.1/DTD/svg11.dtd">
<svg version="1.1" id="Capa_1" xmlns="http://www.w3.org/2000/svg" xmlns:xlink="http://www.w3.org/1999/xlink" x="0px" y="0px"
	 width="128px" height="128px" viewBox="0 0 128 128" enable-background="new 0 0 128 128" xml:space="preserve">
<path d="M41.1,96.6c2.9,2.9,6.7,4.3,10.5,4.3c3.8,0,7.6-1.4,10.5-4.3c5.8-5.8,5.8-15.2,0-20.9l-8.1-7.8h18.9
	c5.8,0,11.3,2.3,15.5,6.5c4.2,4.2,6.5,9.7,6.5,15.5v18.7c0,8.2,6.6,14.8,14.8,14.8s14.8-6.6,14.8-14.8V89.8c0-6.9-1.4-13.7-4.1-20.1
	c-2.6-6.1-6.3-11.6-11.1-16.4c-4.7-4.7-10.2-8.5-16.4-11.1c-6.4-2.7-13.1-4.1-20.1-4.1H54l8-8c5.8-5.8,5.8-15.2,0-20.9
	c-5.8-5.8-15.2-5.8-20.9,0L7.9,42.4c-5.8,5.8-5.8,15.2,0,20.9L41.1,96.6z"/>
</svg>
