<?xml version="1.0" encoding="utf-8"?>
<!-- Generator: Adobe Illustrator 18.0.0, SVG Export Plug-In . SVG Version: 6.00 Build 0)  -->
<!DOCTYPE svg PUBLIC "-//W3C//DTD SVG 1.1//EN" "http://www.w3.org/Graphics/SVG/1.1/DTD/svg11.dtd">
<svg version="1.1" id="Capa_1" xmlns="http://www.w3.org/2000/svg" xmlns:xlink="http://www.w3.org/1999/xlink" x="0px" y="0px"
	 width="128px" height="128px" viewBox="0 0 128 128" enable-background="new 0 0 128 128" xml:space="preserve">
<path d="M7.5,24.3l28.8,28.8c1-2.2,2.4-4.3,4.2-6l10.7-10.7L23.3,8.6c-2.3-2.3-6.1-2.3-8.5,0l-7.3,7.3C5.2,18.2,5.2,22,7.5,24.3z"/>
<path d="M122.3,11.8c-0.1-2.6-1.1-5.1-2.8-7.1c-2.1-2.4-5.2-3.8-8.3-3.8L63.1,1C57,1,52,5.9,52,12c0,6.1,5,11.1,11.1,11.1h21.3
	L50.4,57c-1.4,1.4-2.1,3.3-2.1,5.2c0,0.1,0,0.2,0,0.2v58.4c0,3.3,2.7,6,6,6h10.3c3.3,0,6-2.7,6-6V71.3c0-1.9,0.8-3.7,2.1-5
	l27.4-27.5v21.3c0,6.1,5,11.1,11.1,11.1c6.1,0,11.1-5,11.1-11.1c0,0,0-48.1,0-48.1C122.3,12,122.3,11.9,122.3,11.8z"/>
</svg>
