<?xml version="1.0" encoding="utf-8"?>
<!-- Generator: Adobe Illustrator 18.0.0, SVG Export Plug-In . SVG Version: 6.00 Build 0)  -->
<!DOCTYPE svg PUBLIC "-//W3C//DTD SVG 1.1//EN" "http://www.w3.org/Graphics/SVG/1.1/DTD/svg11.dtd">
<svg version="1.1" id="Layer_1" xmlns="http://www.w3.org/2000/svg" xmlns:xlink="http://www.w3.org/1999/xlink" x="0px" y="0px"
	 width="128px" height="128px" viewBox="0 0 128 128" enable-background="new 0 0 128 128" xml:space="preserve">
<path d="M19.4,57.9c1.3,1.5,3.2,2.1,5.1,2.1h79c2,0,3.8-0.6,5.1-2.1L124.3,40c3.8-4.4,0.7-11-5.1-11H87.4L73.8,43.2
	c-2.5,2.7-6.1,4.1-9.8,4.1c-3.7,0-7.2-1.5-9.8-4.1L40.6,29H8.8C3,29-0.1,35.6,3.7,40L19.4,57.9z"/>
<path d="M40,5c-3.1,0-4.7,3.8-2.5,6.1l17,17.9l7,7.3c0.7,0.7,1.6,1,2.5,1s1.8-0.3,2.5-1l7-7.3l17-17.9C92.7,8.8,91.1,5,88,5H40z"/>
<path d="M8.8,99h31.8l13.6-14.2c2.5-2.7,6.1-4.1,9.8-4.1c3.7,0,7.2,1.5,9.8,4.1L87.4,99h31.8c5.8,0,8.9-6.8,5.1-11.1l-15.7-17.8
	c-1.3-1.5-3.2-2.1-5.1-2.1h-79c-2,0-3.8,0.6-5.1,2.1L3.7,88C-0.1,92.4,3,99,8.8,99z"/>
<path d="M66.5,91.7c-0.7-0.7-1.6-1-2.5-1s-1.8,0.3-2.5,1l-7,7.3l-17,17.9c-2.1,2.2-0.5,6.1,2.5,6.1h48c3.1,0,4.7-3.8,2.5-6.1
	L73.6,99L66.5,91.7z"/>
</svg>
