<?xml version="1.0" encoding="utf-8"?>
<!-- Generator: Adobe Illustrator 18.0.0, SVG Export Plug-In . SVG Version: 6.00 Build 0)  -->
<!DOCTYPE svg PUBLIC "-//W3C//DTD SVG 1.1//EN" "http://www.w3.org/Graphics/SVG/1.1/DTD/svg11.dtd">
<svg version="1.1" id="Capa_1" xmlns="http://www.w3.org/2000/svg" xmlns:xlink="http://www.w3.org/1999/xlink" x="0px" y="0px"
	 width="1000px" height="1000px" viewBox="0 0 1000 1000" enable-background="new 0 0 1000 1000" xml:space="preserve">
<path d="M980.3,851.2V407c0-33.1-26.9-60-60-60H782.1V593c0,32.1-12.5,62.2-35.1,84.9S694.1,713,662.1,713H274.8v138.2
	c0,33.1,26.9,60,60,60h585.6C953.5,911.2,980.3,884.3,980.3,851.2z"/>
<path d="M16.5,148.8V593c0,33.1,26.9,60,60,60h198.2h387.3c33.1,0,60-26.9,60-60V347V148.8c0-33.1-26.9-60-60-60H76.5
	C43.4,88.8,16.5,115.7,16.5,148.8z"/>
</svg>
