<?xml version="1.0" encoding="utf-8"?>
<!-- Generator: Adobe Illustrator 18.0.0, SVG Export Plug-In . SVG Version: 6.00 Build 0)  -->
<!DOCTYPE svg PUBLIC "-//W3C//DTD SVG 1.1//EN" "http://www.w3.org/Graphics/SVG/1.1/DTD/svg11.dtd">
<svg version="1.1" id="Layer_1" xmlns="http://www.w3.org/2000/svg" xmlns:xlink="http://www.w3.org/1999/xlink" x="0px" y="0px"
	 width="128px" height="128px" viewBox="0 0 128 128" enable-background="new 0 0 128 128" xml:space="preserve">
<path d="M60.2,80.7l-7.6,7.6c-3.2,3.2-3.2,8.3,0,11.4l1.9,1.9c3.2,3.2,8.3,3.2,11.4,0l7.6-7.6l28.6,28.6c3.2,3.2,8.3,3.2,11.4,0
	l9.5-9.5c3.2-3.2,3.2-8.3,0-11.4L94.5,73l7.6-7.6c3.2-3.2,3.2-8.3,0-11.4l-1.9-1.9c-3.2-3.2-8.3-3.2-11.4,0l-7.6,7.6v0L60.2,80.7z"
	/>
<path d="M32.5,53l-7.6,7.6c-3.2,3.2-3.2,8.3,0,11.4l1.9,1.9c3.2,3.2,8.3,3.2,11.4,0l7.6-7.6l21-21l7.6-7.6c3.2-3.2,3.2-8.3,0-11.4
	l-1.9-1.9c-3.2-3.2-8.3-3.2-11.4,0L53.5,32L24.9,3.4c-3.2-3.2-8.3-3.2-11.4,0l-9.5,9.5c-3.2,3.2-3.2,8.3,0,11.4L32.5,53z"/>
</svg>
