<?xml version="1.0" encoding="utf-8"?>
<!-- Generator: Adobe Illustrator 18.0.0, SVG Export Plug-In . SVG Version: 6.00 Build 0)  -->
<!DOCTYPE svg PUBLIC "-//W3C//DTD SVG 1.1//EN" "http://www.w3.org/Graphics/SVG/1.1/DTD/svg11.dtd">
<svg version="1.1" id="Capa_1" xmlns="http://www.w3.org/2000/svg" xmlns:xlink="http://www.w3.org/1999/xlink" x="0px" y="0px"
	 width="128px" height="128px" viewBox="0 0 128 128" enable-background="new 0 0 128 128" xml:space="preserve">
<path d="M7,127h89.8c1.4,0,2.9-0.5,3.9-1.6c1.6-1.8,1.7-4.4,0.4-6.3c-1.9-2.6-2.8-6.3-2.4-9.5c0.2-1.7,0.7-3.3,1.5-4.7
	c0.6-1.2,1.5-2.2,1.8-3.5c0.2-0.7,0.1-1.3,0.1-2c0-1.6,0-3.2,0-4.8c0-2.2,0-4.5,0-6.7H92v4.6c0,1.7-1.3,3-3,3h-65c-1.7,0-3-1.3-3-3
	V29.1c0-1.7,1.3-3,3-3h33.4v-10H7c-3.3,0-6,2.7-6,6v78.2V121C1,124.3,3.7,127,7,127z M11,108.4c0-1.7,1.3-3,3-3h75.2
	c-1.1,4.3-0.7,8.4,0.2,11.6H14c-1.7,0-3-1.3-3-3V108.4z"/>
<path d="M41,36.3c0-1.7-1.3-3-3-3h-6.3c-1.7,0-3,1.3-3,3v6.3c0,1.7,1.3,3,3,3H38c1.7,0,3-1.3,3-3V36.3z"/>
<path d="M41,58c0-1.7-1.3-3-3-3h-6.3c-1.7,0-3,1.3-3,3v6.3c0,1.7,1.3,3,3,3H38c1.7,0,3-1.3,3-3V58z"/>
<path d="M38,76.6h-6.3c-1.7,0-3,1.3-3,3V86c0,1.7,1.3,3,3,3H38c1.7,0,3-1.3,3-3v-6.3C41,77.9,39.6,76.6,38,76.6z"/>
<path d="M124.7,60.9c0.5-0.9,1-1.8,1-2.8c0,0,0-48.5,0-48.5c0-1.7-1.3-3-3-3H70.3c-1.7,0-3,1.3-3,3v6.5v10V58v16.8c0,1.7,1.3,3,3,3
	H92h10h18.5c1.6,0,3.2-0.7,4.2-2c1.5-1.9,1.3-4.5-0.2-6.3c-0.9-1.1-1.5-2.6-1.6-4c0-1.2,0.3-2.5,1.1-3.6
	C124.2,61.6,124.4,61.3,124.7,60.9z M102,67.8H92H78.8c-0.8,0-1.5-0.7-1.5-1.5v-1.8c0-0.8,0.7-1.5,1.5-1.5H92h10h11.1
	c-0.2,1.7-0.2,3.3,0.1,4.8H102z M115.7,51.5c0,0.8-0.7,1.5-1.5,1.5H102H92h-9.2c-0.8,0-1.5-0.7-1.5-1.5V26.1v-8
	c0-0.8,0.7-1.5,1.5-1.5h15.5h15.9c0.8,0,1.5,0.7,1.5,1.5V51.5z"/>
<path d="M92.1,19.2h-3.2c-0.8,0-1.5,0.7-1.5,1.5v0.9v2.4c0,0.8,0.7,1.5,1.5,1.5h3.2c0.8,0,1.5-0.7,1.5-1.5v-2.4v-0.9
	C93.6,19.9,93,19.2,92.1,19.2z"/>
<path d="M92.1,31.2H92h-0.7h-2.4c-0.8,0-1.5,0.7-1.5,1.5V36c0,0.8,0.7,1.5,1.5,1.5h2.4H92h0.2c0.8,0,1.5-0.7,1.5-1.5v-3.2
	C93.6,31.9,93,31.2,92.1,31.2z"/>
<path d="M92.1,43.3H92h-3.1c-0.8,0-1.5,0.7-1.5,1.5V48c0,0,0,0,0,0c0,0.8,0.7,1.5,1.5,1.5H92h0.2c0.8,0,1.5-0.7,1.5-1.5c0,0,0,0,0,0
	v-3.2C93.6,43.9,93,43.3,92.1,43.3z"/>
</svg>
