<?xml version="1.0" encoding="utf-8"?>
<!-- Generator: Adobe Illustrator 18.0.0, SVG Export Plug-In . SVG Version: 6.00 Build 0)  -->
<!DOCTYPE svg PUBLIC "-//W3C//DTD SVG 1.1//EN" "http://www.w3.org/Graphics/SVG/1.1/DTD/svg11.dtd">
<svg version="1.1" id="Layer_1" xmlns="http://www.w3.org/2000/svg" xmlns:xlink="http://www.w3.org/1999/xlink" x="0px" y="0px"
	 width="128px" height="128px" viewBox="0 0 128 128" enable-background="new 0 0 128 128" xml:space="preserve">
<path d="M3.4,23.7c0,9,5.6,16.7,13.6,19.6v64.2c0,1.7,1.8,3.6,3.5,3.6h11.1h14.8h4.6l-4.7,3.8c-1.2,1.2-1.9,2.2-1.9,3.9
	c0,1.7,0.7,3.1,1.9,4.3c1.2,1.2,2.8,1.8,4.5,1.8c1.7,0,3.3-0.7,4.5-1.9C71,107.3,71,107.2,71,107.2c1.2-1.3,1.8-3,1.7-4.8
	c-0.1-1.6-0.8-3.1-2.1-4.3C70.6,98,55.3,82.8,55.3,82.8c-1.2-1.2-2.8-1.9-4.5-1.9c-1.7,0-3.3,0.7-4.5,1.9c-1.2,1.2-1.9,2.8-1.9,4.5
	c0,1.7,0.7,3.5,1.9,4.7l4.7,5h-4.6H35.1c-1.7,0-3.1-1.3-3.1-3.1v-51c7-3,13.1-10.5,13.1-19.3c0-11.5-9.3-20.7-20.8-20.7
	C12.9,2.9,3.4,12.2,3.4,23.7z M24.3,15.6c4.5,0,8.1,3.6,8.1,8.1s-3.6,8.1-8.1,8.1c-4.5,0-8.1-3.6-8.1-8.1S19.8,15.6,24.3,15.6z"/>
<path d="M121.9,104.1c0-9-5.9-16.7-13.9-19.6V20.3c0-1.7-1.2-3.3-2.9-3.3H93.9H79.1h-4.6l4.7-3.9c1.2-1.2,1.9-2.3,1.9-4
	c0-1.7-0.7-3.1-1.9-4.3c-1.2-1.2-2.8-1.8-4.5-1.8c-1.7,0-3.3,0.7-4.5,1.9C54.6,20.5,54.6,20.5,54.6,20.5c-1.2,1.3-1.8,3-1.7,4.8
	c0.1,1.6,0.8,3.1,2.1,4.3c0.1,0.1,15.3,15.3,15.3,15.3c1.2,1.2,2.8,1.9,4.5,1.9c1.7,0,3.3-0.6,4.5-1.8c1.2-1.2,1.9-2.8,1.9-4.5
	c0-1.7-0.7-3.4-1.9-4.6L74.5,31h4.6h11.4c1.7,0,2.5,1.1,2.5,2.8v51c-7,3-12.8,10.5-12.8,19.3c0,11.5,9.3,20.7,20.8,20.7
	C112.4,124.8,121.9,115.5,121.9,104.1z M101.3,112.2c-4.5,0-8.1-3.6-8.1-8.1s3.6-8.1,8.1-8.1c4.5,0,8.1,3.6,8.1,8.1
	S105.8,112.2,101.3,112.2z"/>
</svg>
