<?xml version="1.0" encoding="utf-8"?>
<!-- Generator: Adobe Illustrator 18.0.0, SVG Export Plug-In . SVG Version: 6.00 Build 0)  -->
<!DOCTYPE svg PUBLIC "-//W3C//DTD SVG 1.1//EN" "http://www.w3.org/Graphics/SVG/1.1/DTD/svg11.dtd">
<svg version="1.1" id="Capa_1" xmlns="http://www.w3.org/2000/svg" xmlns:xlink="http://www.w3.org/1999/xlink" x="0px" y="0px"
	 width="1000px" height="1000px" viewBox="0 0 1000 1000" enable-background="new 0 0 1000 1000" xml:space="preserve">
<path d="M116,576.2l-73.2,79.9c10.5-3.7,21.8-5.8,33.5-5.8h847.3c11.8,0,23,2,33.5,5.8L884,576.2H116z"/>
<path d="M76.3,995h847.3c22.1,0,40-17.9,40-40V750.3c0-22.1-17.9-40-40-40H76.3c-22.1,0-40,17.9-40,40V955
	C36.3,977.1,54.3,995,76.3,995z M812,792.6c33.1,0,60,26.9,60,60c0,33.1-26.9,60-60,60s-60-26.9-60-60
	C752,819.5,778.9,792.6,812,792.6z"/>
<path d="M923.7,171.5c12.3,0,24,2.2,34.9,6.3L814.4,20.5C803.1,8.1,787,1,770.2,1H500H229.8c-16.8,0-32.9,7.1-44.2,19.5L41.4,177.8
	c10.9-4.1,22.6-6.3,34.9-6.3H923.7z"/>
<path d="M76.3,516.2H171h658h94.6c22.1,0,40-17.9,40-40V271.5c0-22.1-17.9-40-40-40H76.3c-22.1,0-40,17.9-40,40v204.7
	C36.3,498.3,54.3,516.2,76.3,516.2z M812,313.8c33.1,0,60,26.9,60,60c0,33.1-26.9,60-60,60s-60-26.9-60-60
	C752,340.7,778.9,313.8,812,313.8z"/>
</svg>
