<?xml version="1.0" encoding="utf-8"?>
<!-- Generator: Adobe Illustrator 18.0.0, SVG Export Plug-In . SVG Version: 6.00 Build 0)  -->
<!DOCTYPE svg PUBLIC "-//W3C//DTD SVG 1.1//EN" "http://www.w3.org/Graphics/SVG/1.1/DTD/svg11.dtd">
<svg version="1.1" id="Layer_1" xmlns="http://www.w3.org/2000/svg" xmlns:xlink="http://www.w3.org/1999/xlink" x="0px" y="0px"
	 width="128px" height="128px" viewBox="0 0 128 128" enable-background="new 0 0 128 128" xml:space="preserve">
<path d="M120,28H64v-4c0-3.3-2.7-6-6-6H8c-3.3,0-6,2.7-6,6v10.2v6.5V105c0,3.3,2.7,6,6,6h27c-0.7-1.9-1-3.8-1-5.9V62.9
	C34,53,42,45,51.9,45h30.5c5.3,0,10,2,13.3,6h24.4c2.1,0,3.9,0.3,5.9,0.9V34C126,30.7,123.3,28,120,28z"/>
<path d="M120.1,63H88v-0.1c0-3.3-2.7-5.9-5.9-5.9H51.9c-3.3,0-5.9,2.6-5.9,5.9V105c0,3.3,2.7,6,6,6h68c3.3,0,6-2.7,6-6V68.8
	c0-0.1,0-0.1,0-0.2C126,65.5,123.3,63,120.1,63z"/>
<path d="M120,111L120,111c3.3,0,6-2.7,6-6C126,108.3,123.3,111,120,111z"/>
</svg>
