<?xml version="1.0" encoding="utf-8"?>
<!-- Generator: Adobe Illustrator 18.0.0, SVG Export Plug-In . SVG Version: 6.00 Build 0)  -->
<!DOCTYPE svg PUBLIC "-//W3C//DTD SVG 1.1//EN" "http://www.w3.org/Graphics/SVG/1.1/DTD/svg11.dtd">
<svg version="1.1" id="Capa_1" xmlns="http://www.w3.org/2000/svg" xmlns:xlink="http://www.w3.org/1999/xlink" x="0px" y="0px"
	 width="1000px" height="1000px" viewBox="0 0 1000 1000" enable-background="new 0 0 1000 1000" xml:space="preserve">
<path d="M790.9,283c38.7,0,70-31.3,70-70v-43.1c0-71.7-58.3-130-130-130H269.1c-71.7,0-130,58.3-130,130v153.3h140V179.9h441.8V213
	C720.9,251.7,752.2,283,790.9,283z"/>
<path d="M94.3,398.2c-33.1,0-60,26.9-60,60v453.9c0,33.1,26.9,60,60,60h811.4c33.1,0,60-26.9,60-60V458.2c0-33.1-26.9-60-60-60
	H279.1h-140H94.3z"/>
</svg>
