<?xml version="1.0" encoding="utf-8"?>
<!-- Generator: Adobe Illustrator 18.0.0, SVG Export Plug-In . SVG Version: 6.00 Build 0)  -->
<!DOCTYPE svg PUBLIC "-//W3C//DTD SVG 1.1//EN" "http://www.w3.org/Graphics/SVG/1.1/DTD/svg11.dtd">
<svg version="1.1" id="Capa_1" xmlns="http://www.w3.org/2000/svg" xmlns:xlink="http://www.w3.org/1999/xlink" x="0px" y="0px"
	 width="1000px" height="1000px" viewBox="0 0 1000 1000" enable-background="new 0 0 1000 1000" xml:space="preserve">
<path d="M117.9,879.5c-28.2,0-51,22.8-51,51s22.8,51,51,51h741.5c28.2,0,51-22.8,51-51s-22.8-51-51-51H117.9z"/>
<path d="M942.7,56.1c0-4.9,0-10.1,0-15.1c0-16.6-13.4-30-30-30H584c-16.6,0-30,13.4-30,30v14.5c0,15.5,11.8,28.4,27.2,29.9
	c14.5,1.4,29,3.5,43.3,6.3c30.2,5.9,44.9,22.7,44.9,53.3v374.9c0,22-2.5,45.4-7.3,69.5c-4.6,23.1-13.9,45-27.6,65
	c-14.3,20.1-34.2,36.9-59,49.9c-21.6,11.3-51.4,17.7-88.3,19.2c-37-1.4-66.7-7.9-88.3-19.2c-24.8-13-44.7-29.7-59-49.9
	c-13.7-20-23-41.9-27.6-65c-4.8-24.2-7.3-47.6-7.3-69.5V144.9c0-30.5,14.7-47.3,44.9-53.3c14.3-2.8,28.7-4.9,43.3-6.3
	c15.4-1.5,27.2-14.4,27.2-29.9V41c0-16.6-13.4-30-30-30H61.4c-16.6,0-30,13.4-30,30c0,5,0,10.2,0,15.1c0,14.7,10.7,27.3,25.2,29.6
	c18.2,2.9,40.1,7.1,43.5,8.3c27,9.8,44.2,27.4,44.2,57v408.6c0,34.4,7.4,67.9,22,99.5c14.6,31.6,36.5,60,65.2,84.4l0.1,0.1
	c28.8,24.2,64.8,43.6,106.9,57.7c41.8,14,90,21.1,143.2,21.1c1.7,0,3.5,0,5.4-0.1c2,0,3.7,0.1,5.4,0.1c53.2,0,101.3-7.1,143.2-21.1
	c42.1-14.1,78-33.5,106.9-57.7l0.1-0.1c28.7-24.4,50.6-52.8,65.2-84.4c14.6-31.6,22-65.1,22-99.5V151.1c0-29.6,17.3-47.2,44.2-57
	c3.4-1.2,25.3-5.4,43.5-8.3C932.1,83.4,942.7,70.8,942.7,56.1z"/>
</svg>
