<?xml version="1.0" encoding="utf-8"?>
<!-- Generator: Adobe Illustrator 18.0.0, SVG Export Plug-In . SVG Version: 6.00 Build 0)  -->
<!DOCTYPE svg PUBLIC "-//W3C//DTD SVG 1.1//EN" "http://www.w3.org/Graphics/SVG/1.1/DTD/svg11.dtd">
<svg version="1.1" id="Capa_1" xmlns="http://www.w3.org/2000/svg" xmlns:xlink="http://www.w3.org/1999/xlink" x="0px" y="0px"
	 width="1000px" height="1000px" viewBox="0 0 1000 1000" enable-background="new 0 0 1000 1000" xml:space="preserve">
<path d="M138.3,980.9c-30.7,0-61.4-11.7-84.9-35.1C6.6,898.9,6.6,822.9,53.4,776L576,253.4H345.3c-66.3,0-120-53.7-120-120
	c0-66.3,53.7-120,120-120h520.4c0.1,0,0.2,0,0.2,0c19.8,0,39.5,5,56.9,14.4c0,0,0.1,0,0.1,0.1c21.6,11.8,39.2,30.1,50.2,52.1
	c8.3,16.5,12.5,35,12.5,53.4v520.4c0,66.3-53.7,120-120,120s-120-53.7-120-120V423.1L223.1,945.7C199.7,969.2,169,980.9,138.3,980.9
	z"/>
</svg>
