<?xml version="1.0" encoding="utf-8"?>
<!-- Generator: Adobe Illustrator 18.0.0, SVG Export Plug-In . SVG Version: 6.00 Build 0)  -->
<!DOCTYPE svg PUBLIC "-//W3C//DTD SVG 1.1//EN" "http://www.w3.org/Graphics/SVG/1.1/DTD/svg11.dtd">
<svg version="1.1" id="Capa_1" xmlns="http://www.w3.org/2000/svg" xmlns:xlink="http://www.w3.org/1999/xlink" x="0px" y="0px"
	 width="1000px" height="1000px" viewBox="0 0 1000 1000" enable-background="new 0 0 1000 1000" xml:space="preserve">
<path d="M540.9,367.7c-9.9,9.9-23.7,16.1-38.9,16.1c-30.4,0-55-24.6-55-55V189.7l-74.7,74.7c-21.5,21.5-56.3,21.5-77.8,0
	c-21.5-21.5-21.5-56.3,0-77.8L463.1,18.1c0,0,0.1-0.1,0.1-0.1c6.4-6.4,14.4-11.2,23.1-13.7c0,0,0,0,0.1,0
	c10.8-3.2,22.5-2.9,33.1,0.6c8,2.7,15.4,7.3,21.4,13.2l168.6,168.6c21.5,21.5,21.5,56.3,0,77.8c-21.5,21.5-56.3,21.5-77.8,0
	L557,189.7v139.2C557,344,550.8,357.8,540.9,367.7z"/>
<path d="M540.9,631.3c-9.9-9.9-23.7-16.1-38.9-16.1c-30.4,0-55,24.6-55,55v139.2l-74.7-74.7c-21.5-21.5-56.3-21.5-77.8,0
	c-21.5,21.5-21.5,56.3,0,77.8l168.6,168.6c0,0,0.1,0.1,0.1,0.1c6.4,6.4,14.4,11.2,23.1,13.7c0,0,0,0,0.1,0
	c10.8,3.2,22.5,2.9,33.1-0.6c8-2.7,15.4-7.3,21.4-13.2l168.6-168.6c21.5-21.5,21.5-56.3,0-77.8c-21.5-21.5-56.3-21.5-77.8,0
	L557,809.3V670.1C557,655,550.8,641.2,540.9,631.3z"/>
<path d="M925.7,430H74.3c-38.7,0-70,31.3-70,70s31.3,70,70,70h851.3c38.7,0,70-31.3,70-70S964.3,430,925.7,430z"/>
</svg>
