<?xml version="1.0" encoding="utf-8"?>
<!-- Generator: Adobe Illustrator 18.0.0, SVG Export Plug-In . SVG Version: 6.00 Build 0)  -->
<!DOCTYPE svg PUBLIC "-//W3C//DTD SVG 1.1//EN" "http://www.w3.org/Graphics/SVG/1.1/DTD/svg11.dtd">
<svg version="1.1" id="Capa_1" xmlns="http://www.w3.org/2000/svg" xmlns:xlink="http://www.w3.org/1999/xlink" x="0px" y="0px"
	 width="1000px" height="1000px" viewBox="0 0 1000 1000" enable-background="new 0 0 1000 1000" xml:space="preserve">
<path d="M660.6,963.7c12.1,12,28.7,20.1,45.7,21.5c17.2,1.4,34.9-2.8,49.2-12.5c3.9-2.6,7.6-5.7,10.9-9c0,0,0.1-0.1,0.1-0.1
	l204.9-204.9c29.3-29.3,29.3-76.8,0-106.1c-29.3-29.3-76.8-29.3-106.1,0l-76.9,76.9v-637c0-41.4-33.6-75-75-75s-75,33.6-75,75v637
	l-78.9-78.9c-29.3-29.3-76.8-29.3-106.1,0c-29.3,29.3-29.3,76.8,0,106.1l207,207C660.5,963.6,660.5,963.7,660.6,963.7z"/>
<path d="M83.5,374.4c19.2,0,38.4-7.3,53-22l78.9-78.9v637c0,41.4,33.6,75,75,75s75-33.6,75-75v-637l76.9,76.9
	c14.6,14.6,33.8,22,53,22c19.2,0,38.4-7.3,53-22c29.3-29.3,29.3-76.8,0-106.1c-5.4-5.4-10.9-10.9-16.3-16.3
	c-13.3-13.3-26.5-26.7-39.9-39.9c-17.2-17.1-34.3-34.2-51.4-51.4c-16.8-17-34.2-33.5-50.9-50.7c-16.2-16.6-32.6-32.9-49.9-48.5
	c-18-16.2-41.5-24.2-65.7-18.5c-6.2,1.4-12.8,3.8-18.4,6.9c-16.7,9.4-30,24.9-43.5,38.3c-16.5,16.3-32.7,32.9-49.1,49.4
	c-19.5,19.6-39.2,39.1-58.8,58.6C88,188.8,71.4,205.4,54.9,222c-8,8-16,15.9-24,23.9c-0.1,0.1-0.3,0.3-0.4,0.4
	c-29.3,29.3-29.3,76.8,0,106.1C45.1,367.1,64.3,374.4,83.5,374.4z"/>
</svg>
