<?xml version="1.0" encoding="utf-8"?>
<!-- Generator: Adobe Illustrator 18.0.0, SVG Export Plug-In . SVG Version: 6.00 Build 0)  -->
<!DOCTYPE svg PUBLIC "-//W3C//DTD SVG 1.1//EN" "http://www.w3.org/Graphics/SVG/1.1/DTD/svg11.dtd">
<svg version="1.1" id="Capa_1" xmlns="http://www.w3.org/2000/svg" xmlns:xlink="http://www.w3.org/1999/xlink" x="0px" y="0px"
	 width="1000px" height="1000px" viewBox="0 0 1000 1000" enable-background="new 0 0 1000 1000" xml:space="preserve">
<path d="M586,60.9L586,60.9c-12.8-12.8-28.6-22.6-45.6-28.5c-4.9-1.7-10-3.1-15.1-4.2c-22.5-4.8-46.6-2.6-68,5.8
	c-15.3,6-29.3,15.2-41,26.9l0,0l-368,368c-46.9,46.9-46.9,122.8,0,169.7c46.9,46.9,122.8,46.9,169.7,0l163.1-163.1v414
	c0,66.3,53.7,120,120,120s120-53.7,120-120v-414l163.1,163.1c23.4,23.4,54.1,35.1,84.9,35.1s61.4-11.7,84.9-35.1
	c46.9-46.9,46.9-122.8,0-169.7L586,60.9z"/>
</svg>
