<?xml version="1.0" encoding="utf-8"?>
<!-- Generator: Adobe Illustrator 18.0.0, SVG Export Plug-In . SVG Version: 6.00 Build 0)  -->
<!DOCTYPE svg PUBLIC "-//W3C//DTD SVG 1.1//EN" "http://www.w3.org/Graphics/SVG/1.1/DTD/svg11.dtd">
<svg version="1.1" id="Capa_1" xmlns="http://www.w3.org/2000/svg" xmlns:xlink="http://www.w3.org/1999/xlink" x="0px" y="0px"
	 width="128px" height="128px" viewBox="0 0 128 128" enable-background="new 0 0 128 128" xml:space="preserve">
<path d="M8,26.7h112c3.3,0,6-2.7,6-6v-12c0-3.3-2.7-6-6-6H8c-3.3,0-6,2.7-6,6v12C2,24,4.7,26.7,8,26.7z"/>
<path d="M69.4,37.4c-2.5-3.2-7.4-3.2-9.9,0l-32,40c-3.2,4.1-0.3,10.1,5,10.1h10.7c3.4,0,6.2,2.8,6.2,6.2v25c0,3.4,2.8,6.2,6.2,6.2
	h16.8c3.4,0,6.2-2.8,6.2-6.2v-25c0-3.4,2.8-6.2,6.2-6.2h10.7c5.2,0,8.1-6,4.9-10.1L69.4,37.4z"/>
</svg>
