<?xml version="1.0" encoding="utf-8"?>
<!-- Generator: Adobe Illustrator 18.0.0, SVG Export Plug-In . SVG Version: 6.00 Build 0)  -->
<!DOCTYPE svg PUBLIC "-//W3C//DTD SVG 1.1//EN" "http://www.w3.org/Graphics/SVG/1.1/DTD/svg11.dtd">
<svg version="1.1" id="Capa_1" xmlns="http://www.w3.org/2000/svg" xmlns:xlink="http://www.w3.org/1999/xlink" x="0px" y="0px"
	 width="1000px" height="1000px" viewBox="0 0 1000 1000" enable-background="new 0 0 1000 1000" xml:space="preserve">
<path d="M500,981.9c265.9,0,481.5-215.6,481.5-481.5c0-265.9-215.6-481.5-481.5-481.5c-265.9,0-481.5,215.6-481.5,481.5
	C18.5,766.3,234.1,981.9,500,981.9z M561.8,290.3l233.2,213.4c19.4,17.8,29.2,42.1,29.2,66.4c0,21.7-7.8,43.5-23.6,60.7
	c-33.6,36.7-90.5,39.2-127.2,5.6L501.1,478.7L323.8,641.3c-36.6,33.6-93.6,31.1-127.2-5.5c-33.6-36.6-31.1-93.6,5.5-127.2
	l238.1-218.3C474.7,258.8,527.4,258.8,561.8,290.3z"/>
</svg>
