<?xml version="1.0" encoding="utf-8"?>
<!-- Generator: Adobe Illustrator 18.0.0, SVG Export Plug-In . SVG Version: 6.00 Build 0)  -->
<!DOCTYPE svg PUBLIC "-//W3C//DTD SVG 1.1//EN" "http://www.w3.org/Graphics/SVG/1.1/DTD/svg11.dtd">
<svg version="1.1" id="Capa_1" xmlns="http://www.w3.org/2000/svg" xmlns:xlink="http://www.w3.org/1999/xlink" x="0px" y="0px"
	 width="1000px" height="1000px" viewBox="0 0 1000 1000" enable-background="new 0 0 1000 1000" xml:space="preserve">
<path d="M909.5,521h-80.6c-27.1,0-50.6,17.2-56.3,43.7l-29.2,135.5c-5.7,26.5-29.2,45.8-56.3,45.8H312.9
	c-27.1,0-50.6-20.1-56.3-46.6l-29.2-134.1c-5.7-26.5-29.2-44.3-56.3-44.3H90.5C58.7,521,34,543.4,34,575.2V912
	c0,31.8,24.7,59,57.5,59h819c30.8,0,55.5-27.2,55.5-59V575.2C966,543.4,941.3,521,909.5,521z"/>
<path d="M171,318.9c0,0,273.1-272.7,273.2-272.7c34.6-34.6,86.5-34.6,121,0l272.5,272.7c34.5,34.5,36,88.6,1.7,122.8
	c-33.5,33.5-89.9,29.9-122.4-2.6L594.7,316.7c0,0,0.3,289.6,0.3,289.7c0,24-10.1,47.1-27.6,63.6c-42.1,39.4-115.6,28.9-143.6-21.6
	c-7.1-12.8-10.8-27.3-10.8-42l0.3-289.7c0,0-122.2,122.3-122.3,122.4c-32.6,32.6-88.9,35.9-122.2,2.6
	C134.7,407.5,136.5,353.4,171,318.9z"/>
</svg>
