<?xml version="1.0" encoding="utf-8"?>
<!-- Generator: Adobe Illustrator 18.0.0, SVG Export Plug-In . SVG Version: 6.00 Build 0)  -->
<!DOCTYPE svg PUBLIC "-//W3C//DTD SVG 1.1//EN" "http://www.w3.org/Graphics/SVG/1.1/DTD/svg11.dtd">
<svg version="1.1" id="Capa_1" xmlns="http://www.w3.org/2000/svg" xmlns:xlink="http://www.w3.org/1999/xlink" x="0px" y="0px"
	 width="128px" height="128px" viewBox="0 0 128 128" enable-background="new 0 0 128 128" xml:space="preserve">
<path d="M52.7,29v-6.5c0-1.7-1.4-3.1-3.1-3.1h-6.5c-1.7,0-3.1,1.4-3.1,3.1V29c0,1.7,1.4,3.1,3.1,3.1h6.5C51.3,32,52.7,30.7,52.7,29z
	"/>
<path d="M108.3,1.4H17.8c-3.4,0-6.1,2.7-6.1,6.1v79.6v21c0,3.4,2.7,6.1,6.1,6.1H54v-10.2H24.9c-1.7,0-3.1-1.4-3.1-3.1v-5.7
	c0-1.7,1.4-3.1,3.1-3.1H54V82.1H35c-1.7,0-3.1-1.4-3.1-3.1V14.7c0-1.7,1.4-3.1,3.1-3.1h66.2c1.7,0,3.1,1.4,3.1,3.1V79
	c0,1.7-1.4,3.1-3.1,3.1H83.5v10.2h17.9c-1.1,4.4-0.7,8.5,0.2,11.8H83.5v10.2h25.6c1.5,0,2.9-0.5,3.9-1.6c1.7-1.8,1.8-4.5,0.4-6.4
	c-1.9-2.6-2.8-6.3-2.5-9.5c0.2-1.8,0.7-3.5,1.5-5c0.5-1,1.2-1.8,1.6-2.8c0.4-0.9,0.4-1.8,0.4-2.8V7.5C114.4,4.2,111.7,1.4,108.3,1.4
	z"/>
<path d="M42,64.3c0,0,21.8-21.7,21.8-21.7c2.8-2.8,6.9-2.8,9.6,0l21.7,21.7c2.7,2.7,2.9,7.1,0.1,9.8c-2.7,2.7-7.2,2.4-9.8-0.2
	l-9.8-9.8c0,0,0,53.6,0,53.6c0,1.9-0.8,3.8-2.2,5.1c-3.4,3.1-9.2,2.3-11.4-1.7c-0.6-1-0.9-2.2-0.9-3.3l0-53.6c0,0-9.7,9.7-9.7,9.8
	c-2.6,2.6-7.1,2.9-9.7,0.2C39.1,71.4,39.3,67.1,42,64.3z"/>
</svg>
