<?xml version="1.0" encoding="utf-8"?>
<!-- Generator: Adobe Illustrator 18.0.0, SVG Export Plug-In . SVG Version: 6.00 Build 0)  -->
<!DOCTYPE svg PUBLIC "-//W3C//DTD SVG 1.1//EN" "http://www.w3.org/Graphics/SVG/1.1/DTD/svg11.dtd">
<svg version="1.1" id="Capa_1" xmlns="http://www.w3.org/2000/svg" xmlns:xlink="http://www.w3.org/1999/xlink" x="0px" y="0px"
	 width="128px" height="128px" viewBox="0 0 128 128" enable-background="new 0 0 128 128" xml:space="preserve">
<path d="M115.1,92.7c0.2-0.3,0.3-0.6,0.4-0.9c0.6-1.4,0.5-2.7,0.5-4.1V9.2c0-3.4-2.8-6.2-6.2-6.2H18.2c-3.4,0-6.2,2.8-6.2,6.2v80.6
	V111c0,3.4,2.8,6.2,6.2,6.2h34.7v-10.3H25.4c-1.7,0-3.1-1.4-3.1-3.1V98c0-1.7,1.4-3.1,3.1-3.1h27.5V84.6H35.7
	c-1.7,0-3.1-1.4-3.1-3.1V16.4c0-1.7,1.4-3.1,3.1-3.1h67c1.7,0,3.1,1.4,3.1,3.1v65.1c0,1.7-1.4,3.1-3.1,3.1H87.8v10.3h15.1
	c-1.1,4.5-0.7,8.6,0.2,12H87.8v10.3h22.9c1.5,0,3-0.5,4-1.6c1.7-1.9,1.8-4.6,0.4-6.5c-1.4-1.9-2.2-4.5-2.5-6.8
	c-0.3-2.3,0-4.6,0.9-6.7C113.9,94.5,114.6,93.6,115.1,92.7z"/>
<path d="M44,68.3c0,0,21.8-21.7,21.8-21.7c2.8-2.8,6.9-2.8,9.6,0l21.7,21.7c2.7,2.7,2.9,7.1,0.1,9.8c-2.7,2.7-7.2,2.4-9.8-0.2
	l-9.8-9.8c0,0,0,51.6,0,51.6c0,1.9-0.8,3.8-2.2,5.1c-3.4,3.1-9.2,2.3-11.4-1.7c-0.6-1-0.9-2.2-0.9-3.3l0-51.6c0,0-9.7,9.7-9.7,9.8
	c-2.6,2.6-7.1,2.9-9.7,0.2C41.1,75.4,41.3,71.1,44,68.3z"/>
<path d="M88,50.9c2.7,2.7,7.1,2.6,9.7-0.1c2.5-2.6,2.2-7.1-0.3-9.6l-22-22c-1.3-1.3-3.1-2-4.8-2s-3.5,0.7-4.8,2l-22,22
	c-2.6,2.6-2.8,7-0.3,9.6c2.6,2.8,7,2.8,9.7,0.1l12.4-12.4c2.8-2.8,7.3-2.8,10,0L88,50.9z"/>
</svg>
