<?xml version="1.0" encoding="utf-8"?>
<!-- Generator: Adobe Illustrator 18.0.0, SVG Export Plug-In . SVG Version: 6.00 Build 0)  -->
<!DOCTYPE svg PUBLIC "-//W3C//DTD SVG 1.1//EN" "http://www.w3.org/Graphics/SVG/1.1/DTD/svg11.dtd">
<svg version="1.1" id="Layer_1" xmlns="http://www.w3.org/2000/svg" xmlns:xlink="http://www.w3.org/1999/xlink" x="0px" y="0px"
	 width="128px" height="128px" viewBox="0 0 128 128" enable-background="new 0 0 128 128" xml:space="preserve">
<path d="M112.4,53.7c-0.2-24.3-20-43.9-44.3-43.9c-16.6,0-31,9.1-38.6,22.6C13,35.1,0.7,50,1.6,67.3C2.4,82.1,13,94.1,26.8,97.8
	c0.3,0,0.6,0,0.9,0c-0.9-2.3-1.4-4.8-1.4-7.3c0-5.3,2.1-10.3,5.8-14.1c22.1-22.1,22.1-22.1,22.3-22.3c4-3.7,9.5-5.7,14.9-5.3
	c4.9,0.3,9.6,2.5,13.1,6.2c0.9,0.9,15.7,15.7,21.4,21.4c3.8,3.8,5.8,8.7,5.8,14.1c0,3-0.7,5.9-2,8.5c4.2-0.4,19.1-3.1,19.1-23.5
	C126.8,65.7,120.8,57.2,112.4,53.7z"/>
<path d="M59,118.4c0,4.9,4.1,8.9,9,8.9s9-4,9-8.9V97.8v-6.7l6.1,6.6c0,0,0.1,0.1,0.1,0.1c1.7,1.6,4.2,2.5,6.5,2.5
	c2.1,0,4.1-0.7,5.7-2c0.2-0.2,0.4-0.4,0.6-0.6c1.7-1.7,2.6-3.9,2.6-6.3c0-2.4-0.9-4.6-2.6-6.3c0,0-21.3-21.3-21.5-21.5
	c-1.7-1.7-3.7-2.7-6-2.9c-2.5-0.2-4.9,0.7-6.7,2.4c0,0,0,0-22,22c-1.7,1.7-2.6,3.9-2.6,6.3c0,2.4,0.9,4.6,2.6,6.3
	c0.3,0.3,0.6,0.5,0.9,0.8c1.5,1.2,3.4,1.8,5.4,1.8c2.1,0,3.8-0.8,5.3-2.1l7.6-7.1v6.9V118.4z"/>
</svg>
