<?xml version="1.0" encoding="utf-8"?>
<!-- Generator: Adobe Illustrator 18.0.0, SVG Export Plug-In . SVG Version: 6.00 Build 0)  -->
<!DOCTYPE svg PUBLIC "-//W3C//DTD SVG 1.1//EN" "http://www.w3.org/Graphics/SVG/1.1/DTD/svg11.dtd">
<svg version="1.1" id="Layer_1" xmlns="http://www.w3.org/2000/svg" xmlns:xlink="http://www.w3.org/1999/xlink" x="0px" y="0px"
	 width="128px" height="128px" viewBox="0 0 128 128" enable-background="new 0 0 128 128" xml:space="preserve">
<path d="M118.5,67h-10.7c-3.6,0-6.7,2.3-7.5,5.8l-3.9,18.1c-0.8,3.5-3.9,6.1-7.5,6.1H39.1c-3.6,0-6.7-2.7-7.5-6.2l-3.9-17.9
	c-0.8-3.5-3.9-5.9-7.5-5.9H9.5C5.2,67,2,70,2,74.2v44.9c0,4.2,3.2,7.9,7.6,7.9h109.1c4.1,0,7.3-3.7,7.3-7.9V74.2
	C126,70,122.8,67,118.5,67z"/>
<path d="M20.2,40.2c0,0,36.4-36.3,36.4-36.3c4.6-4.6,11.5-4.6,16.1,0L109,40.2c4.6,4.6,4.8,11.8,0.2,16.4c-4.5,4.5-12,4-16.3-0.3
	L76.6,39.9c0,0,0,38.6,0,38.6c0,3.2-1.3,6.3-3.7,8.5c-5.6,5.3-15.4,3.9-19.1-2.9c-0.9-1.7-1.4-3.6-1.4-5.6l0-38.6
	c0,0-16.3,16.3-16.3,16.3c-4.3,4.3-11.8,4.8-16.3,0.3C15.4,52,15.6,44.8,20.2,40.2z"/>
</svg>
