<?xml version="1.0" encoding="utf-8"?>
<!-- Generator: Adobe Illustrator 18.0.0, SVG Export Plug-In . SVG Version: 6.00 Build 0)  -->
<!DOCTYPE svg PUBLIC "-//W3C//DTD SVG 1.1//EN" "http://www.w3.org/Graphics/SVG/1.1/DTD/svg11.dtd">
<svg version="1.1" id="Layer_1" xmlns="http://www.w3.org/2000/svg" xmlns:xlink="http://www.w3.org/1999/xlink" x="0px" y="0px"
	 width="128px" height="128px" viewBox="0 0 128 128" enable-background="new 0 0 128 128" xml:space="preserve">
<path d="M110,107c0,1.7-1.3,3-3,3H20c-1.7,0-3-1.3-3-3V20c0-1.7,1.3-3,3-3h20.7c-1.5-5.5,0-11,3.2-13H17.6C9.6,4,3,10.6,3,18.6v90.8
	c0,8,6.6,14.6,14.6,14.6h91.8c7.5,0,13.6-6.1,13.6-13.6V83.7c-4.7,3.7-8.4,3.6-13,3.8V107z"/>
<path d="M100.1,69.5c2.4,2.4,5.4,3.6,8.8,3.6c0.4,0,0.7,0,1.1-0.1c2.9-0.3,5.6-1.5,7.7-3.6c2.1-2.1,3.4-4.9,3.6-7.8
	c0-0.4,0.1-0.7,0.1-1.1c0-43.7,0-43.8,0-43.8c-0.1-3.4-1.7-6.7-4.3-9c-2.4-2.1-5.4-3.1-8.8-3.1c-0.3,0-42.7,0-42.7,0
	c-0.2,0-0.4,0-0.6,0c-3.1,0.1-6,1.4-8.2,3.6c-2.3,2.3-3.6,5.4-3.6,8.7c0,0.1,0,0.1,0,0.2c0,3.3,1.4,6.5,3.7,8.9c2.4,2.4,5.9,4,9.2,4
	l13.6,0.5L52.4,57.7c-4.9,4.9-4.8,12.9,0.1,17.8c4.9,4.9,12.9,5,17.8,0.1l27.1-27.1l-0.6,12.6C96.9,64.4,97.7,67.1,100.1,69.5z"/>
</svg>
