<?xml version="1.0" encoding="utf-8"?>
<!-- Generator: Adobe Illustrator 18.0.0, SVG Export Plug-In . SVG Version: 6.00 Build 0)  -->
<!DOCTYPE svg PUBLIC "-//W3C//DTD SVG 1.1//EN" "http://www.w3.org/Graphics/SVG/1.1/DTD/svg11.dtd">
<svg version="1.1" id="Capa_1" xmlns="http://www.w3.org/2000/svg" xmlns:xlink="http://www.w3.org/1999/xlink" x="0px" y="0px"
	 width="1000px" height="1000px" viewBox="0 0 1000 1000" enable-background="new 0 0 1000 1000" xml:space="preserve">
<path d="M864.7,980.9c30.7,0,61.4-11.7,84.9-35.1c46.9-46.9,46.9-122.8,0-169.7L427,253.4h230.7c66.3,0,120-53.7,120-120
	c0-66.3-53.7-120-120-120H137.3c-0.1,0-0.2,0-0.2,0c-19.8,0-39.5,5-56.9,14.4c0,0-0.1,0-0.1,0.1C58.5,39.7,40.8,58.1,29.8,80
	c-8.3,16.5-12.5,35-12.5,53.4v520.4c0,66.3,53.7,120,120,120s120-53.7,120-120V423.1l522.6,522.6C803.3,969.2,834,980.9,864.7,980.9
	z"/>
</svg>
