<?xml version="1.0" encoding="utf-8"?>
<!-- Generator: Adobe Illustrator 18.0.0, SVG Export Plug-In . SVG Version: 6.00 Build 0)  -->
<!DOCTYPE svg PUBLIC "-//W3C//DTD SVG 1.1//EN" "http://www.w3.org/Graphics/SVG/1.1/DTD/svg11.dtd">
<svg version="1.1" id="Capa_1" xmlns="http://www.w3.org/2000/svg" xmlns:xlink="http://www.w3.org/1999/xlink" x="0px" y="0px"
	 width="1000px" height="1000px" viewBox="0 0 1000 1000" enable-background="new 0 0 1000 1000" xml:space="preserve">
<path d="M345.4,579.8h-127c-66.3,0-120,53.7-120,120v190c0,49.7,175,90.1,392.6,91.2c217.7-1.1,392.6-41.5,392.6-91.2v-190
	c0-66.3-53.7-120-120-120h-127c-28.6,0-38.5-24.2-33-49.2c6.4-29.3,33.3-47.3,52.3-68.6c45.9-51.5,81-112.8,81-183.6
	C736.9,142.9,627,33,491.5,33c-0.2,0-0.3,0-0.5,0s-0.3,0-0.5,0C355,33,245.1,142.9,245.1,278.4c0,70.8,35.1,132,81,183.6
	c19,21.3,45.8,39.3,52.3,68.6C383.8,555.6,374,579.8,345.4,579.8z"/>
</svg>
