<?xml version="1.0" encoding="utf-8"?>
<!-- Generator: Adobe Illustrator 18.0.0, SVG Export Plug-In . SVG Version: 6.00 Build 0)  -->
<!DOCTYPE svg PUBLIC "-//W3C//DTD SVG 1.1//EN" "http://www.w3.org/Graphics/SVG/1.1/DTD/svg11.dtd">
<svg version="1.1" id="Layer_1" xmlns="http://www.w3.org/2000/svg" xmlns:xlink="http://www.w3.org/1999/xlink" x="0px" y="0px"
	 width="128px" height="128px" viewBox="0 0 128 128" enable-background="new 0 0 128 128" xml:space="preserve">
<path d="M4,66.1c7.9,9.9,31.4,36.3,59.2,36.3c27.8,0,51.3-26.4,59.2-36.3c1.7-2.2,1.7-5.3,0-7.4c-7.9-9.9-31.4-36.3-59.2-36.3
	C35.4,22.3,11.9,48.7,4,58.6C2.2,60.8,2.2,63.9,4,66.1z M63.2,38.3c13.3,0,24,10.7,24,24s-10.7,24-24,24c-13.3,0-24-10.7-24-24
	S49.9,38.3,63.2,38.3z"/>
<circle cx="63.2" cy="62.3" r="12"/>
</svg>
