<?xml version="1.0" encoding="utf-8"?>
<!-- Generator: Adobe Illustrator 18.0.0, SVG Export Plug-In . SVG Version: 6.00 Build 0)  -->
<!DOCTYPE svg PUBLIC "-//W3C//DTD SVG 1.1//EN" "http://www.w3.org/Graphics/SVG/1.1/DTD/svg11.dtd">
<svg version="1.1" id="Capa_1" xmlns="http://www.w3.org/2000/svg" xmlns:xlink="http://www.w3.org/1999/xlink" x="0px" y="0px"
	 width="1000px" height="1000px" viewBox="0 0 1000 1000" enable-background="new 0 0 1000 1000" xml:space="preserve">
<path d="M743.7,124.2c0-59.2-48-107.1-107.1-107.1H363.4c-59.2,0-107.1,48-107.1,107.1v37h487.4V124.2z"/>
<path d="M256.3,531.5c0,59.2,48,107.1,107.1,107.1h273.2c59.2,0,107.1-48,107.1-107.1V241.3H256.3V531.5z"/>
<path d="M320.1,827.2H440v104.6c0,33.1,26.9,60,60,60s60-26.9,60-60V827.2h119.9c68.5,0,132.8-27.3,181.1-76.9
	c47.9-49.2,74.2-114.4,74.2-183.7c0-33.1-26.9-60-60-60s-60,26.9-60,60c0,77.5-60.7,140.6-135.4,140.6H500H320.1
	c-74.6,0-135.4-63.1-135.4-140.6c0-33.1-26.9-60-60-60s-60,26.9-60,60c0,69.3,26.4,134.5,74.2,183.7
	C187.3,799.9,251.6,827.2,320.1,827.2z"/>
</svg>
