<?xml version="1.0" encoding="utf-8"?>
<!-- Generator: Adobe Illustrator 18.0.0, SVG Export Plug-In . SVG Version: 6.00 Build 0)  -->
<!DOCTYPE svg PUBLIC "-//W3C//DTD SVG 1.1//EN" "http://www.w3.org/Graphics/SVG/1.1/DTD/svg11.dtd">
<svg version="1.1" id="Capa_1" xmlns="http://www.w3.org/2000/svg" xmlns:xlink="http://www.w3.org/1999/xlink" x="0px" y="0px"
	 width="1000px" height="1000px" viewBox="0 0 1000 1000" enable-background="new 0 0 1000 1000" xml:space="preserve">
<path d="M66,836.7h799.8c33.1,0,60-26.9,60-60V641.3H638.7c-21.5,0-42.5-4.2-62.2-12.6c-19-8-36.1-19.6-50.7-34.2
	c-14.6-14.6-26.2-31.7-34.2-50.7c-8.3-19.7-12.6-40.7-12.6-62.2v-16.9c0-21.5,4.2-42.5,12.6-62.2c8-19,19.6-36.1,34.2-50.7
	c14.6-14.6,31.7-26.2,50.7-34.2c19.7-8.3,40.7-12.6,62.2-12.6h287.1V169.6c0-33.1-26.9-60-60-60H66c-33.1,0-60,26.9-60,60v607.1
	C6,809.8,32.9,836.7,66,836.7z"/>
<path d="M992,410c0-24.9-20.1-45-45-45h-21.2H638.7c-55.1,0-99.7,44.6-99.7,99.7v16.9c0,55.1,44.6,99.7,99.7,99.7h287.1H947
	c24.9,0,45-20.1,45-45V410z M655,526.1c-29.3,0-53-23.7-53-53s23.7-53,53-53s53,23.7,53,53S684.3,526.1,655,526.1z"/>
</svg>
