<?xml version="1.0" encoding="utf-8"?>
<!-- Generator: Adobe Illustrator 18.0.0, SVG Export Plug-In . SVG Version: 6.00 Build 0)  -->
<!DOCTYPE svg PUBLIC "-//W3C//DTD SVG 1.1//EN" "http://www.w3.org/Graphics/SVG/1.1/DTD/svg11.dtd">
<svg version="1.1" id="Layer_1" xmlns="http://www.w3.org/2000/svg" xmlns:xlink="http://www.w3.org/1999/xlink" x="0px" y="0px"
	 width="128px" height="128px" viewBox="0 0 128 128" enable-background="new 0 0 128 128" xml:space="preserve">
<path d="M73,32c0-3.3-2.7-6-6-6h-6c-3.3,0-6,2.7-6,6v41c0,3.3,2.7,6,6,6h6c3.3,0,6-2.7,6-6V32z"/>
<circle cx="64" cy="94" r="9"/>
<path d="M111.2,55.2c0.5,2.8,0.8,5.8,0.8,8.8c0,26.5-21.5,48-48,48S16,90.5,16,64s21.5-48,48-48c12.6,0,24,4.9,32.6,12.8l9.9-9.9
	C95.4,8.4,80.4,2,64,2C29.8,2,2,29.8,2,64s27.8,62,62,62s62-27.8,62-62c0-7.1-1.2-13.9-3.4-20.2L111.2,55.2z"/>
<path d="M93.4,39l-2.1-2.1c-2.4-2.4-6.2-2.4-8.5,0c-2.4,2.4-2.4,6.2,0,8.5l8.9,8.9c1.1,1.1,2.7,1.8,4.3,1.8s3.1-0.6,4.3-1.8l23-23
	c2.3-2.3,2.5-6.1,0.3-8.5c-2.3-2.5-6.3-2.6-8.7-0.1L98.4,39C97,40.4,94.8,40.4,93.4,39z"/>
</svg>
