<?xml version="1.0" encoding="utf-8"?>
<!-- Generator: Adobe Illustrator 18.0.0, SVG Export Plug-In . SVG Version: 6.00 Build 0)  -->
<!DOCTYPE svg PUBLIC "-//W3C//DTD SVG 1.1//EN" "http://www.w3.org/Graphics/SVG/1.1/DTD/svg11.dtd">
<svg version="1.1" id="Capa_1" xmlns="http://www.w3.org/2000/svg" xmlns:xlink="http://www.w3.org/1999/xlink" x="0px" y="0px"
	 width="128px" height="128px" viewBox="0 0 128 128" enable-background="new 0 0 128 128" xml:space="preserve">
<path d="M91.4,3.8C90.3,2.6,88.8,2,87.2,2H40.8c-1.6,0-3.1,0.6-4.2,1.8L3.8,36.6C2.6,37.7,2,39.2,2,40.8v46.4c0,1.6,0.6,3.1,1.8,4.2
	l32.8,32.8c1.1,1.1,2.7,1.8,4.2,1.8h46.4c1.6,0,3.1-0.6,4.2-1.8l32.8-32.8c1.1-1.1,1.8-2.7,1.8-4.2V40.8c0-1.6-0.6-3.1-1.8-4.2
	L91.4,3.8z M112,81.4c0,1.6-0.6,3.1-1.8,4.2l-24.6,24.6c-1.1,1.1-2.7,1.8-4.2,1.8H46.6c-1.6,0-3.1-0.6-4.2-1.8L17.8,85.6
	C16.6,84.5,16,83,16,81.4V46.6c0-1.6,0.6-3.1,1.8-4.2l24.6-24.6c1.1-1.1,2.7-1.8,4.2-1.8h34.8c1.6,0,3.1,0.6,4.2,1.8l24.6,24.6
	c1.1,1.1,1.8,2.7,1.8,4.2V81.4z"/>
<path d="M67,25h-6c-3.3,0-6,2.7-6,6v41c0,3.3,2.7,6,6,6h6c3.3,0,6-2.7,6-6V31C73,27.7,70.3,25,67,25z"/>
<circle cx="64" cy="93.5" r="9"/>
</svg>
