<?xml version="1.0" encoding="utf-8"?>
<!-- Generator: Adobe Illustrator 18.0.0, SVG Export Plug-In . SVG Version: 6.00 Build 0)  -->
<!DOCTYPE svg PUBLIC "-//W3C//DTD SVG 1.1//EN" "http://www.w3.org/Graphics/SVG/1.1/DTD/svg11.dtd">
<svg version="1.1" id="Layer_1" xmlns="http://www.w3.org/2000/svg" xmlns:xlink="http://www.w3.org/1999/xlink" x="0px" y="0px"
	 width="128px" height="128px" viewBox="0 0 128 128" enable-background="new 0 0 128 128" xml:space="preserve">
<path d="M125,106.5V21.5C125,11.3,116.7,3,106.5,3H21.5C11.3,3,3,11.3,3,21.5v84.9c0,10.2,8.3,18.5,18.5,18.5h84.9
	C116.7,125,125,116.7,125,106.5z M58,23c0-3.3,2.7-6,6-6h41c3.3,0,6,2.7,6,6v2c0,3.3-2.7,6-6,6H64c-3.3,0-6-2.7-6-6V23z M44,17.3
	c3.9,0,7,3.1,7,7c0,3.9-3.1,7-7,7s-7-3.1-7-7C37,20.5,40.1,17.3,44,17.3z M24,17.3c3.9,0,7,3.1,7,7c0,3.9-3.1,7-7,7s-7-3.1-7-7
	C17,20.5,20.1,17.3,24,17.3z M17,106.5V46h94v60.5c0,2.5-2,4.5-4.5,4.5H21.5C19,111,17,109,17,106.5z"/>
</svg>
