<?xml version="1.0" encoding="utf-8"?>
<!-- Generator: Adobe Illustrator 18.0.0, SVG Export Plug-In . SVG Version: 6.00 Build 0)  -->
<!DOCTYPE svg PUBLIC "-//W3C//DTD SVG 1.1//EN" "http://www.w3.org/Graphics/SVG/1.1/DTD/svg11.dtd">
<svg version="1.1" id="Layer_1" xmlns="http://www.w3.org/2000/svg" xmlns:xlink="http://www.w3.org/1999/xlink" x="0px" y="0px"
	 width="128px" height="128px" viewBox="0 0 128 128" enable-background="new 0 0 128 128" xml:space="preserve">
<path d="M23.2,2C19.8,2,17,4.8,17,8.2v111.6c0,3.4,2.8,6.2,6.2,6.2h81.6c3.4,0,6.2-2.8,6.2-6.2V36.4c0-5.5-2.2-10.8-6.1-14.7
	L91.3,8.1C87.4,4.2,82.1,2,76.6,2H46v1c0,3.3-2.4,6-5.7,6h-2C35,9,32,6.3,32,3V2H23.2z M32,57c0-3.3,2.7-6,6-6h2c3.3,0,6,2.7,6,6v2
	c0,3.3-2.7,6-6,6h-2c-3.3,0-6-2.7-6-6V57z M54.6,102H38.4c-3.5,0-6.2-2.9-6-6.4l1.2-20c0.2-3.2,2.8-5.6,6-5.6h13.7
	c3.2,0,5.8,2.5,6,5.6l1.2,20C60.8,99.1,58.1,102,54.6,102z M46,45v-2c0-3.3,2.7-6,6-6h2c3.3,0,6,2.7,6,6v2c0,3.3-2.7,6-6,6h-2
	C48.7,51,46,48.3,46,45z M46,15c0-3.3,2.7-6,6-6h2c3.3,0,6,2.7,6,6v2c0,3.3-2.7,6-6,6h-2c-3.3,0-6-2.7-6-6V15z M38,23h2
	c3.3,0,6,2.7,6,6v2c0,3.3-2.7,6-6,6h-2c-3.3,0-6-2.7-6-6v-2C32,25.7,34.7,23,38,23z"/>
<path d="M53.5,89H39.6c-1.6,0-2.9,1.2-3,2.7l-0.2,2c-0.2,1.8,1.2,3.3,3,3.3h14.1c1.7,0,3.1-1.5,3-3.2l-0.1-2
	C56.3,90.2,55,89,53.5,89z"/>
</svg>
